<?xml  version="1.0" encoding="UTF-8"?>
<!DOCTYPE svg PUBLIC "-//W3C//DTD SVG 1.0//EN" "http://www.w3.org/TR/2001/REC-SVG-20010904/DTD/svg10.dtd" >
<svg xmlns="http://www.w3.org/2000/svg" >
<metadata>
<version>1.0</version>
<id><![CDATA[Geom Slab 703 W01 Bold Italic]]></id>
<vendor>Monotype Imaging Inc.</vendor>
<credits>
<name>Fonts.com WebFonts</name>
<URL>http://webfonts.fonts.com</URL>
<role>Home of the Web fonts</role>
</credits>
<license>
<URL>http://webfonts.fonts.com/Legal</URL>
</license>
<copyright><![CDATA[Copyright 1990-2003 Bitstream Inc. All rights reserved.]]></copyright>
<trademark></trademark>
<licensee>
<name></name>
</licensee>
</metadata>
<defs >
<font horiz-adv-x="1171" id="2a5edb80-4d93-40c3-91ea-47b1b3190422">
<font-face font-family="" panose-1="2 6 7 3 2 2 5 9 4 3" ascent="1972" descent="-483" units-per-em="2048" alphabetic="0">
</font-face>
<missing-glyph horiz-adv-x="541" />

<glyph unicode="&#xA;" horiz-adv-x="0" />
<glyph unicode="&#xD;" horiz-adv-x="1082" />
<glyph unicode=" " horiz-adv-x="541" />
<glyph unicode="!" horiz-adv-x="557" d="M123 461L191 906Q193 923 200 969Q241 1239 262 1475H575Q527 1301 489 1150T420 864L332 461H123ZM195 -25Q115 -25 64 27T12 158Q12 236 64 287T195 338Q271 338 324 286T377 158Q377 82 324 29T195 -25Z"  />
<glyph unicode="&quot;" horiz-adv-x="643" d="M395 1436H559V879H395V1436ZM86 1436H250V879H86V1436Z"  />
<glyph unicode="#" horiz-adv-x="1575" d="M709 852L618 598H874L965 852H709ZM735 1460H926L772 1024H1022L1178 1460H1368L1214 1024H1505L1446 852H1153L1063 600H1372L1311 428H1004L848 -6H657L813 428H561L403 -6H213L369 428H70L131 600H428L518 852H203L264 1024H580L735 1460Z"  />
<glyph unicode="$" horiz-adv-x="1081" d="M563 602L487 176Q493 176 503 175T518 174Q620 174 673 232T727 401Q727 472 689 520T563 602ZM492 862L545 1194H530Q446 1194 398 1148T350 1022Q350 964 383 926T492 862ZM422 -195H301L334 -3Q299 3 266 20T172 88L154 -29H14L70 422H211Q219 315 254 263T365 188L449 635Q281 704 204 795T127 1014Q127 1170 234 1268T514 1366Q529 1366 544 1366T578 1364L602 1487H723L694 1339Q756 1320 790 1299T840 1249L866 1358H1010L938 946H813Q802 1036 767 1090T664 1176L602 823Q787 749 869 648T952 395Q952 202 832 87T510 -29Q502 -29 475 -26Q460 -25 453 -25L422 -195Z"  />
<glyph unicode="%" horiz-adv-x="1817" d="M1384 197Q1454 197 1501 244T1548 362Q1548 433 1501 480T1384 528Q1316 528 1269 480T1221 362Q1221 293 1268 245T1384 197ZM1747 362Q1747 211 1641 106T1384 0Q1235 0 1129 106T1022 362Q1022 514 1127 618T1384 723Q1537 723 1642 619T1747 362ZM1262 1464H1405L553 -29H410L1262 1464ZM432 909Q502 909 549 957T596 1075Q596 1146 549 1193T432 1241Q363 1241 315 1193T266 1075Q266 1006 314 958T432 909ZM793 1075Q793 924 687 819T430 713Q281 713 176 818T70 1075Q70 1227 174 1331T430 1436Q582 1436 687 1332T793 1075Z"  />
<glyph unicode="&amp;" horiz-adv-x="1554" d="M801 332L510 682Q395 613 341 545T287 401Q287 314 351 254T512 193Q580 193 648 225T801 332ZM580 958Q680 1022 725 1078T770 1196Q770 1253 729 1292T631 1331Q568 1331 525 1285T481 1169Q481 1124 504 1074T580 958ZM1407 0H1077L936 168Q831 70 714 21T471 -29Q288 -29 166 92T43 393Q43 529 122 635T379 844Q315 933 289 999T262 1133Q262 1292 367 1397T633 1503Q782 1503 878 1415T975 1188Q975 1076 916 987T719 803L969 502Q1027 571 1067 639T1135 782H1034L1069 971H1511L1477 782H1356Q1298 638 1234 526T1102 340L1219 201H1442L1407 0Z"  />
<glyph unicode="&apos;" horiz-adv-x="334" d="M86 1436H250V879H86V1436Z"  />
<glyph unicode="(" horiz-adv-x="702" d="M268 -358Q198 -192 164 -27T129 315Q129 667 248 969T600 1503L729 1391Q543 1183 446 882T348 213Q348 73 369 -57T434 -313L268 -358Z"  />
<glyph unicode=")" horiz-adv-x="702" d="M389 1503Q460 1338 494 1171T528 827Q528 476 409 175T57 -358L-72 -248Q114 -40 211 261T309 932Q309 1072 288 1201T223 1456L389 1503Z"  />
<glyph unicode="*" horiz-adv-x="1024" d="M455 1475H662L627 1163L905 1313L979 1120L657 1030L895 819L741 684L551 940L362 684L209 819L446 1030L125 1120L199 1313L483 1163L455 1475Z"  />
<glyph unicode="+" horiz-adv-x="1706" d="M768 1221H938V694H1452V528H938V0H768V528H254V694H768V1221Z"  />
<glyph unicode="&#x2c;" horiz-adv-x="541" d="M-80 -195L127 240H383L174 -195H-80Z"  />
<glyph unicode="-" horiz-adv-x="631" d="M-2 371L35 582H543L506 371H-2Z"  />
<glyph unicode="." horiz-adv-x="541" d="M217 -25Q138 -25 86 27T33 158Q33 235 85 286T217 338Q294 338 346 286T399 158Q399 82 346 29T217 -25Z"  />
<glyph unicode="/" horiz-adv-x="682" d="M645 1503L143 -190H4L508 1503H645Z"  />
<glyph unicode="0" horiz-adv-x="1081" d="M692 449L791 989Q795 1012 797 1035T799 1081Q799 1165 753 1208T618 1251Q516 1251 465 1195T387 989L291 449Q286 424 284 400T281 354Q281 271 327 229T465 186Q566 186 616 242T692 449ZM956 537Q897 198 786 85T442 -29Q249 -29 145 69T41 350Q41 388 45 434T59 536L125 901Q185 1239 295 1351T639 1464Q833 1464 936 1367T1040 1087Q1040 1054 1036 1011T1020 901L956 537Z"  />
<glyph unicode="1" horiz-adv-x="1081" d="M733 0H141L174 184H344L532 1251H344L377 1436H811L590 184H766L733 0Z"  />
<glyph unicode="2" horiz-adv-x="1081" d="M891 0H-37L16 223L518 713Q677 867 726 941T776 1077Q776 1160 725 1207T584 1255Q469 1255 409 1170T346 918H113Q122 1191 241 1327T590 1464Q782 1464 899 1363T1016 1096Q1016 977 951 865T731 610L299 211H692L737 397H971L891 0Z"  />
<glyph unicode="3" horiz-adv-x="1081" d="M41 487H274Q273 469 273 453T272 422Q272 295 323 237T483 178Q593 178 653 244T713 432Q713 541 652 599T469 668L496 825Q508 824 520 824T557 823Q669 823 737 892T805 1075Q805 1164 759 1213T627 1262Q527 1262 470 1205T397 1030H170Q185 1235 306 1350T627 1466Q822 1466 935 1365T1049 1090Q1049 955 991 856T827 711Q891 653 924 578T958 418Q958 213 829 92T475 -29Q263 -29 149 79T35 387Q35 410 36 435T41 487Z"  />
<glyph unicode="4" horiz-adv-x="1081" d="M254 516H582L721 1184L254 516ZM297 0L330 184H524L553 340H10L47 547L696 1436H975L813 516H991L961 340H780L754 184H934L901 0H297Z"  />
<glyph unicode="5" horiz-adv-x="1081" d="M25 455L260 454Q259 446 259 437T258 410Q258 296 305 240T449 184Q563 184 634 268T705 492Q705 615 631 675T406 735Q367 735 316 734T203 730L328 1436H1020L983 1225H532L479 940H489Q708 940 828 824T948 498Q948 265 805 119T432 -27Q244 -27 132 80T20 367Q20 371 22 401T25 455Z"  />
<glyph unicode="6" horiz-adv-x="1081" d="M791 1051Q792 1056 792 1063T793 1083Q793 1164 751 1209T635 1255Q529 1255 474 1170T369 805Q418 840 470 857T582 874Q750 874 859 761T969 473Q969 260 833 116T494 -29Q301 -29 186 86T70 393Q70 419 72 447T80 508L160 983Q200 1226 322 1345T651 1464Q822 1464 923 1373T1024 1128Q1024 1107 1024 1092T1022 1061L791 1051ZM719 465Q719 561 669 615T528 670Q431 670 374 595T317 391Q317 293 368 237T510 180Q606 180 662 257T719 465Z"  />
<glyph unicode="7" horiz-adv-x="1081" d="M408 1225L358 979H127L211 1436H1094L1051 1171L469 0H207L819 1225H408Z"  />
<glyph unicode="8" horiz-adv-x="1081" d="M813 690Q877 649 910 581T944 426Q944 226 812 99T469 -29Q266 -29 145 83T23 379Q23 511 92 612T289 766Q233 850 209 914T184 1038Q184 1218 311 1340T627 1462Q807 1462 924 1352T1042 1073Q1042 946 984 849T813 690ZM471 180Q571 180 638 251T705 430Q705 522 648 579T498 637Q392 637 326 564T260 373Q260 294 322 237T471 180ZM602 829Q697 829 760 894T823 1059Q823 1154 768 1210T621 1266Q525 1266 462 1197T399 1022Q399 941 458 885T602 829Z"  />
<glyph unicode="9" horiz-adv-x="1081" d="M369 971Q369 876 419 822T557 768Q655 768 713 844T772 1049Q772 1145 721 1200T580 1255Q483 1255 426 1178T369 971ZM292 389Q292 383 292 375T291 350Q291 270 331 227T446 184Q548 184 603 265T719 641Q690 605 631 584T498 563Q335 563 227 676T119 963Q119 1175 255 1319T596 1464Q787 1464 901 1350T1016 1042Q1016 1008 1014 979T1006 924L922 451Q878 210 757 92T430 -27Q259 -27 158 65T57 313Q57 339 57 355T60 389H292Z"  />
<glyph unicode=":" horiz-adv-x="618" d="M324 571Q244 571 193 623T141 754Q141 832 193 883T324 934Q400 934 453 882T506 754Q506 678 453 625T324 571ZM217 -25Q138 -25 86 27T33 158Q33 235 85 286T217 338Q294 338 346 286T399 158Q399 82 346 29T217 -25Z"  />
<glyph unicode=";" horiz-adv-x="618" d="M-61 -195L143 240H401L193 -195H-61ZM324 571Q244 571 193 623T141 754Q141 832 193 883T324 934Q400 934 453 882T506 754Q506 678 453 625T324 571Z"  />
<glyph unicode="&lt;" horiz-adv-x="1706" d="M1442 1176V991L508 610L1442 229V47L264 530V690L1442 1176Z"  />
<glyph unicode="=" horiz-adv-x="1706" d="M254 487H1452V322H254V487ZM254 901H1452V733H254V901Z"  />
<glyph unicode="&gt;" horiz-adv-x="1706" d="M264 1176L1442 690V530L264 47V229L1198 610L264 991V1176Z"  />
<glyph unicode="?" horiz-adv-x="1075" d="M446 -25Q367 -25 316 27T264 158Q264 236 316 287T446 338Q523 338 576 286T629 158Q629 82 576 29T446 -25ZM354 483L436 881H500Q631 881 697 936T764 1102Q764 1190 711 1245T571 1300Q475 1300 423 1240T366 1065H150Q157 1275 270 1389T582 1503Q764 1503 880 1390T997 1096Q997 934 897 825T639 706L594 483H354Z"  />
<glyph unicode="@" horiz-adv-x="2048" d="M1174 283Q1119 196 1046 156T870 115Q718 115 638 201T557 451Q557 684 695 846T1028 1008Q1117 1008 1177 974T1276 866L1331 973H1485L1337 387Q1336 382 1335 375Q1329 347 1329 338Q1329 300 1355 277T1425 254Q1476 254 1532 284T1638 369Q1710 445 1748 546T1786 762Q1786 1015 1599 1173T1110 1331Q972 1331 854 1300T639 1206Q458 1093 360 915T262 520Q262 208 471 21T1030 -166Q1196 -166 1353 -117T1645 25L1712 -74Q1563 -187 1394 -244T1038 -301Q846 -301 687 -253T406 -111Q251 7 175 164T98 522Q98 687 150 835T303 1108Q450 1287 656 1380T1116 1473Q1282 1473 1431 1428T1686 1300Q1818 1198 1884 1065T1950 764Q1950 602 1885 462T1700 225Q1631 170 1550 142T1382 113Q1276 113 1225 153T1174 279V283ZM1233 707Q1219 791 1172 837T1049 883Q922 883 832 755T741 444Q741 346 786 293T915 240Q1005 240 1078 306T1178 479L1233 707Z"  />
<glyph unicode="A" horiz-adv-x="1507" d="M319 201H471L436 0H-90L-53 201H66L623 1274H459L494 1475H1223L1188 1274H1051L1260 201H1395L1360 0H813L848 201H1008L961 494H465L319 201ZM561 686H926L823 1210L561 686Z"  />
<glyph unicode="B" horiz-adv-x="1184" d="M575 1274L508 889H629Q757 889 826 947T895 1112Q895 1198 846 1236T682 1274H575ZM-70 0L-35 201H121L311 1274H154L190 1475H698Q916 1475 1036 1383T1157 1124Q1157 995 1080 907T864 791Q975 749 1035 664T1096 463Q1096 367 1060 282T956 135Q879 63 770 32T467 0H-70ZM387 201H504Q666 201 746 272T827 487Q827 593 762 641T551 690H473L387 201Z"  />
<glyph unicode="C" horiz-adv-x="1511" d="M1425 326Q1320 150 1162 61T797 -29Q466 -29 261 164T55 664Q55 1031 292 1268T893 1505Q1058 1505 1174 1458T1364 1313L1391 1475H1597L1507 969H1300Q1270 1118 1168 1191T887 1264Q648 1264 487 1098T326 690Q326 475 457 344T805 213Q944 213 1044 268T1196 426L1425 326Z"  />
<glyph unicode="D" horiz-adv-x="1536" d="M733 1274H567L379 201H543Q695 201 782 217T938 270Q1063 338 1140 494T1217 840Q1217 1059 1097 1166T733 1274ZM-78 0L-41 201H115L303 1274H147L182 1475H735Q920 1475 1035 1451T1233 1372Q1355 1294 1419 1157T1483 838Q1483 657 1424 494T1255 213Q1150 98 1000 49T569 0H-78Z"  />
<glyph unicode="E" horiz-adv-x="1200" d="M381 201H829L870 426H1092L1014 0H-76L-39 201H117L305 1274H147L184 1475H1223L1174 1085H954L979 1274H569L506 905H854L819 678H463L381 201Z"  />
<glyph unicode="F" horiz-adv-x="1139" d="M381 201H563L526 0H-76L-39 201H117L305 1274H147L184 1475H1223L1174 1085H954L979 1274H569L506 905H854L819 678H463L381 201Z"  />
<glyph unicode="G" horiz-adv-x="1688" d="M1212 158Q1129 65 1017 19T762 -27Q456 -27 256 169T55 664Q55 1030 292 1267T893 1505Q1056 1505 1171 1459T1364 1315L1391 1475H1597L1507 969H1300Q1270 1118 1168 1191T887 1264Q648 1264 487 1098T326 690Q326 470 460 341T821 211Q959 211 1076 282T1270 485H934L971 686H1667L1632 485H1477L1393 0H1184L1212 158Z"  />
<glyph unicode="H" horiz-adv-x="1548" d="M1055 664H461L379 201H537L500 0H-78L-41 201H115L303 1274H147L182 1475H760L725 1274H569L502 897H1096L1163 1274H1006L1042 1475H1620L1583 1274H1427L1239 201H1395L1360 0H782L817 201H973L1055 664Z"  />
<glyph unicode="I" horiz-adv-x="692" d="M381 201H539L502 0H-76L-39 201H117L305 1274H147L184 1475H762L727 1274H569L381 201Z"  />
<glyph unicode="J" horiz-adv-x="733" d="M422 201Q373 -80 298 -159T70 -238Q37 -238 -8 -234T-111 -221L-57 25Q-22 14 -5 11T25 8Q81 8 109 43T158 201L346 1274H188L225 1475H803L768 1274H610L422 201Z"  />
<glyph unicode="K" horiz-adv-x="1350" d="M381 201H539L502 0H-76L-39 201H117L305 1274H147L184 1475H762L727 1274H569L483 793L985 1274H879L913 1475H1411L1374 1274H1292L756 762L1077 201H1206L1171 0H647L682 201H805L479 768L381 201Z"  />
<glyph unicode="L" horiz-adv-x="1143" d="M381 201H788L831 426H1053L977 0H-76L-39 201H117L305 1274H147L184 1475H762L727 1274H569L381 201Z"  />
<glyph unicode="M" horiz-adv-x="1796" d="M-76 0L-39 201H117L305 1274H150L184 1475H698L868 592L1337 1475H1866L1831 1274H1675L1485 201H1642L1606 0H1053L1087 201H1235L1430 1225L872 201H731L537 1225L369 201H514L479 0H-76Z"  />
<glyph unicode="N" horiz-adv-x="1493" d="M352 201H510L473 0H-76L-39 201H117L305 1274H147L184 1475H649L1001 489L1139 1274H983L1018 1475H1569L1532 1274H1376L1147 -29H928L516 1124L352 201Z"  />
<glyph unicode="O" horiz-adv-x="1667" d="M791 -29Q465 -29 260 165T55 664Q55 862 126 1025T334 1305Q447 1402 585 1452T879 1503Q1205 1503 1407 1312T1610 813Q1610 449 1376 210T791 -29ZM780 215Q1021 215 1182 379T1343 788Q1343 997 1212 1130T877 1264Q647 1264 487 1097T326 690Q326 481 454 348T780 215Z"  />
<glyph unicode="P" horiz-adv-x="1214" d="M568 1274L475 750H569Q748 750 847 826T946 1038Q946 1155 863 1215T621 1276Q599 1276 588 1276T568 1274ZM702 1475Q931 1475 1071 1357T1212 1049Q1212 936 1158 832T1008 655Q929 597 835 572T578 547H438L381 201H547L512 0H-76L-39 201H117L305 1274H147L184 1475H702Z"  />
<glyph unicode="Q" horiz-adv-x="1667" d="M1042 10L1067 -72H1323V-289H938L852 -25Q839 -26 824 -26T780 -27Q460 -27 258 167T55 664Q55 862 126 1025T334 1305Q447 1402 585 1452T879 1503Q1205 1503 1407 1312T1610 813Q1610 519 1461 309T1042 10ZM965 242Q1139 303 1241 451T1343 788Q1343 997 1212 1130T877 1264Q647 1264 487 1097T326 690Q326 483 446 355T774 213L719 381L901 440L965 242Z"  />
<glyph unicode="R" horiz-adv-x="1323" d="M569 1274L496 862H629Q813 862 903 921T993 1102Q993 1195 931 1234T715 1274H569ZM381 201H514L479 0H-76L-39 201H117L305 1274H147L184 1475H766Q1000 1475 1131 1384T1262 1130Q1262 1003 1189 912T961 756Q1032 722 1068 676T1104 569Q1104 547 1102 522T1094 472L1044 201H1190L1153 0H739L815 430Q821 462 824 491T827 545Q827 615 789 643T651 672H461L381 201Z"  />
<glyph unicode="S" horiz-adv-x="1161" d="M217 141L193 0H-35L53 500H254Q276 348 367 258T588 168Q686 168 752 230T819 383Q819 457 779 504T625 600L512 649Q308 737 222 837T135 1081Q135 1269 257 1386T580 1503Q684 1503 766 1470T924 1362L944 1475H1147L1069 1034H867Q857 1154 782 1226T592 1298Q505 1298 452 1249T399 1120Q399 1048 446 996T604 895L770 821Q933 748 1007 652T1081 416Q1081 226 949 99T612 -29Q481 -29 385 12T217 141Z"  />
<glyph unicode="T" horiz-adv-x="1204" d="M637 201H864L829 0H109L145 201H371L561 1274H352L315 1067H102L174 1475H1284L1210 1067H997L1034 1274H825L637 201Z"  />
<glyph unicode="U" horiz-adv-x="1417" d="M1204 551Q1155 266 1002 119T600 -29Q396 -29 273 88T150 401Q150 437 153 475T164 553L295 1274H139L174 1475H754L717 1274H561L430 547Q421 503 417 466T412 410Q412 317 469 262T625 207Q748 207 830 296T940 547L1063 1274H930L967 1475H1497L1462 1274H1329L1204 551Z"  />
<glyph unicode="V" horiz-adv-x="1280" d="M551 -29H397L227 1274H109L143 1475H655L618 1274H473L569 481L983 1274H823L858 1475H1391L1356 1274H1237L551 -29Z"  />
<glyph unicode="W" horiz-adv-x="1972" d="M547 -29H397L227 1274H109L143 1475H621L586 1274H469L561 489L942 1274H823L858 1475H1366L1331 1274H1206L1300 483L1696 1274H1569L1604 1475H2079L2044 1274H1950L1294 -29H1145L1018 961L547 -29Z"  />
<glyph unicode="X" horiz-adv-x="1253" d="M297 201H428L391 0H-106L-72 201H12L489 754L238 1274H119L154 1475H666L629 1274H508L649 944L922 1274H788L825 1475H1327L1290 1274H1206L750 735L999 201H1141L1106 0H567L602 201H735L586 547L297 201Z"  />
<glyph unicode="Y" horiz-adv-x="1323" d="M733 201H922L887 0H242L279 201H467L551 686L233 1274H113L150 1475H680L643 1274H500L709 883L1044 1274H893L928 1475H1427L1393 1274H1298L807 700L733 201Z"  />
<glyph unicode="Z" horiz-adv-x="1067" d="M903 0H-37L-2 201L762 1274H369L334 1090H96L166 1475H1098L1063 1274L295 201H698L737 430H979L903 0Z"  />
<glyph unicode="[" horiz-adv-x="702" d="M291 1475H764L733 1298H492L262 0H504L473 -174H2L291 1475Z"  />
<glyph unicode="\" horiz-adv-x="682" d="M465 -190L84 1503H217L596 -190H465Z"  />
<glyph unicode="]" horiz-adv-x="702" d="M397 -174H-74L-45 0H199L428 1298H184L215 1473H688L397 -174Z"  />
<glyph unicode="^" horiz-adv-x="2048" d="M915 1460H1133L1628 899H1421L1024 1296L625 899H418L915 1460Z"  />
<glyph unicode="_" horiz-adv-x="1024" d="M0 -311H1024V-483H0V-311Z"  />
<glyph unicode="`" horiz-adv-x="1024" d="M698 1087H582L279 1436H492L698 1087Z"  />
<glyph unicode="a" horiz-adv-x="1266" d="M492 164Q632 164 721 265T811 526Q811 642 738 717T551 793Q417 793 327 689T236 428Q236 307 305 236T492 164ZM879 952H1239L1204 756H1077L977 197H1112L1077 0H705L723 78Q656 28 583 3T430 -23Q242 -23 121 103T0 428Q0 659 156 818T545 977Q645 977 725 941T858 836L879 952Z"  />
<glyph unicode="b" horiz-adv-x="1264" d="M678 791Q536 791 447 690T358 428Q358 313 434 239T627 164Q756 164 844 267T932 520Q932 647 865 719T678 791ZM289 0H-72L-37 197H94L285 1278H147L182 1475H555L444 874Q506 926 580 951T741 977Q929 977 1048 852T1167 528Q1167 298 1020 139T655 -20Q549 -20 463 21T319 141L289 0Z"  />
<glyph unicode="c" horiz-adv-x="1075" d="M950 608H786Q761 690 696 735T539 780Q415 780 332 690T248 467Q248 336 320 258T516 180Q588 180 655 210T793 303L911 141Q819 58 716 17T498 -25Q285 -25 146 110T6 455Q6 676 154 826T518 977Q616 977 692 943T813 846L825 952H1006L950 608Z"  />
<glyph unicode="d" horiz-adv-x="1264" d="M938 1278H762L795 1475H1204L981 197H1118L1083 0H711L729 78Q664 29 590 5T434 -20Q246 -20 127 104T8 428Q8 659 156 818T520 977Q628 977 713 936T856 817L938 1278ZM496 162Q634 162 724 264T815 522Q815 644 742 719T549 795Q420 795 332 690T244 434Q244 310 313 236T496 162Z"  />
<glyph unicode="e" horiz-adv-x="1147" d="M827 578Q822 674 757 728T580 782Q467 782 384 727T270 578H827ZM1032 422H246Q251 302 322 236T516 170Q602 170 678 203T813 299L977 201Q897 89 778 32T504 -25Q281 -25 144 101T6 430Q6 663 169 820T578 977Q789 977 921 860T1053 559Q1053 531 1048 498T1032 422Z"  />
<glyph unicode="f" horiz-adv-x="643" d="M205 756H59L94 952H238L281 1196Q307 1344 381 1409T594 1475Q621 1475 654 1473T727 1466L696 1284Q686 1285 665 1287T635 1290Q577 1290 551 1261T506 1128L475 952H618L584 756H442L342 197H485L451 0H-74L-39 197H104L205 756Z"  />
<glyph unicode="g" horiz-adv-x="1253" d="M496 162Q634 162 724 264T815 522Q815 644 742 719T549 795Q420 795 332 690T244 434Q244 310 313 236T496 162ZM877 952H1249L1214 756H1079L958 72Q911 -201 789 -313T430 -426Q316 -426 213 -398T10 -311L63 -117Q158 -173 241 -199T406 -225Q555 -225 634 -151T729 78Q664 29 590 5T434 -20Q246 -20 127 104T8 428Q8 659 156 818T520 977Q628 977 713 936T856 817L877 952Z"  />
<glyph unicode="h" horiz-adv-x="1237" d="M813 621Q816 637 817 651T819 678Q819 724 790 748T705 772Q641 772 568 739T412 637L336 197H469L434 0H-68L-33 197H98L289 1278H156L190 1475H559L449 842Q536 908 628 942T811 977Q931 977 999 917T1067 750Q1067 733 1064 707T1055 643L975 197H1108L1073 0H571L606 197H739L813 621Z"  />
<glyph unicode="i" horiz-adv-x="602" d="M184 1112L227 1360H528L485 1112H184ZM336 197H469L434 0H-68L-33 197H98L199 756H66L100 952H469L336 197Z"  />
<glyph unicode="j" horiz-adv-x="569" d="M166 1112L211 1360H512L467 1112H166ZM289 13Q287 2 284 -16Q239 -283 170 -348Q128 -387 60 -407T-96 -428Q-113 -428 -130 -428T-168 -426L-131 -217H-106Q14 -217 49 -7Q52 10 53 18L182 756H47L82 952H453L289 13Z"  />
<glyph unicode="k" horiz-adv-x="1151" d="M-68 0L-33 197H98L289 1278H156L190 1475H559L393 520L731 756H616L651 952H1139L1104 756H999L616 489L932 197H1024L991 0H553L586 197H670L383 467L336 197H469L434 0H-68Z"  />
<glyph unicode="l" horiz-adv-x="612" d="M336 197H469L434 0H-68L-33 197H98L289 1278H156L190 1475H559L336 197Z"  />
<glyph unicode="m" horiz-adv-x="1792" d="M465 952L440 836Q529 906 615 941T784 977Q879 977 937 935T1012 815Q1102 895 1196 936T1382 977Q1496 977 1558 918T1620 750Q1620 731 1617 704T1608 643L1530 197H1663L1630 0H1137L1167 197H1300L1374 620Q1377 637 1378 651T1380 678Q1380 724 1354 748T1276 772Q1216 772 1147 738T1008 637L932 197H1063L1032 0H537L569 197H700L776 620Q778 632 779 644T780 678Q780 724 754 748T676 772Q617 772 550 738T410 637L332 197H465L430 0H-68L-33 197H98L199 756H66L100 952H465Z"  />
<glyph unicode="n" horiz-adv-x="1237" d="M813 621Q816 637 817 651T819 678Q819 724 790 748T705 772Q641 772 568 739T412 637L336 197H469L434 0H-68L-33 197H98L199 756H66L100 952H469L449 842Q536 908 628 942T811 977Q931 977 999 917T1067 750Q1067 733 1064 707T1055 643L975 197H1108L1073 0H571L606 197H739L813 621Z"  />
<glyph unicode="o" horiz-adv-x="1149" d="M815 514Q815 628 741 705T555 782Q426 782 337 686T248 451Q248 329 323 252T518 174Q643 174 729 272T815 514ZM516 -23Q291 -23 149 110T6 455Q6 676 161 826T549 977Q770 977 912 847T1055 516Q1055 284 902 131T516 -23Z"  />
<glyph unicode="p" horiz-adv-x="1266" d="M686 788Q544 788 455 687T365 424Q365 308 440 234T633 160Q763 160 850 263T938 518Q938 644 871 716T686 788ZM199 756H63L98 952H471L453 874Q520 924 593 949T745 975Q934 975 1054 850T1174 524Q1174 294 1026 135T662 -25Q555 -25 469 16T326 137L262 -229H401L367 -426H-139L-104 -229H25L199 756Z"  />
<glyph unicode="q" horiz-adv-x="1253" d="M496 162Q634 162 724 264T815 522Q815 644 742 719T549 795Q420 795 332 690T244 434Q244 310 313 236T496 162ZM877 952H1249L1214 756H1079L905 -229H1042L1008 -426H496L530 -229H670L729 78Q664 29 590 5T434 -20Q246 -20 127 104T8 428Q8 659 156 818T520 977Q628 977 713 936T856 817L877 952Z"  />
<glyph unicode="r" horiz-adv-x="793" d="M449 836H467Q488 903 532 940T637 977Q705 977 745 936T786 827Q786 750 735 699T606 647Q545 647 508 681T459 784H440L336 197H487L453 0H-68L-33 197H98L199 756H66L100 952H469L449 836Z"  />
<glyph unicode="s" horiz-adv-x="930" d="M18 326H186Q223 235 286 186T432 137Q500 137 543 167T586 244Q586 284 552 314T444 371L262 434Q157 471 105 533T53 684Q53 811 150 894T397 977Q489 977 560 946T672 858L682 952H858L809 662H623Q595 740 538 781T399 823Q337 823 297 796T256 729Q256 689 286 662T403 604L584 541Q691 502 749 433T807 272Q807 138 711 57T453 -25Q340 -25 265 4T150 90L145 0H-37L18 326Z"  />
<glyph unicode="t" horiz-adv-x="610" d="M483 1288L422 952H555L520 756H389L307 292Q304 279 303 265T301 238Q301 199 327 187T449 174L416 0Q350 0 279 -2Q262 -2 258 -2Q140 -2 99 26T57 133Q57 148 60 171T68 222L164 756H37L72 952H197L256 1288H483Z"  />
<glyph unicode="u" horiz-adv-x="1217" d="M334 332Q332 323 331 311T330 274Q330 228 358 204T442 180Q558 180 648 244T754 406L813 756H680L715 952H1083L950 197H1083L1049 0H678L698 111Q611 44 519 10T336 -25Q215 -25 148 35T80 203Q80 219 83 245T92 309L172 756H39L74 952H449L334 332Z"  />
<glyph unicode="v" horiz-adv-x="1042" d="M276 0L90 756H-18L16 952H473L436 756H326L416 305L672 756H559L594 952H1040L1006 756H913L436 0H276Z"  />
<glyph unicode="w" horiz-adv-x="1597" d="M256 0L94 756H-20L14 952H453L418 756H307L395 309L664 756H553L588 952H1026L991 756H881L969 309L1239 756H1130L1165 952H1597L1563 756H1460L987 0H840L745 553L406 0H256Z"  />
<glyph unicode="x" horiz-adv-x="1073" d="M479 350L322 197L289 0H-68L-33 197H63L385 496L211 756H92L127 952H477L451 793L541 647L684 793L713 952H1042L1010 756H913L637 504L844 197H963L928 0H543L575 197L479 350Z"  />
<glyph unicode="y" horiz-adv-x="1057" d="M436 317L696 756H571L606 952H1053L1018 756H924L328 -229H487L451 -426H-72L-39 -229H94L281 76L86 756H-25L10 952H471L436 756H313L436 317Z"  />
<glyph unicode="z" horiz-adv-x="948" d="M588 188L614 330H821L764 0H-59L-25 197L555 762H279L256 629H49L106 952H872L838 752L252 188H588Z"  />
<glyph unicode="{" horiz-adv-x="1024" d="M874 1477V1298Q866 1298 850 1299T827 1300Q718 1300 680 1259T641 1085V844Q641 689 597 624T438 530Q552 503 596 438T641 217V-23Q641 -155 680 -197T829 -240Q836 -240 851 -239T874 -238V-414H811Q709 -414 646 -402T539 -365Q482 -331 459 -269T436 -66V182Q436 326 384 385T205 444Q198 444 184 443T162 442V621Q169 621 183 620T205 618Q331 618 383 677T436 879V1126Q436 1271 459 1332T539 1427Q583 1454 648 1465T829 1477H874Z"  />
<glyph unicode="|" horiz-adv-x="1024" d="M424 1565H602V-483H424V1565Z"  />
<glyph unicode="}" horiz-adv-x="1024" d="M152 1477H197Q312 1477 376 1466T485 1427Q542 1394 565 1332T588 1126V879Q588 735 640 677T819 618Q825 618 840 619T862 621V442Q855 442 841 443T819 444Q693 444 641 385T588 182V-66Q588 -209 565 -270T485 -365Q442 -391 377 -402T197 -414H152V-238Q160 -238 175 -239T197 -240Q306 -240 344 -198T383 -23V217Q383 370 428 436T588 530Q473 558 428 623T383 844V1085Q383 1217 345 1258T199 1300Q192 1300 176 1299T152 1298V1477Z"  />
<glyph unicode="~" horiz-adv-x="1706" d="M1530 784V600Q1427 529 1333 494T1149 459Q1105 459 1057 467T958 494Q933 502 882 520Q670 594 563 594Q481 594 389 556T178 434V621Q284 693 380 728T565 764Q627 764 690 752T859 704Q872 700 901 689Q1065 631 1151 631Q1236 631 1328 668T1530 784Z"  />
<glyph unicode="&#xA0;" horiz-adv-x="1081" />
<glyph unicode="&#xA1;" horiz-adv-x="557" d="M391 1503Q471 1503 523 1452T575 1321Q575 1243 523 1192T391 1141Q315 1141 262 1193T209 1321Q209 1397 262 1450T391 1503ZM463 1018L397 573Q395 559 389 520Q348 246 326 0H12Q57 161 95 314T166 614L256 1018H463Z"  />
<glyph unicode="&#xA2;" horiz-adv-x="1081" d="M385 217L608 786H602Q472 786 382 682T291 430Q291 363 314 310T385 217ZM305 -281H186L307 20Q190 80 129 187T68 438Q68 658 212 816T551 975Q587 975 618 971T678 958L778 1208H893L780 922Q816 897 833 882T864 852L883 961H1012L971 600H822Q812 656 787 692T715 756L487 180Q509 174 530 171T571 168Q636 168 702 196T831 281L938 135Q847 55 750 15T547 -25Q509 -25 425 -18Q414 -17 408 -16L305 -281Z"  />
<glyph unicode="&#xA3;" horiz-adv-x="1081" d="M35 -29L51 223Q146 240 188 305T231 498V641H29L59 827H227V907Q227 1184 345 1324T698 1464Q864 1464 961 1373T1059 1124Q1059 1106 1057 1075T1051 1008H823Q826 1033 827 1054T829 1087Q829 1169 791 1209T676 1249Q567 1249 517 1170T467 918Q467 882 467 863T469 828L770 827L739 641H473V596Q473 479 448 392T371 236Q437 204 488 189T582 174Q674 174 718 225T766 389H997Q998 375 998 363T999 338Q999 168 905 70T649 -29Q564 -29 475 -1T297 84Q242 33 177 6T35 -29Z"  />
<glyph unicode="&#xA4;" horiz-adv-x="1081" d="M1118 1436L1053 1032H832Q828 1143 789 1197T674 1251Q579 1251 518 1180T414 944H874L799 797L383 796Q375 756 370 723T363 662H752L674 514H349Q347 502 347 489T346 449Q346 310 385 248T512 186Q588 186 646 241T727 387H973Q913 182 787 77T475 -29Q287 -29 193 88T98 438Q98 469 98 484T100 514H-31L14 662H115Q116 671 119 692Q129 763 135 797H12L57 944H164Q236 1218 357 1341T680 1464Q757 1464 812 1428T889 1327L907 1436H1118Z"  />
<glyph unicode="&#xA5;" horiz-adv-x="1081" d="M885 973H1106L1079 825H774L659 659H1051L1024 512H631L571 186H756L721 0H137L170 186H334L391 512H-14L10 659H416L346 825H41L66 973H276L152 1247H57L90 1436H563L530 1247H389L563 838L862 1247H715L748 1436H1223L1190 1247H1094L885 973Z"  />
<glyph unicode="&#xA6;" horiz-adv-x="1024" d="M424 408H602V-350H424V408ZM424 1432H602V674H424V1432Z"  />
<glyph unicode="&#xA7;" horiz-adv-x="1024" d="M328 682L514 424Q551 374 581 353T645 332Q685 332 712 357T739 418Q739 442 726 472T684 543L500 801Q463 851 433 872T371 893Q331 893 303 868T274 807Q274 781 287 751T328 682ZM57 -233L121 96H324L301 -49H416Q465 -49 490 -30T516 29Q516 75 427 193L418 205L172 535Q110 620 84 683T57 807Q57 921 132 996T324 1071Q305 1117 296 1155T287 1223Q287 1343 369 1409T604 1475H965L911 1130H709L731 1290H610Q541 1290 518 1275T494 1223Q494 1203 505 1178T541 1118L856 668Q911 590 933 534T956 420Q956 308 883 239T691 166Q714 120 724 83T735 8Q735 -105 653 -169T426 -233H57Z"  />
<glyph unicode="&#xA8;" horiz-adv-x="1024" d="M625 1137L672 1366H877L829 1137H625ZM287 1137L334 1366H539L492 1137H287Z"  />
<glyph unicode="&#xA9;" horiz-adv-x="1706" d="M1206 903H1040Q1030 977 980 1017T850 1057Q751 1057 695 971T639 731Q639 579 696 497T860 414Q940 414 989 457T1049 582H1214Q1207 447 1108 365T854 283Q671 283 564 402T457 725Q457 933 566 1056T858 1180Q1005 1180 1101 1103T1206 903ZM854 1362Q724 1362 611 1316T410 1180Q320 1088 272 972T223 731Q223 605 271 491T410 287Q500 196 614 148T854 100Q979 100 1094 148T1303 289Q1392 377 1438 489T1485 731Q1485 860 1438 974T1303 1178Q1212 1268 1098 1315T854 1362ZM852 1470Q1004 1470 1138 1415T1378 1253Q1483 1148 1538 1015T1593 731Q1593 578 1539 445T1380 211Q1272 104 1136 47T852 -10Q706 -10 572 46T332 209Q225 315 169 449T113 731Q113 876 170 1011T334 1255Q439 1362 569 1416T852 1470Z"  />
<glyph unicode="&#xAA;" horiz-adv-x="950" d="M369 922Q474 922 541 993T608 1176Q608 1257 554 1309T414 1362Q313 1362 245 1289T176 1106Q176 1022 228 972T369 922ZM659 1475H930L903 1335H809L733 944H834L809 807H528L543 862Q493 827 438 809T324 791Q182 791 91 879T0 1106Q0 1268 117 1379T410 1491Q484 1491 544 1466T643 1393L659 1475Z"  />
<glyph unicode="&#xAB;" horiz-adv-x="1081" d="M887 164H678L473 477L750 788H967L684 467L887 164ZM475 164H266L61 477L338 788H555L272 467L475 164Z"  />
<glyph unicode="&#xAC;" horiz-adv-x="1706" d="M254 862H1452V360H1286V696H254V862Z"  />
<glyph unicode="&#xAD;" horiz-adv-x="631" d="M-2 371L35 582H543L506 371H-2Z"  />
<glyph unicode="&#xAE;" horiz-adv-x="1706" d="M729 1047V786H846Q946 786 992 816T1038 913Q1038 982 990 1014T838 1047H729ZM551 1159H870Q1043 1159 1132 1102T1221 934Q1221 843 1173 784T1036 705L1221 330H1022L858 676H729V330H551V1159ZM854 1362Q725 1362 614 1317T414 1182Q322 1088 273 972T223 731Q223 606 270 493T406 289Q496 198 610 149T844 100Q974 100 1090 147T1300 285Q1389 371 1437 483T1485 721Q1485 854 1440 968T1305 1174Q1212 1266 1098 1314T854 1362ZM852 1470Q1005 1470 1140 1414T1382 1249Q1485 1145 1539 1013T1593 731Q1593 578 1538 444T1376 207Q1268 102 1133 46T852 -10Q705 -10 570 47T328 213Q223 319 168 452T113 731Q113 878 170 1015T336 1260Q440 1364 570 1417T852 1470Z"  />
<glyph unicode="&#xAF;" horiz-adv-x="1024" d="M289 1178L322 1325H874L842 1178H289Z"  />
<glyph unicode="&#xB0;" horiz-adv-x="674" d="M338 1350Q261 1350 207 1296T152 1165Q152 1089 206 1034T338 979Q415 979 468 1033T522 1165Q522 1242 469 1296T338 1350ZM338 1460Q459 1460 546 1373T633 1163Q633 1042 546 955T336 868Q213 868 128 953T43 1163Q43 1288 129 1374T338 1460Z"  />
<glyph unicode="&#xB1;" horiz-adv-x="1706" d="M254 182H1452V14H254V182ZM768 1206H938V872H1452V707H938V373H768V707H254V872H768V1206Z"  />
<glyph unicode="&#xB2;" horiz-adv-x="713" d="M588 575H-25L10 709L342 1004Q445 1095 478 1140T512 1223Q512 1272 478 1300T385 1329Q309 1329 269 1277T229 1126H74Q80 1290 159 1372T389 1454Q516 1454 593 1394T670 1233Q670 1161 627 1093T483 942L197 702H457L487 813H641L588 575Z"  />
<glyph unicode="&#xB3;" horiz-adv-x="713" d="M27 868H180V829Q180 753 214 718T319 682Q391 682 431 722T471 836Q471 900 431 935T309 977L328 1071Q335 1070 344 1070T369 1069Q441 1069 485 1110T530 1221Q530 1274 500 1303T414 1333Q348 1333 311 1299T262 1194H113Q122 1316 202 1386T414 1456Q542 1456 617 1395T692 1229Q692 1148 654 1089T547 1001Q589 966 611 921T633 825Q633 704 547 632T313 559Q173 559 98 623T23 807Q23 824 26 862Q26 866 27 868Z"  />
<glyph unicode="&#xB4;" horiz-adv-x="1024" d="M537 1087H408L627 1436H840L537 1087Z"  />
<glyph unicode="&#xB5;" horiz-adv-x="1208" d="M205 1081H434L309 446Q303 417 300 391T297 342Q297 246 343 196T479 145Q601 145 672 233T784 526L893 1081H1118L973 342Q963 293 959 261T954 209Q954 173 969 158T1022 143Q1035 143 1042 143T1056 145L1024 -14Q992 -23 956 -27T874 -31Q800 -31 763 0T725 94V109Q684 42 617 5T471 -33Q390 -33 334 -7T236 76L137 -430H-92L205 1081Z"  />
<glyph unicode="&#xB6;" horiz-adv-x="1024" d="M969 1479V1380H852V0H723V1380H555V0H424V784Q256 790 156 885T55 1130Q55 1288 162 1383T446 1479H969Z"  />
<glyph unicode="&#xB7;" horiz-adv-x="541" d="M268 537Q189 537 138 588T86 719Q86 797 138 848T268 899Q345 899 399 847T453 719Q453 643 399 590T268 537Z"  />
<glyph unicode="&#xB8;" horiz-adv-x="1024" d="M127 -426L170 -315Q236 -338 293 -350T393 -362Q448 -362 480 -338T512 -272Q512 -231 476 -214T350 -197H311L379 0H469L436 -94H444Q556 -94 614 -137T672 -264Q672 -365 606 -422T422 -479Q367 -479 302 -468T127 -426Z"  />
<glyph unicode="&#xB9;" horiz-adv-x="713" d="M483 575H94L115 686H227L352 1327H227L250 1438H537L389 686H506L483 575Z"  />
<glyph unicode="&#xBA;" horiz-adv-x="862" d="M612 1167Q612 1247 557 1300T416 1354Q319 1354 253 1287T186 1122Q186 1037 242 984T389 930Q482 930 547 998T612 1167ZM387 791Q218 791 111 883T4 1124Q4 1279 121 1385T412 1491Q578 1491 684 1400T791 1167Q791 1005 676 898T387 791Z"  />
<glyph unicode="&#xBB;" horiz-adv-x="1081" d="M115 788H324L528 475L252 162H35L317 485L115 788ZM524 788H735L940 475L664 162H446L729 485L524 788Z"  />
<glyph unicode="&#xBC;" horiz-adv-x="1704" d="M1184 289H1391L1479 664L1184 289ZM1210 0L1231 102H1354L1372 190H1030L1053 307L1462 805H1638L1536 289H1649L1628 190H1516L1499 102H1612L1591 0H1210ZM340 -29L1225 1464H1364L479 -29H340ZM461 633H88L109 735H215L334 1333H215L236 1438H510L371 735H481L461 633Z"  />
<glyph unicode="&#xBD;" horiz-adv-x="1704" d="M1585 0H1001L1034 125L1350 399Q1447 481 1480 524T1513 604Q1513 649 1481 675T1393 702Q1320 702 1282 655T1241 514H1096Q1100 665 1175 742T1395 819Q1516 819 1589 763T1663 614Q1663 548 1622 485T1485 342L1212 119H1460L1489 223H1636L1585 0ZM340 -29L1225 1464H1364L479 -29H340ZM461 633H88L109 735H215L334 1333H215L236 1438H510L371 735H481L461 633Z"  />
<glyph unicode="&#xBE;" horiz-adv-x="1704" d="M1184 289H1391L1479 664L1184 289ZM1210 0L1231 102H1354L1372 190H1030L1053 307L1462 805H1638L1536 289H1649L1628 190H1516L1499 102H1612L1591 0H1210ZM340 -29L1225 1464H1364L479 -29H340ZM27 905H172V868Q172 799 204 766T305 733Q374 733 411 770T449 874Q449 935 411 968T295 1008L311 1095Q318 1095 327 1095T350 1094Q421 1094 464 1132T508 1235Q508 1284 479 1311T395 1339Q333 1339 297 1307T250 1210H106Q117 1325 193 1389T395 1454Q518 1454 590 1397T662 1243Q662 1169 625 1113T522 1030Q562 998 583 956T604 866Q604 753 522 685T299 616Q166 616 95 676T23 850Q23 871 23 883T27 905Z"  />
<glyph unicode="&#xBF;" horiz-adv-x="1075" d="M670 1503Q749 1503 800 1452T852 1321Q852 1243 800 1192T670 1141Q593 1141 540 1193T487 1321Q487 1397 540 1450T670 1503ZM762 995L680 598Q662 600 618 600Q487 600 420 544T352 377Q352 289 406 234T547 178Q644 178 696 238T752 414H969Q961 205 848 90T535 -25Q352 -25 236 89T119 383Q119 544 220 653T479 772L522 995H762Z"  />
<glyph unicode="&#xC0;" horiz-adv-x="1507" d="M319 201H471L436 0H-90L-53 201H66L623 1274H459L494 1475H1223L1188 1274H1051L1260 201H1395L1360 0H813L848 201H1008L961 494H465L319 201ZM561 686H926L823 1210L561 686ZM1028 1613H912L609 1962H822L1028 1613Z"  />
<glyph unicode="&#xC1;" horiz-adv-x="1507" d="M319 201H471L436 0H-90L-53 201H66L623 1274H459L494 1475H1223L1188 1274H1051L1260 201H1395L1360 0H813L848 201H1008L961 494H465L319 201ZM561 686H926L823 1210L561 686ZM867 1613H738L957 1962H1170L867 1613Z"  />
<glyph unicode="&#xC2;" horiz-adv-x="1507" d="M319 201H471L436 0H-90L-53 201H66L623 1274H459L494 1475H1223L1188 1274H1051L1260 201H1395L1360 0H813L848 201H1008L961 494H465L319 201ZM561 686H926L823 1210L561 686ZM1168 1613H1051L922 1814L703 1613H574L828 1962H1041L1168 1613Z"  />
<glyph unicode="&#xC3;" horiz-adv-x="1507" d="M319 201H471L436 0H-90L-53 201H66L623 1274H459L494 1475H1223L1188 1274H1051L1260 201H1395L1360 0H813L848 201H1008L961 494H465L319 201ZM561 686H926L823 1210L561 686ZM1215 1906Q1185 1797 1134 1745T1004 1693Q984 1693 964 1696T924 1706L867 1724Q849 1729 834 1731T807 1734Q775 1734 752 1714T717 1654H611Q640 1766 691 1819T822 1872Q840 1872 861 1869T905 1859L963 1841Q978 1836 991 1834T1016 1831Q1049 1831 1071 1850T1106 1906H1215Z"  />
<glyph unicode="&#xC4;" horiz-adv-x="1507" d="M319 201H471L436 0H-90L-53 201H66L623 1274H459L494 1475H1223L1188 1274H1051L1260 201H1395L1360 0H813L848 201H1008L961 494H465L319 201ZM561 686H926L823 1210L561 686ZM955 1663L1002 1892H1207L1159 1663H955ZM617 1663L664 1892H869L822 1663H617Z"  />
<glyph unicode="&#xC5;" horiz-adv-x="1507" d="M776 1751Q776 1713 804 1686T870 1659Q909 1659 936 1686T963 1751Q963 1790 936 1817T870 1845Q832 1845 804 1817T776 1751ZM649 1751Q649 1844 713 1908T868 1972Q960 1972 1025 1908T1090 1751Q1090 1661 1025 1597T868 1532Q776 1532 713 1595T649 1751ZM561 686H926L823 1210L561 686ZM319 201H471L436 0H-90L-53 201H66L623 1274H459L494 1475H1223L1188 1274H1051L1260 201H1395L1360 0H813L848 201H1008L961 494H465L319 201Z"  />
<glyph unicode="&#xC6;" horiz-adv-x="1987" d="M2009 1475L1960 1085H1743L1765 1274H1358L1292 905H1640L1606 678H1249L1169 201H1622L1663 426H1878L1802 0H711L748 201H903L956 494H492L295 201H459L422 0H-127L-90 201H23L752 1274H522L557 1475H2009ZM627 686H991L1102 1274H1028L627 686Z"  />
<glyph unicode="&#xC7;" horiz-adv-x="1511" d="M1425 326Q1320 150 1162 61T797 -29Q466 -29 261 164T55 664Q55 1031 292 1268T893 1505Q1058 1505 1174 1458T1364 1313L1391 1475H1597L1507 969H1300Q1270 1118 1168 1191T887 1264Q648 1264 487 1098T326 690Q326 475 457 344T805 213Q944 213 1044 268T1196 426L1425 326ZM477 -426L520 -315Q586 -338 643 -350T743 -362Q798 -362 830 -338T862 -272Q862 -231 826 -214T700 -197H661L729 0H819L786 -94H794Q906 -94 964 -137T1022 -264Q1022 -365 956 -422T772 -479Q717 -479 652 -468T477 -426Z"  />
<glyph unicode="&#xC8;" horiz-adv-x="1200" d="M381 201H829L870 426H1092L1014 0H-76L-39 201H117L305 1274H147L184 1475H1223L1174 1085H954L979 1274H569L506 905H854L819 678H463L381 201ZM895 1613H779L476 1962H689L895 1613Z"  />
<glyph unicode="&#xC9;" horiz-adv-x="1200" d="M381 201H829L870 426H1092L1014 0H-76L-39 201H117L305 1274H147L184 1475H1223L1174 1085H954L979 1274H569L506 905H854L819 678H463L381 201ZM734 1613H605L824 1962H1037L734 1613Z"  />
<glyph unicode="&#xCA;" horiz-adv-x="1200" d="M381 201H829L870 426H1092L1014 0H-76L-39 201H117L305 1274H147L184 1475H1223L1174 1085H954L979 1274H569L506 905H854L819 678H463L381 201ZM1035 1613H918L789 1814L570 1613H441L695 1962H908L1035 1613Z"  />
<glyph unicode="&#xCB;" horiz-adv-x="1200" d="M381 201H829L870 426H1092L1014 0H-76L-39 201H117L305 1274H147L184 1475H1223L1174 1085H954L979 1274H569L506 905H854L819 678H463L381 201ZM822 1663L869 1892H1074L1026 1663H822ZM484 1663L531 1892H736L689 1663H484Z"  />
<glyph unicode="&#xCC;" horiz-adv-x="692" d="M381 201H539L502 0H-76L-39 201H117L305 1274H147L184 1475H762L727 1274H569L381 201ZM642 1613H526L223 1962H436L642 1613Z"  />
<glyph unicode="&#xCD;" horiz-adv-x="692" d="M381 201H539L502 0H-76L-39 201H117L305 1274H147L184 1475H762L727 1274H569L381 201ZM481 1613H352L571 1962H784L481 1613Z"  />
<glyph unicode="&#xCE;" horiz-adv-x="692" d="M381 201H539L502 0H-76L-39 201H117L305 1274H147L184 1475H762L727 1274H569L381 201ZM782 1613H665L536 1814L317 1613H188L442 1962H655L782 1613Z"  />
<glyph unicode="&#xCF;" horiz-adv-x="692" d="M381 201H539L502 0H-76L-39 201H117L305 1274H147L184 1475H762L727 1274H569L381 201ZM569 1663L616 1892H821L773 1663H569ZM231 1663L278 1892H483L436 1663H231Z"  />
<glyph unicode="&#xD0;" horiz-adv-x="1546" d="M741 1274H578L508 887H864L829 688H471L389 201H553Q705 201 792 217T948 270Q1073 338 1150 494T1227 840Q1227 1059 1107 1166T741 1274ZM-68 0L-33 201H123L209 688H2L37 887H244L311 1274H156L190 1475H745Q930 1475 1044 1451T1241 1372Q1363 1294 1427 1157T1491 838Q1491 657 1432 494T1264 213Q1158 98 1008 49T578 0H-68Z"  />
<glyph unicode="&#xD1;" horiz-adv-x="1493" d="M352 201H510L473 0H-76L-39 201H117L305 1274H147L184 1475H649L1001 489L1139 1274H983L1018 1475H1569L1532 1274H1376L1147 -29H928L516 1124L352 201ZM1227 1906Q1197 1797 1146 1745T1016 1693Q996 1693 976 1696T936 1706L879 1724Q861 1729 846 1731T819 1734Q787 1734 764 1714T729 1654H623Q652 1766 703 1819T834 1872Q852 1872 873 1869T917 1859L975 1841Q990 1836 1003 1834T1028 1831Q1061 1831 1083 1850T1118 1906H1227Z"  />
<glyph unicode="&#xD2;" horiz-adv-x="1667" d="M791 -29Q465 -29 260 165T55 664Q55 862 126 1025T334 1305Q447 1402 585 1452T879 1503Q1205 1503 1407 1312T1610 813Q1610 449 1376 210T791 -29ZM780 215Q1021 215 1182 379T1343 788Q1343 997 1212 1130T877 1264Q647 1264 487 1097T326 690Q326 481 454 348T780 215ZM1081 1613H965L662 1962H875L1081 1613Z"  />
<glyph unicode="&#xD3;" horiz-adv-x="1667" d="M791 -29Q465 -29 260 165T55 664Q55 862 126 1025T334 1305Q447 1402 585 1452T879 1503Q1205 1503 1407 1312T1610 813Q1610 449 1376 210T791 -29ZM780 215Q1021 215 1182 379T1343 788Q1343 997 1212 1130T877 1264Q647 1264 487 1097T326 690Q326 481 454 348T780 215ZM920 1613H791L1010 1962H1223L920 1613Z"  />
<glyph unicode="&#xD4;" horiz-adv-x="1667" d="M791 -29Q465 -29 260 165T55 664Q55 862 126 1025T334 1305Q447 1402 585 1452T879 1503Q1205 1503 1407 1312T1610 813Q1610 449 1376 210T791 -29ZM780 215Q1021 215 1182 379T1343 788Q1343 997 1212 1130T877 1264Q647 1264 487 1097T326 690Q326 481 454 348T780 215ZM1221 1613H1104L975 1814L756 1613H627L881 1962H1094L1221 1613Z"  />
<glyph unicode="&#xD5;" horiz-adv-x="1667" d="M791 -29Q465 -29 260 165T55 664Q55 862 126 1025T334 1305Q447 1402 585 1452T879 1503Q1205 1503 1407 1312T1610 813Q1610 449 1376 210T791 -29ZM780 215Q1021 215 1182 379T1343 788Q1343 997 1212 1130T877 1264Q647 1264 487 1097T326 690Q326 481 454 348T780 215ZM1268 1906Q1238 1797 1187 1745T1057 1693Q1037 1693 1017 1696T977 1706L920 1724Q902 1729 887 1731T860 1734Q828 1734 805 1714T770 1654H664Q693 1766 744 1819T875 1872Q893 1872 914 1869T958 1859L1016 1841Q1031 1836 1044 1834T1069 1831Q1102 1831 1124 1850T1159 1906H1268Z"  />
<glyph unicode="&#xD6;" horiz-adv-x="1667" d="M791 -29Q465 -29 260 165T55 664Q55 862 126 1025T334 1305Q447 1402 585 1452T879 1503Q1205 1503 1407 1312T1610 813Q1610 449 1376 210T791 -29ZM780 215Q1021 215 1182 379T1343 788Q1343 997 1212 1130T877 1264Q647 1264 487 1097T326 690Q326 481 454 348T780 215ZM1008 1663L1055 1892H1260L1212 1663H1008ZM670 1663L717 1892H922L875 1663H670Z"  />
<glyph unicode="&#xD7;" horiz-adv-x="1706" d="M403 1188L862 729L1323 1188L1440 1071L981 610L1440 152L1323 33L862 494L403 33L287 152L745 610L287 1071L403 1188Z"  />
<glyph unicode="&#xD8;" horiz-adv-x="1667" d="M1110 1204Q1061 1234 1003 1249T877 1264Q647 1264 487 1096T326 686Q326 599 352 521T434 367L1110 1204ZM547 274Q603 243 663 228T791 213Q1025 213 1184 379T1343 788Q1343 888 1314 969T1225 1114L547 274ZM1401 1565H1587L1395 1323Q1502 1224 1556 1096T1610 811Q1610 446 1376 209T786 -29Q671 -29 571 -4T383 74L248 -94H61L268 160Q163 260 109 388T55 664Q55 1027 291 1265T881 1503Q993 1503 1092 1480T1276 1409L1401 1565Z"  />
<glyph unicode="&#xD9;" horiz-adv-x="1417" d="M1204 551Q1155 266 1002 119T600 -29Q396 -29 273 88T150 401Q150 437 153 475T164 553L295 1274H139L174 1475H754L717 1274H561L430 547Q421 503 417 466T412 410Q412 317 469 262T625 207Q748 207 830 296T940 547L1063 1274H930L967 1475H1497L1462 1274H1329L1204 551ZM1017 1613H901L598 1962H811L1017 1613Z"  />
<glyph unicode="&#xDA;" horiz-adv-x="1417" d="M1204 551Q1155 266 1002 119T600 -29Q396 -29 273 88T150 401Q150 437 153 475T164 553L295 1274H139L174 1475H754L717 1274H561L430 547Q421 503 417 466T412 410Q412 317 469 262T625 207Q748 207 830 296T940 547L1063 1274H930L967 1475H1497L1462 1274H1329L1204 551ZM856 1613H727L946 1962H1159L856 1613Z"  />
<glyph unicode="&#xDB;" horiz-adv-x="1417" d="M1204 551Q1155 266 1002 119T600 -29Q396 -29 273 88T150 401Q150 437 153 475T164 553L295 1274H139L174 1475H754L717 1274H561L430 547Q421 503 417 466T412 410Q412 317 469 262T625 207Q748 207 830 296T940 547L1063 1274H930L967 1475H1497L1462 1274H1329L1204 551ZM1157 1613H1040L911 1814L692 1613H563L817 1962H1030L1157 1613Z"  />
<glyph unicode="&#xDC;" horiz-adv-x="1417" d="M1204 551Q1155 266 1002 119T600 -29Q396 -29 273 88T150 401Q150 437 153 475T164 553L295 1274H139L174 1475H754L717 1274H561L430 547Q421 503 417 466T412 410Q412 317 469 262T625 207Q748 207 830 296T940 547L1063 1274H930L967 1475H1497L1462 1274H1329L1204 551ZM944 1663L991 1892H1196L1148 1663H944ZM606 1663L653 1892H858L811 1663H606Z"  />
<glyph unicode="&#xDD;" horiz-adv-x="1323" d="M733 201H922L887 0H242L279 201H467L551 686L233 1274H113L150 1475H680L643 1274H500L709 883L1044 1274H893L928 1475H1427L1393 1274H1298L807 700L733 201ZM795 1613H666L885 1962H1098L795 1613Z"  />
<glyph unicode="&#xDE;" horiz-adv-x="1223" d="M513 973L426 500H522Q704 500 804 568T905 760Q905 865 820 920T571 975Q548 975 536 975T513 973ZM758 1475L721 1274H565L545 1153H666Q894 1153 1034 1047T1174 770Q1174 668 1120 574T969 416Q892 364 799 342T541 319H399L381 201H547L512 0H-76L-39 201H117L305 1274H147L184 1475H758Z"  />
<glyph unicode="&#xDF;" horiz-adv-x="1180" d="M-76 0L-41 197H68L219 1053Q259 1282 372 1387T692 1493Q863 1493 967 1394T1071 1133Q1071 999 995 904T791 784Q920 754 988 662T1057 428Q1057 221 948 98T653 -25Q617 -25 581 -19T508 0L541 197Q567 188 590 184T633 180Q720 180 771 259T823 471Q823 578 759 641T586 705H571L604 881H616H631Q721 881 785 956T850 1143Q850 1220 805 1262T676 1305Q581 1305 529 1240T451 1022L305 197H410L375 0H-76Z"  />
<glyph unicode="&#xE0;" horiz-adv-x="1266" d="M492 164Q632 164 721 265T811 526Q811 642 738 717T551 793Q417 793 327 689T236 428Q236 307 305 236T492 164ZM879 952H1239L1204 756H1077L977 197H1112L1077 0H705L723 78Q656 28 583 3T430 -23Q242 -23 121 103T0 428Q0 659 156 818T545 977Q645 977 725 941T858 836L879 952ZM866 1087H750L447 1436H660L866 1087Z"  />
<glyph unicode="&#xE1;" horiz-adv-x="1266" d="M492 164Q632 164 721 265T811 526Q811 642 738 717T551 793Q417 793 327 689T236 428Q236 307 305 236T492 164ZM879 952H1239L1204 756H1077L977 197H1112L1077 0H705L723 78Q656 28 583 3T430 -23Q242 -23 121 103T0 428Q0 659 156 818T545 977Q645 977 725 941T858 836L879 952ZM705 1087H576L795 1436H1008L705 1087Z"  />
<glyph unicode="&#xE2;" horiz-adv-x="1266" d="M492 164Q632 164 721 265T811 526Q811 642 738 717T551 793Q417 793 327 689T236 428Q236 307 305 236T492 164ZM879 952H1239L1204 756H1077L977 197H1112L1077 0H705L723 78Q656 28 583 3T430 -23Q242 -23 121 103T0 428Q0 659 156 818T545 977Q645 977 725 941T858 836L879 952ZM1006 1087H889L760 1288L541 1087H412L666 1436H879L1006 1087Z"  />
<glyph unicode="&#xE3;" horiz-adv-x="1266" d="M492 164Q632 164 721 265T811 526Q811 642 738 717T551 793Q417 793 327 689T236 428Q236 307 305 236T492 164ZM879 952H1239L1204 756H1077L977 197H1112L1077 0H705L723 78Q656 28 583 3T430 -23Q242 -23 121 103T0 428Q0 659 156 818T545 977Q645 977 725 941T858 836L879 952ZM1053 1380Q1023 1271 972 1219T842 1167Q822 1167 802 1170T762 1180L705 1198Q687 1203 672 1205T645 1208Q613 1208 590 1188T555 1128H449Q478 1240 529 1293T660 1346Q678 1346 699 1343T743 1333L801 1315Q816 1310 829 1308T854 1305Q887 1305 909 1324T944 1380H1053Z"  />
<glyph unicode="&#xE4;" horiz-adv-x="1266" d="M492 164Q632 164 721 265T811 526Q811 642 738 717T551 793Q417 793 327 689T236 428Q236 307 305 236T492 164ZM879 952H1239L1204 756H1077L977 197H1112L1077 0H705L723 78Q656 28 583 3T430 -23Q242 -23 121 103T0 428Q0 659 156 818T545 977Q645 977 725 941T858 836L879 952ZM793 1137L840 1366H1045L997 1137H793ZM455 1137L502 1366H707L660 1137H455Z"  />
<glyph unicode="&#xE5;" horiz-adv-x="1266" d="M537 1253Q537 1215 563 1188T629 1161Q667 1161 695 1188T723 1253Q723 1291 695 1318T629 1346Q590 1346 564 1319T537 1253ZM410 1253Q410 1346 473 1409T629 1473Q720 1473 785 1409T850 1253Q850 1163 785 1098T629 1032Q537 1032 474 1096T410 1253ZM492 164Q632 164 721 265T811 526Q811 642 738 717T551 793Q417 793 327 689T236 428Q236 307 305 236T492 164ZM879 952H1239L1204 756H1077L977 197H1112L1077 0H705L723 78Q656 28 583 3T430 -23Q242 -23 121 103T0 428Q0 659 156 818T545 977Q645 977 725 941T858 836L879 952Z"  />
<glyph unicode="&#xE6;" horiz-adv-x="1778" d="M1454 578Q1449 674 1384 728T1208 782Q1096 782 1012 727T897 578H1454ZM1661 422H873Q877 303 949 237T1145 170Q1231 170 1306 203T1440 299L1604 201Q1523 88 1404 32T1130 -25Q1006 -25 912 13T741 131Q679 55 584 15T369 -25Q189 -25 81 60T-27 285Q-27 426 84 516T371 606Q464 606 539 582T672 510Q676 532 678 555T680 602Q680 702 631 748T473 795Q414 795 342 783T186 745L127 913Q215 946 300 961T475 977Q611 977 702 939T840 825Q915 902 1006 939T1212 977Q1418 977 1548 859T1679 559Q1679 527 1675 493T1661 422ZM399 154Q500 154 565 195T631 299Q631 363 577 400T428 438Q324 438 260 394T195 281Q195 220 248 187T399 154Z"  />
<glyph unicode="&#xE7;" horiz-adv-x="1075" d="M950 608H786Q761 690 696 735T539 780Q415 780 332 690T248 467Q248 336 320 258T516 180Q588 180 655 210T793 303L911 141Q819 58 716 17T498 -25Q285 -25 146 110T6 455Q6 676 154 826T518 977Q616 977 692 943T813 846L825 952H1006L950 608ZM193 -426L236 -315Q302 -338 359 -350T459 -362Q514 -362 546 -338T578 -272Q578 -231 542 -214T416 -197H377L445 0H535L502 -94H510Q622 -94 680 -137T738 -264Q738 -365 672 -422T488 -479Q433 -479 368 -468T193 -426Z"  />
<glyph unicode="&#xE8;" horiz-adv-x="1147" d="M827 578Q822 674 757 728T580 782Q467 782 384 727T270 578H827ZM1032 422H246Q251 302 322 236T516 170Q602 170 678 203T813 299L977 201Q897 89 778 32T504 -25Q281 -25 144 101T6 430Q6 663 169 820T578 977Q789 977 921 860T1053 559Q1053 531 1048 498T1032 422ZM774 1087H658L355 1436H568L774 1087Z"  />
<glyph unicode="&#xE9;" horiz-adv-x="1147" d="M827 578Q822 674 757 728T580 782Q467 782 384 727T270 578H827ZM1032 422H246Q251 302 322 236T516 170Q602 170 678 203T813 299L977 201Q897 89 778 32T504 -25Q281 -25 144 101T6 430Q6 663 169 820T578 977Q789 977 921 860T1053 559Q1053 531 1048 498T1032 422ZM613 1087H484L703 1436H916L613 1087Z"  />
<glyph unicode="&#xEA;" horiz-adv-x="1147" d="M827 578Q822 674 757 728T580 782Q467 782 384 727T270 578H827ZM1032 422H246Q251 302 322 236T516 170Q602 170 678 203T813 299L977 201Q897 89 778 32T504 -25Q281 -25 144 101T6 430Q6 663 169 820T578 977Q789 977 921 860T1053 559Q1053 531 1048 498T1032 422ZM914 1087H797L668 1288L449 1087H320L574 1436H787L914 1087Z"  />
<glyph unicode="&#xEB;" horiz-adv-x="1147" d="M827 578Q822 674 757 728T580 782Q467 782 384 727T270 578H827ZM1032 422H246Q251 302 322 236T516 170Q602 170 678 203T813 299L977 201Q897 89 778 32T504 -25Q281 -25 144 101T6 430Q6 663 169 820T578 977Q789 977 921 860T1053 559Q1053 531 1048 498T1032 422ZM701 1137L748 1366H953L905 1137H701ZM363 1137L410 1366H615L568 1137H363Z"  />
<glyph unicode="&#xEC;" horiz-adv-x="602" d="M336 197H469L434 0H-68L-33 197H98L199 756H66L100 952H469L336 197ZM488 1087H372L69 1436H282L488 1087Z"  />
<glyph unicode="&#xED;" horiz-adv-x="602" d="M336 197H469L434 0H-68L-33 197H98L199 756H66L100 952H469L336 197ZM327 1087H198L417 1436H630L327 1087Z"  />
<glyph unicode="&#xEE;" horiz-adv-x="602" d="M336 197H469L434 0H-68L-33 197H98L199 756H66L100 952H469L336 197ZM628 1087H511L382 1288L163 1087H34L288 1436H501L628 1087Z"  />
<glyph unicode="&#xEF;" horiz-adv-x="602" d="M336 197H469L434 0H-68L-33 197H98L199 756H66L100 952H469L336 197ZM415 1137L462 1366H667L619 1137H415ZM77 1137L124 1366H329L282 1137H77Z"  />
<glyph unicode="&#xF0;" horiz-adv-x="1151" d="M659 952L553 1130L248 1067L211 1214L473 1262L352 1475H571L680 1300L934 1346L973 1204L764 1165L932 885Q996 777 1024 688T1053 506Q1053 279 895 128T496 -23Q277 -23 142 102T6 426Q6 657 162 811T549 965Q578 965 605 962T659 952ZM815 514Q815 629 742 705T555 782Q425 782 337 686T248 451Q248 329 323 252T516 174Q641 174 728 272T815 514Z"  />
<glyph unicode="&#xF1;" horiz-adv-x="1237" d="M813 621Q816 637 817 651T819 678Q819 724 790 748T705 772Q641 772 568 739T412 637L336 197H469L434 0H-68L-33 197H98L199 756H66L100 952H469L449 842Q536 908 628 942T811 977Q931 977 999 917T1067 750Q1067 733 1064 707T1055 643L975 197H1108L1073 0H571L606 197H739L813 621ZM991 1380Q961 1271 910 1219T780 1167Q760 1167 740 1170T700 1180L643 1198Q625 1203 610 1205T583 1208Q551 1208 528 1188T493 1128H387Q416 1240 467 1293T598 1346Q616 1346 637 1343T681 1333L739 1315Q754 1310 767 1308T792 1305Q825 1305 847 1324T882 1380H991Z"  />
<glyph unicode="&#xF2;" horiz-adv-x="1149" d="M815 514Q815 628 741 705T555 782Q426 782 337 686T248 451Q248 329 323 252T518 174Q643 174 729 272T815 514ZM516 -23Q291 -23 149 110T6 455Q6 676 161 826T549 977Q770 977 912 847T1055 516Q1055 284 902 131T516 -23ZM766 1087H650L347 1436H560L766 1087Z"  />
<glyph unicode="&#xF3;" horiz-adv-x="1149" d="M815 514Q815 628 741 705T555 782Q426 782 337 686T248 451Q248 329 323 252T518 174Q643 174 729 272T815 514ZM516 -23Q291 -23 149 110T6 455Q6 676 161 826T549 977Q770 977 912 847T1055 516Q1055 284 902 131T516 -23ZM605 1087H476L695 1436H908L605 1087Z"  />
<glyph unicode="&#xF4;" horiz-adv-x="1149" d="M815 514Q815 628 741 705T555 782Q426 782 337 686T248 451Q248 329 323 252T518 174Q643 174 729 272T815 514ZM516 -23Q291 -23 149 110T6 455Q6 676 161 826T549 977Q770 977 912 847T1055 516Q1055 284 902 131T516 -23ZM906 1087H789L660 1288L441 1087H312L566 1436H779L906 1087Z"  />
<glyph unicode="&#xF5;" horiz-adv-x="1149" d="M815 514Q815 628 741 705T555 782Q426 782 337 686T248 451Q248 329 323 252T518 174Q643 174 729 272T815 514ZM516 -23Q291 -23 149 110T6 455Q6 676 161 826T549 977Q770 977 912 847T1055 516Q1055 284 902 131T516 -23ZM953 1380Q923 1271 872 1219T742 1167Q722 1167 702 1170T662 1180L605 1198Q587 1203 572 1205T545 1208Q513 1208 490 1188T455 1128H349Q378 1240 429 1293T560 1346Q578 1346 599 1343T643 1333L701 1315Q716 1310 729 1308T754 1305Q787 1305 809 1324T844 1380H953Z"  />
<glyph unicode="&#xF6;" horiz-adv-x="1149" d="M815 514Q815 628 741 705T555 782Q426 782 337 686T248 451Q248 329 323 252T518 174Q643 174 729 272T815 514ZM516 -23Q291 -23 149 110T6 455Q6 676 161 826T549 977Q770 977 912 847T1055 516Q1055 284 902 131T516 -23ZM693 1137L740 1366H945L897 1137H693ZM355 1137L402 1366H607L560 1137H355Z"  />
<glyph unicode="&#xF7;" horiz-adv-x="1706" d="M854 367Q911 367 951 327T991 229Q991 173 952 134T854 94Q796 94 757 133T717 229Q717 286 757 326T854 367ZM254 694H1452V528H254V694ZM854 1128Q911 1128 951 1087T991 989Q991 933 952 894T854 854Q796 854 757 893T717 989Q717 1046 757 1087T854 1128Z"  />
<glyph unicode="&#xF8;" horiz-adv-x="1149" d="M762 680L383 207Q422 190 454 182T516 174Q642 174 728 272T815 514Q815 556 802 597T762 680ZM301 274L682 750Q651 766 621 774T557 782Q427 782 338 685T248 451Q248 403 261 360T301 274ZM961 1102H1106L907 852Q981 783 1018 699T1055 514Q1055 285 902 131T520 -23Q446 -23 379 -8T254 39L104 -147H-43L156 100Q79 172 43 258T6 455Q6 676 162 826T551 977Q624 977 689 962T811 915L961 1102Z"  />
<glyph unicode="&#xF9;" horiz-adv-x="1217" d="M334 332Q332 323 331 311T330 274Q330 228 358 204T442 180Q558 180 648 244T754 406L813 756H680L715 952H1083L950 197H1083L1049 0H678L698 111Q611 44 519 10T336 -25Q215 -25 148 35T80 203Q80 219 83 245T92 309L172 756H39L74 952H449L334 332ZM766 1087H650L347 1436H560L766 1087Z"  />
<glyph unicode="&#xFA;" horiz-adv-x="1217" d="M334 332Q332 323 331 311T330 274Q330 228 358 204T442 180Q558 180 648 244T754 406L813 756H680L715 952H1083L950 197H1083L1049 0H678L698 111Q611 44 519 10T336 -25Q215 -25 148 35T80 203Q80 219 83 245T92 309L172 756H39L74 952H449L334 332ZM605 1087H476L695 1436H908L605 1087Z"  />
<glyph unicode="&#xFB;" horiz-adv-x="1217" d="M334 332Q332 323 331 311T330 274Q330 228 358 204T442 180Q558 180 648 244T754 406L813 756H680L715 952H1083L950 197H1083L1049 0H678L698 111Q611 44 519 10T336 -25Q215 -25 148 35T80 203Q80 219 83 245T92 309L172 756H39L74 952H449L334 332ZM906 1087H789L660 1288L441 1087H312L566 1436H779L906 1087Z"  />
<glyph unicode="&#xFC;" horiz-adv-x="1217" d="M334 332Q332 323 331 311T330 274Q330 228 358 204T442 180Q558 180 648 244T754 406L813 756H680L715 952H1083L950 197H1083L1049 0H678L698 111Q611 44 519 10T336 -25Q215 -25 148 35T80 203Q80 219 83 245T92 309L172 756H39L74 952H449L334 332ZM693 1137L740 1366H945L897 1137H693ZM355 1137L402 1366H607L560 1137H355Z"  />
<glyph unicode="&#xFD;" horiz-adv-x="1057" d="M436 317L696 756H571L606 952H1053L1018 756H924L328 -229H487L451 -426H-72L-39 -229H94L281 76L86 756H-25L10 952H471L436 756H313L436 317ZM553 1087H424L643 1436H856L553 1087Z"  />
<glyph unicode="&#xFE;" horiz-adv-x="1266" d="M686 788Q544 788 455 687T365 426Q365 309 440 235T633 160Q764 160 851 264T938 526Q938 646 870 717T686 788ZM289 1278H154L186 1475H559L453 874Q519 924 592 948T745 973Q934 973 1054 848T1174 524Q1174 294 1026 135T662 -25Q555 -25 469 16T326 137L262 -229H401L367 -426H-139L-104 -229H25L289 1278Z"  />
<glyph unicode="&#xFF;" horiz-adv-x="1057" d="M436 317L696 756H571L606 952H1053L1018 756H924L328 -229H487L451 -426H-72L-39 -229H94L281 76L86 756H-25L10 952H471L436 756H313L436 317ZM641 1137L688 1366H893L845 1137H641ZM303 1137L350 1366H555L508 1137H303Z"  />
<glyph unicode="&#x131;" horiz-adv-x="602" d="M336 197H469L434 0H-68L-33 197H98L199 756H66L100 952H469L336 197Z"  />
<glyph unicode="&#x152;" horiz-adv-x="1999" d="M1040 927Q1041 933 1044 946Q1069 1078 1069 1137Q1069 1220 1021 1256T862 1292Q612 1292 464 1117T315 651Q315 442 415 324T690 205Q821 205 875 256T965 504L1040 927ZM1970 1085H1753L1776 1274H1368L1305 905H1651L1618 678H1262L1180 201H1628L1669 426H1888L1812 0H999Q657 0 531 21T324 92Q198 169 126 313T53 631Q53 894 163 1094T473 1395Q555 1436 671 1455T965 1475H1237H2019L1970 1085Z"  />
<glyph unicode="&#x153;" horiz-adv-x="1935" d="M1765 201Q1684 88 1565 32T1284 -25Q1152 -25 1061 15T903 143Q820 59 726 18T518 -23Q288 -23 147 109T6 455Q6 676 162 826T551 977Q680 977 775 931T942 788Q1021 885 1125 931T1364 977Q1577 977 1709 860T1841 559Q1841 531 1836 498T1821 422H1035Q1039 303 1110 237T1305 170Q1391 170 1467 203T1602 299L1765 201ZM815 500Q815 626 743 704T555 782Q426 782 337 686T248 451Q248 329 323 252T518 174Q639 174 727 269T815 500ZM1616 578Q1611 673 1545 727T1368 782Q1256 782 1172 727T1059 578H1616Z"  />
<glyph unicode="&#x160;" horiz-adv-x="1161" d="M217 141L193 0H-35L53 500H254Q276 348 367 258T588 168Q686 168 752 230T819 383Q819 457 779 504T625 600L512 649Q308 737 222 837T135 1081Q135 1269 257 1386T580 1503Q684 1503 766 1470T924 1362L944 1475H1147L1069 1034H867Q857 1154 782 1226T592 1298Q505 1298 452 1249T399 1120Q399 1048 446 996T604 895L770 821Q933 748 1007 652T1081 416Q1081 226 949 99T612 -29Q481 -29 385 12T217 141ZM489 1962H606L735 1761L954 1962H1083L829 1613H616L489 1962Z"  />
<glyph unicode="&#x161;" horiz-adv-x="930" d="M18 326H186Q223 235 286 186T432 137Q500 137 543 167T586 244Q586 284 552 314T444 371L262 434Q157 471 105 533T53 684Q53 811 150 894T397 977Q489 977 560 946T672 858L682 952H858L809 662H623Q595 740 538 781T399 823Q337 823 297 796T256 729Q256 689 286 662T403 604L584 541Q691 502 749 433T807 272Q807 138 711 57T453 -25Q340 -25 265 4T150 90L145 0H-37L18 326ZM267 1436H384L513 1235L732 1436H861L607 1087H394L267 1436Z"  />
<glyph unicode="&#x178;" horiz-adv-x="1323" d="M733 201H922L887 0H242L279 201H467L551 686L233 1274H113L150 1475H680L643 1274H500L709 883L1044 1274H893L928 1475H1427L1393 1274H1298L807 700L733 201ZM883 1663L930 1892H1135L1087 1663H883ZM545 1663L592 1892H797L750 1663H545Z"  />
<glyph unicode="&#x17D;" horiz-adv-x="1067" d="M903 0H-37L-2 201L762 1274H369L334 1090H96L166 1475H1098L1063 1274L295 201H698L737 430H979L903 0ZM442 1962H559L688 1761L907 1962H1036L782 1613H569L442 1962Z"  />
<glyph unicode="&#x17E;" horiz-adv-x="948" d="M588 188L614 330H821L764 0H-59L-25 197L555 762H279L256 629H49L106 952H872L838 752L252 188H588ZM277 1436H394L523 1235L742 1436H871L617 1087H404L277 1436Z"  />
<glyph unicode="&#x192;" horiz-adv-x="1081" d="M-14 -344L18 -168Q55 -189 87 -200T147 -211Q227 -211 267 -145T350 197L424 678H203V864H451L475 1001Q519 1255 606 1359T852 1464Q899 1464 943 1451T1024 1411L987 1237Q966 1255 940 1264T883 1274Q801 1274 756 1206T688 979L672 864H879V678H645L575 213Q523 -135 437 -264T190 -393Q141 -393 89 -381T-14 -344Z"  />
<glyph unicode="&#x2C6;" horiz-adv-x="1024" d="M838 1087H721L592 1288L373 1087H244L498 1436H711L838 1087Z"  />
<glyph unicode="&#x2C7;" horiz-adv-x="1024" d="M313 1436H430L559 1235L778 1436H907L653 1087H440L313 1436Z"  />
<glyph unicode="&#x2DC;" horiz-adv-x="1024" d="M885 1380Q855 1271 804 1219T674 1167Q654 1167 634 1170T594 1180L537 1198Q519 1203 504 1205T477 1208Q445 1208 422 1188T387 1128H281Q310 1240 361 1293T492 1346Q510 1346 531 1343T575 1333L633 1315Q648 1310 661 1308T686 1305Q719 1305 741 1324T776 1380H885Z"  />
<glyph unicode="&#x2013;" horiz-adv-x="1024" d="M979 555L952 397H-45L-16 555H979Z"  />
<glyph unicode="&#x2014;" horiz-adv-x="2048" d="M2034 397H-14L14 555H2062L2034 397Z"  />
<glyph unicode="&#x2018;" horiz-adv-x="541" d="M119 1049L317 1475H575L367 1049H119Z"  />
<glyph unicode="&#x2019;" horiz-adv-x="541" d="M119 1049L317 1475H575L367 1049H119Z"  />
<glyph unicode="&#x201A;" horiz-adv-x="541" d="M-76 -186L123 240H379L172 -186H-76Z"  />
<glyph unicode="&#x201C;" horiz-adv-x="1001" d="M580 1049L778 1475H1036L827 1049H580ZM119 1049L317 1475H575L367 1049H119Z"  />
<glyph unicode="&#x201D;" horiz-adv-x="1001" d="M580 1049L778 1475H1036L827 1049H580ZM119 1049L317 1475H575L367 1049H119Z"  />
<glyph unicode="&#x201E;" horiz-adv-x="1001" d="M383 -186L584 240H840L633 -186H383ZM-76 -186L123 240H379L172 -186H-76Z"  />
<glyph unicode="&#x2020;" horiz-adv-x="1024" d="M244 -242L428 797H254L236 694H57L125 1051H303L285 950H457L514 1286H399L432 1475H852L819 1286H702L645 950H817L834 1051H1012L946 694H768L786 797H614L432 -242H244Z"  />
<glyph unicode="&#x2021;" horiz-adv-x="1024" d="M471 891H293L274 788H96L162 1149H340L322 1047H494L535 1286H420L453 1475H870L838 1286H723L680 1047H850L868 1149H1047L981 788H803L821 891H649L553 342H725L743 444H922L856 84H678L696 186H524L483 -53H598L565 -242H147L180 -53H295L340 186H168L150 84H-29L37 444H215L197 342H369L471 891Z"  />
<glyph unicode="&#x2022;" horiz-adv-x="1208" d="M307 762Q307 885 394 971T604 1057Q726 1057 812 971T899 762Q899 640 812 553T602 465Q479 465 393 552T307 762Z"  />
<glyph unicode="&#x2026;" horiz-adv-x="2048" d="M289 -25Q210 -25 158 27T105 158Q105 235 157 286T289 338Q366 338 418 286T471 158Q471 82 418 29T289 -25ZM971 -25Q892 -25 840 27T787 158Q787 235 839 286T971 338Q1048 338 1100 286T1153 158Q1153 82 1100 29T971 -25ZM1655 -25Q1576 -25 1524 27T1471 158Q1471 235 1523 286T1655 338Q1732 338 1784 286T1837 158Q1837 82 1784 29T1655 -25Z"  />
<glyph unicode="&#x2030;" horiz-adv-x="2664" d="M2232 197Q2302 197 2349 244T2396 362Q2396 433 2349 480T2232 528Q2164 528 2116 480T2068 362Q2068 293 2116 245T2232 197ZM2595 362Q2595 211 2489 106T2232 0Q2084 0 1978 106T1872 362Q1872 514 1977 618T2232 723Q2384 723 2489 619T2595 362ZM1384 197Q1454 197 1501 244T1548 362Q1548 433 1501 480T1384 528Q1316 528 1269 480T1221 362Q1221 293 1268 245T1384 197ZM1747 362Q1747 211 1641 106T1384 0Q1236 0 1130 106T1024 362Q1024 514 1129 618T1384 723Q1537 723 1642 619T1747 362ZM1262 1464H1405L553 -29H410L1262 1464ZM432 909Q502 909 549 957T596 1075Q596 1146 549 1193T432 1241Q363 1241 315 1193T266 1075Q266 1006 314 958T432 909ZM793 1075Q793 924 687 819T430 713Q281 713 176 818T70 1075Q70 1227 174 1331T430 1436Q582 1436 687 1332T793 1075Z"  />
<glyph unicode="&#x2039;" horiz-adv-x="668" d="M475 164H266L61 477L338 788H555L272 467L475 164Z"  />
<glyph unicode="&#x203A;" horiz-adv-x="668" d="M115 788H324L528 475L252 162H35L317 485L115 788Z"  />
<glyph unicode="&#x2122;" horiz-adv-x="1706" d="M809 1460H979L1120 1100L1253 1460H1423V918H1309V1346L1149 918H1090L924 1346V918H809V1460ZM225 1460H692V1366H524V918H395V1366H225V1460Z"  />

</font>
</defs>
</svg>
