<?xml  version="1.0" encoding="UTF-8"?>
<!DOCTYPE svg PUBLIC "-//W3C//DTD SVG 1.0//EN" "http://www.w3.org/TR/2001/REC-SVG-20010904/DTD/svg10.dtd" >
<svg xmlns="http://www.w3.org/2000/svg" >
<metadata>
<version>1.0</version>
<id><![CDATA[Geom Slab 703 W01 Extra Bold]]></id>
<vendor>Monotype Imaging Inc.</vendor>
<credits>
<name>Fonts.com WebFonts</name>
<URL>http://webfonts.fonts.com</URL>
<role>Home of the Web fonts</role>
</credits>
<license>
<URL>http://webfonts.fonts.com/Legal</URL>
</license>
<copyright><![CDATA[Copyright 1990-2003 Bitstream Inc. All rights reserved.]]></copyright>
<trademark></trademark>
<licensee>
<name></name>
</licensee>
</metadata>
<defs >
<font horiz-adv-x="1244" id="57589e19-0f90-4725-8dee-3fef8f3003e1">
<font-face font-family="" panose-1="2 6 8 4 2 2 5 2 4 4" ascent="1972" descent="-485" units-per-em="2048" alphabetic="0">
</font-face>
<missing-glyph horiz-adv-x="569" />

<glyph unicode="&#xA;" horiz-adv-x="0" />
<glyph unicode="&#xD;" horiz-adv-x="1138" />
<glyph unicode=" " horiz-adv-x="569" />
<glyph unicode="!" horiz-adv-x="735" d="M172 1475H561L528 524H205L172 1475ZM367 -25Q279 -25 220 34T160 180Q160 267 219 326T367 385Q455 385 514 327T573 180Q573 92 514 34T367 -25Z"  />
<glyph unicode="&quot;" horiz-adv-x="713" d="M416 1438H639V877H416V1438ZM76 1438H295V877H76V1438Z"  />
<glyph unicode="#" horiz-adv-x="1575" d="M707 842L625 610H870L952 842H707ZM684 1466H934L795 1073H1030L1171 1466H1421L1282 1073H1552L1466 842H1198L1118 612H1395L1311 381H1036L895 -12H645L784 381H549L408 -12H158L297 381H23L109 612H379L461 842H178L264 1073H543L684 1466Z"  />
<glyph unicode="$" horiz-adv-x="1139" d="M631 234Q707 237 755 278T803 381Q803 438 758 475T631 522V234ZM487 877V1143Q422 1135 386 1099T350 1006Q350 948 384 916T487 877ZM315 0H86V426H332Q365 357 404 315T487 258V545Q276 585 169 688T61 956Q61 1137 178 1251T487 1372V1501H631V1364Q689 1351 735 1323T815 1253L811 1354H1042V969H797Q768 1030 728 1070T631 1133V860Q873 823 994 713T1116 418Q1116 218 984 96T631 -31V-197H487V-10Q435 2 391 35T315 119V0Z"  />
<glyph unicode="%" horiz-adv-x="1849" d="M1806 379Q1806 218 1696 109T1425 0Q1267 0 1157 110T1047 379Q1047 538 1157 649T1425 760Q1585 760 1695 650T1806 379ZM1427 256Q1478 256 1513 291T1548 379Q1548 431 1513 466T1427 502Q1376 502 1341 467T1305 379Q1305 328 1341 292T1427 256ZM1290 1464H1470L559 -29H379L1290 1464ZM803 1057Q803 896 693 787T422 678Q263 678 152 788T41 1057Q41 1216 152 1326T422 1436Q582 1436 692 1326T803 1057ZM422 934Q473 934 509 969T545 1057Q545 1108 509 1144T422 1180Q371 1180 336 1145T301 1057Q301 1006 336 970T422 934Z"  />
<glyph unicode="&amp;" horiz-adv-x="1522" d="M539 999Q597 1034 626 1073T655 1157Q655 1205 624 1235T545 1266Q498 1266 467 1236T436 1159Q436 1115 461 1076T539 999ZM758 332L467 657Q420 612 398 568T375 477Q375 389 436 332T592 274Q633 274 674 288T758 332ZM952 121Q852 43 749 7T524 -29Q312 -29 182 98T51 432Q51 560 111 661T299 850Q229 921 197 994T164 1153Q164 1312 268 1407T547 1503Q720 1503 824 1410T928 1161Q928 1060 874 977T711 825L973 516Q1018 564 1040 615T1063 721V729H991V995H1452V729H1376Q1351 604 1300 505T1165 319L1192 295H1452V0H1055L952 121Z"  />
<glyph unicode="&apos;" horiz-adv-x="371" d="M76 1438H295V877H76V1438Z"  />
<glyph unicode="(" horiz-adv-x="868" d="M502 -358Q342 -145 264 85T186 571Q186 830 264 1061T502 1503L772 1352Q651 1155 595 967T539 571Q539 365 595 177T772 -207L502 -358Z"  />
<glyph unicode=")" horiz-adv-x="868" d="M365 -358L96 -207Q216 -13 272 175T328 571Q328 780 272 968T96 1352L365 1503Q524 1291 603 1060T682 571Q682 316 604 86T365 -358Z"  />
<glyph unicode="*" horiz-adv-x="1139" d="M463 1475H686L647 1174L922 1319L997 1112L684 1028L920 821L752 680L567 930L387 676L219 823L455 1028L139 1112L217 1319L496 1174L463 1475Z"  />
<glyph unicode="+" horiz-adv-x="1706" d="M735 1221H973V727H1452V496H973V0H735V496H254V727H735V1221Z"  />
<glyph unicode="&#x2c;" horiz-adv-x="569" d="M340 -219H27L174 289H496L340 -219Z"  />
<glyph unicode="-" horiz-adv-x="635" d="M45 346V674H592V346H45Z"  />
<glyph unicode="." horiz-adv-x="569" d="M285 -25Q197 -25 138 34T78 180Q78 267 137 326T285 385Q373 385 432 327T492 180Q492 92 433 34T285 -25Z"  />
<glyph unicode="/" horiz-adv-x="788" d="M53 -190L580 1503H786L258 -190H53Z"  />
<glyph unicode="0" horiz-adv-x="1139" d="M696 549V887Q696 1017 666 1070T567 1124Q500 1124 470 1070T440 887V549Q440 419 469 366T567 313Q637 313 666 366T696 549ZM90 537V901Q90 1050 106 1124T160 1257Q226 1359 329 1411T567 1464Q703 1464 808 1412T979 1257Q1016 1200 1032 1128T1049 901V537Q1049 383 1033 311T979 180Q912 78 807 25T567 -29Q434 -29 331 24T160 180Q122 238 106 313T90 537Z"  />
<glyph unicode="1" horiz-adv-x="1139" d="M244 0V268H393V1169H244V1436H745V268H899V0H244Z"  />
<glyph unicode="2" horiz-adv-x="1139" d="M74 0V301L436 668Q589 822 641 899T694 1036Q694 1090 661 1122T571 1155Q503 1155 465 1113T426 995V973H76V997Q76 1216 207 1340T569 1464Q786 1464 914 1352T1042 1051Q1042 887 917 720T473 307H774V395H1063V0H74Z"  />
<glyph unicode="3" horiz-adv-x="1139" d="M63 481H401V467Q401 376 440 330T557 283Q625 283 668 329T711 449Q711 533 650 570T451 608H430V870H451Q587 870 639 905T692 1022Q692 1082 653 1118T549 1155Q476 1155 435 1113T393 995V975H80V985Q80 1215 207 1339T569 1464Q782 1464 910 1354T1038 1065Q1038 949 970 870T774 758Q913 742 992 650T1071 410Q1071 213 932 92T563 -29Q330 -29 196 95T61 436Q61 443 62 458T63 481Z"  />
<glyph unicode="4" horiz-adv-x="1139" d="M406 0V240H612V381H43V575L483 1436H944V623H1073V381H944V240H1073V0H406ZM627 1216L332 623H612V922Q612 987 616 1062T627 1216Z"  />
<glyph unicode="5" horiz-adv-x="1139" d="M98 487H436V461Q436 361 465 321T561 281Q619 281 649 322T680 440V557Q680 623 643 650T510 678H137V1436H958V1128H438V946Q498 971 560 983T688 995Q865 995 947 905T1030 623V424Q1030 193 913 82T551 -29Q306 -29 201 66T96 383Q96 405 96 431T98 487Z"  />
<glyph unicode="6" horiz-adv-x="1139" d="M698 440V551Q698 635 669 675T578 715Q515 715 485 675T455 551V440Q455 357 485 317T578 276Q640 276 669 316T698 440ZM1032 1059H694Q688 1111 658 1141T584 1171Q512 1171 484 1118T455 918V842Q509 902 579 933T731 965Q889 965 970 881T1051 631V410Q1051 196 932 84T586 -29Q437 -29 336 16T172 156Q138 208 124 287T109 510V928Q109 1071 123 1149T172 1280Q234 1374 335 1419T586 1464Q795 1464 913 1364T1032 1085V1059Z"  />
<glyph unicode="7" horiz-adv-x="1139" d="M203 0L725 1128H414V934H121V1436H1059V1075L588 0H203Z"  />
<glyph unicode="8" horiz-adv-x="1139" d="M322 768Q213 809 161 885T109 1077Q109 1253 234 1359T569 1466Q779 1466 905 1359T1032 1077Q1032 961 980 885T819 768Q931 742 997 651T1063 430Q1063 216 931 94T569 -29Q341 -29 210 94T78 430Q78 559 143 650T322 768ZM569 285Q638 285 686 334T735 453Q735 523 688 570T569 618Q500 618 453 571T406 453Q406 383 453 334T569 285ZM569 872Q634 872 677 915T721 1024Q721 1089 678 1132T569 1176Q505 1176 462 1133T418 1024Q418 959 461 916T569 872Z"  />
<glyph unicode="9" horiz-adv-x="1139" d="M438 997V885Q438 801 468 761T561 721Q624 721 654 761T684 885V997Q684 1081 654 1121T561 1161Q499 1161 469 1121T438 997ZM104 377H442Q448 325 478 296T553 266Q624 266 653 319T682 520V594Q627 533 558 502T408 471Q249 471 169 556T88 807V1028Q88 1241 206 1352T551 1464Q700 1464 801 1419T965 1280Q999 1226 1014 1146T1030 928V510Q1030 371 1015 290T965 156Q902 61 801 16T551 -29Q341 -29 223 72T104 350V377Z"  />
<glyph unicode=":" horiz-adv-x="707" d="M352 586Q265 586 206 644T147 791Q147 878 206 936T352 995Q441 995 500 937T559 791Q559 703 500 645T352 586ZM352 -25Q265 -25 206 34T147 180Q147 268 206 326T352 385Q441 385 500 327T559 180Q559 92 500 34T352 -25Z"  />
<glyph unicode=";" horiz-adv-x="707" d="M369 586Q281 586 222 644T162 791Q162 878 221 936T369 995Q457 995 516 937T575 791Q575 703 516 645T369 586ZM360 -219H45L195 289H516L360 -219Z"  />
<glyph unicode="&lt;" horiz-adv-x="1706" d="M1442 1214V961L588 610L1442 262V8L264 494V727L1442 1214Z"  />
<glyph unicode="=" horiz-adv-x="1706" d="M254 502H1452V272H254V502ZM254 950H1452V719H254V950Z"  />
<glyph unicode="&gt;" horiz-adv-x="1706" d="M264 1214L1442 727V494L264 8V262L1118 610L264 961V1214Z"  />
<glyph unicode="?" horiz-adv-x="1233" d="M403 524V883Q409 883 428 882T461 881Q601 881 665 923T729 1057Q729 1122 697 1156T602 1190Q537 1190 499 1149T459 1039L102 1038Q100 1050 99 1061T98 1081Q98 1165 146 1248T281 1397Q350 1449 435 1476T614 1503Q833 1503 968 1377T1104 1049Q1104 866 1007 752T743 625V524H403ZM569 -25Q482 -25 424 34T365 180Q365 268 423 326T569 385Q658 385 717 327T776 180Q776 92 717 34T569 -25Z"  />
<glyph unicode="@" horiz-adv-x="2048" d="M1161 262Q1105 180 1035 142T866 104Q703 104 619 191T535 449Q535 690 676 853T1026 1016Q1103 1016 1160 986T1255 893L1307 985H1513L1360 375Q1360 373 1359 369Q1356 351 1356 342Q1356 312 1372 298T1419 283Q1556 283 1659 426T1763 762Q1763 1001 1584 1152T1116 1303Q968 1303 842 1267T612 1157Q457 1047 373 883T289 526Q289 224 492 45T1036 -135Q1200 -135 1352 -88T1632 51L1729 -84Q1573 -201 1400 -259T1036 -317Q844 -317 682 -268T393 -123Q236 -1 159 158T82 520Q82 689 135 840T291 1118Q439 1301 650 1396T1118 1491Q1288 1491 1438 1445T1698 1313Q1834 1206 1901 1070T1968 764Q1968 597 1903 457T1712 217Q1643 161 1558 132T1382 102Q1276 102 1221 142T1161 262ZM1198 696Q1189 772 1148 812T1038 852Q935 852 857 731T778 444Q778 361 813 316T911 270Q995 270 1059 329T1147 487L1198 696Z"  />
<glyph unicode="A" horiz-adv-x="1554" d="M4 0V295H129L403 1180H258V1475H1296V1180H1153L1425 295H1552V0H907V295H1038L979 494H575L520 295H649V0H4ZM635 756H920L776 1223L635 756Z"  />
<glyph unicode="B" horiz-adv-x="1346" d="M569 295H688Q795 295 848 338T901 469Q901 555 847 600T688 645H569V295ZM569 893H688Q779 893 824 929T870 1036Q870 1108 825 1144T688 1180H569V893ZM37 0V295H186V1180H37V1475H764Q995 1475 1121 1372T1247 1083Q1247 968 1179 893T971 778Q1144 740 1223 652T1303 412Q1303 213 1180 107T825 0H37Z"  />
<glyph unicode="C" horiz-adv-x="1624" d="M1196 541H1606Q1526 275 1321 123T838 -29Q685 -29 554 18T315 158Q186 272 119 419T51 737Q51 908 118 1055T315 1317Q422 1409 553 1456T838 1503Q960 1503 1063 1463T1241 1343V1475H1585V907H1212Q1166 1025 1075 1087T854 1149Q679 1149 568 1034T457 737Q457 560 566 444T840 328Q960 328 1048 380T1196 541Z"  />
<glyph unicode="D" horiz-adv-x="1616" d="M41 0V295H190V1180H41V1475H741Q894 1475 1005 1457T1184 1403Q1380 1299 1472 1138T1565 737Q1565 501 1472 339T1184 72Q1116 36 1005 18T741 0H41ZM584 1180V295H698Q926 295 1043 407T1161 737Q1161 956 1044 1068T698 1180H584Z"  />
<glyph unicode="E" horiz-adv-x="1464" d="M49 0V295H199V1180H49V1475H1372V944H1116L1026 1180H584V940H874V612H584V295H1026L1116 582H1372V0H49Z"  />
<glyph unicode="F" horiz-adv-x="1382" d="M49 0V295H199V1180H49V1475H1348V944H1092L1004 1180H584V940H856V612H584V295H778V0H49Z"  />
<glyph unicode="G" horiz-adv-x="1731" d="M1155 539H969V813H1716V539H1583V0H1262V193Q1171 81 1056 26T797 -29Q660 -29 534 19T309 156Q185 268 118 419T51 737Q51 914 118 1061T315 1323Q414 1409 541 1456T805 1503Q921 1503 1013 1469T1171 1368L1167 1475H1511V961H1139Q1100 1056 1025 1103T840 1151Q672 1151 565 1035T457 737Q457 552 562 439T840 326Q946 326 1027 381T1155 539Z"  />
<glyph unicode="H" horiz-adv-x="1597" d="M49 0V295H199V1180H49V1475H737V1180H582V911H1016V1180H860V1475H1548V1180H1399V295H1548V0H860V295H1016V618H582V295H737V0H49Z"  />
<glyph unicode="I" horiz-adv-x="786" d="M49 0V295H199V1180H49V1475H737V1180H582V295H737V0H49Z"  />
<glyph unicode="J" horiz-adv-x="782" d="M209 313V1180H59V1475H741V1180H592V295Q592 67 574 -22T512 -174Q453 -262 353 -304T100 -346Q72 -346 56 -346T27 -344V4H61Q109 4 134 10T174 33Q193 52 201 90T209 217V313Z"  />
<glyph unicode="K" horiz-adv-x="1503" d="M49 0V295H199V1180H49V1475H721V1180H582V780L930 1180H838V1475H1462V1180H1358L967 760L1386 295H1528V0H838V295H938L582 700V295H721V0H49Z"  />
<glyph unicode="L" horiz-adv-x="1327" d="M49 0V295H199V1180H49V1475H731V1180H584V295H961L1049 582H1298V0H49Z"  />
<glyph unicode="M" horiz-adv-x="1931" d="M51 0V295H199V1180H51V1475H741L971 868L1190 1475H1882V1180H1733V295H1882V0H1204V295H1360V1112L1057 311H874L571 1112V295H729V0H51Z"  />
<glyph unicode="N" horiz-adv-x="1593" d="M49 0V295H199V1180H49V1475H573L1065 662L1053 1180H895V1475H1573V1180H1425V0H1106L563 889L571 295H727V0H49Z"  />
<glyph unicode="O" horiz-adv-x="1677" d="M457 737Q457 560 566 444T840 328Q1005 328 1114 443T1223 737Q1223 916 1114 1032T840 1149Q676 1149 567 1032T457 737ZM51 737Q51 909 118 1056T315 1317Q422 1410 553 1456T838 1503Q992 1503 1123 1457T1362 1317Q1491 1203 1558 1055T1626 737Q1626 567 1559 420T1362 158Q1255 65 1124 18T838 -29Q685 -29 554 18T315 158Q186 272 119 419T51 737Z"  />
<glyph unicode="P" horiz-adv-x="1346" d="M582 1180V817H684Q802 817 861 862T920 999Q920 1090 861 1135T684 1180H582ZM49 0V295H199V1180H49V1475H805Q1036 1475 1170 1349T1305 1008Q1305 792 1171 667T805 541H582V295H737V0H49Z"  />
<glyph unicode="Q" horiz-adv-x="1677" d="M1350 158H1581V-139H1180L1094 20Q1041 -4 978 -16T838 -29Q685 -29 554 18T315 158Q186 272 119 419T51 737Q51 909 118 1056T315 1317Q422 1409 553 1456T838 1503Q992 1503 1123 1457T1362 1317Q1494 1202 1560 1052T1626 719Q1626 536 1557 396T1350 158ZM1120 457Q1178 504 1206 571T1235 727Q1235 911 1127 1030T852 1149Q679 1149 568 1034T457 737Q457 560 566 444T840 328Q861 328 877 331T907 342L809 481L1026 614L1120 457Z"  />
<glyph unicode="R" horiz-adv-x="1442" d="M584 1180V868H735Q840 868 890 906T940 1024Q940 1104 890 1142T735 1180H584ZM51 0V295H199V1180H51V1475H961Q1133 1475 1240 1369T1348 1092Q1348 969 1289 891T1102 764Q1210 731 1248 686T1286 551V295H1419V0H903V344Q903 529 861 578T702 627H584V295H702V0H51Z"  />
<glyph unicode="S" horiz-adv-x="1399" d="M403 154L412 0H90V500H432Q518 381 593 331T758 281Q832 281 877 316T922 410Q922 465 878 500T745 549L588 575Q332 617 206 732T80 1038Q80 1238 223 1371T580 1505Q693 1505 779 1465T928 1343L924 1475H1245V1010H924Q861 1118 795 1169T651 1221Q583 1221 539 1185T494 1094Q494 1039 541 1006T698 950L834 926Q1089 877 1212 763T1335 461Q1335 239 1197 105T827 -29Q696 -29 591 16T403 154Z"  />
<glyph unicode="T" horiz-adv-x="1309" d="M313 0V295H463V1184H344L268 952H33V1475H1276V952H1040L965 1184H846V295H995V0H313Z"  />
<glyph unicode="U" horiz-adv-x="1561" d="M164 510V1180H14V1475H702V1180H547V563Q547 448 606 388T780 328Q894 328 953 388T1012 563V1180H858V1475H1544V1180H1397V510Q1397 261 1232 116T780 -29Q495 -29 330 116T164 510Z"  />
<glyph unicode="V" horiz-adv-x="1419" d="M526 0L131 1180H16V1475H633V1180H498L709 459L922 1180H786V1475H1401V1180H1286L893 0H526Z"  />
<glyph unicode="W" horiz-adv-x="2005" d="M1008 629L811 0H502L117 1180H16V1475H606V1180H479L676 526L872 1180H745V1475H1260V1180H1133L1333 526L1540 1180H1399V1475H1989V1180H1884L1489 0H1196L1008 629Z"  />
<glyph unicode="X" horiz-adv-x="1548" d="M770 631L555 295H672V0H12V295H145L492 762L154 1180H39V1475H684V1180H567L774 909L981 1180H862V1475H1507V1180H1382L1063 760L1405 295H1536V0H874V295H989L770 631Z"  />
<glyph unicode="Y" horiz-adv-x="1503" d="M408 0V295H557V545L131 1180H16V1475H664V1180H545L758 831L969 1180H852V1475H1485V1180H1372L940 545V295H1096V0H408Z"  />
<glyph unicode="Z" horiz-adv-x="1391" d="M70 0V295L838 1190H457L379 965H94V1475H1309V1202L512 285H977L1049 578H1319V0H70Z"  />
<glyph unicode="[" horiz-adv-x="895" d="M219 -176V1475H819V1270H571V29H819V-176H219Z"  />
<glyph unicode="\" horiz-adv-x="788" d="M530 -190L4 1503H211L735 -190H530Z"  />
<glyph unicode="]" horiz-adv-x="895" d="M676 -176H78V29H326V1270H78V1475H676V-176Z"  />
<glyph unicode="^" horiz-adv-x="2048" d="M879 1462H1167L1632 899H1368L1024 1241L678 899H414L879 1462Z"  />
<glyph unicode="_" horiz-adv-x="1024" d="M0 -244H1024V-483H0V-244Z"  />
<glyph unicode="`" horiz-adv-x="1024" d="M207 1477H494L686 1106H532L207 1477Z"  />
<glyph unicode="a" horiz-adv-x="1305" d="M1137 295H1255V0H791V125Q741 49 671 12T508 -25Q312 -25 178 122T43 485Q43 713 170 854T502 995Q599 995 671 959T791 848V973H1255V678H1137V295ZM416 479Q416 398 469 346T606 293Q688 293 743 346T799 479Q799 558 743 612T606 666Q523 666 470 614T416 479Z"  />
<glyph unicode="b" horiz-adv-x="1298" d="M45 0V291H162V1180H45V1475H528V866Q587 931 657 963T809 995Q1003 995 1129 853T1255 485Q1255 270 1121 123T793 -25Q702 -25 633 11T510 121V0H45ZM502 479Q502 399 556 346T692 293Q776 293 830 345T885 479Q885 560 831 613T692 666Q611 666 557 613T502 479Z"  />
<glyph unicode="c" horiz-adv-x="1165" d="M1096 420Q1063 208 924 92T565 -25Q334 -25 189 118T43 489Q43 710 180 851T528 993Q617 993 683 964T780 881V973H1071V561H752Q730 613 688 640T588 668Q511 668 464 619T416 489Q416 408 460 361T582 313Q647 313 688 339T752 420H1096Z"  />
<glyph unicode="d" horiz-adv-x="1294" d="M651 1473H1137V295H1255V0H788V121Q735 47 667 11T508 -25Q313 -25 178 122T43 485Q43 709 170 852T492 995Q576 995 646 963T772 866V1180H651V1473ZM416 479Q416 398 469 346T606 293Q688 293 743 346T799 479Q799 558 743 612T606 666Q523 666 470 614T416 479Z"  />
<glyph unicode="e" horiz-adv-x="1133" d="M422 578H739Q733 652 694 689T582 727Q509 727 469 689T422 578ZM1051 240Q967 110 848 43T582 -25Q338 -25 191 115T43 487Q43 710 193 852T580 995Q802 995 943 847T1085 461Q1085 454 1084 440T1083 418H422Q428 346 470 302T575 258Q624 258 662 278T729 340L1051 240Z"  />
<glyph unicode="f" horiz-adv-x="735" d="M59 295H180V678H59V973H180V1108Q180 1250 194 1311T242 1407Q278 1443 341 1459T526 1475Q565 1475 606 1473T690 1468V1182Q684 1182 672 1183T653 1184Q590 1184 569 1157T547 1036V973H668V678H547V295H668V0H59V295Z"  />
<glyph unicode="g" horiz-adv-x="1296" d="M1137 158Q1137 -24 1106 -124T1001 -293Q935 -356 822 -391T567 -426Q429 -426 316 -406T129 -346V-49Q226 -101 321 -126T512 -152Q644 -152 710 -99T776 59Q776 70 776 80T772 114Q715 63 647 39T494 14Q286 14 165 141T43 485Q43 711 169 853T492 995Q577 995 645 965T772 868V973H1255V678H1137V158ZM416 479Q416 398 469 346T606 293Q688 293 743 346T799 479Q799 558 743 612T606 666Q523 666 470 614T416 479Z"  />
<glyph unicode="h" horiz-adv-x="1262" d="M162 1180H45V1475H528V848Q605 923 677 959T825 995Q907 995 968 969T1067 893Q1089 863 1098 820T1108 682V657V295H1225V0H741V528Q741 623 720 657T647 692Q582 692 555 648T528 485V295H633V0H45V295H162V1180Z"  />
<glyph unicode="i" horiz-adv-x="694" d="M90 1106V1421H532V1106H90ZM532 295H637V0H49V295H168V678H49V973H532V295Z"  />
<glyph unicode="j" horiz-adv-x="653" d="M528 14Q528 -124 516 -187T473 -295Q432 -357 341 -392T129 -428Q103 -428 79 -427T31 -422V-86H53Q118 -86 140 -60T162 86V678H45V973H528V14ZM86 1106V1421H528V1106H86Z"  />
<glyph unicode="k" horiz-adv-x="1255" d="M162 1180H43V1475H526V532L772 713H639V973H1180V678H1098L903 530L1141 295H1212V0H639V246H772L526 457V0H43V295H162V1180Z"  />
<glyph unicode="l" horiz-adv-x="682" d="M162 1180H43V1475H526V295H631V0H43V295H162V1180Z"  />
<glyph unicode="m" horiz-adv-x="1761" d="M522 848Q591 928 658 961T813 995Q897 995 957 962T1069 854Q1133 928 1194 961T1325 995Q1407 995 1468 969T1567 893Q1588 865 1597 826T1606 702V657V295H1702V0H1251V528Q1251 623 1232 658T1165 694Q1108 694 1085 650T1061 485V295H1151V0H713V528Q713 623 694 658T627 694Q569 694 546 650T522 485V295H612V0H72V295H168V678H72V973H522V848Z"  />
<glyph unicode="n" horiz-adv-x="1266" d="M532 848Q609 923 682 959T831 995Q913 995 973 970T1071 893Q1093 863 1102 820T1112 682V657V295H1229V0H748V528Q748 621 726 656T651 692Q586 692 559 648T532 485V295H637V0H49V295H168V678H49V973H532V848Z"  />
<glyph unicode="o" horiz-adv-x="1165" d="M414 485Q414 412 462 364T582 315Q654 315 703 363T752 485Q752 559 703 608T582 657Q510 657 462 609T414 485ZM43 485Q43 702 197 848T582 995Q813 995 968 849T1124 485Q1124 270 969 123T582 -25Q352 -25 198 122T43 485Z"  />
<glyph unicode="p" horiz-adv-x="1305" d="M889 479Q889 561 835 613T698 666Q617 666 562 612T506 479Q506 399 561 346T698 293Q781 293 835 345T889 479ZM532 973V868Q588 933 660 964T827 995Q1012 995 1137 851T1262 485Q1262 272 1130 124T811 -25Q722 -25 655 3T532 94V-133H659V-426H49V-133H168V678H49V973H532Z"  />
<glyph unicode="q" horiz-adv-x="1305" d="M416 479Q416 398 469 346T606 293Q688 293 743 346T799 479Q799 558 743 612T606 666Q523 666 470 614T416 479ZM643 -133H772V94Q716 32 650 4T494 -25Q306 -25 175 123T43 485Q43 706 167 850T477 995Q572 995 644 964T772 868V973H1255V678H1137V-133H1255V-426H643V-133Z"  />
<glyph unicode="r" horiz-adv-x="981" d="M532 807L547 811Q570 897 621 943T745 989Q832 989 886 933T940 784Q940 698 885 642T743 586Q677 586 630 624T551 741L532 735V295H653V0H49V295H168V678H49V973H532V807Z"  />
<glyph unicode="s" horiz-adv-x="1075" d="M360 0H109V295H348Q390 229 439 198T547 166Q587 166 609 185T631 242Q631 267 612 283T545 315L389 365Q219 418 154 487T88 674Q88 816 188 906T446 997Q510 997 575 979T698 926V973H950V678H717Q699 742 658 774T555 807Q511 807 486 789T461 739Q461 709 485 689T575 647L684 612Q879 549 939 483T999 293Q999 146 903 61T639 -25Q578 -25 514 -9T360 45V0Z"  />
<glyph unicode="t" horiz-adv-x="696" d="M641 0H498Q265 0 208 49T150 229V678H23V973H150V1280H508V973H631V678H508V416Q508 341 532 318T629 295H641V0Z"  />
<glyph unicode="u" horiz-adv-x="1241" d="M723 125Q645 48 573 12T426 -25Q346 -25 285 2T186 80Q164 110 155 153T145 289V313V678H27V973H510V444Q510 349 531 314T604 279Q669 279 696 323T723 485V678H621V973H1090V295H1208V0H723V125Z"  />
<glyph unicode="v" horiz-adv-x="1223" d="M397 0L127 678H8V973H559V678H477L618 297L754 678H672V973H1214V678H1096L825 0H397Z"  />
<glyph unicode="w" horiz-adv-x="1655" d="M946 973L1120 360L1214 678H1133V973H1647V678H1530L1321 0H950L827 444L705 0H332L125 678H6V973H528V678H446L539 360L707 973H946Z"  />
<glyph unicode="x" horiz-adv-x="1214" d="M694 788V973H1167V678H997L862 506L1053 295H1180V0H700V240L608 356L518 240V0H39V295H166L356 506L221 678H51V973H524V788L608 672L694 788Z"  />
<glyph unicode="y" horiz-adv-x="1237" d="M836 -428H268V-133H401L463 0L135 678H8V973H569V678H481L627 342L768 678H688V973H1212V678H1094L717 -133H836V-428Z"  />
<glyph unicode="z" horiz-adv-x="1085" d="M997 0H88V313L600 717H352L309 600H88V973H997V666L475 254H737L768 381H997V0Z"  />
<glyph unicode="{" horiz-adv-x="1024" d="M893 1477V1235Q886 1235 872 1236T852 1237Q754 1237 720 1202T686 1055V815Q686 675 640 615T475 530Q595 506 640 448T686 248V6Q686 -104 719 -139T850 -174Q857 -174 871 -173T893 -172V-414Q878 -414 851 -415T811 -416Q703 -416 632 -404T512 -367Q453 -335 430 -279T406 -86V170Q406 303 357 357T188 412Q184 412 171 411T152 410V651Q158 651 170 650T188 649Q306 649 356 704T406 893V1147Q406 1283 430 1340T512 1430Q560 1455 632 1467T813 1479Q825 1479 851 1478T893 1477Z"  />
<glyph unicode="|" horiz-adv-x="1024" d="M393 1565H633V-483H393V1565Z"  />
<glyph unicode="}" horiz-adv-x="1024" d="M133 1477Q148 1477 174 1478T213 1479Q321 1479 393 1467T514 1430Q572 1398 596 1341T621 1147V893Q621 759 670 704T838 649Q844 649 856 650T874 651V410Q868 410 856 411T838 412Q719 412 670 357T621 170V-86Q621 -223 597 -280T514 -369Q469 -393 401 -404T223 -416Q209 -416 179 -415T133 -414V-172Q142 -172 156 -173T176 -174Q273 -174 306 -140T340 6V248Q340 388 386 447T551 530Q431 555 386 614T340 815V1055Q340 1166 307 1201T180 1237Q173 1237 158 1236T133 1235V1477Z"  />
<glyph unicode="~" horiz-adv-x="1706" d="M1530 819V565Q1429 496 1336 462T1153 428Q1108 428 1064 435T981 457Q968 461 943 470Q688 559 561 559Q477 559 386 522T178 401V655Q290 728 385 763T565 799Q628 799 691 787T861 741Q877 736 912 724Q1071 668 1159 668Q1243 668 1332 704T1530 819Z"  />
<glyph unicode="&#xA0;" horiz-adv-x="1139" />
<glyph unicode="&#xA1;" horiz-adv-x="735" d="M172 0L205 954H528L561 0H172ZM160 1298Q160 1386 219 1444T367 1503Q455 1503 514 1445T573 1298Q573 1211 514 1153T367 1094Q279 1094 220 1152T160 1298Z"  />
<glyph unicode="&#xA2;" horiz-adv-x="1139" d="M457 313L573 723Q569 723 561 724T549 725Q466 725 414 662T362 494Q362 428 386 383T457 313ZM543 302Q557 298 569 297T594 295Q666 295 714 335T772 440H1069Q1051 248 917 124T594 0Q563 0 492 8H485L412 -252H274L356 41Q212 101 136 224T59 518Q59 732 189 872T512 1012Q541 1012 568 1009T621 999L690 1245H827L741 940Q762 928 782 910T823 866V993H1053V582H756Q742 630 717 660T655 700L543 302Z"  />
<glyph unicode="&#xA3;" horiz-adv-x="1139" d="M66 -29V322Q161 349 204 409T248 578V653H70V834H219Q201 917 192 977T182 1075Q182 1247 303 1355T618 1464Q814 1464 937 1354T1061 1069Q1061 1051 1061 1040T1058 1018H737Q737 1100 713 1137T633 1174Q581 1174 551 1143T520 1059Q520 1029 562 840L563 834H819V653H586Q588 634 589 614T590 557Q590 492 577 438T535 338Q579 306 613 291T678 276Q736 276 765 310T797 414H1120V377Q1120 181 1026 76T756 -29Q652 -29 562 9T399 121Q342 56 262 20T66 -29Z"  />
<glyph unicode="&#xA4;" horiz-adv-x="1139" d="M1090 418Q1070 201 948 86T612 -29Q389 -29 275 99T127 512H0L20 659H117V780H0L20 928H123Q152 1201 264 1332T582 1464Q646 1464 708 1434T795 1356V1436H1067V1026H748Q732 1072 696 1098T612 1124Q555 1124 525 1081T477 928H862L821 780H467V659H788L748 512H479Q497 398 525 356T612 313Q662 313 691 338T733 418H1090Z"  />
<glyph unicode="&#xA5;" horiz-adv-x="1292" d="M340 0V268H471V471H59V639H403L311 801H59V969H215L102 1163H0V1427H580V1163H473L655 784L834 1163H723V1427H1290V1163H1190L1073 969H1229V801H977L883 639H1229V471H819V268H954V0H340Z"  />
<glyph unicode="&#xA6;" horiz-adv-x="1024" d="M393 408H633V-350H393V408ZM393 1432H633V674H393V1432Z"  />
<glyph unicode="&#xA7;" horiz-adv-x="1139" d="M727 614L543 793Q503 832 474 849T416 866Q378 866 354 844T330 786Q330 764 352 731T420 651L602 471Q645 430 673 414T729 397Q767 397 791 420T815 477Q815 501 793 536T727 614ZM195 115H432V-2H510Q562 -2 586 13T610 59Q610 85 580 123T434 268L279 414Q167 517 117 606T66 788Q66 900 141 975T333 1055Q301 1097 285 1139T268 1225Q268 1335 359 1405T598 1475H977V1139H739V1249H662Q598 1249 572 1236T545 1192Q545 1146 668 1036Q710 999 733 977L891 829Q987 740 1029 661T1071 492Q1071 366 1003 285T829 203Q868 157 887 109T907 10Q907 -108 815 -167T541 -227H195V115Z"  />
<glyph unicode="&#xA8;" horiz-adv-x="1024" d="M567 1157V1427H819V1157H567ZM205 1157V1427H455V1157H205Z"  />
<glyph unicode="&#xA9;" horiz-adv-x="1706" d="M1221 891H1008Q1001 958 961 995T852 1032Q769 1032 723 955T676 739Q676 599 723 527T862 455Q929 455 968 495T1014 610H1229Q1223 467 1122 380T858 293Q668 293 557 410T446 731Q446 938 557 1060T856 1182Q1013 1182 1113 1102T1221 891ZM854 1350Q728 1350 619 1305T424 1171Q336 1082 289 970T242 737Q242 618 289 507T424 307Q511 220 622 174T854 127Q975 127 1088 174T1290 309Q1376 393 1420 502T1464 737Q1464 862 1419 972T1288 1169Q1200 1258 1090 1304T854 1350ZM852 1485Q1006 1485 1141 1429T1384 1266Q1490 1160 1544 1026T1599 737Q1599 584 1545 450T1386 213Q1277 105 1139 48T852 -10Q704 -10 569 47T326 211Q219 318 163 452T106 737Q106 885 163 1022T328 1268Q433 1374 566 1429T852 1485Z"  />
<glyph unicode="&#xAA;" horiz-adv-x="979" d="M852 1001H942V795H594V883Q558 830 506 804T381 778Q235 778 134 881T33 1135Q33 1294 128 1392T377 1491Q448 1491 502 1466T594 1389V1477H942V1270H852V1001ZM311 1130Q311 1074 352 1037T455 999Q516 999 558 1037T600 1130Q600 1185 558 1223T455 1262Q393 1262 352 1225T311 1130Z"  />
<glyph unicode="&#xAB;" horiz-adv-x="1204" d="M662 154H377L100 485L377 817H662L383 485L662 154ZM1120 154H838L559 485L838 817H1120L844 485L1120 154Z"  />
<glyph unicode="&#xAC;" horiz-adv-x="1706" d="M254 866H1452V365H1223V639H254V866Z"  />
<glyph unicode="&#xAD;" horiz-adv-x="635" d="M45 346V674H592V346H45Z"  />
<glyph unicode="&#xAE;" horiz-adv-x="1706" d="M762 1022V803H842Q916 803 952 829T989 909Q989 968 951 995T829 1022H762ZM537 1163H866Q1040 1163 1130 1103T1221 926Q1221 845 1175 787T1047 705L1229 344H981L827 670H762V344H537V1163ZM854 1350Q730 1350 622 1306T428 1178Q338 1088 291 975T244 737Q244 616 288 508T418 313Q505 223 617 175T852 127Q973 127 1084 172T1284 303Q1372 388 1418 499T1464 737Q1464 861 1420 970T1292 1165Q1203 1256 1092 1303T854 1350ZM852 1485Q1008 1485 1146 1428T1391 1260Q1492 1156 1545 1022T1599 737Q1599 582 1543 446T1378 207Q1269 102 1133 46T852 -10Q701 -10 565 48T322 217Q217 325 162 458T106 737Q106 888 165 1027T334 1274Q439 1378 571 1431T852 1485Z"  />
<glyph unicode="&#xAF;" horiz-adv-x="1024" d="M205 1206V1376H819V1206H205Z"  />
<glyph unicode="&#xB0;" horiz-adv-x="674" d="M338 1321Q269 1321 221 1273T172 1157Q172 1087 220 1039T338 991Q406 991 454 1040T502 1157Q502 1225 454 1273T338 1321ZM338 1466Q467 1466 558 1375T649 1155Q649 1027 558 936T336 844Q207 844 117 934T27 1155Q27 1286 117 1376T338 1466Z"  />
<glyph unicode="&#xB1;" horiz-adv-x="1706" d="M254 213H1452V-18H254V213ZM735 1241H973V922H1452V690H973V371H735V690H254V922H735V1241Z"  />
<glyph unicode="&#xB2;" horiz-adv-x="752" d="M49 575V756L289 977Q390 1071 424 1117T459 1198Q459 1230 437 1249T377 1268Q331 1268 306 1243T281 1174V1159H49V1174Q49 1305 135 1379T375 1454Q518 1454 603 1387T688 1206Q688 1108 606 1009T311 760H510V813H702V575H49Z"  />
<glyph unicode="&#xB3;" horiz-adv-x="752" d="M41 864H264V856Q264 802 290 774T369 745Q413 745 441 772T469 844Q469 894 429 917T297 940H285V1098H297Q386 1098 421 1118T457 1188Q457 1225 432 1246T362 1268Q314 1268 287 1243T260 1174V1161H53V1167Q53 1305 137 1379T375 1454Q515 1454 600 1388T686 1214Q686 1145 641 1098T510 1030Q602 1021 654 966T707 821Q707 704 615 632T373 559Q218 559 130 633T41 838V864Z"  />
<glyph unicode="&#xB4;" horiz-adv-x="1024" d="M817 1477L492 1106H338L530 1477H817Z"  />
<glyph unicode="&#xB5;" horiz-adv-x="1315" d="M193 1090H551L471 561Q465 520 462 484T459 418Q459 333 494 291T602 248Q690 248 740 316T815 537L903 1090H1260L1085 0H764L782 125Q742 50 693 17T573 -16Q514 -16 467 15T389 104L307 -428H-45L193 1090Z"  />
<glyph unicode="&#xB6;" horiz-adv-x="1024" d="M997 1479V1356H891V0H715V1356H565V0H391V784Q227 790 128 885T29 1130Q29 1288 135 1383T418 1479H997Z"  />
<glyph unicode="&#xB7;" horiz-adv-x="569" d="M285 528Q196 528 137 586T78 731Q78 819 137 878T285 938Q373 938 432 879T492 731Q492 644 433 586T285 528Z"  />
<glyph unicode="&#xB8;" horiz-adv-x="1024" d="M272 -438V-301Q352 -323 421 -334T543 -346Q586 -346 607 -329T629 -274Q629 -242 601 -227T510 -211Q489 -211 477 -211T455 -213V0H569V-84H588Q699 -84 758 -133T817 -276Q817 -376 751 -430T563 -485Q505 -485 433 -474T272 -438Z"  />
<glyph unicode="&#xB9;" horiz-adv-x="752" d="M160 575V737H260V1278H160V1438H492V737H594V575H160Z"  />
<glyph unicode="&#xBA;" horiz-adv-x="874" d="M311 1135Q311 1083 347 1050T436 1016Q491 1016 527 1049T563 1135Q563 1186 527 1220T436 1255Q383 1255 347 1221T311 1135ZM33 1135Q33 1286 148 1388T436 1491Q610 1491 727 1389T844 1135Q844 984 727 881T436 778Q264 778 149 881T33 1135Z"  />
<glyph unicode="&#xBB;" horiz-adv-x="1204" d="M543 154L821 485L543 817H827L1104 485L827 154H543ZM84 154L360 485L84 817H367L645 485L367 154H84Z"  />
<glyph unicode="&#xBC;" horiz-adv-x="1776" d="M1315 0V135H1444V213H1085V322L1364 805H1653V348H1735V213H1653V135H1735V0H1315ZM1454 681L1268 348H1444V516Q1444 546 1446 585T1454 681ZM375 -29L1225 1464H1399L549 -29H375ZM152 633V782H246V1288H152V1438H469V782H565V633H152Z"  />
<glyph unicode="&#xBD;" horiz-adv-x="1776" d="M1106 0V168L1333 375Q1428 458 1462 502T1497 580Q1497 610 1476 628T1419 647Q1376 647 1352 624T1327 557V545H1106V559Q1106 681 1189 750T1417 819Q1554 819 1635 756T1716 588Q1716 497 1637 404T1358 172H1546V221H1729V0H1106ZM375 -29L1225 1464H1399L549 -29H375ZM152 633V782H246V1288H152V1438H469V782H565V633H152Z"  />
<glyph unicode="&#xBE;" horiz-adv-x="1778" d="M1315 0V135H1444V213H1085V322L1364 805H1653V348H1735V213H1653V135H1735V0H1315ZM1454 681L1268 348H1444V516Q1444 546 1446 585T1454 681ZM375 -29L1225 1464H1399L549 -29H375ZM41 903H252V895Q252 844 277 818T350 791Q393 791 421 817T449 885Q449 931 411 952T285 973H270V1120H285Q370 1120 403 1139T436 1204Q436 1238 411 1259T346 1280Q300 1280 274 1257T248 1190V1180H51V1184Q51 1313 131 1382T358 1452Q492 1452 572 1391T653 1229Q653 1164 611 1120T487 1057Q575 1049 624 998T674 862Q674 752 587 684T354 616Q207 616 123 685T39 877Q39 881 40 890T41 903Z"  />
<glyph unicode="&#xBF;" horiz-adv-x="1233" d="M829 954V596Q823 596 805 597T776 598Q633 598 568 556T502 422Q502 357 535 323T631 289Q696 289 734 330T774 440H1130Q1132 429 1133 418T1135 397Q1135 313 1087 231T952 82Q883 30 798 3T618 -25Q400 -25 265 101T129 430Q129 613 226 727T489 854V954H829ZM662 1503Q749 1503 808 1445T868 1298Q868 1211 809 1153T662 1094Q573 1094 514 1152T455 1298Q455 1386 514 1444T662 1503Z"  />
<glyph unicode="&#xC0;" horiz-adv-x="1554" d="M4 0V295H129L403 1180H258V1475H1296V1180H1153L1425 295H1552V0H907V295H1038L979 494H575L520 295H649V0H4ZM635 756H920L776 1223L635 756ZM473 1956H760L952 1585H798L473 1956Z"  />
<glyph unicode="&#xC1;" horiz-adv-x="1554" d="M4 0V295H129L403 1180H258V1475H1296V1180H1153L1425 295H1552V0H907V295H1038L979 494H575L520 295H649V0H4ZM635 756H920L776 1223L635 756ZM1083 1956L758 1585H604L796 1956H1083Z"  />
<glyph unicode="&#xC2;" horiz-adv-x="1554" d="M4 0V295H129L403 1180H258V1475H1296V1180H1153L1425 295H1552V0H907V295H1038L979 494H575L520 295H649V0H4ZM635 756H920L776 1223L635 756ZM456 1585L649 1956H905L1097 1585H944L778 1784L610 1585H456Z"  />
<glyph unicode="&#xC3;" horiz-adv-x="1554" d="M4 0V295H129L403 1180H258V1475H1296V1180H1153L1425 295H1552V0H907V295H1038L979 494H575L520 295H649V0H4ZM635 756H920L776 1223L635 756ZM1110 1911Q1080 1778 1028 1718T891 1657Q872 1657 854 1660T815 1669L723 1696Q700 1702 683 1705T655 1708Q622 1708 601 1690T565 1630H446Q474 1756 526 1816T661 1876Q680 1876 703 1872T752 1861L845 1835Q861 1830 875 1828T903 1825Q936 1825 958 1846T991 1911H1110Z"  />
<glyph unicode="&#xC4;" horiz-adv-x="1554" d="M4 0V295H129L403 1180H258V1475H1296V1180H1153L1425 295H1552V0H907V295H1038L979 494H575L520 295H649V0H4ZM635 756H920L776 1223L635 756ZM833 1636V1906H1085V1636H833ZM471 1636V1906H721V1636H471Z"  />
<glyph unicode="&#xC5;" horiz-adv-x="1554" d="M635 756H920L776 1223L635 756ZM575 1751Q575 1844 639 1908T795 1972Q887 1972 951 1908T1016 1751Q1016 1659 952 1596T795 1532Q702 1532 639 1595T575 1751ZM717 1753Q717 1719 740 1696T797 1673Q829 1673 851 1696T874 1753Q874 1785 852 1808T797 1831Q764 1831 741 1808T717 1753ZM4 0V295H129L403 1180H258V1475H1296V1180H1153L1425 295H1552V0H907V295H1038L979 494H578L520 295H649V0H4Z"  />
<glyph unicode="&#xC6;" horiz-adv-x="2292" d="M1040 752V1200H948L733 752H1040ZM1040 489H604L510 295H651V0H0V295H106L598 1180H440V1475H2198V944H1942L1853 1180H1417V940H1708V612H1417V295H1853L1942 582H2198V0H891V295H1040V489Z"  />
<glyph unicode="&#xC7;" horiz-adv-x="1624" d="M1196 541H1606Q1526 275 1321 123T838 -29Q685 -29 554 18T315 158Q186 272 119 419T51 737Q51 908 118 1055T315 1317Q422 1409 553 1456T838 1503Q960 1503 1063 1463T1241 1343V1475H1585V907H1212Q1166 1025 1075 1087T854 1149Q679 1149 568 1034T457 737Q457 560 566 444T840 328Q960 328 1048 380T1196 541ZM591 -438V-301Q671 -323 740 -334T862 -346Q905 -346 926 -329T948 -274Q948 -242 920 -227T829 -211Q808 -211 796 -211T774 -213V0H888V-84H907Q1018 -84 1077 -133T1136 -276Q1136 -376 1070 -430T882 -485Q824 -485 752 -474T591 -438Z"  />
<glyph unicode="&#xC8;" horiz-adv-x="1464" d="M49 0V295H199V1180H49V1475H1372V944H1116L1026 1180H584V940H874V612H584V295H1026L1116 582H1372V0H49ZM453 1956H740L932 1585H778L453 1956Z"  />
<glyph unicode="&#xC9;" horiz-adv-x="1464" d="M49 0V295H199V1180H49V1475H1372V944H1116L1026 1180H584V940H874V612H584V295H1026L1116 582H1372V0H49ZM1063 1956L738 1585H584L776 1956H1063Z"  />
<glyph unicode="&#xCA;" horiz-adv-x="1464" d="M49 0V295H199V1180H49V1475H1372V944H1116L1026 1180H584V940H874V612H584V295H1026L1116 582H1372V0H49ZM436 1585L629 1956H885L1077 1585H924L758 1784L590 1585H436Z"  />
<glyph unicode="&#xCB;" horiz-adv-x="1464" d="M49 0V295H199V1180H49V1475H1372V944H1116L1026 1180H584V940H874V612H584V295H1026L1116 582H1372V0H49ZM813 1636V1906H1065V1636H813ZM451 1636V1906H701V1636H451Z"  />
<glyph unicode="&#xCC;" horiz-adv-x="786" d="M49 0V295H199V1180H49V1475H737V1180H582V295H737V0H49ZM89 1956H376L568 1585H414L89 1956Z"  />
<glyph unicode="&#xCD;" horiz-adv-x="786" d="M49 0V295H199V1180H49V1475H737V1180H582V295H737V0H49ZM699 1956L374 1585H220L412 1956H699Z"  />
<glyph unicode="&#xCE;" horiz-adv-x="786" d="M49 0V295H199V1180H49V1475H737V1180H582V295H737V0H49ZM72 1585L265 1956H521L713 1585H560L394 1784L226 1585H72Z"  />
<glyph unicode="&#xCF;" horiz-adv-x="786" d="M49 0V295H199V1180H49V1475H737V1180H582V295H737V0H49ZM449 1636V1906H701V1636H449ZM87 1636V1906H337V1636H87Z"  />
<glyph unicode="&#xD0;" horiz-adv-x="1616" d="M41 0V295H190V627H0V903H190V1180H41V1475H741Q894 1475 1005 1457T1184 1403Q1380 1299 1472 1138T1565 737Q1565 501 1472 339T1184 72Q1116 36 1005 18T741 0H41ZM584 1180V903H874V627H584V295H698Q926 295 1043 407T1161 737Q1161 956 1044 1068T698 1180H584Z"  />
<glyph unicode="&#xD1;" horiz-adv-x="1593" d="M49 0V295H199V1180H49V1475H573L1065 662L1053 1180H895V1475H1573V1180H1425V0H1106L563 889L571 295H727V0H49ZM1129 1911Q1099 1778 1047 1718T910 1657Q891 1657 873 1660T834 1669L742 1696Q719 1702 702 1705T674 1708Q641 1708 620 1690T584 1630H465Q493 1756 545 1816T680 1876Q699 1876 722 1872T771 1861L864 1835Q880 1830 894 1828T922 1825Q955 1825 977 1846T1010 1911H1129Z"  />
<glyph unicode="&#xD2;" horiz-adv-x="1677" d="M457 737Q457 560 566 444T840 328Q1005 328 1114 443T1223 737Q1223 916 1114 1032T840 1149Q676 1149 567 1032T457 737ZM51 737Q51 909 118 1056T315 1317Q422 1410 553 1456T838 1503Q992 1503 1123 1457T1362 1317Q1491 1203 1558 1055T1626 737Q1626 567 1559 420T1362 158Q1255 65 1124 18T838 -29Q685 -29 554 18T315 158Q186 272 119 419T51 737ZM535 1956H822L1014 1585H860L535 1956Z"  />
<glyph unicode="&#xD3;" horiz-adv-x="1677" d="M457 737Q457 560 566 444T840 328Q1005 328 1114 443T1223 737Q1223 916 1114 1032T840 1149Q676 1149 567 1032T457 737ZM51 737Q51 909 118 1056T315 1317Q422 1410 553 1456T838 1503Q992 1503 1123 1457T1362 1317Q1491 1203 1558 1055T1626 737Q1626 567 1559 420T1362 158Q1255 65 1124 18T838 -29Q685 -29 554 18T315 158Q186 272 119 419T51 737ZM1145 1956L820 1585H666L858 1956H1145Z"  />
<glyph unicode="&#xD4;" horiz-adv-x="1677" d="M457 737Q457 560 566 444T840 328Q1005 328 1114 443T1223 737Q1223 916 1114 1032T840 1149Q676 1149 567 1032T457 737ZM51 737Q51 909 118 1056T315 1317Q422 1410 553 1456T838 1503Q992 1503 1123 1457T1362 1317Q1491 1203 1558 1055T1626 737Q1626 567 1559 420T1362 158Q1255 65 1124 18T838 -29Q685 -29 554 18T315 158Q186 272 119 419T51 737ZM518 1585L711 1956H967L1159 1585H1006L840 1784L672 1585H518Z"  />
<glyph unicode="&#xD5;" horiz-adv-x="1677" d="M457 737Q457 560 566 444T840 328Q1005 328 1114 443T1223 737Q1223 916 1114 1032T840 1149Q676 1149 567 1032T457 737ZM51 737Q51 909 118 1056T315 1317Q422 1410 553 1456T838 1503Q992 1503 1123 1457T1362 1317Q1491 1203 1558 1055T1626 737Q1626 567 1559 420T1362 158Q1255 65 1124 18T838 -29Q685 -29 554 18T315 158Q186 272 119 419T51 737ZM1172 1911Q1142 1778 1090 1718T953 1657Q934 1657 916 1660T877 1669L785 1696Q762 1702 745 1705T717 1708Q684 1708 663 1690T627 1630H508Q536 1756 588 1816T723 1876Q742 1876 765 1872T814 1861L907 1835Q923 1830 937 1828T965 1825Q998 1825 1020 1846T1053 1911H1172Z"  />
<glyph unicode="&#xD6;" horiz-adv-x="1677" d="M457 737Q457 560 566 444T840 328Q1005 328 1114 443T1223 737Q1223 916 1114 1032T840 1149Q676 1149 567 1032T457 737ZM51 737Q51 909 118 1056T315 1317Q422 1410 553 1456T838 1503Q992 1503 1123 1457T1362 1317Q1491 1203 1558 1055T1626 737Q1626 567 1559 420T1362 158Q1255 65 1124 18T838 -29Q685 -29 554 18T315 158Q186 272 119 419T51 737ZM895 1636V1906H1147V1636H895ZM533 1636V1906H783V1636H533Z"  />
<glyph unicode="&#xD7;" horiz-adv-x="1706" d="M430 1214L870 774L1311 1214L1473 1053L1032 610L1473 170L1311 8L870 449L430 8L268 170L709 610L268 1053L430 1214Z"  />
<glyph unicode="&#xD8;" horiz-adv-x="1677" d="M1358 1567H1616L1401 1288Q1514 1175 1570 1038T1626 737Q1626 567 1558 418T1362 158Q1258 66 1125 19T838 -29Q730 -29 635 -6T446 68L317 -90H57L276 190Q167 300 109 440T51 737Q51 909 118 1056T315 1317Q421 1411 555 1457T854 1503Q965 1503 1057 1480T1229 1409L1358 1567ZM1157 989L664 360Q711 340 755 330T840 319Q1009 319 1119 437T1229 737Q1229 815 1212 876T1157 989ZM520 492L1010 1114Q974 1136 932 1146T840 1157Q673 1157 561 1038T449 737Q449 667 466 607T520 492Z"  />
<glyph unicode="&#xD9;" horiz-adv-x="1561" d="M164 510V1180H14V1475H702V1180H547V563Q547 448 606 388T780 328Q894 328 953 388T1012 563V1180H858V1475H1544V1180H1397V510Q1397 261 1232 116T780 -29Q495 -29 330 116T164 510ZM475 1956H762L954 1585H800L475 1956Z"  />
<glyph unicode="&#xDA;" horiz-adv-x="1561" d="M164 510V1180H14V1475H702V1180H547V563Q547 448 606 388T780 328Q894 328 953 388T1012 563V1180H858V1475H1544V1180H1397V510Q1397 261 1232 116T780 -29Q495 -29 330 116T164 510ZM1085 1956L760 1585H606L798 1956H1085Z"  />
<glyph unicode="&#xDB;" horiz-adv-x="1561" d="M164 510V1180H14V1475H702V1180H547V563Q547 448 606 388T780 328Q894 328 953 388T1012 563V1180H858V1475H1544V1180H1397V510Q1397 261 1232 116T780 -29Q495 -29 330 116T164 510ZM458 1585L651 1956H907L1099 1585H946L780 1784L612 1585H458Z"  />
<glyph unicode="&#xDC;" horiz-adv-x="1561" d="M164 510V1180H14V1475H702V1180H547V563Q547 448 606 388T780 328Q894 328 953 388T1012 563V1180H858V1475H1544V1180H1397V510Q1397 261 1232 116T780 -29Q495 -29 330 116T164 510ZM835 1636V1906H1087V1636H835ZM473 1636V1906H723V1636H473Z"  />
<glyph unicode="&#xDD;" horiz-adv-x="1503" d="M408 0V295H557V545L131 1180H16V1475H664V1180H545L758 831L969 1180H852V1475H1485V1180H1372L940 545V295H1096V0H408ZM1057 1956L732 1585H578L770 1956H1057Z"  />
<glyph unicode="&#xDE;" horiz-adv-x="1346" d="M684 909H582V588H684Q801 588 860 628T920 750Q920 830 861 869T684 909ZM49 295H199V1180H49V1475H731V1229H582V1171H805Q1036 1171 1170 1059T1305 756Q1305 566 1171 454T805 342H582V270H737V0H49V295Z"  />
<glyph unicode="&#xDF;" horiz-adv-x="1282" d="M39 0V295H150V1032Q150 1260 276 1376T649 1493Q845 1493 963 1394T1081 1133Q1081 1043 1039 969T911 836Q1066 797 1146 689T1227 408Q1227 204 1126 90T846 -25Q798 -25 749 -15T647 16L696 309Q702 309 712 308T727 307Q794 307 825 342T856 455Q856 554 802 604T633 662V954Q692 960 722 991T752 1079Q752 1130 720 1160T633 1190Q566 1190 540 1149T514 961V0H39Z"  />
<glyph unicode="&#xE0;" horiz-adv-x="1305" d="M1137 295H1255V0H791V125Q741 49 671 12T508 -25Q312 -25 178 122T43 485Q43 713 170 854T502 995Q599 995 671 959T791 848V973H1255V678H1137V295ZM416 479Q416 398 469 346T606 293Q688 293 743 346T799 479Q799 558 743 612T606 666Q523 666 470 614T416 479ZM412 1477H699L891 1106H737L412 1477Z"  />
<glyph unicode="&#xE1;" horiz-adv-x="1305" d="M1137 295H1255V0H791V125Q741 49 671 12T508 -25Q312 -25 178 122T43 485Q43 713 170 854T502 995Q599 995 671 959T791 848V973H1255V678H1137V295ZM416 479Q416 398 469 346T606 293Q688 293 743 346T799 479Q799 558 743 612T606 666Q523 666 470 614T416 479ZM1022 1477L697 1106H543L735 1477H1022Z"  />
<glyph unicode="&#xE2;" horiz-adv-x="1305" d="M1137 295H1255V0H791V125Q741 49 671 12T508 -25Q312 -25 178 122T43 485Q43 713 170 854T502 995Q599 995 671 959T791 848V973H1255V678H1137V295ZM416 479Q416 398 469 346T606 293Q688 293 743 346T799 479Q799 558 743 612T606 666Q523 666 470 614T416 479ZM395 1106L588 1477H844L1036 1106H883L717 1305L549 1106H395Z"  />
<glyph unicode="&#xE3;" horiz-adv-x="1305" d="M1137 295H1255V0H791V125Q741 49 671 12T508 -25Q312 -25 178 122T43 485Q43 713 170 854T502 995Q599 995 671 959T791 848V973H1255V678H1137V295ZM416 479Q416 398 469 346T606 293Q688 293 743 346T799 479Q799 558 743 612T606 666Q523 666 470 614T416 479ZM1049 1432Q1019 1299 967 1239T830 1178Q811 1178 793 1181T754 1190L662 1217Q639 1223 622 1226T594 1229Q561 1229 540 1211T504 1151H385Q413 1277 465 1337T600 1397Q619 1397 642 1393T691 1382L784 1356Q800 1351 814 1349T842 1346Q875 1346 897 1367T930 1432H1049Z"  />
<glyph unicode="&#xE4;" horiz-adv-x="1305" d="M1137 295H1255V0H791V125Q741 49 671 12T508 -25Q312 -25 178 122T43 485Q43 713 170 854T502 995Q599 995 671 959T791 848V973H1255V678H1137V295ZM416 479Q416 398 469 346T606 293Q688 293 743 346T799 479Q799 558 743 612T606 666Q523 666 470 614T416 479ZM772 1157V1427H1024V1157H772ZM410 1157V1427H660V1157H410Z"  />
<glyph unicode="&#xE5;" horiz-adv-x="1305" d="M614 1253Q614 1220 636 1198T692 1176Q724 1176 747 1198T770 1253Q770 1286 747 1309T692 1333Q660 1333 637 1310T614 1253ZM471 1253Q471 1346 535 1410T692 1475Q784 1475 847 1411T911 1253Q911 1161 848 1098T692 1034Q600 1034 536 1098T471 1253ZM416 479Q416 398 469 346T606 293Q688 293 743 346T799 479Q799 558 743 612T606 666Q523 666 470 614T416 479ZM1137 295H1255V0H791V125Q741 49 671 12T508 -25Q312 -25 178 122T43 485Q43 713 170 854T502 995Q599 995 671 959T791 848V973H1255V678H1137V295Z"  />
<glyph unicode="&#xE6;" horiz-adv-x="1763" d="M1040 578H1370Q1364 652 1322 691T1204 731Q1130 731 1089 692T1040 578ZM389 311Q389 265 433 235T549 205Q619 205 663 234T707 311Q707 358 663 389T551 420Q478 420 434 390T389 311ZM1040 418Q1047 342 1090 300T1204 258Q1253 258 1290 278T1358 340L1681 240Q1595 106 1475 41T1194 -25Q1092 -25 1010 3T860 90Q780 33 682 4T467 -25Q273 -25 160 61T47 293Q47 439 158 536T438 633Q515 633 582 613T702 555V580Q702 676 648 721T475 766Q431 766 372 752T223 705V938Q304 967 388 981T559 995Q667 995 744 969T872 889Q943 943 1027 969T1210 995Q1433 995 1574 847T1716 461Q1716 454 1715 440T1714 418H1040Z"  />
<glyph unicode="&#xE7;" horiz-adv-x="1165" d="M1096 420Q1063 208 924 92T565 -25Q334 -25 189 118T43 489Q43 710 180 851T528 993Q617 993 683 964T780 881V973H1071V561H752Q730 613 688 640T588 668Q511 668 464 619T416 489Q416 408 460 361T582 313Q647 313 688 339T752 420H1096ZM317 -438V-301Q397 -323 466 -334T588 -346Q631 -346 652 -329T674 -274Q674 -242 646 -227T555 -211Q534 -211 522 -211T500 -213V0H614V-84H633Q744 -84 803 -133T862 -276Q862 -376 796 -430T608 -485Q550 -485 478 -474T317 -438Z"  />
<glyph unicode="&#xE8;" horiz-adv-x="1133" d="M422 578H739Q733 652 694 689T582 727Q509 727 469 689T422 578ZM1051 240Q967 110 848 43T582 -25Q338 -25 191 115T43 487Q43 710 193 852T580 995Q802 995 943 847T1085 461Q1085 454 1084 440T1083 418H422Q428 346 470 302T575 258Q624 258 662 278T729 340L1051 240ZM264 1477H551L743 1106H589L264 1477Z"  />
<glyph unicode="&#xE9;" horiz-adv-x="1133" d="M422 578H739Q733 652 694 689T582 727Q509 727 469 689T422 578ZM1051 240Q967 110 848 43T582 -25Q338 -25 191 115T43 487Q43 710 193 852T580 995Q802 995 943 847T1085 461Q1085 454 1084 440T1083 418H422Q428 346 470 302T575 258Q624 258 662 278T729 340L1051 240ZM874 1477L549 1106H395L587 1477H874Z"  />
<glyph unicode="&#xEA;" horiz-adv-x="1133" d="M422 578H739Q733 652 694 689T582 727Q509 727 469 689T422 578ZM1051 240Q967 110 848 43T582 -25Q338 -25 191 115T43 487Q43 710 193 852T580 995Q802 995 943 847T1085 461Q1085 454 1084 440T1083 418H422Q428 346 470 302T575 258Q624 258 662 278T729 340L1051 240ZM247 1106L440 1477H696L888 1106H735L569 1305L401 1106H247Z"  />
<glyph unicode="&#xEB;" horiz-adv-x="1133" d="M422 578H739Q733 652 694 689T582 727Q509 727 469 689T422 578ZM1051 240Q967 110 848 43T582 -25Q338 -25 191 115T43 487Q43 710 193 852T580 995Q802 995 943 847T1085 461Q1085 454 1084 440T1083 418H422Q428 346 470 302T575 258Q624 258 662 278T729 340L1051 240ZM624 1157V1427H876V1157H624ZM262 1157V1427H512V1157H262Z"  />
<glyph unicode="&#xEC;" horiz-adv-x="694" d="M532 295H637V0H49V295H168V678H49V973H532V295ZM28 1477H315L507 1106H353L28 1477Z"  />
<glyph unicode="&#xED;" horiz-adv-x="694" d="M532 295H637V0H49V295H168V678H49V973H532V295ZM638 1477L313 1106H159L351 1477H638Z"  />
<glyph unicode="&#xEE;" horiz-adv-x="694" d="M532 295H637V0H49V295H168V678H49V973H532V295ZM11 1106L204 1477H460L652 1106H499L333 1305L165 1106H11Z"  />
<glyph unicode="&#xEF;" horiz-adv-x="694" d="M532 295H637V0H49V295H168V678H49V973H532V295ZM388 1157V1427H640V1157H388ZM26 1157V1427H276V1157H26Z"  />
<glyph unicode="&#xF0;" horiz-adv-x="1165" d="M626 984L530 1122L238 1004L174 1149L440 1257L297 1475H608L686 1360L942 1462L1006 1313L778 1221L903 1032Q1041 823 1082 711T1124 485Q1124 270 969 123T582 -25Q352 -25 198 122T43 485Q43 625 113 742T307 928Q364 959 423 974T543 989Q563 989 584 988T626 984ZM582 657Q509 657 462 609T414 485Q414 412 461 364T582 315Q654 315 703 363T752 485Q752 559 703 608T582 657Z"  />
<glyph unicode="&#xF1;" horiz-adv-x="1266" d="M532 848Q609 923 682 959T831 995Q913 995 973 970T1071 893Q1093 863 1102 820T1112 682V657V295H1229V0H748V528Q748 621 726 656T651 692Q586 692 559 648T532 485V295H637V0H49V295H168V678H49V973H532V848ZM965 1432Q935 1299 883 1239T746 1178Q727 1178 709 1181T670 1190L578 1217Q555 1223 538 1226T510 1229Q477 1229 456 1211T420 1151H301Q329 1277 381 1337T516 1397Q535 1397 558 1393T607 1382L700 1356Q716 1351 730 1349T758 1346Q791 1346 813 1367T846 1432H965Z"  />
<glyph unicode="&#xF2;" horiz-adv-x="1165" d="M414 485Q414 412 462 364T582 315Q654 315 703 363T752 485Q752 559 703 608T582 657Q510 657 462 609T414 485ZM43 485Q43 702 197 848T582 995Q813 995 968 849T1124 485Q1124 270 969 123T582 -25Q352 -25 198 122T43 485ZM279 1477H566L758 1106H604L279 1477Z"  />
<glyph unicode="&#xF3;" horiz-adv-x="1165" d="M414 485Q414 412 462 364T582 315Q654 315 703 363T752 485Q752 559 703 608T582 657Q510 657 462 609T414 485ZM43 485Q43 702 197 848T582 995Q813 995 968 849T1124 485Q1124 270 969 123T582 -25Q352 -25 198 122T43 485ZM889 1477L564 1106H410L602 1477H889Z"  />
<glyph unicode="&#xF4;" horiz-adv-x="1165" d="M414 485Q414 412 462 364T582 315Q654 315 703 363T752 485Q752 559 703 608T582 657Q510 657 462 609T414 485ZM43 485Q43 702 197 848T582 995Q813 995 968 849T1124 485Q1124 270 969 123T582 -25Q352 -25 198 122T43 485ZM262 1106L455 1477H711L903 1106H750L584 1305L416 1106H262Z"  />
<glyph unicode="&#xF5;" horiz-adv-x="1165" d="M414 485Q414 412 462 364T582 315Q654 315 703 363T752 485Q752 559 703 608T582 657Q510 657 462 609T414 485ZM43 485Q43 702 197 848T582 995Q813 995 968 849T1124 485Q1124 270 969 123T582 -25Q352 -25 198 122T43 485ZM916 1432Q886 1299 834 1239T697 1178Q678 1178 660 1181T621 1190L529 1217Q506 1223 489 1226T461 1229Q428 1229 407 1211T371 1151H252Q280 1277 332 1337T467 1397Q486 1397 509 1393T558 1382L651 1356Q667 1351 681 1349T709 1346Q742 1346 764 1367T797 1432H916Z"  />
<glyph unicode="&#xF6;" horiz-adv-x="1165" d="M414 485Q414 412 462 364T582 315Q654 315 703 363T752 485Q752 559 703 608T582 657Q510 657 462 609T414 485ZM43 485Q43 702 197 848T582 995Q813 995 968 849T1124 485Q1124 270 969 123T582 -25Q352 -25 198 122T43 485ZM639 1157V1427H891V1157H639ZM277 1157V1427H527V1157H277Z"  />
<glyph unicode="&#xF7;" horiz-adv-x="1706" d="M854 371Q922 371 970 323T1018 205Q1018 137 971 89T854 41Q785 41 737 89T688 205Q688 273 737 322T854 371ZM254 727H1452V496H254V727ZM854 1182Q921 1182 969 1133T1018 1016Q1018 948 970 900T852 852Q783 852 736 900T688 1016Q688 1084 737 1133T854 1182Z"  />
<glyph unicode="&#xF8;" horiz-adv-x="1165" d="M195 127Q118 203 81 292T43 485Q43 702 197 848T582 995Q647 995 708 982T831 942L977 1124H1186L969 848Q1046 772 1085 681T1124 485Q1124 270 969 123T582 -25Q512 -25 450 -11T330 33L186 -147H-25L195 127ZM414 485Q414 412 462 364T582 315Q654 315 703 363T752 485Q752 559 703 608T582 657Q510 657 462 609T414 485Z"  />
<glyph unicode="&#xF9;" horiz-adv-x="1241" d="M723 125Q645 48 573 12T426 -25Q346 -25 285 2T186 80Q164 110 155 153T145 289V313V678H27V973H510V444Q510 349 531 314T604 279Q669 279 696 323T723 485V678H621V973H1090V295H1208V0H723V125ZM285 1477H572L764 1106H610L285 1477Z"  />
<glyph unicode="&#xFA;" horiz-adv-x="1241" d="M723 125Q645 48 573 12T426 -25Q346 -25 285 2T186 80Q164 110 155 153T145 289V313V678H27V973H510V444Q510 349 531 314T604 279Q669 279 696 323T723 485V678H621V973H1090V295H1208V0H723V125ZM895 1477L570 1106H416L608 1477H895Z"  />
<glyph unicode="&#xFB;" horiz-adv-x="1241" d="M723 125Q645 48 573 12T426 -25Q346 -25 285 2T186 80Q164 110 155 153T145 289V313V678H27V973H510V444Q510 349 531 314T604 279Q669 279 696 323T723 485V678H621V973H1090V295H1208V0H723V125ZM268 1106L461 1477H717L909 1106H756L590 1305L422 1106H268Z"  />
<glyph unicode="&#xFC;" horiz-adv-x="1241" d="M723 125Q645 48 573 12T426 -25Q346 -25 285 2T186 80Q164 110 155 153T145 289V313V678H27V973H510V444Q510 349 531 314T604 279Q669 279 696 323T723 485V678H621V973H1090V295H1208V0H723V125ZM645 1157V1427H897V1157H645ZM283 1157V1427H533V1157H283Z"  />
<glyph unicode="&#xFD;" horiz-adv-x="1237" d="M836 -428H268V-133H401L463 0L135 678H8V973H569V678H481L627 342L768 678H688V973H1212V678H1094L717 -133H836V-428ZM923 1477L598 1106H444L636 1477H923Z"  />
<glyph unicode="&#xFE;" horiz-adv-x="1305" d="M698 293Q781 293 835 345T889 479Q889 561 835 613T698 666Q617 666 562 613T506 479Q506 399 561 346T698 293ZM168 1180H49V1475H532V868Q590 934 661 964T827 995Q1012 995 1137 851T1262 485Q1262 273 1130 124T811 -25Q720 -25 654 3T532 94V-133H659V-426H49V-133H168V1180Z"  />
<glyph unicode="&#xFF;" horiz-adv-x="1237" d="M836 -428H268V-133H401L463 0L135 678H8V973H569V678H481L627 342L768 678H688V973H1212V678H1094L717 -133H836V-428ZM673 1157V1427H925V1157H673ZM311 1157V1427H561V1157H311Z"  />
<glyph unicode="&#x131;" horiz-adv-x="694" d="M532 295H637V0H49V295H168V678H49V973H532V295Z"  />
<glyph unicode="&#x152;" horiz-adv-x="2228" d="M985 449V1024Q985 1123 957 1151T846 1180Q671 1180 561 1057T451 735Q451 542 561 418T846 293Q928 293 956 321T985 449ZM944 0Q751 0 616 29T371 121Q222 207 138 371T53 737Q53 942 139 1107T381 1368Q474 1425 602 1450T944 1475H2134V944H1878L1790 1180H1366V940H1657V612H1366V295H1790L1878 582H2134V0H944Z"  />
<glyph unicode="&#x153;" horiz-adv-x="1810" d="M416 485Q416 412 464 364T584 315Q656 315 705 363T754 485Q754 559 705 608T584 657Q512 657 464 609T416 485ZM1087 578H1417Q1411 653 1369 692T1253 731Q1179 731 1137 692T1087 578ZM1087 418Q1094 342 1137 300T1253 258Q1302 258 1340 278T1407 340L1729 240Q1643 106 1522 41T1241 -25Q1151 -25 1071 1T920 80Q842 27 759 1T584 -25Q354 -25 199 122T43 485Q43 702 197 848T584 995Q680 995 765 969T922 889Q993 943 1075 969T1257 995Q1480 995 1621 847T1763 461Q1763 454 1762 440T1761 418H1087Z"  />
<glyph unicode="&#x160;" horiz-adv-x="1399" d="M403 154L412 0H90V500H432Q518 381 593 331T758 281Q832 281 877 316T922 410Q922 465 878 500T745 549L588 575Q332 617 206 732T80 1038Q80 1238 223 1371T580 1505Q693 1505 779 1465T928 1343L924 1475H1245V1010H924Q861 1118 795 1169T651 1221Q583 1221 539 1185T494 1094Q494 1039 541 1006T698 950L834 926Q1089 877 1212 763T1335 461Q1335 239 1197 105T827 -29Q696 -29 591 16T403 154ZM378 1956H532L700 1757L866 1956H1019L827 1585H571L378 1956Z"  />
<glyph unicode="&#x161;" horiz-adv-x="1075" d="M360 0H109V295H348Q390 229 439 198T547 166Q587 166 609 185T631 242Q631 267 612 283T545 315L389 365Q219 418 154 487T88 674Q88 816 188 906T446 997Q510 997 575 979T698 926V973H950V678H717Q699 742 658 774T555 807Q511 807 486 789T461 739Q461 709 485 689T575 647L684 612Q879 549 939 483T999 293Q999 146 903 61T639 -25Q578 -25 514 -9T360 45V0ZM217 1477H371L539 1278L705 1477H858L666 1106H410L217 1477Z"  />
<glyph unicode="&#x178;" horiz-adv-x="1503" d="M408 0V295H557V545L131 1180H16V1475H664V1180H545L758 831L969 1180H852V1475H1485V1180H1372L940 545V295H1096V0H408ZM807 1636V1906H1059V1636H807ZM445 1636V1906H695V1636H445Z"  />
<glyph unicode="&#x17D;" horiz-adv-x="1391" d="M70 0V295L838 1190H457L379 965H94V1475H1309V1202L512 285H977L1049 578H1319V0H70ZM374 1956H528L696 1757L862 1956H1015L823 1585H567L374 1956Z"  />
<glyph unicode="&#x17E;" horiz-adv-x="1085" d="M997 0H88V313L600 717H352L309 600H88V973H997V666L475 254H737L768 381H997V0ZM221 1477H375L543 1278L709 1477H862L670 1106H414L221 1477Z"  />
<glyph unicode="&#x192;" horiz-adv-x="1139" d="M18 -63Q61 -76 95 -83T150 -90Q218 -90 256 -46T307 92L377 629H143V844H401L426 1028Q457 1249 567 1357T872 1466Q928 1466 985 1457T1102 1430L1057 1143Q1010 1158 972 1166T905 1174Q826 1174 791 1123T737 915L729 844H991V629H702L653 209Q615 -116 510 -254T201 -393Q150 -393 96 -385T-20 -360L18 -63Z"  />
<glyph unicode="&#x2C6;" horiz-adv-x="1024" d="M190 1106L383 1477H639L831 1106H678L512 1305L344 1106H190Z"  />
<glyph unicode="&#x2C7;" horiz-adv-x="1024" d="M190 1477H344L512 1278L678 1477H831L639 1106H383L190 1477Z"  />
<glyph unicode="&#x2DC;" horiz-adv-x="1024" d="M844 1432Q814 1299 762 1239T625 1178Q606 1178 588 1181T549 1190L457 1217Q434 1223 417 1226T389 1229Q356 1229 335 1211T299 1151H180Q208 1277 260 1337T395 1397Q414 1397 437 1393T486 1382L579 1356Q595 1351 609 1349T637 1346Q670 1346 692 1367T725 1432H844Z"  />
<glyph unicode="&#x2013;" horiz-adv-x="1024" d="M0 389V631H1024V389H0Z"  />
<glyph unicode="&#x2014;" horiz-adv-x="2048" d="M0 631H2048V389H0V631Z"  />
<glyph unicode="&#x2018;" horiz-adv-x="553" d="M358 1024H45L176 1475H498L358 1024Z"  />
<glyph unicode="&#x2019;" horiz-adv-x="553" d="M360 1024H45L178 1475H500L360 1024Z"  />
<glyph unicode="&#x201A;" horiz-adv-x="553" d="M360 -162H45L178 289H500L360 -162Z"  />
<glyph unicode="&#x201C;" horiz-adv-x="1096" d="M903 1024H588L721 1475H1042L903 1024ZM360 1024H45L178 1475H500L360 1024Z"  />
<glyph unicode="&#x201D;" horiz-adv-x="1096" d="M903 1024H588L721 1475H1042L903 1024ZM360 1024H45L178 1475H500L360 1024Z"  />
<glyph unicode="&#x201E;" horiz-adv-x="1096" d="M360 -162H45L178 289H500L360 -162ZM903 -162H588L721 289H1042L903 -162Z"  />
<glyph unicode="&#x2020;" horiz-adv-x="1139" d="M440 -240V760H274V653H57V1090H274V983H440V1262H334V1475H803V1262H696V983H864V1090H1081V653H864V760H696V-240H440Z"  />
<glyph unicode="&#x2021;" horiz-adv-x="1139" d="M696 412H864V518H1081V82H864V188H696V-27H803V-240H334V-27H440V188H274V82H57V518H274V412H440V823H274V717H57V1153H274V1047H440V1262H334V1475H803V1262H696V1047H864V1153H1081V717H864V823H696V412Z"  />
<glyph unicode="&#x2022;" horiz-adv-x="1208" d="M307 762Q307 885 394 971T604 1057Q726 1057 812 971T899 762Q899 640 812 553T602 465Q479 465 393 552T307 762Z"  />
<glyph unicode="&#x2026;" horiz-adv-x="2048" d="M342 -25Q254 -25 195 34T135 180Q135 267 194 326T342 385Q430 385 489 327T549 180Q549 92 490 34T342 -25ZM1024 -25Q936 -25 877 34T817 180Q817 267 876 326T1024 385Q1112 385 1171 327T1231 180Q1231 92 1172 34T1024 -25ZM1708 -25Q1620 -25 1561 34T1501 180Q1501 267 1560 326T1708 385Q1796 385 1855 327T1915 180Q1915 92 1856 34T1708 -25Z"  />
<glyph unicode="&#x2030;" horiz-adv-x="2750" d="M2329 256Q2380 256 2415 291T2451 379Q2451 431 2416 466T2329 502Q2278 502 2243 467T2208 379Q2208 328 2243 292T2329 256ZM2707 379Q2707 218 2598 109T2329 0Q2169 0 2059 110T1948 379Q1948 538 2059 649T2329 760Q2488 760 2597 650T2707 379ZM1427 256Q1478 256 1513 291T1548 379Q1548 431 1513 466T1427 502Q1376 502 1341 467T1305 379Q1305 328 1341 292T1427 256ZM1806 379Q1806 218 1696 109T1425 0Q1267 0 1157 110T1047 379Q1047 538 1157 649T1425 760Q1585 760 1695 650T1806 379ZM1290 1464H1470L559 -29H379L1290 1464ZM422 934Q473 934 509 969T545 1057Q545 1108 509 1144T422 1180Q371 1180 336 1145T301 1057Q301 1006 336 970T422 934ZM803 1057Q803 896 693 787T422 678Q263 678 152 788T41 1057Q41 1216 152 1326T422 1436Q582 1436 692 1326T803 1057Z"  />
<glyph unicode="&#x2039;" horiz-adv-x="743" d="M662 154H377L100 485L377 817H662L383 485L662 154Z"  />
<glyph unicode="&#x203A;" horiz-adv-x="743" d="M84 154L360 485L84 817H367L645 485L367 154H84Z"  />
<glyph unicode="&#x2122;" horiz-adv-x="1706" d="M797 1464H1020L1133 1161L1247 1464H1468V913H1313V1303L1167 913H1102L952 1303V913H797V1464ZM188 1464H690V1337H526V913H352V1337H188V1464Z"  />

</font>
</defs>
</svg>
