<?xml  version="1.0" encoding="UTF-8"?>
<!DOCTYPE svg PUBLIC "-//W3C//DTD SVG 1.0//EN" "http://www.w3.org/TR/2001/REC-SVG-20010904/DTD/svg10.dtd" >
<svg xmlns="http://www.w3.org/2000/svg" >
<metadata>
<version>1.0</version>
<id><![CDATA[Geom Slab 703 W01 Extra Bold Cd]]></id>
<vendor>Monotype Imaging Inc.</vendor>
<credits>
<name>Fonts.com WebFonts</name>
<URL>http://webfonts.fonts.com</URL>
<role>Home of the Web fonts</role>
</credits>
<license>
<URL>http://webfonts.fonts.com/Legal</URL>
</license>
<copyright><![CDATA[Copyright 1990-2003 Bitstream Inc. All rights reserved.]]></copyright>
<trademark></trademark>
<licensee>
<name></name>
</licensee>
</metadata>
<defs >
<font horiz-adv-x="927" id="978e4988-09a5-4db8-bc9c-2da4a63a4a36">
<font-face font-family="" panose-1="2 6 8 6 2 2 5 5 4 3" ascent="2003" descent="-485" units-per-em="2048" alphabetic="0">
</font-face>
<missing-glyph horiz-adv-x="397" />

<glyph unicode="&#xA;" horiz-adv-x="0" />
<glyph unicode="&#xD;" horiz-adv-x="794" />
<glyph unicode=" " horiz-adv-x="397" />
<glyph unicode="!" horiz-adv-x="606" d="M412 451H195Q186 786 176 1010T152 1395H455Q441 1236 431 1012T412 451ZM154 121Q154 182 197 226T303 270Q366 270 409 227T453 121Q453 59 409 15T303 -29Q243 -29 199 16T154 121Z"  />
<glyph unicode="&quot;" horiz-adv-x="678" d="M406 1438H598V879H406V1438ZM80 1438H272V879H80V1438Z"  />
<glyph unicode="#" horiz-adv-x="1575" d="M709 848L621 604H872L958 848H709ZM709 1464H930L784 1049H1026L1174 1464H1395L1247 1049H1530L1456 848H1176L1092 606H1382L1311 406H1020L872 -10H651L799 406H555L406 -10H186L332 406H45L121 606H403L489 848H190L264 1049H561L709 1464Z"  />
<glyph unicode="$" horiz-adv-x="797" d="M442 506V209Q490 217 513 249T537 338Q537 391 513 433T442 506ZM352 889V1165Q314 1160 291 1129T268 1049Q268 995 289 955T352 889ZM727 1360V954H541V963Q541 1038 517 1087T442 1159V821Q606 728 683 616T760 358Q760 194 680 104T442 0V-203H352V2Q305 11 274 31T223 86V12H37V444H244V432Q244 335 270 282T352 213V580Q203 669 125 784T47 1028Q47 1176 130 1267T352 1364V1513H442V1360Q487 1347 517 1331T563 1292V1360H727Z"  />
<glyph unicode="%" horiz-adv-x="1190" d="M195 -29L862 1395H989L324 -29H195ZM883 231Q883 187 893 167T926 147Q949 147 960 167T971 231V485Q971 528 961 547T928 567Q904 567 894 548T883 485V231ZM721 209V502Q721 604 774 657T928 711Q1028 711 1080 658T1133 502V209Q1133 106 1081 53T928 0Q828 0 775 54T721 209ZM217 885Q217 842 228 822T262 801Q285 801 296 821T307 885V1139Q307 1181 296 1202T262 1223Q238 1223 228 1203T217 1139V885ZM57 864V1157Q57 1260 109 1313T262 1366Q363 1366 416 1313T469 1157V864Q469 762 416 708T262 653Q163 653 110 707T57 864Z"  />
<glyph unicode="&amp;" horiz-adv-x="1270" d="M424 608Q381 572 361 531T340 442Q340 354 399 293T545 231Q586 231 624 245T692 285L424 608ZM631 786L877 494Q897 529 909 565T923 635H844V850H1223V635H1157Q1144 539 1115 459T1038 311L1100 242H1210V0H936L838 106Q774 39 688 5T496 -29Q303 -29 182 86T61 383Q61 501 117 605T287 799Q225 881 196 954T166 1098Q166 1241 263 1332T514 1423Q656 1423 742 1342T829 1128Q829 1035 780 950T631 786ZM473 952Q532 996 560 1037T588 1122Q588 1159 562 1185T500 1212Q451 1212 423 1184T395 1106Q395 1072 414 1035T473 952Z"  />
<glyph unicode="&apos;" horiz-adv-x="352" d="M80 1438H272V879H80V1438Z"  />
<glyph unicode="(" horiz-adv-x="555" d="M330 -195Q210 1 149 205T88 614Q88 819 148 1022T330 1421H535Q444 1215 398 1013T352 614Q352 418 398 215T535 -195H330Z"  />
<glyph unicode=")" horiz-adv-x="555" d="M225 1421Q346 1225 406 1022T467 614Q467 409 406 205T225 -195H20Q110 11 155 213T201 614Q201 812 156 1013T20 1421H225Z"  />
<glyph unicode="*" horiz-adv-x="664" d="M231 870L100 967L215 1106L41 1151L94 1307L260 1239L248 1421H414L401 1239L571 1307L623 1149L442 1104L557 965L426 868L328 1022L231 870Z"  />
<glyph unicode="+" horiz-adv-x="1706" d="M752 1221H954V711H1452V512H954V0H752V512H254V711H752V1221Z"  />
<glyph unicode="&#x2c;" horiz-adv-x="397" d="M115 287H346L201 -172H-29L115 287Z"  />
<glyph unicode="-" horiz-adv-x="653" d="M51 350V573H602V350H51Z"  />
<glyph unicode="." horiz-adv-x="397" d="M49 133Q49 194 93 238T199 283Q262 283 305 240T348 133Q348 71 304 28T199 -16Q139 -16 94 28T49 133Z"  />
<glyph unicode="/" horiz-adv-x="621" d="M-49 -190L528 1421H672L94 -190H-49Z"  />
<glyph unicode="0" horiz-adv-x="797" d="M739 975V389Q739 185 652 78T397 -29Q231 -29 144 77T57 389V975Q57 1180 144 1287T397 1395Q564 1395 651 1288T739 975ZM455 1098Q455 1133 440 1152T397 1171Q370 1171 356 1153T342 1098V268Q342 232 356 214T397 195Q425 195 440 214T455 268V1098Z"  />
<glyph unicode="1" horiz-adv-x="797" d="M180 0V215H270V1153H180V1366H541V215H631V0H180Z"  />
<glyph unicode="2" horiz-adv-x="797" d="M55 928V1073Q55 1218 146 1306T387 1395Q541 1395 633 1301T725 1051Q725 977 695 885T606 692L324 205H520V369H731V0H47V217L328 692Q397 810 427 895T457 1057Q457 1117 438 1144T379 1171Q342 1171 323 1146T303 1073V928H55Z"  />
<glyph unicode="3" horiz-adv-x="797" d="M537 717Q630 704 683 616T737 387Q737 183 648 77T385 -29Q220 -29 137 73T53 379V422H295V371Q295 268 314 231T383 193Q425 193 447 220T469 301V477Q469 541 434 570T322 600V805H340Q406 805 435 837T465 944V1075Q465 1122 445 1148T387 1174Q344 1174 327 1141T309 1018V971H70V1022Q70 1210 148 1302T385 1395Q553 1395 637 1300T721 1014Q721 875 675 800T537 717Z"  />
<glyph unicode="4" horiz-adv-x="797" d="M410 1366H666V563H750V360H666V209H750V0H315V209H410V360H31V594L410 1366ZM211 563H418L430 1008L211 563Z"  />
<glyph unicode="5" horiz-adv-x="797" d="M104 602V1366H655V1130H344V838Q365 857 397 867T471 877Q606 877 666 770T727 418Q727 189 642 80T377 -29Q221 -29 132 64T43 319V397H287V340Q287 268 309 232T375 195Q414 195 435 222T457 301V537Q457 612 439 641T375 670Q346 670 329 654T301 602H104Z"  />
<glyph unicode="6" horiz-adv-x="797" d="M475 516Q475 575 458 602T401 629Q363 629 346 602T328 516V301Q328 242 345 215T401 188Q440 188 457 215T475 301V516ZM719 1071V1014H473V1077Q473 1128 455 1153T399 1178Q356 1178 340 1146T324 1006V754Q344 797 386 820T487 844Q619 844 682 746T745 442Q745 195 664 83T403 -29Q235 -29 145 83T55 408V963Q55 1180 139 1287T395 1395Q549 1395 634 1310T719 1071Z"  />
<glyph unicode="7" horiz-adv-x="797" d="M57 967V1366H739V1145L414 0H147L471 1137H279V967H57Z"  />
<glyph unicode="8" horiz-adv-x="797" d="M477 295V494Q477 557 459 583T397 610Q355 610 336 584T317 494V295Q317 231 336 205T397 178Q440 178 458 204T477 295ZM467 915V1090Q467 1144 451 1167T397 1190Q359 1190 344 1168T328 1090V915Q328 859 343 837T397 815Q435 815 451 838T467 915ZM531 715Q628 710 683 621T739 377Q739 179 652 75T397 -29Q231 -29 144 73T57 369Q57 529 111 619T264 715Q163 730 118 806T72 1038Q72 1218 152 1306T397 1395Q562 1395 642 1307T723 1038Q723 883 678 807T531 715Z"  />
<glyph unicode="9" horiz-adv-x="797" d="M322 850Q322 790 339 763T395 735Q433 735 451 762T469 850V1065Q469 1123 451 1150T395 1178Q357 1178 340 1151T322 1065V850ZM76 352H324V289Q324 238 342 212T397 186Q440 186 456 218T473 358V612Q453 569 411 546T309 522Q179 522 115 621T51 924Q51 1171 132 1283T393 1395Q562 1395 651 1283T741 958V403Q741 186 657 79T401 -29Q247 -29 162 56T76 295V352Z"  />
<glyph unicode=":" horiz-adv-x="446" d="M223 283Q286 283 329 240T373 133Q373 71 329 28T223 -16Q163 -16 119 28T74 133Q74 194 117 238T223 283ZM223 834Q286 834 329 791T373 684Q373 623 329 580T223 537Q163 537 119 580T74 684Q74 745 117 789T223 834Z"  />
<glyph unicode=";" horiz-adv-x="446" d="M127 287H356L211 -172H-18L127 287ZM240 834Q303 834 346 791T389 684Q389 623 345 580T240 537Q179 537 135 580T90 684Q90 745 134 789T240 834Z"  />
<glyph unicode="&lt;" horiz-adv-x="1706" d="M1442 1194V975L549 610L1442 246V27L264 512V711L1442 1194Z"  />
<glyph unicode="=" horiz-adv-x="1706" d="M254 496H1452V297H254V496ZM254 926H1452V727H254V926Z"  />
<glyph unicode="&gt;" horiz-adv-x="1706" d="M264 1194L1442 711V512L264 27V246L1159 610L264 975V1194Z"  />
<glyph unicode="?" horiz-adv-x="844" d="M375 270Q438 270 481 227T524 121Q524 59 480 15T375 -29Q315 -29 270 16T225 121Q225 182 269 226T375 270ZM494 696V469H260V860Q266 860 277 859T295 858Q407 858 465 905T524 1042Q524 1118 493 1159T406 1200Q353 1200 322 1172T291 1094V1067H59V1110Q59 1255 149 1338T399 1421Q570 1421 664 1318T758 1026Q758 883 686 794T494 696Z"  />
<glyph unicode="@" horiz-adv-x="2048" d="M1167 272Q1112 188 1040 149T870 109Q712 109 630 195T547 449Q547 688 686 850T1030 1012Q1110 1012 1169 979T1266 881L1319 979H1497L1350 381Q1347 370 1345 359T1343 340Q1343 305 1367 288T1438 270Q1477 270 1519 290T1599 346Q1685 426 1729 533T1774 768Q1774 1008 1589 1162T1110 1317Q969 1317 848 1283T627 1182Q457 1068 366 897T274 522Q274 215 481 32T1034 -152Q1196 -152 1350 -103T1638 39L1720 -78Q1567 -193 1396 -251T1038 -309Q846 -309 685 -261T399 -117Q244 4 167 162T90 520Q90 687 142 838T297 1114Q445 1295 653 1388T1116 1481Q1285 1481 1433 1436T1692 1307Q1827 1202 1893 1068T1960 764Q1960 599 1895 460T1706 221Q1636 165 1554 136T1382 106Q1276 106 1223 148T1167 272ZM1217 700Q1204 781 1160 823T1042 866Q928 866 844 742T760 444Q760 352 800 304T918 256Q1001 256 1069 319T1163 483L1217 700Z"  />
<glyph unicode="A" horiz-adv-x="1100" d="M438 573H633L541 1063L438 573ZM25 0V246H90L322 1147H219V1395H883V1147H786L1010 246H1075V0H592V246H692L666 389H399L369 246H467V0H25Z"  />
<glyph unicode="B" horiz-adv-x="1028" d="M446 227H508Q584 227 616 263T649 383V492Q649 562 614 594T500 627H446V227ZM446 848H502Q582 848 611 874T641 967V1042Q641 1108 610 1136T506 1165H446V848ZM51 0V246H137V1147H51V1395H545Q745 1395 839 1317T934 1075V1038Q934 900 872 828T676 737Q825 719 891 647T958 434V371Q958 173 870 87T578 0H51Z"  />
<glyph unicode="C" horiz-adv-x="901" d="M860 487V397Q860 189 758 80T461 -29Q264 -29 163 91T61 442V881Q61 1161 140 1291T389 1421Q463 1421 517 1395T610 1315V1395H852V958H590V1001Q590 1079 566 1115T489 1151Q437 1151 413 1116T389 1001V393Q389 314 413 278T489 242Q543 242 567 278T592 393V487H860Z"  />
<glyph unicode="D" horiz-adv-x="1057" d="M465 1157V238H506Q594 238 631 293T668 487V946Q668 1060 631 1108T508 1157H465ZM51 1395H451Q753 1395 874 1279T995 870V547Q995 258 878 129T500 0H51V246H137V1147H51V1395Z"  />
<glyph unicode="E" horiz-adv-x="1038" d="M51 0V246H137V1147H51V1395H967V977H711V1157H465V858H682V588H465V238H711V455H967V0H51Z"  />
<glyph unicode="F" horiz-adv-x="995" d="M51 0V246H137V1147H51V1395H967V973H711V1157H465V858H682V588H465V246H551V0H51Z"  />
<glyph unicode="G" horiz-adv-x="901" d="M643 66Q596 20 537 -4T412 -29Q241 -29 151 91T61 442V881Q61 1161 140 1291T389 1421Q463 1421 517 1395T610 1315V1395H834V952H590V1001Q590 1079 566 1115T489 1151Q437 1151 413 1116T389 1001V387Q389 309 413 276T492 242Q545 242 568 275T592 387V469H498V707H848V0H688L643 66Z"  />
<glyph unicode="H" horiz-adv-x="1157" d="M51 1395H537V1147H465V858H692V1147H621V1395H1104V1147H1020V246H1104V0H621V246H692V588H465V246H537V0H51V246H137V1147H51V1395Z"  />
<glyph unicode="I" horiz-adv-x="602" d="M51 0V246H137V1147H51V1395H551V1147H465V246H551V0H51Z"  />
<glyph unicode="J" horiz-adv-x="602" d="M57 -285V0H76Q117 0 134 20T152 90V1147H66V1395H563V1147H479V92Q479 -105 386 -195T88 -285H57Z"  />
<glyph unicode="K" horiz-adv-x="1096" d="M51 0V246H137V1147H51V1395H537V1147H465V735L735 1147H641V1395H1094V1147H1018L748 735L1024 246H1096V0H635V246H713L465 731V246H537V0H51Z"  />
<glyph unicode="L" horiz-adv-x="991" d="M51 0V246H137V1147H51V1395H551V1147H465V238H696V479H952V0H51Z"  />
<glyph unicode="M" horiz-adv-x="1374" d="M51 1395H537L686 817L850 1395H1323V1147H1237V246H1323V0H870V246H940L961 1110L723 283H606L395 1110V246H467V0H51V246H137V1147H51V1395Z"  />
<glyph unicode="N" horiz-adv-x="1157" d="M51 0V246H137V1147H51V1395H457L758 563V1147H682V1395H1104V1147H1020V0H741L408 903V246H479V0H51Z"  />
<glyph unicode="O" horiz-adv-x="938" d="M877 1004V389Q877 184 773 78T469 -29Q269 -29 165 77T61 389V1004Q61 1209 165 1315T469 1421Q669 1421 773 1315T877 1004ZM551 1032Q551 1093 531 1122T469 1151Q427 1151 408 1123T389 1032V360Q389 298 408 270T469 242Q512 242 531 270T551 360V1032Z"  />
<glyph unicode="P" horiz-adv-x="1014" d="M465 778H516Q595 778 622 805T649 922V1036Q649 1106 618 1131T496 1157H465V778ZM51 0V246H137V1147H51V1395H582Q772 1395 865 1310T958 1049V891Q958 718 877 630T637 541H465V246H551V0H51Z"  />
<glyph unicode="Q" horiz-adv-x="938" d="M61 389V1004Q61 1209 165 1315T469 1421Q669 1421 773 1315T877 1004V389Q877 238 821 141T657 4L897 -252H575L375 -23Q217 5 139 107T61 389ZM389 360Q389 298 408 270T469 242Q512 242 531 270T551 360V1032Q551 1093 531 1122T469 1151Q427 1151 408 1123T389 1032V360Z"  />
<glyph unicode="R" horiz-adv-x="1075" d="M465 844H547Q617 844 645 868T674 950V1053Q674 1112 642 1134T510 1157H465V844ZM51 0V246H137V1147H51V1395H561Q798 1395 894 1323T991 1077V989Q991 862 931 798T739 723Q877 701 934 648T991 492V246H1073V0H674V473Q674 555 634 585T483 616H465V246H537V0H51Z"  />
<glyph unicode="S" horiz-adv-x="872" d="M51 0V455H285V446Q285 344 323 287T430 229Q472 229 497 256T522 330Q522 369 504 406T451 477L199 717Q129 784 89 878T49 1073Q49 1227 134 1324T352 1421Q411 1421 465 1399T569 1331V1395H793V987H569Q558 1080 528 1124T446 1169Q406 1169 378 1143T350 1075Q350 1046 366 1013T410 952L674 700Q760 619 797 537T834 344Q834 174 744 73T502 -29Q435 -29 380 -2T276 82V0H51Z"  />
<glyph unicode="T" horiz-adv-x="1020" d="M260 0V246H346V1165H238V952H47V1395H973V952H782V1165H674V246H758V0H260Z"  />
<glyph unicode="U" horiz-adv-x="1157" d="M137 352V1147H51V1395H537V1147H465V371Q465 303 491 273T578 242Q637 242 664 272T692 371V1147H621V1395H1104V1147H1020V352Q1020 166 907 69T578 -29Q362 -29 250 68T137 352Z"  />
<glyph unicode="V" horiz-adv-x="999" d="M397 -16L88 1147H25V1395H461V1147H399L514 483L637 1147H563V1395H977V1147H918L614 -16H397Z"  />
<glyph unicode="W" horiz-adv-x="1446" d="M360 -14L90 1147H18V1395H438V1147H362L483 563L625 1147H559V1395H885V1147H819L961 563L1081 1147H1004V1395H1427V1147H1362L1085 -14H897L717 694L528 -14H360Z"  />
<glyph unicode="X" horiz-adv-x="999" d="M23 0V246H82L356 678L80 1147H29V1395H477V1147H401L524 940L655 1147H578V1395H979V1147H936L664 719L928 246H975V0H532V246H604L494 455L362 246H426V0H23Z"  />
<glyph unicode="Y" horiz-adv-x="1071" d="M25 1395H483V1147H410L543 784L678 1147H612V1395H1049V1147H979L682 543V246H768V0H270V246H356V561L90 1147H25V1395Z"  />
<glyph unicode="Z" horiz-adv-x="901" d="M47 0V272L545 1157H303V985H47V1395H854V1135L344 238H598V455H854V0H47Z"  />
<glyph unicode="[" horiz-adv-x="555" d="M119 -166V1395H555V1229H371V0H555V-166H119Z"  />
<glyph unicode="\" horiz-adv-x="621" d="M526 -190L-51 1421H94L672 -190H526Z"  />
<glyph unicode="]" horiz-adv-x="555" d="M436 1395V-166H0V0H184V1229H0V1395H436Z"  />
<glyph unicode="^" horiz-adv-x="2048" d="M897 1460H1149L1630 899H1395L1024 1270L651 899H416L897 1460Z"  />
<glyph unicode="_" horiz-adv-x="1024" d="M0 -279H1024V-483H0V-279Z"  />
<glyph unicode="`" horiz-adv-x="1024" d="M238 1395H496L668 1024H530L238 1395Z"  />
<glyph unicode="a" horiz-adv-x="844" d="M342 285Q342 246 358 227T406 207Q445 207 464 230T483 303V602Q483 649 466 670T412 692Q375 692 359 671T342 602V285ZM496 94Q452 37 405 11T299 -16Q189 -16 133 51T76 250V647Q76 776 135 844T303 913Q370 913 422 883T514 791V895H807V678H750V217H807V0H496V94Z"  />
<glyph unicode="b" horiz-adv-x="819" d="M356 287Q356 239 374 217T432 195Q466 195 482 213T498 270V592Q498 639 482 661T430 684Q398 684 377 661T356 600V287ZM33 0V217H90V1176H33V1395H356V825Q388 870 433 891T537 913Q646 913 705 845T764 647V250Q764 119 707 52T539 -16Q474 -16 423 8T324 84V0H33Z"  />
<glyph unicode="c" horiz-adv-x="758" d="M719 352V322Q719 163 634 74T399 -16Q227 -16 139 89T51 399V563Q51 723 124 818T317 913Q373 913 419 892T508 825V895H707V590H486Q482 641 460 667T397 694Q354 694 336 657T317 530V379Q317 272 335 237T399 201Q440 201 459 234T479 340V352H719Z"  />
<glyph unicode="d" horiz-adv-x="819" d="M322 285Q322 246 338 227T387 207Q427 207 446 230T465 303V602Q465 649 448 670T393 692Q356 692 339 670T322 602V285ZM492 94Q447 41 394 13T285 -16Q175 -16 116 52T57 248V645Q57 777 114 845T281 913Q340 913 387 888T465 815V1176H408V1395H729V217H786V0H492V94Z"  />
<glyph unicode="e" horiz-adv-x="782" d="M317 557H481V594Q481 648 460 679T401 711Q356 711 337 681T317 575V557ZM725 288Q720 146 630 65T387 -16Q221 -16 136 86T51 389V518Q51 698 142 805T383 913Q548 913 635 813T723 522V395H317V336Q317 266 338 234T403 201Q439 201 460 223T487 289L725 288Z"  />
<glyph unicode="f" horiz-adv-x="494" d="M57 0V217H115V692H57V895H115V1153Q115 1279 166 1337T328 1395H455V1180H449Q409 1180 394 1159T379 1081V895H436V692H379V217H436V0H57Z"  />
<glyph unicode="g" horiz-adv-x="819" d="M322 285Q322 246 338 227T387 207Q427 207 446 230T465 303V602Q465 649 448 670T393 692Q356 692 339 670T322 602V285ZM465 86Q433 36 386 10T281 -16Q168 -16 113 50T57 250V647Q57 776 116 844T285 913Q354 913 407 883T496 791V895H786V678H729V23Q729 -195 638 -301T360 -408Q280 -408 213 -392T90 -342V-119Q141 -156 192 -173T301 -190Q388 -190 426 -150T465 -16V86Z"  />
<glyph unicode="h" horiz-adv-x="887" d="M33 1395H356V799Q404 855 457 883T571 911Q681 911 731 845T782 633V217H840V0H516V559Q516 620 498 646T436 672Q393 672 375 646T356 559V217H412V0H33V217H90V1176H33V1395Z"  />
<glyph unicode="i" horiz-adv-x="469" d="M104 1040V1311H379V1040H104ZM57 0V217H115V678H57V895H379V217H436V0H57Z"  />
<glyph unicode="j" horiz-adv-x="432" d="M33 895H356V-59Q356 -248 282 -326T25 -407V-164Q63 -161 76 -141T90 -51V678H33V895ZM80 1311H356V1040H80V1311Z"  />
<glyph unicode="k" horiz-adv-x="868" d="M33 0V217H90V1176H33V1395H356V477L553 696H455V895H854V678H809L629 475L817 217H868V0H481V217H539L356 471V217H412V0H33Z"  />
<glyph unicode="l" horiz-adv-x="446" d="M33 0V217H90V1176H33V1395H356V217H412V0H33Z"  />
<glyph unicode="m" horiz-adv-x="1294" d="M766 782Q813 847 870 879T993 911Q1096 911 1143 845T1190 633V217H1247V0H934V559Q934 620 916 646T856 672Q816 672 798 646T780 559V217H838V0H524V559Q524 620 506 646T446 672Q407 672 389 646T371 559V217H426V0H57V217H115V678H57V895H344V770Q398 842 456 876T584 911Q650 911 696 879T766 782Z"  />
<glyph unicode="n" horiz-adv-x="909" d="M807 633V217H862V0H541V559Q541 620 523 646T461 672Q417 672 398 646T379 559V217H436V0H57V217H115V678H57V895H354V770Q405 840 465 875T596 911Q706 911 756 845T807 633Z"  />
<glyph unicode="o" horiz-adv-x="778" d="M725 559V338Q725 164 640 74T389 -16Q224 -16 138 74T51 338V559Q51 732 137 822T389 913Q554 913 639 823T725 559ZM461 586Q461 637 442 665T389 694Q355 694 336 666T317 586V309Q317 257 336 229T389 201Q423 201 442 229T461 309V586Z"  />
<glyph unicode="p" horiz-adv-x="819" d="M356 287Q356 239 374 217T432 195Q466 195 482 213T498 270V592Q498 639 482 661T430 684Q398 684 377 661T356 600V287ZM764 647V250Q764 119 707 52T539 -16Q485 -16 442 4T356 70V-162H412V-379H33V-162H90V678H33V895H326V791Q364 852 416 882T537 913Q646 913 705 845T764 647Z"  />
<glyph unicode="q" horiz-adv-x="819" d="M465 600Q465 636 444 660T389 684Q355 684 339 662T322 592V270Q322 231 337 213T387 195Q427 195 446 217T465 287V600ZM496 791V895H786V678H729V-162H786V-379H408V-162H465V70Q423 25 379 5T281 -16Q171 -16 114 51T57 250V647Q57 776 116 844T285 913Q352 913 404 883T496 791Z"  />
<glyph unicode="r" horiz-adv-x="674" d="M604 913H659V594Q610 612 572 621T506 631Q437 631 408 597T379 479V217H436V0H57V217H115V678H57V895H354V770Q399 843 460 878T604 913Z"  />
<glyph unicode="s" horiz-adv-x="664" d="M47 0V301H231Q240 242 266 210T334 178Q364 178 381 194T399 238Q399 257 386 275T342 315L162 446Q109 485 80 544T51 672Q51 777 114 845T272 913Q318 913 360 893T444 831V895H608V635H428Q420 684 400 708T346 733Q320 733 303 718T285 680Q285 662 297 646T336 610L487 500Q562 446 596 382T631 231Q631 125 566 55T403 -16Q350 -16 306 5T217 74V0H47Z"  />
<glyph unicode="t" horiz-adv-x="469" d="M422 -16H356Q188 -16 139 26T90 211V692H33V895H90V1219H356V895H412V692H356V287Q356 241 365 230T408 219H422V-16Z"  />
<glyph unicode="u" horiz-adv-x="887" d="M47 895H371V336Q371 275 389 249T451 223Q493 223 511 249T530 336V678H473V895H797V217H854V0H555V125Q502 53 443 19T315 -16Q205 -16 155 50T104 262V678H47V895Z"  />
<glyph unicode="v" horiz-adv-x="858" d="M319 -6L74 678H25V895H389V678H334L436 307L547 678H479V895H834V678H780L526 -6H319Z"  />
<glyph unicode="w" horiz-adv-x="1200" d="M283 -6L66 678H25V895H371V678H317L408 307L518 678H467V895H768V678H709L813 307L905 678H858V895H1176V678H1133L915 -6H721L596 451L467 -6H283Z"  />
<glyph unicode="x" horiz-adv-x="758" d="M39 895H328V768L397 657L467 768V895H713V678H653L516 479L688 217H737V0H436V152L362 260L283 152V0H20V217H82L242 442L90 678H39V895Z"  />
<glyph unicode="y" horiz-adv-x="858" d="M133 -379V-162H207L299 66L74 678H25V895H389V678H334L434 307L547 678H479V895H834V678H780L440 -162H524V-379H133Z"  />
<glyph unicode="z" horiz-adv-x="758" d="M33 0V231L449 702H260V602H51V895H725V659L313 195H537V299H725V0H33Z"  />
<glyph unicode="{" horiz-adv-x="1024" d="M883 1477V1268Q874 1268 858 1269T836 1270Q735 1270 700 1232T664 1069V829Q664 681 619 619T457 530Q574 503 619 442T664 233V-8Q664 -131 699 -169T836 -207Q842 -207 858 -206T883 -205V-414Q869 -414 844 -415T807 -416Q707 -416 640 -404T526 -367Q469 -333 446 -276T422 -76V176Q422 313 371 370T199 428Q193 428 179 427T158 426V635Q165 635 179 634T199 633Q319 633 370 691T422 887V1137Q422 1280 445 1338T526 1430Q573 1455 640 1467T807 1479Q819 1479 844 1478T883 1477Z"  />
<glyph unicode="|" horiz-adv-x="1024" d="M410 1565H616V-483H410V1565Z"  />
<glyph unicode="}" horiz-adv-x="1024" d="M143 1477H211Q321 1477 388 1465T500 1427Q557 1395 580 1336T604 1137V885Q604 748 655 691T827 633Q833 633 847 634T868 635V426H831Q706 426 655 370T604 176V-76Q604 -219 581 -277T500 -367Q453 -392 386 -404T219 -416Q207 -416 182 -415T143 -414V-205Q152 -205 168 -206T190 -207Q291 -207 326 -169T362 -8V231Q362 381 407 442T569 530Q452 557 407 619T362 829V1071Q362 1193 327 1231T190 1270Q184 1270 168 1269T143 1268V1477Z"  />
<glyph unicode="~" horiz-adv-x="1706" d="M1530 803V582Q1426 511 1334 478T1151 444Q1105 444 1059 452T967 475Q943 483 896 500Q677 575 563 575Q478 575 386 538T178 418V639Q285 711 382 746T565 782Q682 782 856 724L860 723Q878 717 915 704Q1070 649 1155 649Q1240 649 1330 686T1530 803Z"  />
<glyph unicode="&#xA0;" horiz-adv-x="797" />
<glyph unicode="&#xA1;" horiz-adv-x="606" d="M412 944Q420 606 430 382T455 0H152Q165 160 175 384T195 944H412ZM154 1274Q154 1335 197 1378T303 1421Q366 1421 409 1379T453 1274Q453 1212 409 1168T303 1124Q243 1124 199 1169T154 1274Z"  />
<glyph unicode="&#xA2;" horiz-adv-x="797" d="M473 684Q461 696 446 701T408 707Q345 707 321 656T297 449Q297 365 308 320T344 262L473 684ZM618 1143H698L631 911H737V600H530L410 216Q416 214 422 214T440 213Q490 213 512 250T535 375H743Q744 367 744 357T745 326Q745 166 664 80T430 -6Q406 -6 384 -4T340 2L260 -260H180L268 23Q154 62 100 170T45 467Q45 705 116 816T340 928Q398 928 446 910T530 854L618 1143Z"  />
<glyph unicode="&#xA3;" horiz-adv-x="797" d="M729 983H506V1044Q506 1130 488 1163T424 1196Q385 1196 365 1170T344 1092Q344 1048 357 973T397 786H598V596H418V575Q418 453 399 368T338 223Q363 206 385 198T428 190Q487 190 512 233T537 383H745Q747 366 747 348T748 295Q748 123 690 47T502 -29Q436 -29 372 -9T246 53Q204 16 161 -4T70 -29V178Q130 232 159 314T188 518Q188 549 188 565T186 596H70V786H156Q131 871 119 946T106 1087Q106 1231 188 1313T416 1395Q582 1395 655 1315T729 1051V983Z"  />
<glyph unicode="&#xA4;" horiz-adv-x="797" d="M750 348Q750 149 675 60T428 -29Q261 -29 175 77T88 389V516H-10L8 631H88V750H-10L8 864H88V975Q88 1189 163 1292T397 1395Q449 1395 497 1371T561 1311V1368H739V954H496V1098Q496 1132 479 1151T432 1171Q404 1171 389 1152T373 1098V864H649L631 750H373V631H598L580 516H373V268Q373 233 388 214T432 195Q461 195 478 214T496 268V426H750V348Z"  />
<glyph unicode="&#xA5;" horiz-adv-x="891" d="M231 0V246H315V543L303 578H47V692H252L199 811H47V924H152L70 1118H0V1366H387V1118H317L446 756L590 1118H526V1366H891V1118H823L723 924H844V811H670L614 692H844V578H557L549 543V246H633V0H231Z"  />
<glyph unicode="&#xA6;" horiz-adv-x="1024" d="M410 408H616V-350H410V408ZM410 1432H616V674H410V1432Z"  />
<glyph unicode="&#xA7;" horiz-adv-x="891" d="M406 735Q389 755 373 763T336 772Q302 772 281 750T260 694Q260 673 270 651T301 604L475 401Q498 375 517 365T561 354Q595 354 616 376T637 434Q637 454 626 475T580 539L406 735ZM524 1395H750V1069H569V1219H520Q449 1219 413 1198T377 1135Q377 1090 490 962L500 950L721 698Q791 619 816 562T842 440Q842 343 789 283T637 209Q689 158 715 103T741 -10Q741 -130 648 -205T403 -281H139V43H319V-104H373Q443 -104 480 -83T518 -23Q518 10 502 41T436 129L186 414Q123 486 91 554T59 686Q59 777 113 841T258 922Q215 976 194 1030T172 1141Q172 1268 260 1331T524 1395Z"  />
<glyph unicode="&#xA8;" horiz-adv-x="1024" d="M567 1081V1337H805V1081H567ZM217 1081V1337H455V1081H217Z"  />
<glyph unicode="&#xA9;" horiz-adv-x="1706" d="M1212 897H1024Q1016 967 971 1005T852 1044Q761 1044 709 963T657 735Q657 588 709 511T860 434Q933 434 977 476T1030 595L1223 596Q1215 457 1114 373T854 289Q668 289 561 407T453 729Q453 935 562 1057T856 1180Q1008 1180 1106 1102T1212 897ZM854 1356Q726 1356 615 1310T416 1176Q327 1086 280 973T233 735Q233 610 280 498T416 297Q504 209 617 162T854 115Q978 115 1091 162T1296 299Q1384 385 1429 496T1475 735Q1475 861 1429 973T1294 1174Q1205 1263 1093 1309T854 1356ZM852 1479Q1004 1479 1139 1423T1382 1260Q1487 1155 1542 1020T1597 733Q1597 581 1543 449T1382 213Q1271 105 1134 48T852 -10Q705 -10 572 46T330 211Q223 317 167 451T111 733Q111 882 167 1017T330 1262Q435 1368 568 1423T852 1479Z"  />
<glyph unicode="&#xAA;" horiz-adv-x="633" d="M256 965Q256 938 268 925T305 911Q335 911 348 927T362 979V1188Q362 1222 350 1236T309 1251Q282 1251 269 1236T256 1188V965ZM373 831Q341 792 305 773T225 754Q142 754 100 801T57 940V1219Q57 1308 101 1356T227 1405Q278 1405 317 1384T385 1319V1393H606V1241H563V918H606V766H373V831Z"  />
<glyph unicode="&#xAB;" horiz-adv-x="1014" d="M51 457L289 774H530L299 457L530 139H289L51 457ZM483 457L721 774H963L729 457L963 139H721L483 457Z"  />
<glyph unicode="&#xAC;" horiz-adv-x="1706" d="M254 864H1452V362H1253V668H254V864Z"  />
<glyph unicode="&#xAD;" horiz-adv-x="653" d="M51 350V573H602V350H51Z"  />
<glyph unicode="&#xAE;" horiz-adv-x="1706" d="M745 1034V795H844Q932 795 973 823T1014 911Q1014 974 970 1004T834 1034H745ZM545 1161H868Q1044 1161 1132 1102T1221 924Q1221 842 1173 784T1040 705L1225 336H1001L844 674H745V336H545V1161ZM854 1356Q727 1356 618 1312T422 1180Q331 1089 282 974T233 735Q233 611 279 500T412 301Q501 210 615 162T852 113Q972 113 1085 160T1292 295Q1379 379 1427 491T1475 723Q1475 856 1431 968T1298 1169Q1208 1262 1096 1309T854 1356ZM852 1479Q1006 1479 1142 1422T1386 1255Q1489 1151 1543 1017T1597 733Q1597 581 1541 446T1378 207Q1271 102 1135 46T852 -10Q703 -10 567 48T324 215Q220 320 166 453T111 733Q111 835 138 931T219 1120Q320 1290 486 1384T852 1479Z"  />
<glyph unicode="&#xAF;" horiz-adv-x="1024" d="M236 1124V1292H788V1124H236Z"  />
<glyph unicode="&#xB0;" horiz-adv-x="674" d="M338 1335Q265 1335 214 1284T162 1161Q162 1087 213 1036T338 985Q410 985 461 1037T512 1161Q512 1233 461 1284T338 1335ZM338 1464Q464 1464 552 1375T641 1159Q641 1034 552 945T336 856Q210 856 123 944T35 1159Q35 1286 123 1375T338 1464Z"  />
<glyph unicode="&#xB1;" horiz-adv-x="1706" d="M254 197H1452V-2H254V197ZM752 1223H954V897H1452V698H954V373H752V698H254V897H752V1223Z"  />
<glyph unicode="&#xB2;" horiz-adv-x="526" d="M37 1102V1188Q37 1276 97 1329T256 1382Q357 1382 418 1326T479 1176Q479 1132 459 1077T399 961L213 668H344V766H483V545H31V676L217 961Q263 1032 282 1082T301 1180Q301 1215 289 1231T250 1247Q225 1247 213 1232T201 1188V1102H37Z"  />
<glyph unicode="&#xB3;" horiz-adv-x="526" d="M355 975Q416 967 451 914T487 776Q487 654 428 591T254 528Q145 528 90 589T35 772V799H195V768Q195 706 207 683T252 659Q280 659 294 676T309 725V831Q309 869 286 887T213 905V1028H225Q269 1028 288 1048T307 1112V1190Q307 1219 294 1234T256 1249Q227 1249 216 1230T205 1155V1126H45V1157Q45 1271 96 1326T254 1382Q365 1382 420 1325T475 1153Q475 1069 445 1025T355 975Z"  />
<glyph unicode="&#xB4;" horiz-adv-x="1024" d="M528 1395H786L494 1024H356L528 1395Z"  />
<glyph unicode="&#xB5;" horiz-adv-x="1249" d="M205 1092H494L418 657Q403 577 395 506T387 389Q387 296 429 251T557 205Q657 205 712 287T805 578L895 1092H1184L991 0H723L741 117Q699 39 648 3T526 -33Q459 -33 407 -4T313 88L223 -438H-63L205 1092Z"  />
<glyph unicode="&#xB6;" horiz-adv-x="1024" d="M983 1479V1368H870V0H719V1368H561V0H408V784Q241 790 141 885T41 1130Q41 1288 148 1383T432 1479H983Z"  />
<glyph unicode="&#xB7;" horiz-adv-x="397" d="M49 688Q49 749 93 793T199 838Q262 838 305 795T348 688Q348 626 304 583T199 539Q139 539 94 583T49 688Z"  />
<glyph unicode="&#xB8;" horiz-adv-x="1024" d="M428 0H545V-84H563Q674 -84 733 -133T793 -276Q793 -376 727 -430T539 -485Q481 -485 409 -474T248 -438L246 -301Q326 -323 397 -334T518 -346Q562 -346 583 -329T604 -274Q604 -241 575 -226T483 -211Q462 -211 450 -211T428 -212V0Z"  />
<glyph unicode="&#xB9;" horiz-adv-x="526" d="M119 545V674H178V1237H119V1364H356V674H418V545H119Z"  />
<glyph unicode="&#xBA;" horiz-adv-x="584" d="M545 1157V1004Q545 881 481 818T293 754Q168 754 104 817T39 1004V1157Q39 1278 103 1341T293 1405Q416 1405 480 1342T545 1157ZM346 1176Q346 1212 332 1231T293 1251Q266 1251 252 1232T238 1176V983Q238 947 252 927T293 907Q318 907 332 927T346 983V1176Z"  />
<glyph unicode="&#xBB;" horiz-adv-x="1014" d="M963 457L725 139H483L717 457L483 774H725L963 457ZM530 457L295 139H51L285 457L51 774H295L530 457Z"  />
<glyph unicode="&#xBC;" horiz-adv-x="1346" d="M1102 766H1264V315H1317V203H1264V117H1317V0H1042V117H1102V203H862V332L1102 766ZM977 315H1108L1114 565L977 315ZM160 -29L1055 1395H1184L291 -29H160ZM115 600V721H170V1245H115V1366H342V721H397V600H115Z"  />
<glyph unicode="&#xBD;" horiz-adv-x="1346" d="M879 520V600Q879 682 936 731T1087 780Q1185 780 1242 728T1300 588Q1300 547 1281 495T1225 387L1049 115H1171V207H1305V0H872V121L1051 387Q1094 454 1112 501T1130 592Q1130 626 1119 640T1083 655Q1059 655 1047 642T1034 600V520H879ZM160 -29L1055 1395H1184L291 -29H160ZM115 600V721H170V1245H115V1366H342V721H397V600H115Z"  />
<glyph unicode="&#xBE;" horiz-adv-x="1346" d="M1102 766H1264V315H1317V203H1264V117H1317V0H1042V117H1102V203H862V332L1102 766ZM977 315H1108L1114 565L977 315ZM160 -29L1055 1395H1184L291 -29H160ZM338 1001Q396 995 430 946T465 817Q465 702 408 643T242 584Q138 584 86 642T33 813V836H186V807Q186 750 198 730T242 709Q268 709 281 724T295 768V866Q295 903 273 919T203 936V1051H215Q257 1051 275 1069T293 1128V1202Q293 1228 280 1242T244 1257Q217 1257 206 1238T195 1169V1143H43V1171Q43 1277 92 1328T242 1380Q349 1380 402 1328T455 1167Q455 1090 425 1048T338 1001Z"  />
<glyph unicode="&#xBF;" horiz-adv-x="844" d="M618 1272Q618 1211 575 1167T469 1122Q406 1122 363 1165T319 1272Q319 1334 363 1377T469 1421Q529 1421 573 1377T618 1272ZM784 326V283Q784 137 694 54T444 -29Q273 -29 180 73T86 365Q86 508 157 596T350 695V924H584V532Q578 532 567 533T549 535Q437 535 378 488T319 350Q319 275 350 234T438 193Q491 193 522 221T553 299V326H784Z"  />
<glyph unicode="&#xC0;" horiz-adv-x="1100" d="M438 573H633L541 1063L438 573ZM25 0V246H90L322 1147H219V1395H883V1147H786L1010 246H1075V0H592V246H692L666 389H399L369 246H467V0H25ZM277 1905H535L707 1534H569L277 1905Z"  />
<glyph unicode="&#xC1;" horiz-adv-x="1100" d="M438 573H633L541 1063L438 573ZM25 0V246H90L322 1147H219V1395H883V1147H786L1010 246H1075V0H592V246H692L666 389H399L369 246H467V0H25ZM567 1905H825L533 1534H395L567 1905Z"  />
<glyph unicode="&#xC2;" horiz-adv-x="1100" d="M438 573H633L541 1063L438 573ZM25 0V246H90L322 1147H219V1395H883V1147H786L1010 246H1075V0H592V246H692L666 389H399L369 246H467V0H25ZM262 1534L436 1905H666L840 1534H703L551 1733L399 1534H262Z"  />
<glyph unicode="&#xC3;" horiz-adv-x="1100" d="M438 573H633L541 1063L438 573ZM25 0V246H90L322 1147H219V1395H883V1147H786L1010 246H1075V0H592V246H692L666 389H399L369 246H467V0H25ZM850 1860Q821 1725 775 1666T653 1606Q632 1606 616 1608T584 1616L502 1643Q483 1649 468 1652T440 1655Q410 1655 392 1638T361 1579H252Q277 1705 324 1765T447 1825Q461 1825 482 1821T528 1808L612 1782Q624 1778 636 1776T664 1774Q694 1774 714 1795T744 1860H850Z"  />
<glyph unicode="&#xC4;" horiz-adv-x="1100" d="M438 573H633L541 1063L438 573ZM25 0V246H90L322 1147H219V1395H883V1147H786L1010 246H1075V0H592V246H692L666 389H399L369 246H467V0H25ZM606 1591V1847H844V1591H606ZM256 1591V1847H494V1591H256Z"  />
<glyph unicode="&#xC5;" horiz-adv-x="1100" d="M535 1847Q487 1847 454 1814T420 1733Q420 1684 453 1651T535 1618Q582 1618 615 1651T649 1733Q649 1780 616 1813T535 1847ZM535 2003Q648 2003 727 1924T807 1733Q807 1618 728 1539T535 1460Q420 1460 341 1539T262 1733Q262 1846 341 1924T535 2003ZM438 573H633L541 1063L438 573ZM25 0V246H90L322 1147H219V1395H883V1147H786L1010 246H1075V0H592V246H692L666 389H399L369 246H467V0H25Z"  />
<glyph unicode="&#xC6;" horiz-adv-x="1612" d="M473 639H711V1157H678L473 639ZM-47 0V246H31L408 1147H276V1395H1540V977H1284V1157H1038V858H1255V588H1038V238H1284V455H1540V0H627V246H711V455H399L317 246H414V0H-47Z"  />
<glyph unicode="&#xC7;" horiz-adv-x="901" d="M860 487V397Q860 189 758 80T461 -29Q264 -29 163 91T61 442V881Q61 1161 140 1291T389 1421Q463 1421 517 1395T610 1315V1395H852V958H590V1001Q590 1079 566 1115T489 1151Q437 1151 413 1116T389 1001V393Q389 314 413 278T489 242Q543 242 567 278T592 393V487H860ZM368 0H485V-84H503Q614 -84 673 -133T733 -276Q733 -376 667 -430T479 -485Q421 -485 349 -474T188 -438L186 -301Q266 -323 337 -334T458 -346Q502 -346 523 -329T544 -274Q544 -241 515 -226T423 -211Q402 -211 390 -211T368 -212V0Z"  />
<glyph unicode="&#xC8;" horiz-adv-x="1038" d="M51 0V246H137V1147H51V1395H967V977H711V1157H465V858H682V588H465V238H711V455H967V0H51ZM246 1905H504L676 1534H538L246 1905Z"  />
<glyph unicode="&#xC9;" horiz-adv-x="1038" d="M51 0V246H137V1147H51V1395H967V977H711V1157H465V858H682V588H465V238H711V455H967V0H51ZM536 1905H794L502 1534H364L536 1905Z"  />
<glyph unicode="&#xCA;" horiz-adv-x="1038" d="M51 0V246H137V1147H51V1395H967V977H711V1157H465V858H682V588H465V238H711V455H967V0H51ZM231 1534L405 1905H635L809 1534H672L520 1733L368 1534H231Z"  />
<glyph unicode="&#xCB;" horiz-adv-x="1038" d="M51 0V246H137V1147H51V1395H967V977H711V1157H465V858H682V588H465V238H711V455H967V0H51ZM575 1591V1847H813V1591H575ZM225 1591V1847H463V1591H225Z"  />
<glyph unicode="&#xCC;" horiz-adv-x="602" d="M51 0V246H137V1147H51V1395H551V1147H465V246H551V0H51ZM28 1905H286L458 1534H320L28 1905Z"  />
<glyph unicode="&#xCD;" horiz-adv-x="602" d="M51 0V246H137V1147H51V1395H551V1147H465V246H551V0H51ZM318 1905H576L284 1534H146L318 1905Z"  />
<glyph unicode="&#xCE;" horiz-adv-x="602" d="M51 0V246H137V1147H51V1395H551V1147H465V246H551V0H51ZM13 1534L187 1905H417L591 1534H454L302 1733L150 1534H13Z"  />
<glyph unicode="&#xCF;" horiz-adv-x="602" d="M51 0V246H137V1147H51V1395H551V1147H465V246H551V0H51ZM357 1591V1847H595V1591H357ZM7 1591V1847H245V1591H7Z"  />
<glyph unicode="&#xD0;" horiz-adv-x="1057" d="M465 1157V803H573V643H465V238H506Q594 238 631 293T668 487V946Q668 1060 631 1108T508 1157H465ZM51 1395H451Q753 1395 874 1279T995 870V547Q995 258 878 129T500 0H51V246H137V643H0V803H137V1147H51V1395Z"  />
<glyph unicode="&#xD1;" horiz-adv-x="1157" d="M51 0V246H137V1147H51V1395H457L758 563V1147H682V1395H1104V1147H1020V0H741L408 903V246H479V0H51ZM879 1860Q850 1725 804 1666T682 1606Q661 1606 645 1608T613 1616L531 1643Q512 1649 497 1652T469 1655Q439 1655 421 1638T390 1579H281Q306 1705 353 1765T476 1825Q490 1825 511 1821T557 1808L641 1782Q653 1778 665 1776T693 1774Q723 1774 743 1795T773 1860H879Z"  />
<glyph unicode="&#xD2;" horiz-adv-x="938" d="M877 1004V389Q877 184 773 78T469 -29Q269 -29 165 77T61 389V1004Q61 1209 165 1315T469 1421Q669 1421 773 1315T877 1004ZM551 1032Q551 1093 531 1122T469 1151Q427 1151 408 1123T389 1032V360Q389 298 408 270T469 242Q512 242 531 270T551 360V1032ZM196 1905H454L626 1534H488L196 1905Z"  />
<glyph unicode="&#xD3;" horiz-adv-x="938" d="M877 1004V389Q877 184 773 78T469 -29Q269 -29 165 77T61 389V1004Q61 1209 165 1315T469 1421Q669 1421 773 1315T877 1004ZM551 1032Q551 1093 531 1122T469 1151Q427 1151 408 1123T389 1032V360Q389 298 408 270T469 242Q512 242 531 270T551 360V1032ZM486 1905H744L452 1534H314L486 1905Z"  />
<glyph unicode="&#xD4;" horiz-adv-x="938" d="M877 1004V389Q877 184 773 78T469 -29Q269 -29 165 77T61 389V1004Q61 1209 165 1315T469 1421Q669 1421 773 1315T877 1004ZM551 1032Q551 1093 531 1122T469 1151Q427 1151 408 1123T389 1032V360Q389 298 408 270T469 242Q512 242 531 270T551 360V1032ZM181 1534L355 1905H585L759 1534H622L470 1733L318 1534H181Z"  />
<glyph unicode="&#xD5;" horiz-adv-x="938" d="M877 1004V389Q877 184 773 78T469 -29Q269 -29 165 77T61 389V1004Q61 1209 165 1315T469 1421Q669 1421 773 1315T877 1004ZM551 1032Q551 1093 531 1122T469 1151Q427 1151 408 1123T389 1032V360Q389 298 408 270T469 242Q512 242 531 270T551 360V1032ZM769 1860Q740 1725 694 1666T572 1606Q551 1606 535 1608T503 1616L421 1643Q402 1649 387 1652T359 1655Q329 1655 311 1638T280 1579H171Q196 1705 243 1765T366 1825Q380 1825 401 1821T447 1808L531 1782Q543 1778 555 1776T583 1774Q613 1774 633 1795T663 1860H769Z"  />
<glyph unicode="&#xD6;" horiz-adv-x="938" d="M877 1004V389Q877 184 773 78T469 -29Q269 -29 165 77T61 389V1004Q61 1209 165 1315T469 1421Q669 1421 773 1315T877 1004ZM551 1032Q551 1093 531 1122T469 1151Q427 1151 408 1123T389 1032V360Q389 298 408 270T469 242Q512 242 531 270T551 360V1032ZM525 1591V1847H763V1591H525ZM175 1591V1847H413V1591H175Z"  />
<glyph unicode="&#xD7;" horiz-adv-x="1706" d="M416 1202L866 752L1317 1202L1458 1063L1008 610L1458 160L1317 20L866 471L416 20L276 160L727 610L276 1063L416 1202Z"  />
<glyph unicode="&#xD8;" horiz-adv-x="938" d="M756 1565H932L807 1278Q840 1230 858 1159T877 1004V389Q877 184 773 78T469 -29Q410 -29 359 -19T258 14L168 -190H-6L129 123Q96 170 79 237T61 389V1004Q61 1209 165 1315T469 1421Q529 1421 580 1412T678 1384L756 1565ZM551 1032Q551 1093 531 1122T469 1151Q427 1151 408 1123T389 1032V360Q389 298 408 270T469 242Q512 242 531 270T551 360V1032Z"  />
<glyph unicode="&#xD9;" horiz-adv-x="1157" d="M137 352V1147H51V1395H537V1147H465V371Q465 303 491 273T578 242Q637 242 664 272T692 371V1147H621V1395H1104V1147H1020V352Q1020 166 907 69T578 -29Q362 -29 250 68T137 352ZM306 1905H564L736 1534H598L306 1905Z"  />
<glyph unicode="&#xDA;" horiz-adv-x="1157" d="M137 352V1147H51V1395H537V1147H465V371Q465 303 491 273T578 242Q637 242 664 272T692 371V1147H621V1395H1104V1147H1020V352Q1020 166 907 69T578 -29Q362 -29 250 68T137 352ZM596 1905H854L562 1534H424L596 1905Z"  />
<glyph unicode="&#xDB;" horiz-adv-x="1157" d="M137 352V1147H51V1395H537V1147H465V371Q465 303 491 273T578 242Q637 242 664 272T692 371V1147H621V1395H1104V1147H1020V352Q1020 166 907 69T578 -29Q362 -29 250 68T137 352ZM291 1534L465 1905H695L869 1534H732L580 1733L428 1534H291Z"  />
<glyph unicode="&#xDC;" horiz-adv-x="1157" d="M137 352V1147H51V1395H537V1147H465V371Q465 303 491 273T578 242Q637 242 664 272T692 371V1147H621V1395H1104V1147H1020V352Q1020 166 907 69T578 -29Q362 -29 250 68T137 352ZM635 1591V1847H873V1591H635ZM285 1591V1847H523V1591H285Z"  />
<glyph unicode="&#xDD;" horiz-adv-x="1071" d="M25 1395H483V1147H410L543 784L678 1147H612V1395H1049V1147H979L682 543V246H768V0H270V246H356V561L90 1147H25V1395ZM553 1905H811L519 1534H381L553 1905Z"  />
<glyph unicode="&#xDE;" horiz-adv-x="1014" d="M461 555H516Q595 555 622 582T649 698V745Q649 816 618 842T496 868H461V555ZM51 0V246H137V1147H51V1395H551V1165H461V1085H582Q773 1085 865 1001T958 741V682Q958 509 877 421T637 332H461V238H551V0H51Z"  />
<glyph unicode="&#xDF;" horiz-adv-x="915" d="M33 0V217H90V1020Q90 1211 179 1303T453 1395Q612 1395 702 1316T793 1096V1008Q793 924 751 865T627 774Q738 748 796 664T854 444V358Q854 179 783 82T580 -16Q540 -16 508 -10T453 10L467 194Q480 191 489 190T504 188Q552 188 570 220T588 344V483Q588 583 559 623T457 664H440L441 854Q496 857 519 885T543 983V1077Q543 1125 519 1151T453 1178Q402 1178 379 1151T356 1063V0H33Z"  />
<glyph unicode="&#xE0;" horiz-adv-x="844" d="M342 285Q342 246 358 227T406 207Q445 207 464 230T483 303V602Q483 649 466 670T412 692Q375 692 359 671T342 602V285ZM496 94Q452 37 405 11T299 -16Q189 -16 133 51T76 250V647Q76 776 135 844T303 913Q370 913 422 883T514 791V895H807V678H750V217H807V0H496V94ZM182 1395H440L612 1024H474L182 1395Z"  />
<glyph unicode="&#xE1;" horiz-adv-x="844" d="M342 285Q342 246 358 227T406 207Q445 207 464 230T483 303V602Q483 649 466 670T412 692Q375 692 359 671T342 602V285ZM496 94Q452 37 405 11T299 -16Q189 -16 133 51T76 250V647Q76 776 135 844T303 913Q370 913 422 883T514 791V895H807V678H750V217H807V0H496V94ZM472 1395H730L438 1024H300L472 1395Z"  />
<glyph unicode="&#xE2;" horiz-adv-x="844" d="M342 285Q342 246 358 227T406 207Q445 207 464 230T483 303V602Q483 649 466 670T412 692Q375 692 359 671T342 602V285ZM496 94Q452 37 405 11T299 -16Q189 -16 133 51T76 250V647Q76 776 135 844T303 913Q370 913 422 883T514 791V895H807V678H750V217H807V0H496V94ZM167 1024L341 1395H571L745 1024H608L456 1223L304 1024H167Z"  />
<glyph unicode="&#xE3;" horiz-adv-x="844" d="M342 285Q342 246 358 227T406 207Q445 207 464 230T483 303V602Q483 649 466 670T412 692Q375 692 359 671T342 602V285ZM496 94Q452 37 405 11T299 -16Q189 -16 133 51T76 250V647Q76 776 135 844T303 913Q370 913 422 883T514 791V895H807V678H750V217H807V0H496V94ZM755 1350Q726 1215 680 1156T558 1096Q537 1096 521 1098T489 1106L407 1133Q388 1139 373 1142T345 1145Q315 1145 297 1128T266 1069H157Q182 1195 229 1255T352 1315Q366 1315 387 1311T433 1298L517 1272Q529 1268 541 1266T569 1264Q599 1264 619 1285T649 1350H755Z"  />
<glyph unicode="&#xE4;" horiz-adv-x="844" d="M342 285Q342 246 358 227T406 207Q445 207 464 230T483 303V602Q483 649 466 670T412 692Q375 692 359 671T342 602V285ZM496 94Q452 37 405 11T299 -16Q189 -16 133 51T76 250V647Q76 776 135 844T303 913Q370 913 422 883T514 791V895H807V678H750V217H807V0H496V94ZM511 1081V1337H749V1081H511ZM161 1081V1337H399V1081H161Z"  />
<glyph unicode="&#xE5;" horiz-adv-x="844" d="M485 1364Q438 1364 405 1331T371 1249Q371 1201 403 1169T485 1137Q533 1137 566 1169T600 1249Q600 1297 567 1330T485 1364ZM483 1522Q597 1522 676 1443T756 1251Q756 1137 677 1058T483 979Q370 979 292 1057T213 1251Q213 1365 291 1443T483 1522ZM342 285Q342 246 358 227T406 207Q445 207 464 230T483 303V602Q483 649 466 670T412 692Q375 692 359 671T342 602V285ZM496 94Q452 37 405 11T299 -16Q189 -16 133 51T76 250V647Q76 776 135 844T303 913Q370 913 422 883T514 791V895H807V678H750V217H807V0H496V94Z"  />
<glyph unicode="&#xE6;" horiz-adv-x="1194" d="M465 291Q465 333 442 359T383 385Q347 385 324 359T301 291V274Q301 232 324 205T383 178Q420 178 442 204T465 274V291ZM893 594Q893 649 873 680T815 711Q769 711 749 680T729 575V557H893V594ZM617 824Q663 868 713 890T817 913Q966 913 1051 810T1137 522V395H729V336Q729 266 750 234T815 201Q851 201 872 223T899 289H1137Q1130 145 1041 65T801 -16Q724 -16 664 12T563 96Q517 40 458 12T324 -16Q196 -16 120 58T43 256V313Q43 429 110 501T287 573Q337 573 381 555T465 500V584Q465 644 437 677T360 711Q323 711 295 696T252 655H90V895H250V846Q285 879 325 896T410 913Q450 913 483 905T549 879Q565 870 580 858T617 824Z"  />
<glyph unicode="&#xE7;" horiz-adv-x="758" d="M719 352V322Q719 163 634 74T399 -16Q227 -16 139 89T51 399V563Q51 723 124 818T317 913Q373 913 419 892T508 825V895H707V590H486Q482 641 460 667T397 694Q354 694 336 657T317 530V379Q317 272 335 237T399 201Q440 201 459 234T479 340V352H719ZM296 0H413V-84H431Q542 -84 601 -133T661 -276Q661 -376 595 -430T407 -485Q349 -485 277 -474T116 -438L114 -301Q194 -323 265 -334T386 -346Q430 -346 451 -329T472 -274Q472 -241 443 -226T351 -211Q330 -211 318 -211T296 -212V0Z"  />
<glyph unicode="&#xE8;" horiz-adv-x="782" d="M317 557H481V594Q481 648 460 679T401 711Q356 711 337 681T317 575V557ZM725 288Q720 146 630 65T387 -16Q221 -16 136 86T51 389V518Q51 698 142 805T383 913Q548 913 635 813T723 522V395H317V336Q317 266 338 234T403 201Q439 201 460 223T487 289L725 288ZM118 1395H376L548 1024H410L118 1395Z"  />
<glyph unicode="&#xE9;" horiz-adv-x="782" d="M317 557H481V594Q481 648 460 679T401 711Q356 711 337 681T317 575V557ZM725 288Q720 146 630 65T387 -16Q221 -16 136 86T51 389V518Q51 698 142 805T383 913Q548 913 635 813T723 522V395H317V336Q317 266 338 234T403 201Q439 201 460 223T487 289L725 288ZM408 1395H666L374 1024H236L408 1395Z"  />
<glyph unicode="&#xEA;" horiz-adv-x="782" d="M317 557H481V594Q481 648 460 679T401 711Q356 711 337 681T317 575V557ZM725 288Q720 146 630 65T387 -16Q221 -16 136 86T51 389V518Q51 698 142 805T383 913Q548 913 635 813T723 522V395H317V336Q317 266 338 234T403 201Q439 201 460 223T487 289L725 288ZM103 1024L277 1395H507L681 1024H544L392 1223L240 1024H103Z"  />
<glyph unicode="&#xEB;" horiz-adv-x="782" d="M317 557H481V594Q481 648 460 679T401 711Q356 711 337 681T317 575V557ZM725 288Q720 146 630 65T387 -16Q221 -16 136 86T51 389V518Q51 698 142 805T383 913Q548 913 635 813T723 522V395H317V336Q317 266 338 234T403 201Q439 201 460 223T487 289L725 288ZM447 1081V1337H685V1081H447ZM97 1081V1337H335V1081H97Z"  />
<glyph unicode="&#xEC;" horiz-adv-x="469" d="M57 0V217H115V678H57V895H379V217H436V0H57ZM-37 1395H221L393 1024H255L-37 1395Z"  />
<glyph unicode="&#xED;" horiz-adv-x="469" d="M57 0V217H115V678H57V895H379V217H436V0H57ZM253 1395H511L219 1024H81L253 1395Z"  />
<glyph unicode="&#xEE;" horiz-adv-x="469" d="M57 0V217H115V678H57V895H379V217H436V0H57ZM-52 1024L122 1395H352L526 1024H389L237 1223L85 1024H-52Z"  />
<glyph unicode="&#xEF;" horiz-adv-x="469" d="M57 0V217H115V678H57V895H379V217H436V0H57ZM292 1081V1337H530V1081H292ZM-58 1081V1337H180V1081H-58Z"  />
<glyph unicode="&#xF0;" horiz-adv-x="778" d="M317 309Q317 257 336 229T389 201Q423 201 442 229T461 309V586Q461 637 442 665T389 694Q355 694 336 666T317 586V309ZM51 338V559Q51 725 133 817T360 909Q387 909 408 904T449 887L346 1096L145 1038L115 1128L303 1184L209 1395H442L518 1249L676 1300L707 1210L559 1161L639 1001Q684 913 704 809T725 559V338Q725 164 640 74T389 -16Q224 -16 138 74T51 338Z"  />
<glyph unicode="&#xF1;" horiz-adv-x="909" d="M807 633V217H862V0H541V559Q541 620 523 646T461 672Q417 672 398 646T379 559V217H436V0H57V217H115V678H57V895H354V770Q405 840 465 875T596 911Q706 911 756 845T807 633ZM755 1350Q726 1215 680 1156T558 1096Q537 1096 521 1098T489 1106L407 1133Q388 1139 373 1142T345 1145Q315 1145 297 1128T266 1069H157Q182 1195 229 1255T352 1315Q366 1315 387 1311T433 1298L517 1272Q529 1268 541 1266T569 1264Q599 1264 619 1285T649 1350H755Z"  />
<glyph unicode="&#xF2;" horiz-adv-x="778" d="M725 559V338Q725 164 640 74T389 -16Q224 -16 138 74T51 338V559Q51 732 137 822T389 913Q554 913 639 823T725 559ZM461 586Q461 637 442 665T389 694Q355 694 336 666T317 586V309Q317 257 336 229T389 201Q423 201 442 229T461 309V586ZM116 1395H374L546 1024H408L116 1395Z"  />
<glyph unicode="&#xF3;" horiz-adv-x="778" d="M725 559V338Q725 164 640 74T389 -16Q224 -16 138 74T51 338V559Q51 732 137 822T389 913Q554 913 639 823T725 559ZM461 586Q461 637 442 665T389 694Q355 694 336 666T317 586V309Q317 257 336 229T389 201Q423 201 442 229T461 309V586ZM406 1395H664L372 1024H234L406 1395Z"  />
<glyph unicode="&#xF4;" horiz-adv-x="778" d="M725 559V338Q725 164 640 74T389 -16Q224 -16 138 74T51 338V559Q51 732 137 822T389 913Q554 913 639 823T725 559ZM461 586Q461 637 442 665T389 694Q355 694 336 666T317 586V309Q317 257 336 229T389 201Q423 201 442 229T461 309V586ZM101 1024L275 1395H505L679 1024H542L390 1223L238 1024H101Z"  />
<glyph unicode="&#xF5;" horiz-adv-x="778" d="M725 559V338Q725 164 640 74T389 -16Q224 -16 138 74T51 338V559Q51 732 137 822T389 913Q554 913 639 823T725 559ZM461 586Q461 637 442 665T389 694Q355 694 336 666T317 586V309Q317 257 336 229T389 201Q423 201 442 229T461 309V586ZM689 1350Q660 1215 614 1156T492 1096Q471 1096 455 1098T423 1106L341 1133Q322 1139 307 1142T279 1145Q249 1145 231 1128T200 1069H91Q116 1195 163 1255T286 1315Q300 1315 321 1311T367 1298L451 1272Q463 1268 475 1266T503 1264Q533 1264 553 1285T583 1350H689Z"  />
<glyph unicode="&#xF6;" horiz-adv-x="778" d="M725 559V338Q725 164 640 74T389 -16Q224 -16 138 74T51 338V559Q51 732 137 822T389 913Q554 913 639 823T725 559ZM461 586Q461 637 442 665T389 694Q355 694 336 666T317 586V309Q317 257 336 229T389 201Q423 201 442 229T461 309V586ZM445 1081V1337H683V1081H445ZM95 1081V1337H333V1081H95Z"  />
<glyph unicode="&#xF7;" horiz-adv-x="1706" d="M854 369Q916 369 961 324T1006 217Q1006 156 961 112T854 68Q791 68 747 111T702 217Q702 280 746 324T854 369ZM254 711H1452V512H254V711ZM854 1155Q916 1155 961 1111T1006 1004Q1006 941 962 897T854 852Q791 852 747 896T702 1004Q702 1067 746 1111T854 1155Z"  />
<glyph unicode="&#xF8;" horiz-adv-x="778" d="M602 1057H727L625 836Q675 793 700 724T725 559V338Q725 164 640 74T389 -16Q354 -16 319 -11T248 4L168 -166H45L150 63Q102 102 77 172T51 338V559Q51 732 137 822T389 913Q433 913 466 908T526 891L602 1057ZM461 586Q461 637 442 665T389 694Q355 694 336 666T317 586V309Q317 257 336 229T389 201Q423 201 442 229T461 309V586Z"  />
<glyph unicode="&#xF9;" horiz-adv-x="887" d="M47 895H371V336Q371 275 389 249T451 223Q493 223 511 249T530 336V678H473V895H797V217H854V0H555V125Q502 53 443 19T315 -16Q205 -16 155 50T104 262V678H47V895ZM171 1395H429L601 1024H463L171 1395Z"  />
<glyph unicode="&#xFA;" horiz-adv-x="887" d="M47 895H371V336Q371 275 389 249T451 223Q493 223 511 249T530 336V678H473V895H797V217H854V0H555V125Q502 53 443 19T315 -16Q205 -16 155 50T104 262V678H47V895ZM461 1395H719L427 1024H289L461 1395Z"  />
<glyph unicode="&#xFB;" horiz-adv-x="887" d="M47 895H371V336Q371 275 389 249T451 223Q493 223 511 249T530 336V678H473V895H797V217H854V0H555V125Q502 53 443 19T315 -16Q205 -16 155 50T104 262V678H47V895ZM156 1024L330 1395H560L734 1024H597L445 1223L293 1024H156Z"  />
<glyph unicode="&#xFC;" horiz-adv-x="887" d="M47 895H371V336Q371 275 389 249T451 223Q493 223 511 249T530 336V678H473V895H797V217H854V0H555V125Q502 53 443 19T315 -16Q205 -16 155 50T104 262V678H47V895ZM500 1081V1337H738V1081H500ZM150 1081V1337H388V1081H150Z"  />
<glyph unicode="&#xFD;" horiz-adv-x="858" d="M133 -379V-162H207L299 66L74 678H25V895H389V678H334L434 307L547 678H479V895H834V678H780L440 -162H524V-379H133ZM447 1395H705L413 1024H275L447 1395Z"  />
<glyph unicode="&#xFE;" horiz-adv-x="819" d="M498 592Q498 639 482 661T430 684Q398 684 377 661T356 600V287Q356 239 374 217T432 195Q466 195 482 213T498 270V592ZM33 1395H356V827Q386 869 432 891T537 913Q646 913 705 845T764 647V250Q764 119 707 52T539 -16Q485 -16 442 4T356 70V-162H412V-379H33V-162H90V1176H33V1395Z"  />
<glyph unicode="&#xFF;" horiz-adv-x="858" d="M133 -379V-162H207L299 66L74 678H25V895H389V678H334L434 307L547 678H479V895H834V678H780L440 -162H524V-379H133ZM486 1081V1337H724V1081H486ZM136 1081V1337H374V1081H136Z"  />
<glyph unicode="&#x131;" horiz-adv-x="469" d="M57 0V217H115V678H57V895H379V217H436V0H57Z"  />
<glyph unicode="&#x152;" horiz-adv-x="1485" d="M584 1075Q584 1120 564 1138T496 1157Q443 1157 416 1122T389 1020V373Q389 303 416 271T502 238Q545 238 564 257T584 319V1075ZM498 1395H1413V977H1157V1157H909V858H1128V588H909V238H1157V455H1413V0H498Q283 0 172 106T61 418V975Q61 1181 172 1288T498 1395Z"  />
<glyph unicode="&#x153;" horiz-adv-x="1190" d="M725 557H889V594Q889 648 868 679T809 711Q763 711 744 681T725 575V557ZM317 309Q317 257 336 229T389 201Q423 201 442 229T461 309V586Q461 637 442 665T389 694Q355 694 336 666T317 586V309ZM596 57Q563 22 509 3T389 -16Q224 -16 138 74T51 338V559Q51 732 137 822T389 913Q456 913 510 895T606 838Q645 875 696 894T807 913Q959 913 1044 810T1130 522V395H725V336Q725 266 746 234T811 201Q847 201 868 223T895 289H1133Q1126 146 1037 65T795 -16Q732 -16 682 2T596 57Z"  />
<glyph unicode="&#x160;" horiz-adv-x="872" d="M51 0V455H285V446Q285 344 323 287T430 229Q472 229 497 256T522 330Q522 369 504 406T451 477L199 717Q129 784 89 878T49 1073Q49 1227 134 1324T352 1421Q411 1421 465 1399T569 1331V1395H793V987H569Q558 1080 528 1124T446 1169Q406 1169 378 1143T350 1075Q350 1046 366 1013T410 952L674 700Q760 619 797 537T834 344Q834 174 744 73T502 -29Q435 -29 380 -2T276 82V0H51ZM148 1905H285L437 1704L589 1905H726L552 1534H322L148 1905Z"  />
<glyph unicode="&#x161;" horiz-adv-x="664" d="M47 0V301H231Q240 242 266 210T334 178Q364 178 381 194T399 238Q399 257 386 275T342 315L162 446Q109 485 80 544T51 672Q51 777 114 845T272 913Q318 913 360 893T444 831V895H608V635H428Q420 684 400 708T346 733Q320 733 303 718T285 680Q285 662 297 646T336 610L487 500Q562 446 596 382T631 231Q631 125 566 55T403 -16Q350 -16 306 5T217 74V0H47ZM44 1395H181L333 1194L485 1395H622L448 1024H218L44 1395Z"  />
<glyph unicode="&#x178;" horiz-adv-x="1071" d="M25 1395H483V1147H410L543 784L678 1147H612V1395H1049V1147H979L682 543V246H768V0H270V246H356V561L90 1147H25V1395ZM592 1591V1847H830V1591H592ZM242 1591V1847H480V1591H242Z"  />
<glyph unicode="&#x17D;" horiz-adv-x="901" d="M47 0V272L545 1157H303V985H47V1395H854V1135L344 238H598V455H854V0H47ZM163 1905H300L452 1704L604 1905H741L567 1534H337L163 1905Z"  />
<glyph unicode="&#x17E;" horiz-adv-x="758" d="M33 0V231L449 702H260V602H51V895H725V659L313 195H537V299H725V0H33ZM91 1395H228L380 1194L532 1395H669L495 1024H265L91 1395Z"  />
<glyph unicode="&#x192;" horiz-adv-x="797" d="M733 1382V1167Q716 1174 703 1177T678 1180Q595 1180 561 1119T518 885L516 815H696V600H496L455 193Q452 165 447 111Q423 -145 383 -229Q346 -310 272 -354T100 -399Q81 -399 57 -396T-8 -385V-188Q2 -191 14 -192T49 -193Q163 -193 188 72Q191 102 192 116L238 600H66V815H266L268 885Q281 1139 373 1268T635 1397Q654 1397 677 1394T733 1382Z"  />
<glyph unicode="&#x2C6;" horiz-adv-x="1024" d="M223 1024L397 1395H627L801 1024H664L512 1223L360 1024H223Z"  />
<glyph unicode="&#x2C7;" horiz-adv-x="1024" d="M223 1395H360L512 1194L664 1395H801L627 1024H397L223 1395Z"  />
<glyph unicode="&#x2DC;" horiz-adv-x="1024" d="M811 1350Q782 1215 736 1156T614 1096Q593 1096 577 1098T545 1106L463 1133Q444 1139 429 1142T401 1145Q371 1145 353 1128T322 1069H213Q238 1195 285 1255T408 1315Q422 1315 443 1311T489 1298L573 1272Q585 1268 597 1266T625 1264Q655 1264 675 1285T705 1350H811Z"  />
<glyph unicode="&#x2013;" horiz-adv-x="1024" d="M1024 545V379H0V545H1024Z"  />
<glyph unicode="&#x2014;" horiz-adv-x="2048" d="M2048 545V379H0V545H2048Z"  />
<glyph unicode="&#x2018;" horiz-adv-x="397" d="M150 1395H379L236 936H6L150 1395Z"  />
<glyph unicode="&#x2019;" horiz-adv-x="397" d="M150 1395H379L236 936H6L150 1395Z"  />
<glyph unicode="&#x201A;" horiz-adv-x="397" d="M115 287H346L201 -172H-29L115 287Z"  />
<glyph unicode="&#x201C;" horiz-adv-x="768" d="M520 1395H750L604 936H375L520 1395ZM150 1395H379L236 936H6L150 1395Z"  />
<glyph unicode="&#x201D;" horiz-adv-x="768" d="M520 1395H750L604 936H375L520 1395ZM150 1395H379L236 936H6L150 1395Z"  />
<glyph unicode="&#x201E;" horiz-adv-x="768" d="M492 287H721L578 -172H348L492 287ZM123 287H352L207 -172H-23L123 287Z"  />
<glyph unicode="&#x2020;" horiz-adv-x="977" d="M295 1395H682V1233H582V895H711V995H872V631H711V729H582V-281H395V729H266V631H104V995H266V895H395V1233H295V1395Z"  />
<glyph unicode="&#x2021;" horiz-adv-x="1024" d="M317 -281V-119H420V133H289V33H127V397H289V299H420V829H289V729H127V1096H289V995H420V1233H317V1395H707V1233H604V995H735V1096H895V729H735V829H604V299H735V397H895V33H735V133H604V-119H707V-281H317Z"  />
<glyph unicode="&#x2022;" horiz-adv-x="1208" d="M307 762Q307 885 394 971T604 1057Q726 1057 812 971T899 762Q899 640 812 553T602 465Q479 465 393 552T307 762Z"  />
<glyph unicode="&#x2026;" horiz-adv-x="2048" d="M192 133Q192 194 236 238T342 283Q405 283 448 240T491 133Q491 71 447 28T342 -16Q282 -16 237 28T192 133ZM874 133Q874 194 918 238T1024 283Q1087 283 1130 240T1173 133Q1173 71 1129 28T1024 -16Q964 -16 919 28T874 133ZM1558 133Q1558 194 1602 238T1708 283Q1771 283 1814 240T1857 133Q1857 71 1813 28T1708 -16Q1648 -16 1603 28T1558 133Z"  />
<glyph unicode="&#x2030;" horiz-adv-x="1702" d="M195 -29L862 1395H989L324 -29H195ZM1395 231Q1395 187 1405 167T1438 147Q1461 147 1472 167T1483 231V485Q1483 528 1473 547T1440 567Q1416 567 1406 548T1395 485V231ZM1233 209V502Q1233 604 1286 657T1440 711Q1540 711 1592 658T1645 502V209Q1645 106 1593 53T1440 0Q1340 0 1287 54T1233 209ZM883 231Q883 187 893 167T926 147Q949 147 960 167T971 231V485Q971 528 961 547T928 567Q904 567 894 548T883 485V231ZM721 209V502Q721 604 774 657T928 711Q1028 711 1080 658T1133 502V209Q1133 106 1081 53T928 0Q828 0 775 54T721 209ZM217 885Q217 842 228 822T262 801Q285 801 296 821T307 885V1139Q307 1181 296 1202T262 1223Q238 1223 228 1203T217 1139V885ZM57 864V1157Q57 1260 109 1313T262 1366Q363 1366 416 1313T469 1157V864Q469 762 416 708T262 653Q163 653 110 707T57 864Z"  />
<glyph unicode="&#x2039;" horiz-adv-x="584" d="M51 457L289 774H530L299 457L530 139H289L51 457Z"  />
<glyph unicode="&#x203A;" horiz-adv-x="584" d="M530 457L295 139H51L285 457L51 774H295L530 457Z"  />
<glyph unicode="&#x2122;" horiz-adv-x="1706" d="M803 1462H999L1126 1130L1249 1462H1446V915H1311V1325L1157 915H1096L938 1325V915H803V1462ZM207 1462H692V1350H524V915H375V1350H207V1462Z"  />


</font>
</defs>
</svg>
