<?xml  version="1.0" encoding="UTF-8"?>
<!DOCTYPE svg PUBLIC "-//W3C//DTD SVG 1.0//EN" "http://www.w3.org/TR/2001/REC-SVG-20010904/DTD/svg10.dtd" >
<svg xmlns="http://www.w3.org/2000/svg" >
<metadata>
<version>1.0</version>
<id><![CDATA[Geom Slab 703 W01 Medium Italic]]></id>
<vendor>Monotype Imaging Inc.</vendor>
<credits>
<name>Fonts.com WebFonts</name>
<URL>http://webfonts.fonts.com</URL>
<role>Home of the Web fonts</role>
</credits>
<license>
<URL>http://webfonts.fonts.com/Legal</URL>
</license>
<copyright><![CDATA[Copyright 1990-2003 Bitstream Inc. All rights reserved.]]></copyright>
<trademark></trademark>
<licensee>
<name></name>
</licensee>
</metadata>
<defs >
<font horiz-adv-x="1151" id="a3988f6a-f447-4502-9a22-f0b3cd36ac11">
<font-face font-family="" panose-1="2 6 6 3 2 2 5 9 4 3" ascent="1972" descent="-483" units-per-em="2048" alphabetic="0">
</font-face>
<missing-glyph horiz-adv-x="530" />

<glyph unicode="&#xA;" horiz-adv-x="0" />
<glyph unicode="&#xD;" horiz-adv-x="1060" />
<glyph unicode=" " horiz-adv-x="530" />
<glyph unicode="!" horiz-adv-x="678" d="M242 -25Q184 -25 145 13T106 109Q106 167 144 205T242 244Q298 244 337 205T377 109Q377 53 338 14T242 -25ZM199 365L354 1475H573L342 365H199Z"  />
<glyph unicode="&quot;" horiz-adv-x="590" d="M496 1434V881H377V1434H496ZM211 1434V881H94V1434H211Z"  />
<glyph unicode="#" horiz-adv-x="1575" d="M973 862H709L614 590H877L973 862ZM922 1456L756 985H1016L1184 1456H1327L1163 985H1470L1427 862H1116L1022 590H1352L1309 467H977L811 -2H666L834 467H569L401 -2H258L424 467H104L147 590H467L563 862H221L264 985H608L776 1456H922Z"  />
<glyph unicode="$" horiz-adv-x="1063" d="M487 852L551 1249Q543 1250 534 1250T506 1251Q413 1251 358 1203T303 1073Q303 1002 350 946T487 852ZM459 130Q465 128 473 128T498 127Q614 127 688 197T762 375Q762 461 707 529T543 645L459 130ZM315 -190L348 2Q294 23 249 55T166 131L139 0H16L80 426H195Q204 303 246 237T371 145L459 682Q291 765 215 855T139 1061Q139 1204 243 1293T518 1382Q541 1382 552 1382T573 1380L596 1520H686L662 1366Q718 1348 760 1319T834 1247L852 1368H977L920 961H813Q810 1070 766 1138T637 1233L567 813Q752 734 842 628T932 383Q932 211 809 96T502 -20Q489 -20 476 -20T434 -17L403 -190H315Z"  />
<glyph unicode="%" horiz-adv-x="1882" d="M1409 143Q1496 143 1555 202T1614 348Q1614 436 1555 495T1409 555Q1324 555 1265 495T1206 348Q1206 262 1264 203T1409 143ZM1759 348Q1759 202 1657 101T1409 0Q1263 0 1162 101T1061 348Q1061 495 1161 595T1409 696Q1556 696 1657 596T1759 348ZM1356 1464H1483L522 -29H401L1356 1464ZM821 1087Q821 941 720 840T473 739Q327 739 225 840T123 1087Q123 1234 224 1335T473 1436Q620 1436 720 1335T821 1087ZM473 883Q559 883 617 941T676 1087Q676 1176 618 1235T473 1294Q388 1294 328 1234T268 1087Q268 1001 327 942T473 883Z"  />
<glyph unicode="&amp;" horiz-adv-x="1526" d="M813 319L500 715Q350 631 283 551T215 379Q215 286 291 218T473 150Q550 150 635 192T813 319ZM553 934Q677 1013 730 1078T784 1212Q784 1281 735 1326T610 1372Q532 1372 482 1322T432 1194Q432 1136 462 1072T553 934ZM1395 145L1368 0H1067L909 205Q788 85 672 28T434 -29Q254 -29 139 82T23 362Q23 505 115 623T397 842Q330 936 298 1015T266 1167Q266 1315 365 1409T621 1503Q759 1503 852 1415T946 1196Q946 1097 873 1001T653 811L942 455Q1020 552 1072 644T1153 823H997L1024 969H1464L1436 823H1319Q1264 686 1194 564T1034 330L1182 145H1395Z"  />
<glyph unicode="&apos;" horiz-adv-x="305" d="M211 1434V881H94V1434H211Z"  />
<glyph unicode="(" horiz-adv-x="569" d="M618 1438Q413 1193 316 944T219 412Q219 265 247 119T332 -168L188 -215Q119 -71 83 87T47 410Q47 723 158 999T489 1503L618 1438Z"  />
<glyph unicode=")" horiz-adv-x="569" d="M-98 -150Q107 95 204 344T301 877Q301 1020 272 1167T186 1456L332 1503Q402 1359 437 1201T473 879Q473 565 362 290T31 -215L-98 -150Z"  />
<glyph unicode="*" horiz-adv-x="1024" d="M508 1503H653L639 1239L883 1348L934 1210L666 1126L858 938L748 844L575 1051L406 844L295 938L487 1126L217 1210L268 1348L518 1239L508 1503Z"  />
<glyph unicode="+" horiz-adv-x="1706" d="M913 1221V670H1452V553H913V0H795V553H254V670H795V1221H913Z"  />
<glyph unicode="&#x2c;" horiz-adv-x="530" d="M121 248H305L119 -180H-51L121 248Z"  />
<glyph unicode="-" horiz-adv-x="631" d="M14 397L43 557H530L504 397H14Z"  />
<glyph unicode="." horiz-adv-x="530" d="M176 -25Q118 -25 81 13T43 109Q43 167 80 205T176 244Q233 244 272 205T311 109Q311 53 272 14T176 -25Z"  />
<glyph unicode="/" horiz-adv-x="627" d="M608 1503L106 -190H-8L494 1503H608Z"  />
<glyph unicode="0" horiz-adv-x="1063" d="M997 901L934 537L933 531Q886 261 836 180Q765 69 670 20T428 -29Q248 -29 147 69T45 342Q45 382 50 432T66 537L133 901Q166 1073 187 1144T233 1257Q302 1367 396 1415T633 1464Q813 1464 914 1365T1016 1090Q1016 1050 1012 1003T997 901ZM748 498L819 907Q828 964 833 1007T838 1081Q838 1191 782 1247T614 1303Q533 1303 476 1271T381 1171Q356 1129 322 942V940L242 529Q233 480 228 436T223 354Q223 245 279 189T446 133Q580 133 644 206T748 498Z"  />
<glyph unicode="1" horiz-adv-x="1063" d="M754 1436L530 139H707L682 0H158L182 139H354L557 1296H369L393 1436H754Z"  />
<glyph unicode="2" horiz-adv-x="1063" d="M866 0H-6L25 125L696 834Q751 891 779 956T807 1092Q807 1186 744 1246T580 1307Q449 1307 380 1219T305 956H141Q141 1193 260 1327T588 1462Q763 1462 874 1356T985 1083Q985 984 947 902T813 721L254 143H727L772 367H938L866 0Z"  />
<glyph unicode="3" horiz-adv-x="1063" d="M49 467H215Q215 465 215 461Q211 418 211 399Q211 266 274 195T457 123Q580 123 659 204T739 410Q739 537 661 609T441 684L463 809Q491 806 504 806T530 805Q674 805 756 879T838 1083Q838 1185 774 1249T608 1313Q490 1313 424 1242T344 1028H180Q191 1229 306 1346T606 1464Q788 1464 901 1358T1014 1081Q1014 953 950 858T764 713Q842 652 880 577T918 410Q918 219 787 95T453 -29Q270 -29 156 81T41 369Q41 396 43 419T49 467Z"  />
<glyph unicode="4" horiz-adv-x="1063" d="M612 516L735 1161L217 516H612ZM858 0H354L379 139H545L590 377H39L59 516L782 1436H940L776 516H950L926 377H754L711 139H883L858 0Z"  />
<glyph unicode="5" horiz-adv-x="1063" d="M51 456L213 457Q209 436 207 415T205 371Q205 255 268 189T442 123Q576 123 662 222T748 479Q748 630 668 703T420 776Q379 776 331 772T221 760L358 1438H973L944 1282H487L412 908Q445 910 460 910T489 911Q698 911 812 798T926 477Q926 258 792 115T451 -29Q269 -29 157 82T45 373Q45 392 46 413T51 456Z"  />
<glyph unicode="6" horiz-adv-x="1063" d="M88 571L160 965L162 978Q199 1188 264 1284Q323 1371 417 1417T627 1464Q798 1464 904 1361T1010 1090Q1010 1069 1010 1060T1008 1041L854 1040V1059Q854 1179 796 1244T627 1309Q503 1309 435 1235T340 995L305 784Q372 821 431 838T547 856Q714 856 823 741T932 444Q932 232 807 102T475 -29Q295 -29 184 81T72 373Q72 430 76 478T88 571ZM494 125Q605 125 680 215T756 444Q756 567 691 640T516 713Q394 713 320 624T246 385Q246 267 313 196T494 125Z"  />
<glyph unicode="7" horiz-adv-x="1063" d="M453 0H268L877 1282H391L346 1018H180L254 1436H1087L1061 1282L453 0Z"  />
<glyph unicode="8" horiz-adv-x="1063" d="M223 391Q223 274 293 202T477 129Q597 129 669 206T741 414Q741 525 670 598T494 672Q382 672 303 590T223 391ZM340 1067Q340 955 410 883T590 811Q697 811 766 885T836 1075Q836 1185 766 1255T588 1325Q480 1325 410 1252T340 1067ZM311 770Q237 829 201 901T164 1063Q164 1236 287 1351T598 1466Q780 1466 896 1357T1012 1075Q1012 946 946 850T752 702Q834 650 876 573T918 397Q918 214 795 93T483 -29Q292 -29 171 87T49 385Q49 515 117 616T311 770Z"  />
<glyph unicode="9" horiz-adv-x="1063" d="M979 864L909 469V468Q870 249 803 150Q744 63 652 17T442 -29Q270 -29 165 74T59 344Q59 364 59 374T62 393H215V375Q215 254 273 190T440 125Q563 125 628 195T729 440L774 666Q720 623 656 601T522 578Q355 578 246 694T137 991Q137 1204 261 1333T592 1462Q773 1462 885 1353T997 1063Q997 1012 993 963T979 864ZM573 1311Q462 1311 387 1220T311 991Q311 869 376 796T551 723Q674 723 748 811T823 1049Q823 1167 755 1239T573 1311Z"  />
<glyph unicode=":" horiz-adv-x="563" d="M174 -25Q116 -25 78 13T39 109Q39 167 77 205T174 244Q231 244 270 205T309 109Q309 53 270 14T174 -25ZM303 696Q245 696 207 733T168 827Q168 886 206 924T303 963Q360 963 399 924T438 827Q438 772 399 734T303 696Z"  />
<glyph unicode=";" horiz-adv-x="563" d="M281 696Q222 696 184 733T145 827Q145 886 183 924T281 963Q337 963 376 924T416 827Q416 772 377 734T281 696ZM121 248H305L119 -180H-51L121 248Z"  />
<glyph unicode="&lt;" horiz-adv-x="1706" d="M1442 1018L442 610L1442 205V76L264 559V662L1442 1145V1018Z"  />
<glyph unicode="=" horiz-adv-x="1706" d="M1452 477V360H254V477H1452ZM1452 860V743H254V860H1452Z"  />
<glyph unicode="&gt;" horiz-adv-x="1706" d="M1442 662V559L264 76V205L1264 610L264 1018V1145L1442 662Z"  />
<glyph unicode="?" horiz-adv-x="1024" d="M369 -25Q311 -25 272 13T233 109Q233 167 271 205T369 244Q425 244 464 205T504 109Q504 53 465 14T369 -25ZM319 395L391 831H471Q596 831 680 908T764 1100Q764 1203 700 1271T539 1339Q435 1339 371 1273T301 1096H133Q151 1284 258 1393T530 1503Q711 1503 822 1396T934 1116Q934 927 825 807T535 678L487 395H319Z"  />
<glyph unicode="@" horiz-adv-x="2048" d="M1292 844L1350 965H1460L1319 397Q1313 373 1310 353T1307 317Q1307 273 1334 250T1417 227Q1462 227 1517 251T1620 315Q1709 391 1759 511T1810 766Q1810 1032 1615 1194T1096 1356Q928 1356 784 1304T524 1151Q384 1029 313 869T242 514Q242 341 302 210T489 -20Q590 -101 729 -144T1024 -188Q1196 -188 1358 -140T1655 0L1700 -66Q1553 -175 1387 -231T1040 -287Q849 -287 692 -241T416 -102Q263 15 188 170T113 522Q113 685 163 831T313 1100Q459 1276 662 1367T1116 1458Q1281 1458 1427 1415T1675 1290Q1804 1191 1870 1060T1937 778Q1937 609 1875 470T1692 233Q1623 178 1544 150T1380 121Q1281 121 1232 160T1182 276Q1182 279 1183 287T1184 299Q1133 212 1057 167T887 121Q734 121 654 206T573 453Q573 683 710 842T1042 1001Q1133 1001 1195 962T1292 844ZM1202 473L1262 715Q1245 805 1190 855T1055 905Q909 905 811 774T713 446Q713 336 764 277T909 217Q1011 217 1092 287T1202 473Z"  />
<glyph unicode="A" horiz-adv-x="1450" d="M467 662H903L786 1303L467 662ZM209 145H360L336 0H-115L-88 145H33L627 1329H483L510 1475H1126L1100 1329H952L1194 145H1337L1313 0H817L842 145H1008L934 516H395L209 145Z"  />
<glyph unicode="B" horiz-adv-x="1147" d="M-74 0L-49 145H111L319 1329H158L184 1475H590Q754 1475 825 1466T944 1434Q1032 1393 1079 1313T1126 1122Q1126 986 1043 900T797 780Q922 748 991 657T1061 434Q1061 346 1031 268T942 131Q873 61 770 31T477 0H-74ZM512 1329L424 852H569Q750 852 844 919T938 1114Q938 1225 873 1277T666 1329H512ZM303 145H453Q574 145 634 158T741 201Q802 239 834 303T866 451Q866 582 785 649T547 717H403L303 145Z"  />
<glyph unicode="C" horiz-adv-x="1507" d="M1397 322Q1293 147 1138 59T778 -29Q638 -29 518 11T303 129Q188 224 125 365T61 668Q61 842 115 990T276 1253Q391 1377 542 1443T864 1509Q1012 1509 1124 1462T1309 1321L1339 1475H1501L1421 979H1284Q1267 1154 1161 1247T872 1341Q769 1341 673 1309T500 1217Q385 1126 322 987T258 686Q258 441 404 289T786 137Q936 137 1048 200T1243 391L1397 322Z"  />
<glyph unicode="D" horiz-adv-x="1507" d="M700 1329H512L303 145H485Q693 145 799 168T981 246Q1107 335 1178 495T1249 850Q1249 1094 1115 1211T700 1329ZM-74 0L-49 145H111L319 1329H158L184 1475H698Q1082 1475 1263 1321T1444 838Q1444 655 1386 493T1219 213Q1113 98 960 49T530 0H-74Z"  />
<glyph unicode="E" horiz-adv-x="1155" d="M-74 0L-49 145H111L319 1329H158L184 1475H1178L1122 1083H958L993 1329H512L430 854H834L809 711H406L303 145H815L879 420H1049L952 0H-74Z"  />
<glyph unicode="F" horiz-adv-x="1085" d="M-74 0L-49 145H111L319 1329H158L184 1475H1178L1122 1083H958L993 1329H512L430 854H834L809 711H406L303 145H494L469 0H-74Z"  />
<glyph unicode="G" horiz-adv-x="1677" d="M1223 0L1260 182Q1158 79 1029 25T754 -29Q628 -29 513 12T303 131Q188 225 126 364T63 670Q63 837 119 986T283 1249Q397 1372 559 1438T903 1505Q1058 1505 1175 1457T1378 1309L1407 1475H1571L1491 979H1354Q1318 1154 1201 1247T897 1341Q786 1341 686 1307T504 1206Q386 1110 323 976T260 684Q260 436 403 285T778 133Q950 133 1090 229T1327 510H952L979 668H1659L1630 510H1481L1382 0H1223Z"  />
<glyph unicode="H" horiz-adv-x="1493" d="M303 145H465L440 0H-74L-49 145H111L319 1329H158L184 1475H698L674 1329H512L426 840H1102L1188 1329H1028L1053 1475H1567L1542 1329H1382L1174 145H1333L1309 0H793L819 145H979L1073 676H397L303 145Z"  />
<glyph unicode="I" horiz-adv-x="623" d="M303 145H465L440 0H-74L-49 145H111L319 1329H158L184 1475H698L674 1329H512L303 145Z"  />
<glyph unicode="J" horiz-adv-x="623" d="M302 145Q267 -55 191 -139T-30 -223Q-58 -223 -90 -219T-160 -205L-130 -29Q-107 -34 -85 -36T-44 -39Q25 -39 57 -2T110 145L318 1329H157L183 1475H697L673 1329H511L302 145Z"  />
<glyph unicode="K" horiz-adv-x="1290" d="M303 145H465L440 0H-74L-49 145H111L319 1329H158L184 1475H698L674 1329H512L414 793L983 1329H831L858 1475H1362L1337 1329H1219L608 760L1034 145H1178L1151 0H633L657 145H811L408 754L303 145Z"  />
<glyph unicode="L" horiz-adv-x="1116" d="M-74 0L-49 145H111L319 1329H158L184 1475H705L678 1329H512L303 145H815L879 420H1049L952 0H-74Z"  />
<glyph unicode="M" horiz-adv-x="1747" d="M287 145H438L414 0H-74L-49 145H111L319 1329H158L184 1475H616L809 438L1380 1475H1812L1788 1329H1626L1417 145H1579L1552 0H1065L1092 145H1241L1444 1270L809 129H715L479 1298L287 145Z"  />
<glyph unicode="N" horiz-adv-x="1399" d="M287 145H449L422 0H-74L-49 145H111L319 1329H158L184 1475H518L934 348L1112 1329H950L977 1475H1475L1448 1329H1288L1049 -29H901L467 1149L287 145Z"  />
<glyph unicode="O" horiz-adv-x="1657" d="M780 -29Q641 -29 521 11T303 131Q187 225 125 363T63 666Q63 840 117 987T276 1247Q393 1372 548 1437T879 1503Q1195 1503 1394 1311T1593 811Q1593 639 1538 490T1378 227Q1265 104 1110 38T780 -29ZM260 682Q260 441 404 289T776 137Q880 137 973 170T1149 268Q1266 361 1330 498T1395 795Q1395 1035 1250 1186T874 1337Q772 1337 679 1305T504 1206Q387 1114 324 978T260 682Z"  />
<glyph unicode="P" horiz-adv-x="1178" d="M512 1329L397 698H541Q739 698 848 791T958 1053Q958 1191 878 1260T637 1329H512ZM303 145H489L463 0H-74L-49 145H111L319 1329H158L184 1475H604Q875 1475 1017 1364T1159 1042Q1159 813 1004 687T565 561H373L303 145Z"  />
<glyph unicode="Q" horiz-adv-x="1657" d="M967 166Q1169 244 1282 409T1395 795Q1395 1035 1250 1186T874 1337Q772 1337 679 1305T504 1206Q387 1114 324 978T260 682Q260 435 406 287T805 133L741 322L895 373L967 166ZM1018 2L1069 -131H1325V-295H948L858 -29Q849 -29 832 -30T805 -31Q469 -31 266 160T63 666Q63 840 117 987T276 1247Q393 1372 548 1437T879 1503Q1195 1503 1393 1311T1591 811Q1591 516 1441 304T1018 2Z"  />
<glyph unicode="R" horiz-adv-x="1325" d="M303 145H465L440 0H-74L-49 145H111L319 1329H158L184 1475H659Q842 1475 921 1464T1057 1427Q1144 1387 1189 1309T1235 1120Q1235 992 1160 902T942 768Q1011 728 1042 678T1073 557Q1073 536 1070 507T1059 435L1008 145H1161L1137 0H791L868 457Q875 498 878 521T881 555Q881 637 831 669T639 702H403L303 145ZM428 848H621Q742 848 804 859T911 895Q975 932 1012 992T1049 1120Q1049 1233 975 1281T717 1329H514L428 848Z"  />
<glyph unicode="S" horiz-adv-x="1233" d="M-10 0L78 514H233Q264 339 365 241T616 143Q752 143 836 214T920 399Q920 481 865 534T639 655L473 721Q316 782 237 878T158 1106Q158 1277 289 1390T625 1503Q745 1503 837 1454T981 1311L1004 1470H1182L1104 1044H946Q909 1195 827 1269T614 1343Q498 1343 423 1282T348 1126Q348 980 639 863L668 852L834 784Q972 728 1044 633T1116 410Q1116 218 976 95T616 -29Q471 -29 366 27T197 197L166 0H-10Z"  />
<glyph unicode="T" horiz-adv-x="1124" d="M711 145L686 0H170L197 145H358L569 1329H313L264 1063H94L168 1475H1217L1145 1063H975L1022 1329H762L551 145H711Z"  />
<glyph unicode="U" horiz-adv-x="1489" d="M700 1475L674 1329H512L379 582Q372 543 369 508T365 438Q365 302 446 222T666 141Q826 141 919 238T1049 539L1188 1329H1028L1053 1475H1567L1542 1329H1382L1239 528Q1190 254 1042 114T653 -27Q436 -27 305 94T174 416Q174 495 198 636Q200 647 201 653L319 1329H160L184 1475H700Z"  />
<glyph unicode="V" horiz-adv-x="1180" d="M389 -29L217 1329H72L98 1475H565L539 1329H399L512 317L1004 1329H858L883 1475H1335L1311 1329H1192L518 -29H389Z"  />
<glyph unicode="W" horiz-adv-x="1806" d="M367 -29L205 1329H72L98 1475H563L539 1329H389L489 358L930 1329H762L786 1475H1294L1270 1329H1104L1194 354L1647 1329H1497L1522 1475H1970L1946 1329H1827L1180 -29H1071L975 1100L469 -29H367Z"  />
<glyph unicode="X" horiz-adv-x="1247" d="M258 145H428L403 0H-78L-49 145H51L526 735L227 1329H100L127 1475H614L586 1329H430L647 881L1008 1329H827L856 1475H1335L1307 1329H1206L727 729L1022 145H1145L1118 0H637L666 145H817L610 586L258 145Z"  />
<glyph unicode="Y" horiz-adv-x="1251" d="M1059 1329H897L922 1475H1413L1389 1329H1255L731 678L637 145H805L778 0H264L291 145H446L545 705L221 1329H70L94 1475H596L571 1329H424L666 840L1059 1329Z"  />
<glyph unicode="Z" horiz-adv-x="1100" d="M872 1341H346L299 1079H127L197 1475H1126L1108 1360L219 133H770L829 440H999L920 0H-31L-8 127L872 1341Z"  />
<glyph unicode="[" horiz-adv-x="682" d="M47 -182L340 1475H774L750 1329H485L246 -39H508L483 -182H47Z"  />
<glyph unicode="\" horiz-adv-x="725" d="M487 -190H373L256 1503H371L487 -190Z"  />
<glyph unicode="]" horiz-adv-x="682" d="M618 1475L326 -182H-111L-84 -39H178L420 1329H156L182 1475H618Z"  />
<glyph unicode="^" horiz-adv-x="2048" d="M1104 1458L1624 901H1466L1024 1339L582 901H422L942 1458H1104Z"  />
<glyph unicode="_" horiz-adv-x="1024" d="M1024 -365V-483H0V-365H1024Z"  />
<glyph unicode="`" horiz-adv-x="1024" d="M672 1073H571L285 1421H453L672 1073Z"  />
<glyph unicode="a" horiz-adv-x="1237" d="M188 420Q188 291 269 209T477 127Q628 127 733 240T838 516Q838 645 754 730T543 815Q392 815 290 702T188 420ZM934 139H1079L1055 0H735L754 96Q680 36 598 6T428 -25Q242 -25 124 100T6 422Q6 529 46 628T160 805Q233 881 325 921T520 961Q632 961 721 914T874 776L903 940H1223L1198 801H1051L934 139Z"  />
<glyph unicode="b" horiz-adv-x="1249" d="M961 518Q961 647 880 729T672 811Q521 811 416 698T311 422Q311 290 395 207T614 123Q762 123 861 236T961 518ZM248 0H-72L-47 139H96L307 1335H162L186 1475H506L391 829Q463 895 545 928T721 961Q907 961 1024 838T1141 518Q1141 289 996 133T639 -23Q522 -23 430 24T274 162L248 0Z"  />
<glyph unicode="c" horiz-adv-x="1020" d="M776 244L856 147Q769 62 669 19T459 -25Q253 -25 130 102T6 438Q6 525 31 604T106 754Q180 854 280 908T496 963Q598 963 676 924T797 813L813 938H948L889 596H775Q765 698 692 761T512 825Q372 825 276 713T180 436Q180 297 262 207T473 117Q548 117 623 148T776 244Z"  />
<glyph unicode="d" horiz-adv-x="1229" d="M188 422Q188 293 269 211T477 129Q628 129 733 242T838 518Q838 650 753 733T535 817Q387 817 288 704T188 422ZM811 1475H1171L936 139H1081L1057 0H737L758 111Q686 45 604 13T428 -20Q242 -20 124 103T6 422Q6 651 152 808T510 965Q626 965 718 918T874 778L973 1335H786L811 1475Z"  />
<glyph unicode="e" horiz-adv-x="1098" d="M199 561H837Q833 683 756 754T549 825Q424 825 331 755T199 561ZM920 186Q846 79 739 27T483 -25Q274 -25 140 103T6 428Q6 660 162 811T561 963Q757 963 878 844T999 530Q999 509 998 484T993 430H186V414Q186 279 271 199T498 119Q595 119 672 155T807 264L920 186Z"  />
<glyph unicode="f" horiz-adv-x="627" d="M-59 0L-35 139H104L221 799H59L84 938H246L285 1159Q315 1327 388 1401T598 1475Q619 1475 642 1473T690 1468L666 1327Q655 1329 642 1330T598 1331Q537 1331 506 1299T461 1186L418 938H600L575 799H393L276 139H444L420 0H-59Z"  />
<glyph unicode="g" horiz-adv-x="1229" d="M874 778L901 938H1219L1198 799H1055L936 139Q932 118 925 78Q881 -169 825 -244Q755 -338 659 -382T422 -426Q250 -426 140 -348T6 -133H180Q208 -207 269 -244T424 -281Q580 -281 657 -191T758 111Q686 45 604 13T428 -20Q242 -20 124 103T6 422Q6 651 152 808T510 965Q626 965 718 918T874 778ZM188 422Q188 293 269 211T477 129Q628 129 733 242T838 518Q838 650 753 733T535 817Q387 817 288 704T188 422Z"  />
<glyph unicode="h" horiz-adv-x="1196" d="M819 608Q824 633 826 657T829 702Q829 758 795 788T696 819Q625 819 543 787T365 690L266 139H412L387 0H-76L-51 139H94L305 1335H160L184 1475H502L391 834Q484 899 572 931T748 963Q871 963 938 902T1006 731Q1006 708 1002 677T991 610L909 139H1053L1028 0H563L588 139H735L819 608Z"  />
<glyph unicode="i" horiz-adv-x="569" d="M195 1171L227 1356H475L444 1171H195ZM274 139H426L401 0H-68L-43 139H100L217 799H74L98 938H416L274 139Z"  />
<glyph unicode="j" horiz-adv-x="524" d="M168 1171L201 1356H449L418 1171H168ZM209 -90Q174 -283 106 -356T-100 -430Q-128 -430 -193 -423Q-201 -422 -205 -422L-174 -258Q-172 -258 -168 -259Q-122 -266 -102 -266Q-40 -266 -11 -229T41 -57L190 799H47L72 938H389L209 -90Z"  />
<glyph unicode="k" horiz-adv-x="1104" d="M336 526L715 799H586L612 938H1077L1053 799H926L510 502L856 139H967L940 0H522L543 139H653L330 485L266 139H412L387 0H-76L-51 139H94L305 1335H160L184 1475H502L336 526Z"  />
<glyph unicode="l" horiz-adv-x="569" d="M266 139H418L395 0H-76L-51 139H94L305 1335H160L184 1475H502L266 139Z"  />
<glyph unicode="m" horiz-adv-x="1749" d="M864 139H997L975 0H539L561 139H694L778 608Q783 633 785 657T788 702Q788 758 756 788T666 819Q603 819 528 787T371 690L270 139H416L391 0H-68L-43 139H100L217 799H74L98 938H412L393 834Q477 898 560 930T723 963Q811 963 867 926T950 815Q1052 891 1141 927T1317 963Q1430 963 1492 903T1554 731Q1554 714 1552 689T1540 610L1458 139H1591L1569 0H1133L1155 139H1286L1372 608Q1377 633 1379 657T1382 702Q1382 758 1350 788T1260 819Q1195 819 1117 784T961 684L864 139Z"  />
<glyph unicode="n" horiz-adv-x="1204" d="M825 608Q831 638 834 662T838 702Q838 758 803 788T702 819Q632 819 551 788T373 690L274 139H420L395 0H-68L-43 139H100L217 799H74L98 938H416L397 834Q490 898 579 930T756 963Q879 963 946 902T1014 731Q1014 708 1010 677T999 610L915 139H1061L1036 0H571L596 139H741L825 608Z"  />
<glyph unicode="o" horiz-adv-x="1141" d="M494 117Q642 117 750 232T858 508Q858 648 773 735T549 823Q398 823 292 709T186 430Q186 291 271 204T494 117ZM492 -23Q277 -23 142 101T6 422Q6 654 161 808T551 963Q767 963 901 838T1036 516Q1036 283 882 130T492 -23Z"  />
<glyph unicode="p" horiz-adv-x="1229" d="M950 518Q950 647 870 729T662 811Q510 811 405 698T299 422Q299 291 384 207T604 123Q752 123 851 236T950 518ZM203 799H57L84 938H401L383 842Q456 900 539 930T711 961Q895 961 1012 838T1130 518Q1130 289 986 133T629 -23Q512 -23 420 24T264 162L186 -287H340L315 -426H-158L-133 -287H12L203 799Z"  />
<glyph unicode="q" horiz-adv-x="1229" d="M862 -289H1008L983 -426H510L535 -289H686L754 96Q680 36 598 6T428 -25Q242 -25 124 100T6 422Q6 529 46 628T160 803Q236 881 328 921T524 961Q641 961 728 916T874 780L903 940H1223L1198 801H1051L862 -289ZM188 420Q188 291 269 209T477 127Q628 127 733 240T838 516Q838 645 754 730T543 815Q392 815 290 702T188 420Z"  />
<glyph unicode="r" horiz-adv-x="743" d="M385 756Q441 859 520 911T702 963Q718 963 725 963T741 960L715 812Q580 808 469 709T334 475L274 139H428L403 0H-68L-43 139H100L217 799H74L98 938H416L385 756Z"  />
<glyph unicode="s" horiz-adv-x="913" d="M-37 0L18 319H147Q183 218 254 167T430 115Q506 115 552 151T598 246Q598 294 562 328T438 393L322 436Q204 479 146 547T88 711Q88 820 173 891T389 963Q486 963 559 925T674 813L690 938H825L774 651H649Q622 733 558 780T410 827Q340 827 298 797T256 717Q256 633 447 560L455 557L575 510Q665 476 714 409T764 256Q764 131 672 54T428 -23Q317 -23 240 18T117 141L96 0H-37Z"  />
<glyph unicode="t" horiz-adv-x="586" d="M436 1262L379 938H557L532 799H354L264 289L263 284Q254 221 254 205Q254 166 281 150T373 133Q380 133 394 134T418 135L393 0H387Q328 -4 305 -4Q174 -4 122 26T70 131Q70 153 72 176T80 226L182 799H27L51 938H207L262 1262H436Z"  />
<glyph unicode="u" horiz-adv-x="1194" d="M279 330Q278 326 276 315Q266 257 266 236Q266 180 301 150T401 119Q464 119 524 138T635 193Q734 260 762 415Q763 422 764 426L829 799H686L711 938H1028L887 139H1032L1008 0H690L707 106Q612 40 524 8T350 -25Q227 -25 159 36T90 207Q90 231 94 263T104 329L188 799H45L70 938H385L279 330Z"  />
<glyph unicode="v" horiz-adv-x="1094" d="M330 0L127 799H-8L16 938H465L440 799H291L434 217L774 799H625L649 938H1092L1067 799H944L451 0H330Z"  />
<glyph unicode="w" horiz-adv-x="1669" d="M289 0L129 799H6L31 938H461L436 799H299L397 246L731 799H600L625 938H1065L1040 799H895L1018 246L1343 799H1221L1245 938H1653L1628 799H1511L1028 0H915L782 621L403 0H289Z"  />
<glyph unicode="x" horiz-adv-x="1100" d="M-63 0L-39 139H66L406 479L174 799H45L70 938H492L467 799H358L512 573L729 799H614L639 938H1053L1028 799H915L592 481L844 139H967L942 0H500L524 139H653L485 385L252 139H373L348 0H-63Z"  />
<glyph unicode="y" horiz-adv-x="1094" d="M-66 -428L-43 -287H106L309 27L125 799H-27L-2 938H457L432 799H287L426 205L805 799H645L670 938H1118L1094 799H969L272 -287H428L406 -428H-66Z"  />
<glyph unicode="z" horiz-adv-x="977" d="M8 0L20 139L643 799H246L213 627H59L115 938H848L838 799L215 139H639L678 336H829L770 0H8Z"  />
<glyph unicode="{" horiz-adv-x="1024" d="M858 1350Q850 1350 835 1351T813 1352Q692 1352 649 1305T606 1108V866Q606 700 563 631T408 530Q519 500 562 431T606 195V-47Q606 -196 649 -242T819 -289H858V-414H823Q724 -414 664 -402T561 -362Q506 -326 484 -262T461 -49V195Q461 347 406 408T217 469Q210 469 195 468T172 467V594Q180 594 195 593T217 592Q351 592 406 653T461 868V1112Q461 1265 483 1327T561 1425Q603 1453 663 1465T823 1477H858V1350Z"  />
<glyph unicode="|" horiz-adv-x="1024" d="M575 1565V-483H449V1565H575Z"  />
<glyph unicode="}" horiz-adv-x="1024" d="M563 1112V868Q563 716 618 654T809 592Q816 592 831 593T854 594V467Q846 467 831 468T809 469Q674 469 619 407T563 193V-49Q563 -202 541 -265T465 -365Q426 -391 368 -402T207 -414H166V-289Q174 -289 189 -290T211 -291Q331 -291 374 -244T418 -45V195Q418 361 461 430T616 530Q505 561 462 630T418 866V1108Q418 1257 374 1304T205 1352H166V1477H201Q301 1477 362 1465T465 1425Q519 1390 541 1327T563 1112Z"  />
<glyph unicode="~" horiz-adv-x="1706" d="M1530 627Q1429 555 1333 519T1143 483Q1100 483 1053 492T952 518Q922 528 865 549Q663 621 563 621Q480 621 390 584T178 461V594Q283 667 380 703T565 739Q621 739 681 727T856 674Q870 669 900 658Q1058 600 1145 600Q1229 600 1319 637T1530 758V627Z"  />
<glyph unicode="&#xA0;" horiz-adv-x="1063" />
<glyph unicode="&#xA1;" horiz-adv-x="678" d="M453 1497Q511 1497 548 1460T586 1366Q586 1307 549 1269T453 1231Q396 1231 357 1270T317 1366Q317 1421 356 1459T453 1497ZM496 1110L340 0H119L350 1110H496Z"  />
<glyph unicode="&#xA2;" horiz-adv-x="1063" d="M139 -264L270 29Q161 104 107 205T53 436Q53 662 192 812T537 963Q571 963 606 958T678 942L788 1186H879L756 905Q774 892 819 849Q833 836 839 830L864 956H977L926 600H827Q798 682 769 724T702 784L418 141Q447 131 472 126T518 121Q599 121 675 152T829 250L905 150Q819 62 720 18T508 -27Q474 -27 435 -22T350 -6L233 -264H139ZM340 182L622 817Q604 820 587 821T557 823Q419 823 322 710T225 432Q225 347 253 285T340 182Z"  />
<glyph unicode="&#xA3;" horiz-adv-x="1063" d="M20 -27V158Q120 159 175 271T251 639H38L65 782H259V801Q259 1136 367 1300T697 1464Q859 1464 964 1370T1070 1133Q1070 1103 1064 1071T1046 1006H873Q883 1038 888 1067T894 1118Q894 1203 838 1257T693 1311Q559 1311 498 1187T435 783L695 782L671 639H431Q425 497 398 387T321 199Q398 161 460 143T570 125Q678 125 731 185T785 367V387H955Q955 381 956 369T957 350Q957 175 865 73T615 -29Q531 -29 440 1T255 90Q209 34 152 6T20 -27Z"  />
<glyph unicode="&#xA4;" horiz-adv-x="1081" d="M1120 1436L1049 1036H895V1042Q895 1161 837 1232T684 1303Q564 1303 493 1220T365 932H868L809 827H338Q328 780 320 733T305 635H713L655 530H293Q290 492 289 455T287 385Q288 246 335 190T504 133Q601 133 670 192T776 367H948Q881 169 763 70T475 -29Q288 -29 199 79T109 410Q109 439 110 470T115 530H-33L8 635H127Q134 689 142 736T160 827H18L63 932H186Q265 1218 384 1341T702 1464Q784 1464 853 1421T944 1309L967 1436H1120Z"  />
<glyph unicode="&#xA5;" horiz-adv-x="1157" d="M954 1296H795L819 1436H1298L1274 1296H1145L956 1049H1188L1169 944H874L725 752H1135L1116 647H653L563 139H725L700 0H199L223 139H385L475 647H6L25 752H451L352 944H57L76 1049H299L174 1296H25L51 1436H541L514 1296H367L596 809L954 1296Z"  />
<glyph unicode="&#xA6;" horiz-adv-x="1024" d="M575 408V-350H449V408H575ZM575 1432V674H449V1432H575Z"  />
<glyph unicode="&#xA7;" horiz-adv-x="1024" d="M954 1475L897 1151H778L811 1346H709Q585 1346 542 1321T498 1233Q498 1195 522 1146T602 1022L844 698Q894 632 920 569T946 453Q946 350 879 285T705 219Q696 219 686 220T656 223Q689 172 706 126T723 37Q723 -75 640 -130T389 -186H53L111 139H231L197 -57H383Q459 -57 502 -27T545 55Q545 90 525 134T463 233L199 594Q142 671 117 728T92 836Q92 941 165 1004T360 1067H387Q352 1119 336 1163T319 1247Q319 1364 409 1419T692 1475H954ZM332 676L477 473Q535 391 574 362T657 332Q711 332 745 366T780 455Q780 486 763 523T694 633L555 827Q503 901 465 928T383 956Q331 956 297 921T262 834Q262 806 281 764T332 676Z"  />
<glyph unicode="&#xA8;" horiz-adv-x="1024" d="M629 1137L670 1325H829L788 1137H629ZM309 1137L348 1325H508L469 1137H309Z"  />
<glyph unicode="&#xA9;" horiz-adv-x="1706" d="M1065 911Q1050 988 995 1031T856 1075Q739 1075 674 983T608 723Q608 563 674 471T856 379Q943 379 1001 427T1075 561H1204Q1193 434 1095 354T850 274Q674 274 570 395T465 721Q465 929 572 1053T860 1178Q997 1178 1090 1104T1194 911H1065ZM1501 725Q1501 855 1452 974T1313 1184Q1221 1276 1103 1324T852 1372Q720 1372 605 1325T399 1186Q306 1091 257 972T207 725Q207 598 256 481T397 270Q490 178 606 129T852 80Q981 80 1100 130T1315 272Q1406 362 1453 477T1501 725ZM852 1460Q1003 1460 1137 1405T1376 1245Q1478 1143 1532 1009T1587 725Q1587 574 1533 442T1376 209Q1267 103 1132 47T852 -10Q706 -10 574 45T336 207Q230 312 175 445T119 725Q119 870 175 1004T338 1247Q440 1351 572 1405T852 1460Z"  />
<glyph unicode="&#xAA;" horiz-adv-x="928" d="M141 1112Q141 1021 202 963T358 905Q471 905 550 984T629 1178Q629 1268 566 1328T408 1389Q294 1389 218 1310T141 1112ZM700 915H809L791 817H551L565 885Q510 843 449 822T322 801Q182 801 93 888T4 1112Q4 1186 34 1256T121 1380Q175 1433 244 1461T391 1489Q476 1489 543 1456T655 1360L678 1475H918L899 1378H788L700 915Z"  />
<glyph unicode="&#xAB;" horiz-adv-x="999" d="M309 147L106 461L383 774H555L264 461L457 147H309ZM662 147L459 461L735 774H905L614 461L807 147H662Z"  />
<glyph unicode="&#xAC;" horiz-adv-x="1706" d="M1452 858V356H1337V741H254V858H1452Z"  />
<glyph unicode="&#xAD;" horiz-adv-x="631" d="M14 397L43 557H530L504 397H14Z"  />
<glyph unicode="&#xAE;" horiz-adv-x="1706" d="M846 1065H702V774H850Q973 774 1025 807T1077 915Q1077 994 1023 1029T846 1065ZM872 1157Q1050 1157 1136 1100T1223 926Q1223 837 1170 778T1026 702L1214 317H1057L881 682H702V317H561V1157H872ZM1501 721Q1501 854 1453 972T1315 1182Q1221 1275 1104 1323T852 1372Q720 1372 605 1325T401 1188Q307 1093 257 974T207 725Q207 598 256 481T397 270Q488 178 605 129T850 80Q981 80 1099 128T1313 270Q1404 360 1452 476T1501 721ZM852 1460Q1002 1460 1136 1405T1376 1243Q1478 1141 1532 1008T1587 725Q1587 574 1533 442T1374 209Q1265 103 1131 47T852 -10Q707 -10 574 46T334 209Q229 313 174 446T119 725Q119 872 176 1007T340 1249Q441 1352 572 1406T852 1460Z"  />
<glyph unicode="&#xAF;" horiz-adv-x="1024" d="M297 1167L324 1294H840L813 1167H297Z"  />
<glyph unicode="&#xB0;" horiz-adv-x="674" d="M539 1171Q539 1255 481 1313T338 1372Q254 1372 195 1314T135 1171Q135 1087 194 1028T338 969Q422 969 480 1028T539 1171ZM338 1454Q455 1454 538 1371T621 1171Q621 1055 538 972T336 889Q218 889 137 971T55 1171Q55 1290 137 1372T338 1454Z"  />
<glyph unicode="&#xB1;" horiz-adv-x="1706" d="M1452 158V41H254V158H1452ZM913 1180V836H1452V719H913V375H795V719H254V836H795V1180H913Z"  />
<glyph unicode="&#xB2;" horiz-adv-x="702" d="M571 573H-4L16 649L459 1073Q495 1108 513 1147T532 1229Q532 1285 490 1321T383 1358Q296 1358 251 1306T200 1147H94Q94 1289 172 1369T387 1450Q503 1450 576 1387T649 1223Q649 1163 624 1114T537 1006L168 659H479L510 793H618L571 573Z"  />
<glyph unicode="&#xB3;" horiz-adv-x="702" d="M33 854H141Q141 847 140 833T139 813Q139 733 181 690T301 647Q382 647 434 695T487 819Q487 895 436 938T291 984L305 1058Q312 1058 322 1058T350 1057Q445 1057 499 1101T553 1223Q553 1285 511 1323T401 1362Q323 1362 280 1320T227 1190H119Q126 1310 202 1381T399 1452Q520 1452 595 1389T670 1223Q670 1146 627 1089T504 1001Q556 963 581 919T606 819Q606 705 520 631T299 557Q178 557 103 622T27 795Q27 810 28 824T33 854Z"  />
<glyph unicode="&#xB4;" horiz-adv-x="1024" d="M512 1073H406L643 1421H821L512 1073Z"  />
<glyph unicode="&#xB5;" horiz-adv-x="1128" d="M362 1069L236 474Q228 441 225 407T221 336Q221 227 278 168T438 109Q563 109 646 210T774 518L895 1069H1051L889 315Q877 263 872 231T866 180Q866 148 884 132T938 115Q947 115 955 115T973 117L946 -8Q925 -13 902 -15T854 -18Q784 -18 750 17T709 129Q668 59 592 21T420 -18Q333 -18 268 16T158 119L45 -426H-111L205 1069H362Z"  />
<glyph unicode="&#xB6;" horiz-adv-x="1024" d="M948 1401H823V0H729V1401H547V0H451V782Q278 790 177 884T76 1130Q76 1287 183 1383T469 1479H948V1401Z"  />
<glyph unicode="&#xB7;" horiz-adv-x="530" d="M260 584Q202 584 165 621T127 717Q127 776 164 814T260 852Q317 852 356 813T395 717Q395 661 356 623T260 584Z"  />
<glyph unicode="&#xB8;" horiz-adv-x="1024" d="M152 -418L182 -332Q250 -352 307 -362T408 -373Q469 -373 500 -346T532 -268Q532 -224 496 -205T369 -186H332L393 0H467L430 -106H449Q562 -106 614 -146T666 -274Q666 -362 601 -415T426 -469Q373 -469 305 -457T152 -418Z"  />
<glyph unicode="&#xB9;" horiz-adv-x="700" d="M498 1436L350 657H465L451 573H104L119 657H233L367 1352H244L258 1436H498Z"  />
<glyph unicode="&#xBA;" horiz-adv-x="856" d="M371 899Q482 899 562 979T643 1174Q643 1271 579 1332T412 1393Q299 1393 219 1313T139 1118Q139 1021 203 960T371 899ZM369 801Q209 801 107 888T4 1112Q4 1276 121 1383T414 1491Q575 1491 676 1404T778 1178Q778 1015 662 908T369 801Z"  />
<glyph unicode="&#xBB;" horiz-adv-x="999" d="M262 774L465 461L188 147H18L309 461L115 774H262ZM614 774L817 461L539 147H369L659 461L467 774H614Z"  />
<glyph unicode="&#xBC;" horiz-adv-x="1681" d="M1397 289L1475 651L1149 289H1397ZM1552 0H1235L1251 78H1356L1382 211H1036L1049 289L1505 805H1604L1501 289H1610L1595 211H1487L1460 78H1569L1552 0ZM328 -29L1229 1464H1352L451 -29H328ZM475 1436L334 709H444L430 631H100L115 709H223L350 1356H231L248 1436H475Z"  />
<glyph unicode="&#xBD;" horiz-adv-x="1681" d="M1556 0H1008L1028 70L1450 467Q1484 498 1502 534T1520 610Q1520 664 1480 697T1376 731Q1294 731 1251 682T1204 537H1100Q1100 669 1175 744T1382 819Q1493 819 1562 760T1632 606Q1632 552 1609 507T1524 403L1171 80H1470L1499 205H1604L1556 0ZM328 -29L1229 1464H1352L451 -29H328ZM475 1436L334 709H444L430 631H100L115 709H223L350 1356H231L248 1436H475Z"  />
<glyph unicode="&#xBE;" horiz-adv-x="1681" d="M1397 289L1475 651L1149 289H1397ZM1552 0H1235L1251 78H1356L1382 211H1036L1049 289L1505 805H1604L1501 289H1610L1595 211H1487L1460 78H1569L1552 0ZM328 -29L1229 1464H1352L451 -29H328ZM31 893H135Q135 886 134 873T133 854Q133 780 173 740T287 700Q365 700 415 745T465 860Q465 932 416 972T277 1014L291 1083Q298 1083 312 1082T334 1081Q424 1081 476 1123T528 1237Q528 1294 488 1330T383 1366Q309 1366 268 1327T217 1207L113 1206Q120 1318 193 1384T381 1450Q495 1450 567 1391T639 1237Q639 1164 599 1111T481 1030Q530 996 554 954T578 860Q578 753 496 684T285 614Q170 614 99 676T27 838Q27 860 28 871T31 893Z"  />
<glyph unicode="&#xBF;" horiz-adv-x="1024" d="M700 1083L631 649H551Q426 649 341 571T256 379Q256 276 320 208T483 139Q586 139 650 205T719 383H887Q869 193 763 84T492 -25Q311 -25 200 82T88 362Q88 552 197 671T487 801L535 1083H700ZM653 1503Q711 1503 748 1466T786 1370Q786 1311 749 1273T653 1235Q596 1235 557 1274T518 1370Q518 1426 557 1464T653 1503Z"  />
<glyph unicode="&#xC0;" horiz-adv-x="1450" d="M467 662H903L786 1303L467 662ZM209 145H360L336 0H-115L-88 145H33L627 1329H483L510 1475H1126L1100 1329H952L1194 145H1337L1313 0H817L842 145H1008L934 516H395L209 145ZM957 1614H856L570 1962H738L957 1614Z"  />
<glyph unicode="&#xC1;" horiz-adv-x="1450" d="M467 662H903L786 1303L467 662ZM209 145H360L336 0H-115L-88 145H33L627 1329H483L510 1475H1126L1100 1329H952L1194 145H1337L1313 0H817L842 145H1008L934 516H395L209 145ZM797 1614H691L928 1962H1106L797 1614Z"  />
<glyph unicode="&#xC2;" horiz-adv-x="1450" d="M467 662H903L786 1303L467 662ZM209 145H360L336 0H-115L-88 145H33L627 1329H483L510 1475H1126L1100 1329H952L1194 145H1337L1313 0H817L842 145H1008L934 516H395L209 145ZM1106 1614H1010L871 1844L641 1614H535L803 1962H957L1106 1614Z"  />
<glyph unicode="&#xC3;" horiz-adv-x="1450" d="M467 662H903L786 1303L467 662ZM209 145H360L336 0H-115L-88 145H33L627 1329H483L510 1475H1126L1100 1329H952L1194 145H1337L1313 0H817L842 145H1008L934 516H395L209 145ZM1139 1880Q1107 1778 1064 1734T953 1690Q934 1690 913 1693T871 1702L805 1723Q787 1729 770 1732T738 1735Q706 1735 686 1717T654 1659H568Q598 1762 642 1808T756 1854Q775 1854 794 1851T834 1841L901 1819Q923 1812 939 1810T969 1807Q1003 1807 1023 1825T1054 1880H1139Z"  />
<glyph unicode="&#xC4;" horiz-adv-x="1450" d="M467 662H903L786 1303L467 662ZM209 145H360L336 0H-115L-88 145H33L627 1329H483L510 1475H1126L1100 1329H952L1194 145H1337L1313 0H817L842 145H1008L934 516H395L209 145ZM914 1678L955 1866H1114L1073 1678H914ZM594 1678L633 1866H793L754 1678H594Z"  />
<glyph unicode="&#xC5;" horiz-adv-x="1450" d="M700 1753Q700 1704 733 1670T815 1636Q864 1636 897 1670T930 1753Q930 1801 897 1834T815 1868Q767 1868 734 1835T700 1753ZM594 1751Q594 1845 657 1908T815 1972Q907 1972 970 1908T1034 1751Q1034 1659 971 1596T815 1532Q722 1532 658 1595T594 1751ZM209 145H360L336 0H-115L-88 145H33L627 1329H483L510 1475H1126L1100 1329H952L1194 145H1337L1313 0H817L842 145H1008L934 516H395L209 145ZM467 662H903L786 1303L467 662Z"  />
<glyph unicode="&#xC6;" horiz-adv-x="1884" d="M-162 0L-137 145H-20L811 1329H651L674 1475H1909L1855 1083H1690L1724 1329H1243L1157 854H1565L1540 711H1133L1032 145H1546L1610 420H1780L1683 0H657L682 145H848L913 516H424L160 145H313L289 0H-162ZM520 662H940L1061 1329H993L520 662Z"  />
<glyph unicode="&#xC7;" horiz-adv-x="1507" d="M1397 322Q1293 147 1138 59T778 -29Q638 -29 518 11T303 129Q188 224 125 365T61 668Q61 842 115 990T276 1253Q391 1377 542 1443T864 1509Q1012 1509 1124 1462T1309 1321L1339 1475H1501L1421 979H1284Q1267 1154 1161 1247T872 1341Q769 1341 673 1309T500 1217Q385 1126 322 987T258 686Q258 441 404 289T786 137Q936 137 1048 200T1243 391L1397 322ZM506 -418L536 -332Q604 -352 661 -362T762 -373Q823 -373 854 -346T886 -268Q886 -224 850 -205T723 -186H686L747 0H821L784 -106H803Q916 -106 968 -146T1020 -274Q1020 -362 955 -415T780 -469Q727 -469 659 -457T506 -418Z"  />
<glyph unicode="&#xC8;" horiz-adv-x="1155" d="M-74 0L-49 145H111L319 1329H158L184 1475H1178L1122 1083H958L993 1329H512L430 854H834L809 711H406L303 145H815L879 420H1049L952 0H-74ZM850 1614H749L463 1962H631L850 1614Z"  />
<glyph unicode="&#xC9;" horiz-adv-x="1155" d="M-74 0L-49 145H111L319 1329H158L184 1475H1178L1122 1083H958L993 1329H512L430 854H834L809 711H406L303 145H815L879 420H1049L952 0H-74ZM690 1614H584L821 1962H999L690 1614Z"  />
<glyph unicode="&#xCA;" horiz-adv-x="1155" d="M-74 0L-49 145H111L319 1329H158L184 1475H1178L1122 1083H958L993 1329H512L430 854H834L809 711H406L303 145H815L879 420H1049L952 0H-74ZM999 1614H903L764 1844L534 1614H428L696 1962H850L999 1614Z"  />
<glyph unicode="&#xCB;" horiz-adv-x="1155" d="M-74 0L-49 145H111L319 1329H158L184 1475H1178L1122 1083H958L993 1329H512L430 854H834L809 711H406L303 145H815L879 420H1049L952 0H-74ZM807 1678L848 1866H1007L966 1678H807ZM487 1678L526 1866H686L647 1678H487Z"  />
<glyph unicode="&#xCC;" horiz-adv-x="623" d="M303 145H465L440 0H-74L-49 145H111L319 1329H158L184 1475H698L674 1329H512L303 145ZM585 1614H484L198 1962H366L585 1614Z"  />
<glyph unicode="&#xCD;" horiz-adv-x="623" d="M303 145H465L440 0H-74L-49 145H111L319 1329H158L184 1475H698L674 1329H512L303 145ZM425 1614H319L556 1962H734L425 1614Z"  />
<glyph unicode="&#xCE;" horiz-adv-x="623" d="M303 145H465L440 0H-74L-49 145H111L319 1329H158L184 1475H698L674 1329H512L303 145ZM734 1614H638L499 1844L269 1614H163L431 1962H585L734 1614Z"  />
<glyph unicode="&#xCF;" horiz-adv-x="623" d="M303 145H465L440 0H-74L-49 145H111L319 1329H158L184 1475H698L674 1329H512L303 145ZM542 1678L583 1866H742L701 1678H542ZM222 1678L261 1866H421L382 1678H222Z"  />
<glyph unicode="&#xD0;" horiz-adv-x="1518" d="M711 1329H522L434 836H795L770 692H410L313 145H494Q701 145 807 168T989 246Q1115 336 1187 496T1260 850Q1260 1094 1126 1211T711 1329ZM-66 0L-39 145H121L217 692H-2L23 836H242L328 1329H168L193 1475H707Q1091 1475 1272 1320T1454 838Q1454 656 1395 494T1227 213Q1121 98 969 49T541 0H-66Z"  />
<glyph unicode="&#xD1;" horiz-adv-x="1399" d="M287 145H449L422 0H-74L-49 145H111L319 1329H158L184 1475H518L934 348L1112 1329H950L977 1475H1475L1448 1329H1288L1049 -29H901L467 1149L287 145ZM1143 1880Q1111 1778 1068 1734T957 1690Q938 1690 917 1693T875 1702L809 1723Q791 1729 774 1732T742 1735Q710 1735 690 1717T658 1659H572Q602 1762 646 1808T760 1854Q779 1854 798 1851T838 1841L905 1819Q927 1812 943 1810T973 1807Q1007 1807 1027 1825T1058 1880H1143Z"  />
<glyph unicode="&#xD2;" horiz-adv-x="1657" d="M780 -29Q641 -29 521 11T303 131Q187 225 125 363T63 666Q63 840 117 987T276 1247Q393 1372 548 1437T879 1503Q1195 1503 1394 1311T1593 811Q1593 639 1538 490T1378 227Q1265 104 1110 38T780 -29ZM260 682Q260 441 404 289T776 137Q880 137 973 170T1149 268Q1266 361 1330 498T1395 795Q1395 1035 1250 1186T874 1337Q772 1337 679 1305T504 1206Q387 1114 324 978T260 682ZM1032 1614H931L645 1962H813L1032 1614Z"  />
<glyph unicode="&#xD3;" horiz-adv-x="1657" d="M780 -29Q641 -29 521 11T303 131Q187 225 125 363T63 666Q63 840 117 987T276 1247Q393 1372 548 1437T879 1503Q1195 1503 1394 1311T1593 811Q1593 639 1538 490T1378 227Q1265 104 1110 38T780 -29ZM260 682Q260 441 404 289T776 137Q880 137 973 170T1149 268Q1266 361 1330 498T1395 795Q1395 1035 1250 1186T874 1337Q772 1337 679 1305T504 1206Q387 1114 324 978T260 682ZM872 1614H766L1003 1962H1181L872 1614Z"  />
<glyph unicode="&#xD4;" horiz-adv-x="1657" d="M780 -29Q641 -29 521 11T303 131Q187 225 125 363T63 666Q63 840 117 987T276 1247Q393 1372 548 1437T879 1503Q1195 1503 1394 1311T1593 811Q1593 639 1538 490T1378 227Q1265 104 1110 38T780 -29ZM260 682Q260 441 404 289T776 137Q880 137 973 170T1149 268Q1266 361 1330 498T1395 795Q1395 1035 1250 1186T874 1337Q772 1337 679 1305T504 1206Q387 1114 324 978T260 682ZM1181 1614H1085L946 1844L716 1614H610L878 1962H1032L1181 1614Z"  />
<glyph unicode="&#xD5;" horiz-adv-x="1657" d="M780 -29Q641 -29 521 11T303 131Q187 225 125 363T63 666Q63 840 117 987T276 1247Q393 1372 548 1437T879 1503Q1195 1503 1394 1311T1593 811Q1593 639 1538 490T1378 227Q1265 104 1110 38T780 -29ZM260 682Q260 441 404 289T776 137Q880 137 973 170T1149 268Q1266 361 1330 498T1395 795Q1395 1035 1250 1186T874 1337Q772 1337 679 1305T504 1206Q387 1114 324 978T260 682ZM1214 1880Q1182 1778 1139 1734T1028 1690Q1009 1690 988 1693T946 1702L880 1723Q862 1729 845 1732T813 1735Q781 1735 761 1717T729 1659H643Q673 1762 717 1808T831 1854Q850 1854 869 1851T909 1841L976 1819Q998 1812 1014 1810T1044 1807Q1078 1807 1098 1825T1129 1880H1214Z"  />
<glyph unicode="&#xD6;" horiz-adv-x="1657" d="M780 -29Q641 -29 521 11T303 131Q187 225 125 363T63 666Q63 840 117 987T276 1247Q393 1372 548 1437T879 1503Q1195 1503 1394 1311T1593 811Q1593 639 1538 490T1378 227Q1265 104 1110 38T780 -29ZM260 682Q260 441 404 289T776 137Q880 137 973 170T1149 268Q1266 361 1330 498T1395 795Q1395 1035 1250 1186T874 1337Q772 1337 679 1305T504 1206Q387 1114 324 978T260 682ZM989 1678L1030 1866H1189L1148 1678H989ZM669 1678L708 1866H868L829 1678H669Z"  />
<glyph unicode="&#xD7;" horiz-adv-x="1706" d="M858 692L1333 1169L1415 1087L940 610L1415 135L1333 53L858 528L381 53L301 135L776 610L301 1087L381 1169L858 692Z"  />
<glyph unicode="&#xD8;" horiz-adv-x="1657" d="M1274 1403L1401 1556H1567L1378 1325Q1484 1226 1537 1096T1591 809Q1591 636 1537 488T1378 227Q1265 104 1109 38T778 -29Q672 -29 571 -3T373 76L233 -98H63L270 158Q167 262 115 389T63 666Q63 840 117 987T276 1247Q393 1371 548 1437T879 1503Q991 1503 1090 1478T1274 1403ZM487 217Q554 176 626 156T778 135Q879 135 973 169T1149 268Q1265 360 1330 498T1395 793Q1395 911 1361 1006T1257 1176L487 217ZM1161 1260Q1103 1299 1032 1318T874 1337Q773 1337 681 1305T504 1206Q388 1116 324 979T260 682Q260 568 292 474T391 305L1161 1260Z"  />
<glyph unicode="&#xD9;" horiz-adv-x="1489" d="M700 1475L674 1329H512L379 582Q372 543 369 508T365 438Q365 302 446 222T666 141Q826 141 919 238T1049 539L1188 1329H1028L1053 1475H1567L1542 1329H1382L1239 528Q1190 254 1042 114T653 -27Q436 -27 305 94T174 416Q174 495 198 636Q200 647 201 653L319 1329H160L184 1475H700ZM1006 1614H905L619 1962H787L1006 1614Z"  />
<glyph unicode="&#xDA;" horiz-adv-x="1489" d="M700 1475L674 1329H512L379 582Q372 543 369 508T365 438Q365 302 446 222T666 141Q826 141 919 238T1049 539L1188 1329H1028L1053 1475H1567L1542 1329H1382L1239 528Q1190 254 1042 114T653 -27Q436 -27 305 94T174 416Q174 495 198 636Q200 647 201 653L319 1329H160L184 1475H700ZM846 1614H740L977 1962H1155L846 1614Z"  />
<glyph unicode="&#xDB;" horiz-adv-x="1489" d="M700 1475L674 1329H512L379 582Q372 543 369 508T365 438Q365 302 446 222T666 141Q826 141 919 238T1049 539L1188 1329H1028L1053 1475H1567L1542 1329H1382L1239 528Q1190 254 1042 114T653 -27Q436 -27 305 94T174 416Q174 495 198 636Q200 647 201 653L319 1329H160L184 1475H700ZM1155 1614H1059L920 1844L690 1614H584L852 1962H1006L1155 1614Z"  />
<glyph unicode="&#xDC;" horiz-adv-x="1489" d="M700 1475L674 1329H512L379 582Q372 543 369 508T365 438Q365 302 446 222T666 141Q826 141 919 238T1049 539L1188 1329H1028L1053 1475H1567L1542 1329H1382L1239 528Q1190 254 1042 114T653 -27Q436 -27 305 94T174 416Q174 495 198 636Q200 647 201 653L319 1329H160L184 1475H700ZM963 1678L1004 1866H1163L1122 1678H963ZM643 1678L682 1866H842L803 1678H643Z"  />
<glyph unicode="&#xDD;" horiz-adv-x="1251" d="M1059 1329H897L922 1475H1413L1389 1329H1255L731 678L637 145H805L778 0H264L291 145H446L545 705L221 1329H70L94 1475H596L571 1329H424L666 840L1059 1329ZM739 1614H633L870 1962H1048L739 1614Z"  />
<glyph unicode="&#xDE;" horiz-adv-x="1178" d="M698 1475L674 1329H510L485 1190H557Q830 1190 971 1084T1112 772Q1112 550 957 428T518 305H330L301 145H489L463 0H-74L-49 145H111L319 1329H158L184 1475H698ZM588 1051H461L354 446H492Q691 446 801 535T911 784Q911 917 830 984T588 1051Z"  />
<glyph unicode="&#xDF;" horiz-adv-x="1155" d="M-76 0L-51 139H86L256 1083Q293 1289 398 1390T682 1491Q853 1491 954 1398T1055 1149Q1055 1021 984 927T786 791Q907 760 977 665T1047 434Q1047 234 928 104T625 -27Q596 -27 566 -23T508 -12L541 121Q548 120 557 120T582 119Q717 119 795 205T874 438Q874 567 796 643T569 733L594 868Q735 880 811 953T887 1149Q887 1245 832 1299T678 1354Q575 1354 514 1288T428 1083L260 139H410L383 0H-76Z"  />
<glyph unicode="&#xE0;" horiz-adv-x="1237" d="M188 420Q188 291 269 209T477 127Q628 127 733 240T838 516Q838 645 754 730T543 815Q392 815 290 702T188 420ZM934 139H1079L1055 0H735L754 96Q680 36 598 6T428 -25Q242 -25 124 100T6 422Q6 529 46 628T160 805Q233 881 325 921T520 961Q632 961 721 914T874 776L903 940H1223L1198 801H1051L934 139ZM778 1073H677L391 1421H559L778 1073Z"  />
<glyph unicode="&#xE1;" horiz-adv-x="1237" d="M188 420Q188 291 269 209T477 127Q628 127 733 240T838 516Q838 645 754 730T543 815Q392 815 290 702T188 420ZM934 139H1079L1055 0H735L754 96Q680 36 598 6T428 -25Q242 -25 124 100T6 422Q6 529 46 628T160 805Q233 881 325 921T520 961Q632 961 721 914T874 776L903 940H1223L1198 801H1051L934 139ZM618 1073H512L749 1421H927L618 1073Z"  />
<glyph unicode="&#xE2;" horiz-adv-x="1237" d="M188 420Q188 291 269 209T477 127Q628 127 733 240T838 516Q838 645 754 730T543 815Q392 815 290 702T188 420ZM934 139H1079L1055 0H735L754 96Q680 36 598 6T428 -25Q242 -25 124 100T6 422Q6 529 46 628T160 805Q233 881 325 921T520 961Q632 961 721 914T874 776L903 940H1223L1198 801H1051L934 139ZM927 1073H831L692 1303L462 1073H356L624 1421H778L927 1073Z"  />
<glyph unicode="&#xE3;" horiz-adv-x="1237" d="M188 420Q188 291 269 209T477 127Q628 127 733 240T838 516Q838 645 754 730T543 815Q392 815 290 702T188 420ZM934 139H1079L1055 0H735L754 96Q680 36 598 6T428 -25Q242 -25 124 100T6 422Q6 529 46 628T160 805Q233 881 325 921T520 961Q632 961 721 914T874 776L903 940H1223L1198 801H1051L934 139ZM960 1339Q928 1237 885 1193T774 1149Q755 1149 734 1152T692 1161L626 1182Q608 1188 591 1191T559 1194Q527 1194 507 1176T475 1118H389Q419 1221 463 1267T577 1313Q596 1313 615 1310T655 1300L722 1278Q744 1271 760 1269T790 1266Q824 1266 844 1284T875 1339H960Z"  />
<glyph unicode="&#xE4;" horiz-adv-x="1237" d="M188 420Q188 291 269 209T477 127Q628 127 733 240T838 516Q838 645 754 730T543 815Q392 815 290 702T188 420ZM934 139H1079L1055 0H735L754 96Q680 36 598 6T428 -25Q242 -25 124 100T6 422Q6 529 46 628T160 805Q233 881 325 921T520 961Q632 961 721 914T874 776L903 940H1223L1198 801H1051L934 139ZM735 1137L776 1325H935L894 1137H735ZM415 1137L454 1325H614L575 1137H415Z"  />
<glyph unicode="&#xE5;" horiz-adv-x="1237" d="M530 1235Q530 1186 563 1153T645 1120Q695 1120 728 1153T762 1235Q762 1282 728 1316T645 1350Q598 1350 564 1317T530 1235ZM426 1235Q426 1329 489 1392T647 1456Q739 1456 802 1392T866 1235Q866 1143 803 1080T647 1016Q554 1016 490 1079T426 1235ZM934 139H1079L1055 0H735L754 96Q680 36 598 6T428 -25Q242 -25 124 100T6 422Q6 529 46 628T160 805Q233 881 325 921T520 961Q633 961 722 915T874 776L903 940H1223L1198 801H1051L934 139ZM188 420Q188 291 269 209T477 127Q628 127 733 240T838 516Q838 645 754 730T543 815Q392 815 290 702T188 420Z"  />
<glyph unicode="&#xE6;" horiz-adv-x="1737" d="M653 313Q653 395 584 440T389 485Q276 485 206 431T135 289Q135 214 199 168T371 121Q495 121 574 175T653 313ZM752 164Q679 69 574 22T332 -25Q163 -25 66 57T-31 283Q-31 436 83 529T387 623Q477 623 551 602T684 537Q693 564 697 597T702 672Q702 742 637 781T455 821Q381 821 310 808T170 766L123 903Q205 934 286 948T455 963Q601 963 690 922T815 799Q891 882 986 922T1202 963Q1398 963 1519 844T1640 530Q1640 509 1639 484T1634 430H827V412Q827 278 911 199T1137 119Q1235 119 1312 155T1448 264L1559 186Q1486 81 1382 28T1143 -25Q1011 -25 917 20T752 164ZM840 561H1478Q1474 684 1397 754T1190 825Q1065 825 972 755T840 561Z"  />
<glyph unicode="&#xE7;" horiz-adv-x="1020" d="M776 244L856 147Q769 62 669 19T459 -25Q253 -25 130 102T6 438Q6 525 31 604T106 754Q180 854 280 908T496 963Q598 963 676 924T797 813L813 938H948L889 596H775Q765 698 692 761T512 825Q372 825 276 713T180 436Q180 297 262 207T473 117Q548 117 623 148T776 244ZM213 -418L243 -332Q311 -352 368 -362T469 -373Q530 -373 561 -346T593 -268Q593 -224 557 -205T430 -186H393L454 0H528L491 -106H510Q623 -106 675 -146T727 -274Q727 -362 662 -415T487 -469Q434 -469 366 -457T213 -418Z"  />
<glyph unicode="&#xE8;" horiz-adv-x="1098" d="M199 561H837Q833 683 756 754T549 825Q424 825 331 755T199 561ZM920 186Q846 79 739 27T483 -25Q274 -25 140 103T6 428Q6 660 162 811T561 963Q757 963 878 844T999 530Q999 509 998 484T993 430H186V414Q186 279 271 199T498 119Q595 119 672 155T807 264L920 186ZM692 1073H591L305 1421H473L692 1073Z"  />
<glyph unicode="&#xE9;" horiz-adv-x="1098" d="M199 561H837Q833 683 756 754T549 825Q424 825 331 755T199 561ZM920 186Q846 79 739 27T483 -25Q274 -25 140 103T6 428Q6 660 162 811T561 963Q757 963 878 844T999 530Q999 509 998 484T993 430H186V414Q186 279 271 199T498 119Q595 119 672 155T807 264L920 186ZM532 1073H426L663 1421H841L532 1073Z"  />
<glyph unicode="&#xEA;" horiz-adv-x="1098" d="M199 561H837Q833 683 756 754T549 825Q424 825 331 755T199 561ZM920 186Q846 79 739 27T483 -25Q274 -25 140 103T6 428Q6 660 162 811T561 963Q757 963 878 844T999 530Q999 509 998 484T993 430H186V414Q186 279 271 199T498 119Q595 119 672 155T807 264L920 186ZM841 1073H745L606 1303L376 1073H270L538 1421H692L841 1073Z"  />
<glyph unicode="&#xEB;" horiz-adv-x="1098" d="M199 561H837Q833 683 756 754T549 825Q424 825 331 755T199 561ZM920 186Q846 79 739 27T483 -25Q274 -25 140 103T6 428Q6 660 162 811T561 963Q757 963 878 844T999 530Q999 509 998 484T993 430H186V414Q186 279 271 199T498 119Q595 119 672 155T807 264L920 186ZM649 1137L690 1325H849L808 1137H649ZM329 1137L368 1325H528L489 1137H329Z"  />
<glyph unicode="&#xEC;" horiz-adv-x="569" d="M274 139H426L401 0H-68L-43 139H100L217 799H74L98 938H416L274 139ZM411 1073H310L24 1421H192L411 1073Z"  />
<glyph unicode="&#xED;" horiz-adv-x="569" d="M274 139H426L401 0H-68L-43 139H100L217 799H74L98 938H416L274 139ZM251 1073H145L382 1421H560L251 1073Z"  />
<glyph unicode="&#xEE;" horiz-adv-x="569" d="M274 139H426L401 0H-68L-43 139H100L217 799H74L98 938H416L274 139ZM560 1073H464L325 1303L95 1073H-11L257 1421H411L560 1073Z"  />
<glyph unicode="&#xEF;" horiz-adv-x="569" d="M274 139H426L401 0H-68L-43 139H100L217 799H74L98 938H416L274 139ZM368 1137L409 1325H568L527 1137H368ZM48 1137L87 1325H247L208 1137H48Z"  />
<glyph unicode="&#xF0;" horiz-adv-x="1141" d="M741 1184L911 874Q976 757 1005 669T1034 506Q1034 276 881 127T492 -23Q277 -23 142 100T6 416Q6 644 159 794T545 944Q585 944 625 937T705 915L580 1153L307 1100L287 1204L524 1251L403 1475H586L692 1284L907 1325L928 1223L741 1184ZM186 424Q186 287 271 202T494 117Q643 117 750 229T858 500Q858 637 772 723T549 809Q399 809 293 696T186 424Z"  />
<glyph unicode="&#xF1;" horiz-adv-x="1204" d="M825 608Q831 638 834 662T838 702Q838 758 803 788T702 819Q632 819 551 788T373 690L274 139H420L395 0H-68L-43 139H100L217 799H74L98 938H416L397 834Q490 898 579 930T756 963Q879 963 946 902T1014 731Q1014 708 1010 677T999 610L915 139H1061L1036 0H571L596 139H741L825 608ZM944 1339Q912 1237 869 1193T758 1149Q739 1149 718 1152T676 1161L610 1182Q592 1188 575 1191T543 1194Q511 1194 491 1176T459 1118H373Q403 1221 447 1267T561 1313Q580 1313 599 1310T639 1300L706 1278Q728 1271 744 1269T774 1266Q808 1266 828 1284T859 1339H944Z"  />
<glyph unicode="&#xF2;" horiz-adv-x="1141" d="M494 117Q642 117 750 232T858 508Q858 648 773 735T549 823Q398 823 292 709T186 430Q186 291 271 204T494 117ZM492 -23Q277 -23 142 101T6 422Q6 654 161 808T551 963Q767 963 901 838T1036 516Q1036 283 882 130T492 -23ZM731 1073H630L344 1421H512L731 1073Z"  />
<glyph unicode="&#xF3;" horiz-adv-x="1141" d="M494 117Q642 117 750 232T858 508Q858 648 773 735T549 823Q398 823 292 709T186 430Q186 291 271 204T494 117ZM492 -23Q277 -23 142 101T6 422Q6 654 161 808T551 963Q767 963 901 838T1036 516Q1036 283 882 130T492 -23ZM571 1073H465L702 1421H880L571 1073Z"  />
<glyph unicode="&#xF4;" horiz-adv-x="1141" d="M494 117Q642 117 750 232T858 508Q858 648 773 735T549 823Q398 823 292 709T186 430Q186 291 271 204T494 117ZM492 -23Q277 -23 142 101T6 422Q6 654 161 808T551 963Q767 963 901 838T1036 516Q1036 283 882 130T492 -23ZM880 1073H784L645 1303L415 1073H309L577 1421H731L880 1073Z"  />
<glyph unicode="&#xF5;" horiz-adv-x="1141" d="M494 117Q642 117 750 232T858 508Q858 648 773 735T549 823Q398 823 292 709T186 430Q186 291 271 204T494 117ZM492 -23Q277 -23 142 101T6 422Q6 654 161 808T551 963Q767 963 901 838T1036 516Q1036 283 882 130T492 -23ZM913 1339Q881 1237 838 1193T727 1149Q708 1149 687 1152T645 1161L579 1182Q561 1188 544 1191T512 1194Q480 1194 460 1176T428 1118H342Q372 1221 416 1267T530 1313Q549 1313 568 1310T608 1300L675 1278Q697 1271 713 1269T743 1266Q777 1266 797 1284T828 1339H913Z"  />
<glyph unicode="&#xF6;" horiz-adv-x="1141" d="M494 117Q642 117 750 232T858 508Q858 648 773 735T549 823Q398 823 292 709T186 430Q186 291 271 204T494 117ZM492 -23Q277 -23 142 101T6 422Q6 654 161 808T551 963Q767 963 901 838T1036 516Q1036 283 882 130T492 -23ZM688 1137L729 1325H888L847 1137H688ZM368 1137L407 1325H567L528 1137H368Z"  />
<glyph unicode="&#xF7;" horiz-adv-x="1706" d="M854 365Q901 365 935 331T969 250Q969 203 936 169T854 135Q806 135 773 168T739 250Q739 298 773 331T854 365ZM1452 670V553H254V670H1452ZM854 1085Q902 1085 935 1052T969 971Q969 923 936 890T854 856Q805 856 772 889T739 971Q739 1018 773 1051T854 1085Z"  />
<glyph unicode="&#xF8;" horiz-adv-x="1141" d="M326 150Q362 129 406 119T504 109Q651 109 759 228T868 514Q868 582 850 636T793 731L326 150ZM717 795Q680 814 638 824T549 834Q397 834 287 716T176 432Q176 373 194 319T250 211L717 795ZM805 905L897 1022H1024L887 850Q960 787 997 703T1034 514Q1034 281 881 129T492 -23Q426 -23 362 -9T233 35L135 -88H8L154 92Q81 159 44 242T6 422Q6 654 161 807T551 961Q630 961 693 947T805 905Z"  />
<glyph unicode="&#xF9;" horiz-adv-x="1194" d="M279 330Q278 326 276 315Q266 257 266 236Q266 180 301 150T401 119Q464 119 524 138T635 193Q734 260 762 415Q763 422 764 426L829 799H686L711 938H1028L887 139H1032L1008 0H690L707 106Q612 40 524 8T350 -25Q227 -25 159 36T90 207Q90 231 94 263T104 329L188 799H45L70 938H385L279 330ZM713 1073H612L326 1421H494L713 1073Z"  />
<glyph unicode="&#xFA;" horiz-adv-x="1194" d="M279 330Q278 326 276 315Q266 257 266 236Q266 180 301 150T401 119Q464 119 524 138T635 193Q734 260 762 415Q763 422 764 426L829 799H686L711 938H1028L887 139H1032L1008 0H690L707 106Q612 40 524 8T350 -25Q227 -25 159 36T90 207Q90 231 94 263T104 329L188 799H45L70 938H385L279 330ZM553 1073H447L684 1421H862L553 1073Z"  />
<glyph unicode="&#xFB;" horiz-adv-x="1194" d="M279 330Q278 326 276 315Q266 257 266 236Q266 180 301 150T401 119Q464 119 524 138T635 193Q734 260 762 415Q763 422 764 426L829 799H686L711 938H1028L887 139H1032L1008 0H690L707 106Q612 40 524 8T350 -25Q227 -25 159 36T90 207Q90 231 94 263T104 329L188 799H45L70 938H385L279 330ZM862 1073H766L627 1303L397 1073H291L559 1421H713L862 1073Z"  />
<glyph unicode="&#xFC;" horiz-adv-x="1194" d="M279 330Q278 326 276 315Q266 257 266 236Q266 180 301 150T401 119Q464 119 524 138T635 193Q734 260 762 415Q763 422 764 426L829 799H686L711 938H1028L887 139H1032L1008 0H690L707 106Q612 40 524 8T350 -25Q227 -25 159 36T90 207Q90 231 94 263T104 329L188 799H45L70 938H385L279 330ZM670 1137L711 1325H870L829 1137H670ZM350 1137L389 1325H549L510 1137H350Z"  />
<glyph unicode="&#xFD;" horiz-adv-x="1094" d="M-66 -428L-43 -287H106L309 27L125 799H-27L-2 938H457L432 799H287L426 205L805 799H645L670 938H1118L1094 799H969L272 -287H428L406 -428H-66ZM547 1073H441L678 1421H856L547 1073Z"  />
<glyph unicode="&#xFE;" horiz-adv-x="1229" d="M299 1335H156L180 1475H498L383 842Q456 901 538 931T711 961Q897 961 1013 838T1130 518Q1130 289 986 133T629 -23Q512 -23 419 24T264 162L186 -287H340L315 -426H-158L-133 -287H12L299 1335ZM950 518Q950 647 869 729T662 811Q509 811 404 699T299 422Q299 291 384 207T604 123Q751 123 850 236T950 518Z"  />
<glyph unicode="&#xFF;" horiz-adv-x="1094" d="M-66 -428L-43 -287H106L309 27L125 799H-27L-2 938H457L432 799H287L426 205L805 799H645L670 938H1118L1094 799H969L272 -287H428L406 -428H-66ZM664 1137L705 1325H864L823 1137H664ZM344 1137L383 1325H543L504 1137H344Z"  />
<glyph unicode="&#x131;" horiz-adv-x="569" d="M274 139H426L401 0H-68L-43 139H100L217 799H74L98 938H416L274 139Z"  />
<glyph unicode="&#x152;" horiz-adv-x="1952" d="M1976 1475L1921 1083H1757L1792 1329H1311L1229 854H1632L1608 711H1204L1102 145H1614L1677 420H1847L1751 0H860Q676 0 580 13T408 57Q247 120 154 280T61 653Q61 905 173 1091T508 1397Q586 1439 735 1457T1223 1475H1976ZM958 362L1087 1087Q1096 1138 1101 1173T1106 1225Q1106 1281 1063 1306T924 1331Q609 1331 434 1151T258 649Q258 415 391 278T754 141Q850 141 892 184T958 362Z"  />
<glyph unicode="&#x153;" horiz-adv-x="1925" d="M1030 561H1669Q1663 685 1589 755T1389 825Q1253 825 1162 758T1030 561ZM950 717Q1025 843 1127 903T1372 963Q1583 963 1707 846T1831 530Q1831 510 1830 485T1824 430H1018V412Q1018 276 1101 197T1327 117Q1426 117 1503 153T1638 264L1747 186Q1674 77 1570 26T1315 -25Q1162 -25 1055 37T905 211Q825 93 723 35T489 -23Q287 -23 158 102T29 422Q29 655 177 809T551 963Q698 963 796 902T950 717ZM496 117Q638 117 741 232T844 510Q844 649 762 736T549 823Q404 823 303 709T201 428Q201 290 283 204T496 117Z"  />
<glyph unicode="&#x160;" horiz-adv-x="1233" d="M-10 0L78 514H233Q264 339 365 241T616 143Q752 143 836 214T920 399Q920 481 865 534T639 655L473 721Q316 782 237 878T158 1106Q158 1277 289 1390T625 1503Q745 1503 837 1454T981 1311L1004 1470H1182L1104 1044H946Q909 1195 827 1269T614 1343Q498 1343 423 1282T348 1126Q348 980 639 863L668 852L834 784Q972 728 1044 633T1116 410Q1116 218 976 95T616 -29Q471 -29 366 27T197 197L166 0H-10ZM528 1962H623L762 1735L993 1962H1100L829 1614H676L528 1962Z"  />
<glyph unicode="&#x161;" horiz-adv-x="913" d="M-37 0L18 319H147Q183 218 254 167T430 115Q506 115 552 151T598 246Q598 294 562 328T438 393L322 436Q204 479 146 547T88 711Q88 820 173 891T389 963Q486 963 559 925T674 813L690 938H825L774 651H649Q622 733 558 780T410 827Q340 827 298 797T256 717Q256 633 447 560L455 557L575 510Q665 476 714 409T764 256Q764 131 672 54T428 -23Q317 -23 240 18T117 141L96 0H-37ZM257 1421H352L491 1194L722 1421H829L558 1073H405L257 1421Z"  />
<glyph unicode="&#x178;" horiz-adv-x="1251" d="M1059 1329H897L922 1475H1413L1389 1329H1255L731 678L637 145H805L778 0H264L291 145H446L545 705L221 1329H70L94 1475H596L571 1329H424L666 840L1059 1329ZM856 1678L897 1866H1056L1015 1678H856ZM536 1678L575 1866H735L696 1678H536Z"  />
<glyph unicode="&#x17D;" horiz-adv-x="1100" d="M872 1341H346L299 1079H127L197 1475H1126L1108 1360L219 133H770L829 440H999L920 0H-31L-8 127L872 1341ZM463 1962H558L697 1735L928 1962H1035L764 1614H611L463 1962Z"  />
<glyph unicode="&#x17E;" horiz-adv-x="977" d="M8 0L20 139L643 799H246L213 627H59L115 938H848L838 799L215 139H639L678 336H829L770 0H8ZM289 1421H384L523 1194L754 1421H861L590 1073H437L289 1421Z"  />
<glyph unicode="&#x192;" horiz-adv-x="1063" d="M-16 -217Q25 -230 58 -236T121 -242Q302 -242 382 363Q387 398 389 415L432 750H199V881H455L485 1061Q521 1263 605 1363T823 1464Q877 1464 927 1455T1018 1427L983 1290Q945 1305 911 1312T848 1319Q765 1319 721 1259T653 1051L627 881H854V750H606L573 494Q538 219 514 84T463 -131Q416 -272 337 -333T121 -395Q84 -395 41 -388T-57 -365L-16 -217Z"  />
<glyph unicode="&#x2C6;" horiz-adv-x="1024" d="M821 1073H725L586 1303L356 1073H250L518 1421H672L821 1073Z"  />
<glyph unicode="&#x2C7;" horiz-adv-x="1024" d="M311 1421H406L545 1194L776 1421H883L612 1073H459L311 1421Z"  />
<glyph unicode="&#x2DC;" horiz-adv-x="1024" d="M854 1339Q822 1237 779 1193T668 1149Q649 1149 628 1152T586 1161L520 1182Q502 1188 485 1191T453 1194Q421 1194 401 1176T369 1118H283Q313 1221 357 1267T471 1313Q490 1313 509 1310T549 1300L616 1278Q638 1271 654 1269T684 1266Q718 1266 738 1284T769 1339H854Z"  />
<glyph unicode="&#x2013;" horiz-adv-x="1024" d="M-12 420L8 537H1030L1010 420H-12Z"  />
<glyph unicode="&#x2014;" horiz-adv-x="2048" d="M2009 537L1989 420H-59L-39 537H2009Z"  />
<glyph unicode="&#x2018;" horiz-adv-x="563" d="M346 1475H530L344 1047H174L346 1475Z"  />
<glyph unicode="&#x2019;" horiz-adv-x="563" d="M346 1475H530L344 1047H174L346 1475Z"  />
<glyph unicode="&#x201A;" horiz-adv-x="563" d="M172 248H356L170 -180H0L172 248Z"  />
<glyph unicode="&#x201C;" horiz-adv-x="901" d="M739 1475H924L735 1047H567L739 1475ZM295 1475H477L291 1047H121L295 1475Z"  />
<glyph unicode="&#x201D;" horiz-adv-x="901" d="M739 1475H924L735 1047H567L739 1475ZM295 1475H477L291 1047H121L295 1475Z"  />
<glyph unicode="&#x201E;" horiz-adv-x="901" d="M618 248H803L614 -180H444L618 248ZM172 248H356L170 -180H0L172 248Z"  />
<glyph unicode="&#x2020;" horiz-adv-x="1024" d="M266 -186L446 842H197L176 725H59L111 1092H240L219 975H471L537 1356H399L420 1475H848L825 1356H692L625 975H872L895 1092H1022L956 725H829L850 842H602L420 -186H266Z"  />
<glyph unicode="&#x2021;" horiz-adv-x="1024" d="M537 1356H399L420 1475H848L825 1356H692L625 975H872L895 1092H1022L956 725H829L850 842H602L528 434H776L799 551H926L860 184H733L754 301H506L440 -66H580L557 -186H131L152 -66H287L350 301H100L80 184H-37L14 551H143L123 434H375L446 842H197L176 725H59L111 1092H240L219 975H471L537 1356Z"  />
<glyph unicode="&#x2022;" horiz-adv-x="1208" d="M307 762Q307 885 394 971T604 1057Q726 1057 812 971T899 762Q899 640 812 553T602 465Q479 465 393 552T307 762Z"  />
<glyph unicode="&#x2026;" horiz-adv-x="2048" d="M252 -25Q194 -25 157 13T119 109Q119 167 156 205T252 244Q309 244 348 205T387 109Q387 53 348 14T252 -25ZM934 -25Q876 -25 839 13T801 109Q801 167 838 205T934 244Q991 244 1030 205T1069 109Q1069 53 1030 14T934 -25ZM1618 -25Q1560 -25 1523 13T1485 109Q1485 167 1522 205T1618 244Q1675 244 1714 205T1753 109Q1753 53 1714 14T1618 -25Z"  />
<glyph unicode="&#x2030;" horiz-adv-x="2736" d="M2263 143Q2349 143 2407 202T2466 348Q2466 437 2408 496T2263 555Q2178 555 2119 495T2060 348Q2060 262 2118 203T2263 143ZM2611 348Q2611 202 2510 101T2263 0Q2117 0 2015 101T1913 348Q1913 495 2014 595T2263 696Q2410 696 2510 596T2611 348ZM1759 348Q1759 202 1657 101T1409 0Q1263 0 1162 101T1061 348Q1061 495 1161 595T1409 696Q1556 696 1657 596T1759 348ZM1409 143Q1496 143 1555 202T1614 348Q1614 436 1555 495T1409 555Q1324 555 1265 495T1206 348Q1206 262 1264 203T1409 143ZM1356 1464H1483L522 -29H401L1356 1464ZM821 1087Q821 941 720 840T473 739Q327 739 225 840T123 1087Q123 1234 224 1335T473 1436Q620 1436 720 1335T821 1087ZM473 883Q559 883 617 941T676 1087Q676 1176 618 1235T473 1294Q388 1294 328 1234T268 1087Q268 1001 327 942T473 883Z"  />
<glyph unicode="&#x2039;" horiz-adv-x="649" d="M309 150L106 461L383 774H555L264 461L457 150H309Z"  />
<glyph unicode="&#x203A;" horiz-adv-x="649" d="M262 774L465 461L188 147H18L309 461L115 774H262Z"  />
<glyph unicode="&#x2122;" horiz-adv-x="1706" d="M948 1456L1108 1051L1257 1456H1389V922H1307V1380L1135 922H1081L901 1380V922H819V1456H948ZM694 1456V1389H522V922H428V1389H254V1456H694Z"  />

</font>
</defs>
</svg>
