<?xml  version="1.0" encoding="UTF-8"?>
<!DOCTYPE svg PUBLIC "-//W3C//DTD SVG 1.0//EN" "http://www.w3.org/TR/2001/REC-SVG-20010904/DTD/svg10.dtd" >
<svg xmlns="http://www.w3.org/2000/svg" >
<metadata>
<version>1.0</version>
<id><![CDATA[Geom Slab 703 W01 Light Italic]]></id>
<vendor>Monotype Imaging Inc.</vendor>
<credits>
<name>Fonts.com WebFonts</name>
<URL>http://webfonts.fonts.com</URL>
<role>Home of the Web fonts</role>
</credits>
<license>
<URL>http://webfonts.fonts.com/Legal</URL>
</license>
<copyright><![CDATA[Copyright 1990-2003 Bitstream Inc. All rights reserved.]]></copyright>
<trademark></trademark>
<licensee>
<name></name>
</licensee>
</metadata>
<defs >
<font horiz-adv-x="1139" id="ce829a51-647b-4413-945b-92c1a22955c4">
<font-face font-family="" panose-1="2 6 4 3 2 2 5 9 4 3" ascent="1972" descent="-483" units-per-em="2048" alphabetic="0">
</font-face>
<missing-glyph horiz-adv-x="522" />

<glyph unicode="&#xA;" horiz-adv-x="0" />
<glyph unicode="&#xD;" horiz-adv-x="1044" />
<glyph unicode=" " horiz-adv-x="522" />
<glyph unicode="!" horiz-adv-x="692" d="M311 307H225L420 1475H539L311 307ZM242 -25Q195 -25 164 5T133 82Q133 128 164 159T242 190Q289 190 319 160T350 82Q350 36 319 6T242 -25Z"  />
<glyph unicode="&quot;" horiz-adv-x="551" d="M451 1434V881H365V1434H451ZM186 1434V881H100V1434H186Z"  />
<glyph unicode="#" horiz-adv-x="1575" d="M979 866H709L610 584H879L979 866ZM915 1454L741 956H1012L1188 1454H1298L1124 956H1446L1415 866H1092L991 584H1339L1309 494H958L784 0H672L848 494H578L399 0H289L463 494H129L160 584H496L596 866H236L264 956H629L805 1454H915Z"  />
<glyph unicode="$" horiz-adv-x="1042" d="M487 784L575 1303H547Q435 1303 359 1227T283 1036Q283 953 334 890T487 784ZM84 18H6L76 459H145Q145 451 144 439T143 420Q143 295 199 210T365 82L471 688Q330 742 259 832T188 1049Q188 1196 292 1289T565 1382H594L612 1487H690L670 1370Q745 1353 797 1314T881 1210L903 1372H981L922 1006H854Q846 1118 795 1190T655 1288L561 752Q724 692 805 595T887 365Q887 200 770 87T485 -27Q471 -27 457 -26T426 -21L393 -209H313L348 -4Q261 25 205 72T119 190L84 18ZM441 63Q448 62 457 62T483 61Q609 61 695 146T782 354Q782 462 726 532T543 653L441 63Z"  />
<glyph unicode="%" horiz-adv-x="1673" d="M1266 1464H1366L408 -29H309L1266 1464ZM403 870Q501 870 568 937T635 1104Q635 1204 569 1270T403 1337Q306 1337 239 1270T172 1104Q172 1005 239 938T403 870ZM735 1104Q735 964 639 868T403 772Q263 772 168 867T72 1104Q72 1245 167 1340T403 1436Q543 1436 639 1340T735 1104ZM1268 98Q1365 98 1432 165T1499 332Q1499 432 1433 498T1268 565Q1170 565 1103 498T1036 332Q1036 233 1103 166T1268 98ZM1599 332Q1599 192 1503 96T1268 0Q1127 0 1032 95T936 332Q936 472 1031 568T1268 664Q1407 664 1503 568T1599 332Z"  />
<glyph unicode="&amp;" horiz-adv-x="1346" d="M1163 0H936L795 205Q679 85 567 28T332 -29Q183 -29 88 68T-8 315Q-8 448 86 567T387 813Q314 922 279 1014T244 1190Q244 1322 331 1412T547 1503Q670 1503 744 1428T819 1227Q819 1107 750 1003T528 793L811 377Q909 500 966 600T1049 791H913L932 889H1319L1300 791H1163Q1120 662 1047 536T870 285L999 96H1182L1163 0ZM473 872Q596 957 656 1042T717 1219Q717 1302 669 1354T545 1407Q459 1407 407 1346T354 1184Q354 1110 383 1035T473 872ZM444 735Q268 625 186 525T104 317Q104 209 173 141T350 72Q439 72 537 128T741 297L444 735Z"  />
<glyph unicode="&apos;" horiz-adv-x="285" d="M186 1434V881H100V1434H186Z"  />
<glyph unicode="(" horiz-adv-x="569" d="M590 1438Q384 1193 287 944T190 412Q190 265 219 119T303 -168L217 -215Q147 -71 112 87T76 410Q76 723 187 999T518 1503L590 1438Z"  />
<glyph unicode=")" horiz-adv-x="569" d="M-53 -150Q152 95 249 344T346 877Q346 1023 318 1170T233 1456L319 1503Q389 1359 425 1201T461 879Q461 565 350 290T18 -215L-53 -150Z"  />
<glyph unicode="*" horiz-adv-x="1024" d="M535 1503H629L621 1270L838 1364L870 1276L641 1194L801 1024L727 961L578 1141L428 961L356 1024L516 1194L283 1276L317 1364L539 1270L535 1503Z"  />
<glyph unicode="+" horiz-adv-x="1706" d="M893 1221V651H1452V569H893V0H813V569H254V651H813V1221H893Z"  />
<glyph unicode="&#x2c;" horiz-adv-x="522" d="M109 -217H-4L170 209H285L109 -217Z"  />
<glyph unicode="-" horiz-adv-x="674" d="M29 414L45 510H549L532 414H29Z"  />
<glyph unicode="." horiz-adv-x="522" d="M184 -25Q138 -25 107 5T76 82Q76 128 107 159T184 190Q231 190 262 160T293 82Q293 36 262 6T184 -25Z"  />
<glyph unicode="/" horiz-adv-x="578" d="M557 1503L55 -190H-33L469 1503H557Z"  />
<glyph unicode="0" horiz-adv-x="1042" d="M905 537Q876 373 855 299T807 180Q741 74 650 23T436 -29Q260 -29 156 72T51 346Q51 381 56 430T72 537L137 901Q166 1065 187 1139T236 1257Q302 1363 391 1413T604 1464Q781 1464 886 1363T991 1090Q991 1059 986 1013T969 901L905 537ZM791 522L860 915Q871 981 876 1022T881 1094Q881 1221 807 1292T602 1364Q511 1364 442 1324T324 1202Q305 1171 290 1118T250 915L180 522Q169 457 165 416T160 342Q160 215 233 145T438 74Q530 74 599 113T717 233Q751 290 790 518L791 522Z"  />
<glyph unicode="1" horiz-adv-x="1042" d="M180 0L195 92H375L604 1343H408L428 1436H731L489 92H680L666 0H180Z"  />
<glyph unicode="2" horiz-adv-x="1042" d="M10 0L18 92L670 805Q755 899 790 970T825 1116Q825 1230 756 1301T575 1372Q431 1372 347 1268T262 981H160V991Q160 1212 272 1340T575 1468Q732 1468 834 1371T936 1122Q936 1033 893 943T762 756L154 92H698L748 340H856L793 0H10Z"  />
<glyph unicode="3" horiz-adv-x="1042" d="M33 450L135 451V428Q135 264 215 168T432 72Q564 72 651 170T739 418Q739 549 655 626T416 711L434 811Q444 810 461 809Q495 807 506 807Q662 807 757 887T852 1100Q852 1213 773 1291T580 1370Q458 1370 382 1295T291 1085H186Q203 1265 308 1366T582 1468Q748 1468 853 1363T958 1092Q958 962 882 870T668 739Q760 683 807 599T854 408Q854 226 736 101T442 -25Q251 -25 141 88T31 397Q31 419 31 430T33 450Z"  />
<glyph unicode="4" horiz-adv-x="1042" d="M147 487H618L717 1051Q725 1100 739 1155T778 1294L147 487ZM352 0L369 92H545L600 397H25L41 494L776 1436H887L721 487H909L893 397H705L651 92H840L823 0H352Z"  />
<glyph unicode="5" horiz-adv-x="1042" d="M70 426H170V395Q170 239 240 155T440 70Q587 70 681 185T776 481Q776 642 673 733T387 825Q347 825 308 823T230 815L362 1436H928L911 1343H446L348 914Q359 914 374 914T416 915Q632 915 757 798T883 479Q883 268 758 122T455 -25Q268 -25 169 83T70 395V426Z"  />
<glyph unicode="6" horiz-adv-x="1042" d="M182 408Q182 252 258 161T461 70Q611 70 698 183T786 492Q786 628 706 715T504 803Q368 803 275 690T182 408ZM201 729Q260 810 345 854T524 899Q685 899 791 780T897 477Q897 250 780 111T469 -29Q276 -29 174 90T72 436Q72 493 76 551T90 667Q114 829 148 962T225 1194Q280 1322 381 1394T606 1466Q761 1466 851 1374T942 1122Q942 1117 941 1107T940 1090H840Q838 1225 777 1295T598 1366Q448 1366 364 1238T201 729Z"  />
<glyph unicode="7" horiz-adv-x="1042" d="M143 0L862 1343H315L270 1110H172L231 1436H1001L995 1362L262 0H143Z"  />
<glyph unicode="8" horiz-adv-x="1042" d="M297 1079Q297 950 370 869T561 788Q696 788 780 874T864 1100Q864 1221 791 1294T596 1368Q469 1368 383 1285T297 1079ZM158 373Q158 238 239 153T446 68Q580 68 673 164T766 399Q766 525 681 610T471 696Q340 696 249 602T158 373ZM346 770Q269 826 230 902T190 1075Q190 1237 305 1348T588 1460Q764 1460 868 1358T973 1083Q973 955 899 859T694 721Q783 661 827 580T872 393Q872 214 753 92T455 -31Q269 -31 158 79T47 371Q47 513 124 615T346 770Z"  />
<glyph unicode="9" horiz-adv-x="1042" d="M856 1042Q856 1186 781 1275T584 1364Q432 1364 342 1252T252 950Q252 809 330 721T532 633Q671 633 763 748T856 1042ZM831 705Q776 623 692 580T506 537Q348 537 244 657T139 965Q139 1059 170 1153T254 1315Q316 1393 391 1427T575 1462Q762 1462 864 1344T967 1010Q967 959 961 898T942 762Q915 599 879 467T799 238Q743 112 642 43T414 -27Q264 -27 174 65T84 311Q84 327 84 336T86 352H186V346Q186 212 247 142T426 72Q575 72 662 200T831 705Z"  />
<glyph unicode=":" horiz-adv-x="522" d="M276 733Q230 733 200 763T170 840Q170 886 200 917T276 948Q323 948 354 917T385 840Q385 794 354 764T276 733ZM147 -25Q101 -25 71 5T41 82Q41 128 71 159T147 190Q194 190 225 160T256 82Q256 36 225 6T147 -25Z"  />
<glyph unicode=";" horiz-adv-x="522" d="M276 733Q230 733 200 763T170 840Q170 886 200 917T276 948Q323 948 354 917T385 840Q385 794 354 764T276 733ZM80 -217H-33L141 209H256L80 -217Z"  />
<glyph unicode="&lt;" horiz-adv-x="1706" d="M1442 1034L397 610L1442 186V98L264 580V641L1442 1124V1034Z"  />
<glyph unicode="=" horiz-adv-x="1706" d="M1452 469V387H254V469H1452ZM1452 831V752H254V831H1452Z"  />
<glyph unicode="&gt;" horiz-adv-x="1706" d="M1442 641V580L264 98V186L1309 610L264 1034V1124L1442 641Z"  />
<glyph unicode="?" horiz-adv-x="862" d="M334 803Q359 799 382 797T430 795Q575 795 663 887T752 1130Q752 1257 681 1332T489 1407Q381 1407 310 1339T221 1147H109Q131 1312 233 1406T489 1501Q659 1501 760 1399T862 1126Q862 937 748 817T453 696H420L354 309H248L334 803ZM272 -25Q226 -25 196 5T166 82Q166 128 196 159T272 190Q319 190 350 160T381 82Q381 36 350 6T272 -25Z"  />
<glyph unicode="@" horiz-adv-x="2048" d="M1303 827L1364 956H1444L1307 403Q1297 367 1292 339T1286 295Q1286 251 1316 227T1403 203Q1451 203 1503 222T1606 279Q1707 353 1768 486T1829 768Q1829 1041 1630 1207T1104 1374Q936 1374 794 1326T535 1182Q381 1054 303 885T225 510Q225 183 446 -12T1038 -207Q1199 -207 1362 -157T1661 -14L1690 -59Q1544 -169 1382 -224T1042 -279Q855 -279 699 -233T422 -94Q270 21 196 173T121 522Q121 684 171 829T319 1094Q463 1269 664 1359T1114 1450Q1274 1450 1418 1406T1667 1282Q1795 1184 1861 1056T1927 778Q1927 609 1864 470T1683 238Q1616 184 1538 156T1378 127Q1283 127 1235 163T1186 272Q1186 284 1189 306Q1190 309 1190 311Q1141 223 1065 175T899 127Q745 127 666 210T586 453Q586 681 720 839T1047 997Q1142 997 1207 954T1303 827ZM1219 467L1282 721Q1260 820 1201 872T1049 924Q897 924 794 786T690 446Q690 331 747 266T907 201Q1018 201 1103 273T1219 467Z"  />
<glyph unicode="A" horiz-adv-x="1413" d="M399 559H977L793 1389L399 559ZM-96 0L-80 96H59L684 1376H524L543 1475H1081L1065 1376H897L1192 96H1362L1343 0H872L889 96H1077L997 463H352L180 96H348L332 0H-96Z"  />
<glyph unicode="B" horiz-adv-x="1165" d="M711 1376H461L367 838H590Q788 838 897 920T1006 1151Q1006 1258 929 1317T711 1376ZM582 739H350L236 96H502Q705 96 822 188T940 438Q940 579 845 659T582 739ZM-68 0L-51 96H119L346 1376H174L193 1475H725Q913 1475 1017 1388T1122 1145Q1122 1020 1050 926T844 780Q950 727 1004 640T1059 434Q1059 235 909 118T500 0H-68Z"  />
<glyph unicode="C" horiz-adv-x="1460" d="M1333 1227L1376 1475H1479L1399 1020H1317Q1280 1202 1153 1304T838 1407Q688 1407 564 1346T344 1165Q267 1066 227 941T186 672Q186 400 336 236T733 72Q904 72 1044 160T1270 412L1364 373Q1268 183 1102 78T731 -27Q439 -27 255 165T70 659Q70 830 115 972T252 1225Q364 1362 509 1432T829 1503Q1005 1503 1135 1432T1333 1227Z"  />
<glyph unicode="D" horiz-adv-x="1470" d="M633 1376H461L233 96H408Q671 96 790 121T995 207Q1131 302 1208 472T1286 850Q1286 1126 1132 1251T633 1376ZM651 1475Q1036 1475 1216 1321T1397 840Q1397 658 1338 496T1169 213Q1064 98 912 49T483 0H-68L-51 96H119L346 1376H174L193 1475H651Z"  />
<glyph unicode="E" horiz-adv-x="1204" d="M-68 0L-51 96H119L346 1376H174L193 1475H1223L1157 1106H1042L1090 1376H461L362 817H866L850 719H346L236 96H885L930 352H1047L983 0H-68Z"  />
<glyph unicode="F" horiz-adv-x="1186" d="M-68 0L-51 96H119L346 1376H174L193 1475H1223L1157 1106H1042L1090 1376H461L362 817H866L850 719H346L236 96H418L401 0H-68Z"  />
<glyph unicode="G" horiz-adv-x="1698" d="M993 635H1661L1645 539H1470L1376 0H1270L1313 242Q1207 110 1068 42T766 -27Q447 -27 259 159T70 659Q70 830 120 970T272 1229Q387 1361 547 1432T891 1503Q1083 1503 1221 1434T1436 1229L1481 1475H1581L1501 1020H1419Q1381 1204 1246 1305T901 1407Q738 1407 601 1345T360 1163Q274 1063 230 937T186 659Q186 394 346 231T766 68Q973 68 1142 198T1376 539H977L993 635Z"  />
<glyph unicode="H" horiz-adv-x="1493" d="M236 96H406L389 0H-68L-51 96H119L346 1376H174L193 1475H647L631 1376H461L362 817H1155L1253 1376H1083L1100 1475H1556L1540 1376H1370L1143 96H1313L1296 0H840L858 96H1028L1139 719H346L236 96Z"  />
<glyph unicode="I" horiz-adv-x="584" d="M236 96H406L389 0H-68L-51 96H119L346 1376H174L193 1475H647L631 1376H461L236 96Z"  />
<glyph unicode="J" horiz-adv-x="584" d="M-147 -227L-133 -127Q-126 -128 -113 -130Q-54 -139 -33 -139Q47 -139 84 -94T147 96L373 1376H203L221 1475H676L659 1376H489L264 96Q228 -104 166 -172T-23 -240Q-46 -240 -78 -237T-147 -227Z"  />
<glyph unicode="K" horiz-adv-x="1290" d="M236 96H406L389 0H-68L-51 96H119L346 1376H174L193 1475H647L631 1376H461L354 784L1102 1376H948L965 1475H1384L1366 1376H1253L471 758L1028 96H1186L1169 0H705L723 96H885L348 737L236 96Z"  />
<glyph unicode="L" horiz-adv-x="1108" d="M-68 0L-51 96H119L346 1376H174L193 1475H647L631 1376H461L236 96H885L930 352H1047L983 0H-68Z"  />
<glyph unicode="M" horiz-adv-x="1774" d="M-68 0L-51 96H119L346 1376H174L193 1475H537L797 256L1481 1475H1833L1817 1376H1647L1421 96H1591L1573 0H1118L1135 96H1305L1528 1370L797 72H737L459 1372L236 96H406L389 0H-68Z"  />
<glyph unicode="N" horiz-adv-x="1460" d="M238 96H406L389 0H-68L-51 96H119L346 1376H174L193 1475H514L1020 203L1225 1376H1053L1069 1475H1526L1509 1376H1339L1087 -25H997L453 1346L238 96Z"  />
<glyph unicode="O" horiz-adv-x="1651" d="M778 63Q890 63 993 101T1190 215Q1318 320 1389 474T1460 803Q1460 1069 1298 1240T885 1411Q769 1411 660 1374T461 1266Q334 1167 261 1010T188 678Q188 407 353 235T778 63ZM774 -31Q639 -31 522 9T309 129Q196 224 135 363T74 666Q74 835 128 985T287 1251Q398 1375 549 1440T874 1505Q1185 1505 1380 1312T1575 811Q1575 637 1522 488T1364 223Q1255 102 1102 36T774 -31Z"  />
<glyph unicode="P" horiz-adv-x="1204" d="M670 1376H461L336 678H571Q811 678 933 774T1055 1061Q1055 1217 958 1296T670 1376ZM676 1475Q913 1475 1041 1367T1169 1059Q1169 837 1015 709T592 580H322L236 96H406L389 0H-68L-51 96H119L346 1376H174L193 1475H676Z"  />
<glyph unicode="Q" horiz-adv-x="1651" d="M815 291L903 74Q1158 139 1309 337T1460 803Q1460 1070 1298 1241T885 1413Q771 1413 662 1375T461 1266Q334 1167 261 1010T188 678Q188 534 238 415T385 209Q463 140 562 102T760 63Q781 63 789 63T805 66L727 260L815 291ZM922 -223L840 -25Q819 -27 796 -28T748 -29Q627 -29 515 11T311 127Q197 223 136 362T74 666Q74 837 129 987T289 1253Q399 1376 551 1441T877 1507Q1186 1507 1380 1313T1575 811Q1575 494 1407 276T938 -14L983 -125H1219V-223H922Z"  />
<glyph unicode="R" horiz-adv-x="1284" d="M365 825H653Q880 825 987 900T1094 1135Q1094 1260 1002 1318T709 1376H461L365 825ZM236 96H406L389 0H-68L-51 96H119L346 1376H174L193 1475H725Q965 1475 1085 1390T1206 1135Q1206 974 1105 871T827 750Q923 716 969 652T1016 489Q1016 467 1013 438T1004 371L954 96H1122L1104 0H821L879 322Q889 383 894 427T899 510Q899 614 817 671T586 729H346L236 96Z"  />
<glyph unicode="S" horiz-adv-x="1251" d="M41 0L133 518H244Q243 512 242 502Q240 468 240 453Q240 289 354 178T635 66Q789 66 890 158T991 391Q991 500 923 565T602 715Q363 794 279 880T195 1108Q195 1284 316 1393T635 1503Q782 1503 886 1440T1036 1262L1073 1475H1171L1104 1094H997Q984 1238 885 1323T633 1409Q488 1409 398 1329T307 1120Q307 1015 372 952T645 819Q801 767 863 740T958 686Q1034 628 1068 558T1102 393Q1102 205 974 87T641 -31Q479 -31 355 51T184 272L139 0H41Z"  />
<glyph unicode="T" horiz-adv-x="1081" d="M485 96H655L639 0H182L199 96H371L596 1376H240L188 1087H74L141 1475H1194L1126 1087H1012L1061 1376H711L485 96Z"  />
<glyph unicode="U" horiz-adv-x="1460" d="M1221 1376H1051L1067 1475H1524L1507 1376H1337L1190 528Q1140 241 1007 106T639 -29Q431 -29 308 81T184 379Q184 418 189 466T205 569L346 1376H174L193 1475H647L631 1376H463L315 546Q306 494 302 452T297 381Q297 234 388 150T639 66Q823 66 927 178T1075 537L1221 1376Z"  />
<glyph unicode="V" horiz-adv-x="1280" d="M436 -25L246 1376H80L94 1475H567L549 1376H356L516 154L1137 1376H936L954 1475H1395L1378 1376H1255L545 -25H436Z"  />
<glyph unicode="W" horiz-adv-x="1849" d="M395 -25L205 1376H39L55 1475H526L510 1376H315L479 162L946 1376H750L768 1475H1235L1217 1376H1067L1118 162L1698 1376H1499L1518 1475H1958L1942 1376H1819L1139 -25H1028L981 1208L504 -25H395Z"  />
<glyph unicode="X" horiz-adv-x="1346" d="M616 756L369 1376H199L215 1475H672L653 1376H483L688 840L1112 1376H944L961 1475H1419L1401 1376H1231L735 754L995 96H1165L1149 0H692L711 96H881L659 670L207 96H389L371 0H-86L-68 96H86L616 756Z"  />
<glyph unicode="Y" horiz-adv-x="1309" d="M598 96H768L752 0H295L311 96H481L584 657L233 1376H68L84 1475H555L539 1376H354L653 737L1118 1376H926L942 1475H1384L1366 1376H1243L690 627L598 96Z"  />
<glyph unicode="Z" horiz-adv-x="1147" d="M10 0L33 104L1004 1376H311L262 1096H150L215 1475H1157L1141 1376L164 96H858L918 399H1030L958 0H10Z"  />
<glyph unicode="[" horiz-adv-x="682" d="M76 -182L367 1475H774L756 1376H467L209 -86H498L481 -182H76Z"  />
<glyph unicode="\" horiz-adv-x="578" d="M408 -190L109 1503H193L489 -190H408Z"  />
<glyph unicode="]" horiz-adv-x="682" d="M606 1475L313 -182H-92L-74 -86H215L473 1376H184L201 1475H606Z"  />
<glyph unicode="^" horiz-adv-x="2048" d="M1081 1458L1622 901H1497L1024 1370L549 901H424L963 1458H1081Z"  />
<glyph unicode="_" horiz-adv-x="1024" d="M1024 -403V-483H0V-403H1024Z"  />
<glyph unicode="`" horiz-adv-x="1024" d="M629 1059H539L258 1407H406L629 1059Z"  />
<glyph unicode="a" horiz-adv-x="1247" d="M121 418Q121 265 217 169T467 72Q646 72 771 203T897 520Q897 672 804 765T559 858Q372 858 247 731T121 418ZM1053 0H819L848 158Q768 69 671 25T461 -20Q263 -20 140 100T16 412Q16 511 53 608T156 774Q235 859 335 902T553 946Q695 946 796 887T946 715L987 924H1214L1198 831H1059L920 92H1069L1053 0Z"  />
<glyph unicode="b" horiz-adv-x="1235" d="M221 242L188 0H-66L-47 92H102L338 1382H186L205 1475H455L324 778Q405 863 497 904T696 946Q888 946 1009 824T1130 506Q1130 408 1094 313T989 141Q919 63 825 22T625 -20Q483 -20 375 50T221 242ZM260 410Q260 263 361 168T618 72Q785 72 905 203T1026 520Q1026 664 927 761T680 858Q506 858 383 728T260 410Z"  />
<glyph unicode="c" horiz-adv-x="1024" d="M791 215L860 158Q769 65 676 23T471 -20Q267 -20 143 104T18 432Q18 532 53 623T154 786Q227 866 316 906T510 946Q625 946 711 903T838 780L864 924H956L901 614H821Q791 734 711 797T508 860Q341 860 230 736T119 426Q119 264 216 165T471 66Q561 66 637 101T791 215Z"  />
<glyph unicode="d" horiz-adv-x="1176" d="M121 420Q121 265 217 169T467 72Q646 72 771 203T897 520Q897 674 802 766T549 858Q468 858 397 829T264 741Q195 675 158 592T121 420ZM1055 0H819L856 195Q796 92 693 37T457 -18Q260 -18 139 101T18 416Q18 516 54 609T158 774Q237 860 337 903T557 946Q690 946 791 888T938 727L1053 1382H897L913 1475H1167L920 92H1069L1055 0Z"  />
<glyph unicode="e" horiz-adv-x="1124" d="M862 250L942 203Q864 94 745 36T481 -23Q274 -23 146 102T18 428Q18 648 172 798T551 948Q760 948 889 817T1018 471Q1018 451 1018 441T1015 422H119Q125 255 225 159T496 63Q601 63 693 110T862 250ZM129 512H915Q908 665 807 763T555 862Q391 862 278 769T129 512Z"  />
<glyph unicode="f" horiz-adv-x="582" d="M686 1381Q673 1381 659 1381T621 1382Q518 1382 473 1337T403 1145L365 924H557L541 831H346L207 92H389L373 0H-70L-51 92H106L244 831H78L94 924H260L307 1198Q334 1351 403 1413T612 1475Q650 1475 669 1475T704 1472L686 1381Z"  />
<glyph unicode="g" horiz-adv-x="1247" d="M121 418Q121 265 217 169T467 72Q646 72 771 203T897 520Q897 673 803 766T557 860Q374 860 248 731T121 418ZM23 -178H137Q179 -260 244 -298T406 -336Q585 -336 686 -223T840 154Q770 70 670 26T451 -18Q258 -18 138 101T18 414Q18 515 53 609T154 774Q234 862 331 904T553 946Q694 946 792 890T948 719L987 924H1204L1188 831H1059L936 172Q876 -152 755 -289T414 -426Q274 -426 175 -364T23 -178Z"  />
<glyph unicode="h" horiz-adv-x="1176" d="M307 694L201 92H354L338 0H-68L-51 92H100L332 1382H152L168 1475H451L326 805Q421 876 517 911T713 946Q836 946 906 887T977 723Q977 700 964 619L963 611L872 92H1024L1006 0H604L621 92H772L862 608Q868 645 871 671T874 713Q874 784 829 821T696 858Q604 858 508 818T307 694Z"  />
<glyph unicode="i" horiz-adv-x="537" d="M262 1114L305 1364H403L362 1114H262ZM-66 0L-51 92H100L231 831H49L66 924H348L205 92H367L350 0H-66Z"  />
<glyph unicode="j" horiz-adv-x="522" d="M262 1114L303 1364H403L360 1114H262ZM-188 -426L-168 -332Q-48 -332 6 -267T98 27L231 831H49L66 924H348L186 -45Q150 -260 69 -340T-188 -426Z"  />
<glyph unicode="k" horiz-adv-x="1014" d="M-66 0L-49 92H102L330 1382H147L164 1475H449L281 526L731 831H571L588 924H1008L991 831H885L377 492L743 92H895L877 0H455L471 92H610L268 469L203 92H352L336 0H-66Z"  />
<glyph unicode="l" horiz-adv-x="539" d="M-66 0L-49 92H102L332 1382H150L166 1475H449L207 92H360L342 0H-66Z"  />
<glyph unicode="m" horiz-adv-x="1817" d="M-68 0L-51 92H100L229 831H78L94 924H346L317 793Q413 867 507 906T684 946Q773 946 834 905T924 784Q1038 865 1137 905T1319 946Q1428 946 1496 884T1565 723Q1565 706 1555 651Q1551 626 1548 610L1458 92H1610L1593 0H1190L1206 92H1358L1448 608Q1454 645 1457 671T1460 713Q1460 778 1420 817T1311 856Q1265 856 1217 843T1112 803Q1041 769 984 729T926 680L823 92H973L956 0H555L571 92H723L813 608Q819 645 822 671T825 713Q825 778 785 817T676 856Q594 856 502 816T307 694L201 92H354L338 0H-68Z"  />
<glyph unicode="n" horiz-adv-x="1176" d="M307 694L201 92H354L338 0H-68L-51 92H100L229 831H78L94 924H346L324 801Q416 874 513 910T713 946Q836 946 906 887T977 723Q977 700 964 619L963 611L872 92H1024L1006 0H604L621 92H772L862 608Q868 645 871 671T874 713Q874 784 829 821T696 858Q604 858 508 818T307 694Z"  />
<glyph unicode="o" d="M924 496Q924 657 820 759T553 862Q367 862 244 738T121 426Q121 260 222 162T494 63Q676 63 800 188T924 496ZM492 -25Q278 -25 148 99T18 428Q18 649 171 798T551 948Q761 948 893 825T1026 508Q1026 277 875 126T492 -25Z"  />
<glyph unicode="p" horiz-adv-x="1235" d="M227 233L129 -336H293L276 -428H-141L-123 -336H27L233 831H84L100 924H352L319 772Q390 857 485 900T694 944Q886 944 1008 822T1130 508Q1130 408 1094 313T989 141Q918 63 825 22T627 -20Q486 -20 375 50T227 233ZM260 410Q260 263 361 168T618 72Q785 72 905 203T1026 520Q1026 667 927 761T674 856Q502 856 381 727T260 410Z"  />
<glyph unicode="q" horiz-adv-x="1247" d="M121 418Q121 265 217 169T467 72Q646 72 771 203T897 520Q897 675 804 767T557 860Q374 860 248 731T121 418ZM846 -336H1010L993 -428H575L594 -336H743L842 164Q770 74 672 28T453 -18Q259 -18 139 101T18 414Q18 515 53 609T154 774Q234 862 331 904T553 946Q698 946 800 886T948 713L981 924H1206L1190 831H1059L846 -336Z"  />
<glyph unicode="r" horiz-adv-x="793" d="M-43 0L-27 92H125L260 831H74L90 924H360L332 801Q384 878 441 912T575 946Q659 946 701 903T743 774V756L659 752Q653 811 631 835T559 860Q463 860 400 780T307 541L225 92H391L375 0H-43Z"  />
<glyph unicode="s" horiz-adv-x="909" d="M-8 0L49 326H121Q132 209 218 138T434 66Q533 66 597 113T662 233Q662 287 615 328T444 416Q434 420 413 428Q119 539 119 688Q119 801 201 872T416 944Q518 944 597 907T723 801L739 924H829L778 631H707Q688 735 613 793T420 852Q326 852 273 812T219 700Q219 601 445 521Q473 511 487 506Q636 453 700 391T764 238Q764 124 674 51T440 -23Q329 -23 241 17T102 131L82 0H-8Z"  />
<glyph unicode="t" horiz-adv-x="563" d="M211 831H39L57 924H229L293 1288H389L326 924H494L477 831H311L209 252Q202 216 199 187T195 137Q195 106 220 88T291 70Q314 70 340 72T391 78L371 -8Q364 -9 351 -11Q303 -16 287 -16Q180 -16 135 16T90 123Q90 141 103 217Q107 239 109 250L211 831Z"  />
<glyph unicode="u" horiz-adv-x="1176" d="M778 229L887 829H731L748 922H1004L856 90H1008L991 0H741L764 127Q675 51 577 13T373 -25Q249 -25 179 35T109 199Q109 213 111 235T123 314L213 829H63L80 924H334L223 315Q218 286 216 260T213 211Q213 139 258 103T389 66Q483 66 580 107T778 229Z"  />
<glyph unicode="v" d="M371 -23L164 831H16L33 924H428L414 831H264L436 102L836 831H668L684 924H1090L1073 831H950L459 -23H371Z"  />
<glyph unicode="w" horiz-adv-x="1702" d="M1688 928L1677 834H1520L1077 -23H997L836 754L449 -23H369L186 834H25L33 928H471L457 834H281L428 125L780 834H606L621 928H1102L1087 834H905L1057 123L1415 834H1237L1249 928H1688Z"  />
<glyph unicode="x" horiz-adv-x="1014" d="M-90 0L-76 92H37L414 481L238 831H98L106 924H496L483 831H342L483 539L764 831H621L633 924H1014L997 831H889L535 475L729 92H881L866 0H459L475 92H621L463 412L164 92H309L293 0H-90Z"  />
<glyph unicode="y" horiz-adv-x="1133" d="M-53 -428L-37 -334H137L383 47L137 831H-31L-14 924H434L418 831H242L453 147L874 831H686L702 924H1126L1110 831H987L254 -334H416L397 -428H-53Z"  />
<glyph unicode="z" horiz-adv-x="905" d="M-37 0L-27 78L702 831H186L152 666H57L102 924H848L842 844L117 92H651L682 266H782L735 0H-37Z"  />
<glyph unicode="{" horiz-adv-x="1024" d="M848 1389H811Q676 1389 629 1338T582 1124V883Q582 708 539 635T387 530Q496 498 539 426T582 178V-63Q582 -225 628 -275T809 -326H848V-414H805Q616 -414 548 -340T479 -39V201Q479 359 421 423T221 487Q214 487 200 486T176 485V575Q186 574 196 574T225 573Q364 573 421 637T479 860V1100Q479 1327 547 1402T805 1477H848V1389Z"  />
<glyph unicode="|" horiz-adv-x="1024" d="M557 1565V-483H467V1565H557Z"  />
<glyph unicode="}" horiz-adv-x="1024" d="M545 1100V860Q545 702 603 638T803 573Q810 573 824 574T848 575V485Q839 485 825 486T803 487Q661 487 603 423T545 201V-39Q545 -265 477 -339T219 -414H176V-326H215Q349 -326 395 -276T442 -63V178Q442 352 485 425T639 530Q529 562 486 635T442 883V1124Q442 1286 395 1337T213 1389H176V1477H219Q408 1477 476 1402T545 1100Z"  />
<glyph unicode="~" horiz-adv-x="1706" d="M1530 647Q1424 573 1328 537T1143 500Q1044 500 877 561Q861 567 855 569Q843 573 822 581Q655 641 565 641Q482 641 390 604T178 481V573Q283 647 379 683T565 719Q665 719 836 658Q848 653 855 651Q863 648 882 641Q1050 580 1143 580Q1226 580 1318 617T1530 739V647Z"  />
<glyph unicode="&#xA0;" horiz-adv-x="1042" />
<glyph unicode="&#xA1;" horiz-adv-x="692" d="M385 1167H471L276 0H158L385 1167ZM455 1499Q501 1499 532 1469T563 1393Q563 1347 532 1316T455 1284Q408 1284 377 1315T346 1393Q346 1438 377 1468T455 1499Z"  />
<glyph unicode="&#xA2;" horiz-adv-x="1042" d="M592 854Q571 857 552 858T516 860Q348 860 237 736T125 424Q125 315 169 235T299 104L592 854ZM797 215L864 160Q771 62 677 20T459 -23Q428 -23 398 -19T340 -6L240 -262L160 -260L268 18Q146 83 85 187T23 430Q23 531 58 622T160 786Q234 867 322 906T514 946Q541 946 567 943T621 934L723 1194H803L694 911Q753 884 791 852T850 776L879 924H963L909 614H825Q806 692 767 745T666 829L369 76Q389 71 414 69T471 66Q565 66 642 101T797 215Z"  />
<glyph unicode="&#xA3;" horiz-adv-x="1042" d="M61 -25L35 76Q150 110 204 234T258 592V645H43L55 729H262Q262 743 261 769T260 807Q260 1127 366 1296T672 1466Q812 1466 906 1377T1001 1155Q1001 1128 997 1096T981 1018H881Q892 1078 895 1104T899 1151Q899 1249 837 1307T670 1366Q518 1366 444 1232T369 825Q369 787 369 767T371 729H633L616 645H369Q364 465 340 345T268 152Q377 101 449 79T573 57Q689 57 750 136T811 365V387H901V358Q901 171 827 70T612 -31Q530 -31 439 -2T233 90Q179 39 139 12T61 -25Z"  />
<glyph unicode="&#xA4;" horiz-adv-x="1042" d="M1075 1436L1006 1038H918V1057Q918 1188 849 1276T670 1364Q526 1364 435 1271T283 942H829L791 860H262Q249 800 239 742T221 627H651L612 545L213 544Q210 514 209 483T207 420Q207 232 267 153T471 74Q590 74 668 140T791 346H899Q835 146 732 59T455 -29Q277 -29 188 83T98 418Q98 449 99 481T104 545H-31L8 627H112Q120 682 130 741T154 860H25L63 942H174Q253 1230 371 1347T686 1464Q775 1464 851 1415T950 1290L977 1436H1075Z"  />
<glyph unicode="&#xA5;" horiz-adv-x="1042" d="M471 94H637L621 0H176L193 94H358L459 639H-12L2 723H422L319 954H43L57 1038H283L147 1341H-14L0 1436H461L444 1341H264L526 723L946 1341H758L774 1436H1206L1190 1341H1069L858 1038H1096L1081 954H801L639 723H1040L1026 639H567L471 94Z"  />
<glyph unicode="&#xA6;" horiz-adv-x="1024" d="M557 408V-350H467V408H557ZM557 1432V674H467V1432H557Z"  />
<glyph unicode="&#xA7;" horiz-adv-x="1024" d="M428 426Q497 328 543 295T645 262Q719 262 771 312T823 434Q823 479 799 529T715 659L582 836Q510 930 469 956T375 983Q301 983 251 936T201 819Q201 780 219 737T279 635L428 426ZM76 -227L133 94H236L195 -131H201Q276 -135 309 -135Q448 -135 509 -103T571 2Q571 45 541 103T436 260L213 551Q157 626 129 693T100 823Q100 925 173 994T354 1063Q372 1063 390 1061T428 1053Q391 1110 374 1159T356 1255Q356 1375 440 1425T741 1475H928L874 1180H774L811 1380L804 1381Q729 1384 698 1384Q563 1384 508 1351T453 1239Q453 1166 578 1003L592 985L819 684Q871 618 897 554T924 434Q924 328 849 255T664 182Q648 182 611 189Q603 190 600 190Q636 141 655 91T674 -6Q674 -126 597 -176T326 -227H76Z"  />
<glyph unicode="&#xA8;" horiz-adv-x="1024" d="M606 1137L641 1298H782L750 1137H606ZM285 1137L319 1298H461L426 1137H285Z"  />
<glyph unicode="&#xA9;" horiz-adv-x="1706" d="M1081 918Q1061 999 1002 1044T854 1090Q728 1090 658 993T588 719Q588 550 659 452T854 354Q945 354 1010 406T1094 547H1196Q1185 424 1088 346T848 268Q675 268 573 391T471 725Q471 930 578 1053T860 1176Q992 1176 1082 1104T1186 918H1081ZM1511 721Q1511 854 1462 973T1321 1186Q1226 1281 1106 1330T852 1380Q719 1380 601 1331T391 1190Q296 1093 246 972T195 721Q195 591 245 472T389 258Q483 164 602 114T852 63Q982 63 1103 114T1321 260Q1414 352 1462 469T1511 721ZM852 1452Q1001 1452 1134 1397T1372 1237Q1475 1135 1529 1002T1583 721Q1583 571 1530 441T1372 209Q1265 103 1131 47T852 -10Q707 -10 575 45T338 207Q233 311 178 443T123 721Q123 866 179 1000T340 1241Q441 1344 572 1398T852 1452Z"  />
<glyph unicode="&#xAA;" horiz-adv-x="936" d="M90 1120Q90 1014 163 947T350 879Q485 879 579 970T674 1192Q674 1298 604 1362T420 1427Q280 1427 185 1338T90 1120ZM791 827H614L637 938Q578 876 505 845T346 813Q197 813 105 897T12 1116Q12 1184 40 1252T117 1370Q176 1429 251 1459T416 1489Q522 1489 598 1447T711 1327L741 1475H911L899 1409H795L690 893H803L791 827Z"  />
<glyph unicode="&#xAB;" horiz-adv-x="924" d="M801 774L510 461L705 150H586L383 461L659 774H801ZM504 774L211 461L406 150H289L84 461L362 774H504Z"  />
<glyph unicode="&#xAC;" horiz-adv-x="1706" d="M1452 856V354H1374V774H254V856H1452Z"  />
<glyph unicode="&#xAD;" horiz-adv-x="674" d="M29 414L45 510H549L532 414H29Z"  />
<glyph unicode="&#xAE;" horiz-adv-x="1706" d="M852 1077H684V764H852Q997 764 1051 800T1106 926Q1106 1004 1045 1040T852 1077ZM874 1155Q1054 1155 1138 1099T1223 922Q1223 833 1168 773T1020 702L1210 309H1079L897 686H684V309H569V1155H874ZM1511 721Q1511 854 1462 973T1321 1186Q1226 1281 1106 1330T852 1380Q719 1380 601 1331T391 1190Q296 1093 246 972T195 721Q195 591 245 472T389 258Q483 164 602 114T852 63Q982 63 1103 114T1321 260Q1414 352 1462 469T1511 721ZM852 1452Q1001 1452 1134 1397T1372 1237Q1475 1135 1529 1002T1583 721Q1583 571 1530 441T1372 209Q1265 103 1131 47T852 -10Q707 -10 575 45T338 207Q233 311 178 443T123 721Q123 866 179 1000T340 1241Q441 1344 572 1398T852 1452Z"  />
<glyph unicode="&#xAF;" horiz-adv-x="1024" d="M266 1159L291 1276H803L778 1159H266Z"  />
<glyph unicode="&#xB0;" horiz-adv-x="674" d="M551 1176Q551 1263 488 1326T338 1389Q249 1389 187 1327T125 1176Q125 1087 187 1025T338 963Q426 963 488 1025T551 1176ZM338 1450Q450 1450 530 1370T610 1176Q610 1062 530 983T336 903Q221 903 142 982T63 1176Q63 1290 143 1370T338 1450Z"  />
<glyph unicode="&#xB1;" horiz-adv-x="1706" d="M1452 141V59H254V141H1452ZM893 1161V807H1452V727H893V375H813V727H254V807H813V1161H893Z"  />
<glyph unicode="&#xB2;" horiz-adv-x="688" d="M6 575L12 631L442 1059Q498 1114 521 1157T545 1245Q545 1313 499 1356T379 1399Q284 1399 228 1336T172 1163H104V1169Q104 1302 178 1379T379 1456Q483 1456 550 1398T618 1249Q618 1197 590 1143T504 1028L102 631H461L494 780H565L522 575H6Z"  />
<glyph unicode="&#xB3;" horiz-adv-x="688" d="M23 846H90V831Q90 733 143 676T285 618Q371 618 429 677T487 825Q487 905 432 951T275 1001L287 1063Q292 1062 301 1061Q325 1059 334 1059Q437 1059 500 1107T563 1235Q563 1302 511 1349T383 1397Q302 1397 252 1352T192 1227H123Q133 1334 202 1395T383 1456Q494 1456 563 1394T633 1231Q633 1153 583 1098T440 1020Q501 986 532 935T563 819Q563 710 486 636T293 561Q167 561 94 628T20 813Q20 827 20 833T23 846Z"  />
<glyph unicode="&#xB4;" horiz-adv-x="1024" d="M473 1059H381L627 1407H774L473 1059Z"  />
<glyph unicode="&#xB5;" horiz-adv-x="1094" d="M326 1063L203 473Q194 430 190 396T186 332Q186 206 246 140T420 74Q547 74 639 183T776 496L901 1063H1022L856 277Q854 268 851 253Q831 161 831 141Q831 110 848 94T899 78Q908 78 917 78T938 80L920 -16Q917 -17 912 -18Q863 -29 844 -29Q776 -29 744 2T711 98Q711 105 711 114T715 143Q672 60 592 16T403 -29Q306 -29 234 16T129 143L10 -424H-111L205 1063H326Z"  />
<glyph unicode="&#xB6;" horiz-adv-x="1024" d="M932 1415H803V0H733V1415H541V0H471V782Q296 790 193 884T90 1130Q90 1287 198 1383T485 1479H932V1415Z"  />
<glyph unicode="&#xB7;" horiz-adv-x="522" d="M260 635Q214 635 183 665T152 741Q152 787 183 818T260 850Q307 850 338 819T369 741Q369 696 338 666T260 635Z"  />
<glyph unicode="&#xB8;" horiz-adv-x="1024" d="M135 -416L164 -338Q231 -357 284 -367T375 -377Q443 -377 479 -348T516 -266Q516 -219 477 -199T346 -178H315L375 0H440L403 -111H424Q524 -111 576 -150T629 -266Q629 -358 566 -409T391 -461Q336 -461 274 -450T135 -416Z"  />
<glyph unicode="&#xB9;" horiz-adv-x="688" d="M119 575L129 631H248L399 1382H270L283 1438H483L324 631H449L440 575H119Z"  />
<glyph unicode="&#xBA;" horiz-adv-x="854" d="M692 1174Q692 1287 615 1359T416 1432Q276 1432 183 1345T90 1126Q90 1010 166 941T371 872Q507 872 599 959T692 1174ZM369 811Q209 811 112 897T14 1126Q14 1281 129 1386T414 1491Q571 1491 670 1405T770 1184Q770 1022 657 917T369 811Z"  />
<glyph unicode="&#xBB;" horiz-adv-x="924" d="M330 147L621 461L428 774H545L748 461L471 147H330ZM31 147L322 461L129 774H246L449 461L172 147H31Z"  />
<glyph unicode="&#xBC;" horiz-adv-x="1657" d="M1092 272H1389L1452 588Q1456 613 1463 641T1489 725L1092 272ZM1221 0L1231 51H1343L1378 223H1016L1026 276L1489 805H1559L1454 272H1573L1563 223H1444L1409 51H1528L1518 0H1221ZM315 -29L1245 1464H1339L410 -29H315ZM113 633L121 684H236L379 1384H256L268 1438H459L307 684H428L418 633H113Z"  />
<glyph unicode="&#xBD;" horiz-adv-x="1657" d="M1006 0L1012 51L1421 451Q1474 502 1497 542T1520 625Q1520 688 1476 728T1362 768Q1271 768 1218 710T1165 549H1100V555Q1100 679 1171 751T1362 823Q1461 823 1525 768T1589 629Q1589 578 1562 528T1479 424L1096 51H1440L1470 190H1538L1499 0H1006ZM315 -29L1245 1464H1339L410 -29H315ZM113 633L121 684H236L379 1384H256L268 1438H459L307 684H428L418 633H113Z"  />
<glyph unicode="&#xBE;" horiz-adv-x="1655" d="M1092 272H1389L1452 588Q1456 613 1463 641T1489 725L1092 272ZM1221 0L1231 51H1343L1378 223H1016L1026 276L1489 805H1559L1454 272H1573L1563 223H1444L1409 51H1528L1518 0H1221ZM315 -29L1245 1464H1339L410 -29H315ZM21 885H86V872Q86 780 136 727T272 674Q355 674 410 728T465 866Q465 941 412 984T263 1030L274 1087Q285 1086 295 1086T319 1085Q418 1085 477 1130T537 1249Q537 1312 487 1356T365 1401Q289 1401 241 1359T182 1241H117Q127 1342 193 1399T367 1456Q472 1456 538 1397T604 1243Q604 1170 556 1119T420 1047Q478 1016 508 969T539 860Q539 759 464 689T279 618Q158 618 88 682T18 856Q18 868 18 873T21 885Z"  />
<glyph unicode="&#xBF;" horiz-adv-x="862" d="M530 672Q506 676 482 678T432 680Q288 680 201 588T113 344Q113 217 183 143T375 68Q483 68 553 136T641 328H754Q731 162 630 68T375 -27Q205 -27 103 75T0 348Q0 537 114 657T410 778H442L508 1165H614L530 672ZM590 1499Q636 1499 667 1469T698 1393Q698 1347 667 1316T590 1284Q543 1284 512 1315T481 1393Q481 1438 512 1468T590 1499Z"  />
<glyph unicode="&#xC0;" horiz-adv-x="1413" d="M399 559H977L793 1389L399 559ZM-96 0L-80 96H59L684 1376H524L543 1475H1081L1065 1376H897L1192 96H1362L1343 0H872L889 96H1077L997 463H352L180 96H348L332 0H-96ZM926 1614H836L555 1962H703L926 1614Z"  />
<glyph unicode="&#xC1;" horiz-adv-x="1413" d="M399 559H977L793 1389L399 559ZM-96 0L-80 96H59L684 1376H524L543 1475H1081L1065 1376H897L1192 96H1362L1343 0H872L889 96H1077L997 463H352L180 96H348L332 0H-96ZM770 1614H678L924 1962H1071L770 1614Z"  />
<glyph unicode="&#xC2;" horiz-adv-x="1413" d="M399 559H977L793 1389L399 559ZM-96 0L-80 96H59L684 1376H524L543 1475H1081L1065 1376H897L1192 96H1362L1343 0H872L889 96H1077L997 463H352L180 96H348L332 0H-96ZM1079 1614H999L854 1862L619 1614H526L795 1962H926L1079 1614Z"  />
<glyph unicode="&#xC3;" horiz-adv-x="1413" d="M399 559H977L793 1389L399 559ZM-96 0L-80 96H59L684 1376H524L543 1475H1081L1065 1376H897L1192 96H1362L1343 0H872L889 96H1077L997 463H352L180 96H348L332 0H-96ZM1114 1874Q1081 1777 1036 1735T924 1692Q911 1692 898 1694T856 1704L761 1733Q744 1738 735 1739T717 1741Q686 1741 664 1722T627 1665H547Q585 1768 628 1809T735 1851Q748 1851 761 1849T791 1841L884 1815Q890 1813 900 1810Q927 1802 940 1802Q974 1802 997 1819T1034 1874H1114Z"  />
<glyph unicode="&#xC4;" horiz-adv-x="1413" d="M399 559H977L793 1389L399 559ZM-96 0L-80 96H59L684 1376H524L543 1475H1081L1065 1376H897L1192 96H1362L1343 0H872L889 96H1077L997 463H352L180 96H348L332 0H-96ZM903 1692L938 1853H1079L1047 1692H903ZM582 1692L616 1853H758L723 1692H582Z"  />
<glyph unicode="&#xC5;" horiz-adv-x="1413" d="M678 1751Q678 1693 717 1654T815 1614Q872 1614 911 1653T950 1751Q950 1808 911 1848T815 1888Q758 1888 718 1848T678 1751ZM594 1751Q594 1843 658 1907T815 1972Q907 1972 971 1908T1036 1751Q1036 1658 972 1594T815 1530Q722 1530 658 1594T594 1751ZM399 559H977L793 1389L399 559ZM-96 0L-80 96H59L684 1376H524L543 1475H1081L1065 1376H897L1192 96H1362L1343 0H872L889 96H1077L997 463H352L180 96H348L332 0H-96Z"  />
<glyph unicode="&#xC6;" horiz-adv-x="1847" d="M879 614L1018 1386H991L438 614H879ZM-180 0L-164 96H-63L866 1376H680L700 1475H1866L1800 1106H1683L1733 1376H1128L1030 817H1503L1487 719H1014L903 96H1528L1573 352H1688L1626 0H600L616 96H786L860 522H375L70 96H229L217 0H-180Z"  />
<glyph unicode="&#xC7;" horiz-adv-x="1460" d="M1333 1227L1376 1475H1479L1399 1020H1317Q1280 1202 1153 1304T838 1407Q688 1407 564 1346T344 1165Q267 1066 227 941T186 672Q186 400 336 236T733 72Q904 72 1044 160T1270 412L1364 373Q1268 183 1102 78T731 -27Q439 -27 255 165T70 659Q70 830 115 972T252 1225Q364 1362 509 1432T829 1503Q1005 1503 1135 1432T1333 1227ZM452 -416L481 -338Q548 -357 601 -367T692 -377Q760 -377 796 -348T833 -266Q833 -219 794 -199T663 -178H632L692 0H757L720 -111H741Q841 -111 893 -150T946 -266Q946 -358 883 -409T708 -461Q653 -461 591 -450T452 -416Z"  />
<glyph unicode="&#xC8;" horiz-adv-x="1204" d="M-68 0L-51 96H119L346 1376H174L193 1475H1223L1157 1106H1042L1090 1376H461L362 817H866L850 719H346L236 96H885L930 352H1047L983 0H-68ZM873 1614H783L502 1962H650L873 1614Z"  />
<glyph unicode="&#xC9;" horiz-adv-x="1204" d="M-68 0L-51 96H119L346 1376H174L193 1475H1223L1157 1106H1042L1090 1376H461L362 817H866L850 719H346L236 96H885L930 352H1047L983 0H-68ZM717 1614H625L871 1962H1018L717 1614Z"  />
<glyph unicode="&#xCA;" horiz-adv-x="1204" d="M-68 0L-51 96H119L346 1376H174L193 1475H1223L1157 1106H1042L1090 1376H461L362 817H866L850 719H346L236 96H885L930 352H1047L983 0H-68ZM1026 1614H946L801 1862L566 1614H473L742 1962H873L1026 1614Z"  />
<glyph unicode="&#xCB;" horiz-adv-x="1204" d="M-68 0L-51 96H119L346 1376H174L193 1475H1223L1157 1106H1042L1090 1376H461L362 817H866L850 719H346L236 96H885L930 352H1047L983 0H-68ZM850 1692L885 1853H1026L994 1692H850ZM529 1692L563 1853H705L670 1692H529Z"  />
<glyph unicode="&#xCC;" horiz-adv-x="584" d="M236 96H406L389 0H-68L-51 96H119L346 1376H174L193 1475H647L631 1376H461L236 96ZM552 1614H462L181 1962H329L552 1614Z"  />
<glyph unicode="&#xCD;" horiz-adv-x="584" d="M236 96H406L389 0H-68L-51 96H119L346 1376H174L193 1475H647L631 1376H461L236 96ZM396 1614H304L550 1962H697L396 1614Z"  />
<glyph unicode="&#xCE;" horiz-adv-x="584" d="M236 96H406L389 0H-68L-51 96H119L346 1376H174L193 1475H647L631 1376H461L236 96ZM705 1614H625L480 1862L245 1614H152L421 1962H552L705 1614Z"  />
<glyph unicode="&#xCF;" horiz-adv-x="584" d="M236 96H406L389 0H-68L-51 96H119L346 1376H174L193 1475H647L631 1376H461L236 96ZM529 1692L564 1853H705L673 1692H529ZM208 1692L242 1853H384L349 1692H208Z"  />
<glyph unicode="&#xD0;" horiz-adv-x="1479" d="M643 1376H469L371 823H791L774 731H354L244 96H418Q680 96 799 121T1004 207Q1140 302 1217 472T1294 850Q1294 1126 1141 1251T643 1376ZM659 1475Q1045 1475 1226 1321T1407 840Q1407 658 1348 496T1180 213Q1074 98 922 49T494 0H-59L-41 96H129L240 731H27L43 825H256L354 1376H184L201 1475H659Z"  />
<glyph unicode="&#xD1;" horiz-adv-x="1460" d="M238 96H406L389 0H-68L-51 96H119L346 1376H174L193 1475H514L1020 203L1225 1376H1053L1069 1475H1526L1509 1376H1339L1087 -25H997L453 1346L238 96ZM1149 1874Q1116 1777 1071 1735T959 1692Q946 1692 933 1694T891 1704L796 1733Q779 1738 770 1739T752 1741Q721 1741 699 1722T662 1665H582Q620 1768 663 1809T770 1851Q783 1851 796 1849T826 1841L919 1815Q925 1813 935 1810Q962 1802 975 1802Q1009 1802 1032 1819T1069 1874H1149Z"  />
<glyph unicode="&#xD2;" horiz-adv-x="1651" d="M778 63Q890 63 993 101T1190 215Q1318 320 1389 474T1460 803Q1460 1069 1298 1240T885 1411Q769 1411 660 1374T461 1266Q334 1167 261 1010T188 678Q188 407 353 235T778 63ZM774 -31Q639 -31 522 9T309 129Q196 224 135 363T74 666Q74 835 128 985T287 1251Q398 1375 549 1440T874 1505Q1185 1505 1380 1312T1575 811Q1575 637 1522 488T1364 223Q1255 102 1102 36T774 -31ZM1086 1614H996L715 1962H863L1086 1614Z"  />
<glyph unicode="&#xD3;" horiz-adv-x="1651" d="M778 63Q890 63 993 101T1190 215Q1318 320 1389 474T1460 803Q1460 1069 1298 1240T885 1411Q769 1411 660 1374T461 1266Q334 1167 261 1010T188 678Q188 407 353 235T778 63ZM774 -31Q639 -31 522 9T309 129Q196 224 135 363T74 666Q74 835 128 985T287 1251Q398 1375 549 1440T874 1505Q1185 1505 1380 1312T1575 811Q1575 637 1522 488T1364 223Q1255 102 1102 36T774 -31ZM930 1614H838L1084 1962H1231L930 1614Z"  />
<glyph unicode="&#xD4;" horiz-adv-x="1651" d="M778 63Q890 63 993 101T1190 215Q1318 320 1389 474T1460 803Q1460 1069 1298 1240T885 1411Q769 1411 660 1374T461 1266Q334 1167 261 1010T188 678Q188 407 353 235T778 63ZM774 -31Q639 -31 522 9T309 129Q196 224 135 363T74 666Q74 835 128 985T287 1251Q398 1375 549 1440T874 1505Q1185 1505 1380 1312T1575 811Q1575 637 1522 488T1364 223Q1255 102 1102 36T774 -31ZM1239 1614H1159L1014 1862L779 1614H686L955 1962H1086L1239 1614Z"  />
<glyph unicode="&#xD5;" horiz-adv-x="1651" d="M778 63Q890 63 993 101T1190 215Q1318 320 1389 474T1460 803Q1460 1069 1298 1240T885 1411Q769 1411 660 1374T461 1266Q334 1167 261 1010T188 678Q188 407 353 235T778 63ZM774 -31Q639 -31 522 9T309 129Q196 224 135 363T74 666Q74 835 128 985T287 1251Q398 1375 549 1440T874 1505Q1185 1505 1380 1312T1575 811Q1575 637 1522 488T1364 223Q1255 102 1102 36T774 -31ZM1274 1874Q1241 1777 1196 1735T1084 1692Q1071 1692 1058 1694T1016 1704L921 1733Q904 1738 895 1739T877 1741Q846 1741 824 1722T787 1665H707Q745 1768 788 1809T895 1851Q908 1851 921 1849T951 1841L1044 1815Q1050 1813 1060 1810Q1087 1802 1100 1802Q1134 1802 1157 1819T1194 1874H1274Z"  />
<glyph unicode="&#xD6;" horiz-adv-x="1651" d="M778 63Q890 63 993 101T1190 215Q1318 320 1389 474T1460 803Q1460 1069 1298 1240T885 1411Q769 1411 660 1374T461 1266Q334 1167 261 1010T188 678Q188 407 353 235T778 63ZM774 -31Q639 -31 522 9T309 129Q196 224 135 363T74 666Q74 835 128 985T287 1251Q398 1375 549 1440T874 1505Q1185 1505 1380 1312T1575 811Q1575 637 1522 488T1364 223Q1255 102 1102 36T774 -31ZM1063 1692L1098 1853H1239L1207 1692H1063ZM742 1692L776 1853H918L883 1692H742Z"  />
<glyph unicode="&#xD7;" horiz-adv-x="1706" d="M854 668L1341 1155L1399 1098L911 610L1399 123L1341 66L854 553L367 66L309 123L797 610L309 1098L367 1155L854 668Z"  />
<glyph unicode="&#xD8;" horiz-adv-x="1651" d="M428 176Q501 121 587 95T776 68Q924 68 1055 130T1286 311Q1371 413 1415 541T1460 813Q1460 934 1419 1041T1296 1243L428 176ZM1223 1303Q1157 1354 1070 1381T885 1409Q769 1409 660 1372T461 1264Q334 1165 261 1009T188 678Q188 545 230 435T356 233L1223 1303ZM1434 1565H1554L1364 1327Q1468 1225 1522 1093T1577 813Q1577 641 1523 491T1366 227Q1253 104 1100 38T774 -29Q656 -29 553 1T358 92L213 -90H92L287 152Q186 243 129 378T72 664Q72 833 127 984T289 1251Q400 1374 550 1438T874 1503Q992 1503 1095 1474T1290 1386L1434 1565Z"  />
<glyph unicode="&#xD9;" horiz-adv-x="1460" d="M1221 1376H1051L1067 1475H1524L1507 1376H1337L1190 528Q1140 241 1007 106T639 -29Q431 -29 308 81T184 379Q184 418 189 466T205 569L346 1376H174L193 1475H647L631 1376H463L315 546Q306 494 302 452T297 381Q297 234 388 150T639 66Q823 66 927 178T1075 537L1221 1376ZM991 1614H901L620 1962H768L991 1614Z"  />
<glyph unicode="&#xDA;" horiz-adv-x="1460" d="M1221 1376H1051L1067 1475H1524L1507 1376H1337L1190 528Q1140 241 1007 106T639 -29Q431 -29 308 81T184 379Q184 418 189 466T205 569L346 1376H174L193 1475H647L631 1376H463L315 546Q306 494 302 452T297 381Q297 234 388 150T639 66Q823 66 927 178T1075 537L1221 1376ZM835 1614H743L989 1962H1136L835 1614Z"  />
<glyph unicode="&#xDB;" horiz-adv-x="1460" d="M1221 1376H1051L1067 1475H1524L1507 1376H1337L1190 528Q1140 241 1007 106T639 -29Q431 -29 308 81T184 379Q184 418 189 466T205 569L346 1376H174L193 1475H647L631 1376H463L315 546Q306 494 302 452T297 381Q297 234 388 150T639 66Q823 66 927 178T1075 537L1221 1376ZM1144 1614H1064L919 1862L684 1614H591L860 1962H991L1144 1614Z"  />
<glyph unicode="&#xDC;" horiz-adv-x="1460" d="M1221 1376H1051L1067 1475H1524L1507 1376H1337L1190 528Q1140 241 1007 106T639 -29Q431 -29 308 81T184 379Q184 418 189 466T205 569L346 1376H174L193 1475H647L631 1376H463L315 546Q306 494 302 452T297 381Q297 234 388 150T639 66Q823 66 927 178T1075 537L1221 1376ZM968 1692L1003 1853H1144L1112 1692H968ZM647 1692L681 1853H823L788 1692H647Z"  />
<glyph unicode="&#xDD;" horiz-adv-x="1309" d="M598 96H768L752 0H295L311 96H481L584 657L233 1376H68L84 1475H555L539 1376H354L653 737L1118 1376H926L942 1475H1384L1366 1376H1243L690 627L598 96ZM758 1614H666L912 1962H1059L758 1614Z"  />
<glyph unicode="&#xDE;" horiz-adv-x="1214" d="M410 1087L285 387H518Q758 387 881 483T1004 770Q1004 926 906 1006T618 1087H410ZM649 1475L631 1376H461L426 1184H625Q861 1184 989 1076T1118 768Q1118 547 963 418T541 289H270L236 96H406L389 0H-68L-51 96H119L346 1376H174L193 1475H649Z"  />
<glyph unicode="&#xDF;" horiz-adv-x="1133" d="M-33 0L-18 92H109L287 1092Q321 1284 422 1385T680 1487Q836 1487 930 1398T1024 1159Q1024 1015 943 916T725 795Q844 767 915 665T987 420Q987 230 887 106T633 -18Q585 -18 542 -6T455 33L498 113Q531 88 562 77T627 66Q736 66 810 165T885 414Q885 574 794 663T529 762L541 844H561Q726 844 825 928T924 1151Q924 1262 856 1331T680 1401Q554 1401 481 1313T375 1030L215 92H356L340 0H-33Z"  />
<glyph unicode="&#xE0;" horiz-adv-x="1247" d="M121 418Q121 265 217 169T467 72Q646 72 771 203T897 520Q897 672 804 765T559 858Q372 858 247 731T121 418ZM1053 0H819L848 158Q768 69 671 25T461 -20Q263 -20 140 100T16 412Q16 511 53 608T156 774Q235 859 335 902T553 946Q695 946 796 887T946 715L987 924H1214L1198 831H1059L920 92H1069L1053 0ZM768 1059H678L397 1407H545L768 1059Z"  />
<glyph unicode="&#xE1;" horiz-adv-x="1247" d="M121 418Q121 265 217 169T467 72Q646 72 771 203T897 520Q897 672 804 765T559 858Q372 858 247 731T121 418ZM1053 0H819L848 158Q768 69 671 25T461 -20Q263 -20 140 100T16 412Q16 511 53 608T156 774Q235 859 335 902T553 946Q695 946 796 887T946 715L987 924H1214L1198 831H1059L920 92H1069L1053 0ZM612 1059H520L766 1407H913L612 1059Z"  />
<glyph unicode="&#xE2;" horiz-adv-x="1247" d="M121 418Q121 265 217 169T467 72Q646 72 771 203T897 520Q897 672 804 765T559 858Q372 858 247 731T121 418ZM1053 0H819L848 158Q768 69 671 25T461 -20Q263 -20 140 100T16 412Q16 511 53 608T156 774Q235 859 335 902T553 946Q695 946 796 887T946 715L987 924H1214L1198 831H1059L920 92H1069L1053 0ZM921 1059H841L696 1307L461 1059H368L637 1407H768L921 1059Z"  />
<glyph unicode="&#xE3;" horiz-adv-x="1247" d="M121 418Q121 265 217 169T467 72Q646 72 771 203T897 520Q897 672 804 765T559 858Q372 858 247 731T121 418ZM1053 0H819L848 158Q768 69 671 25T461 -20Q263 -20 140 100T16 412Q16 511 53 608T156 774Q235 859 335 902T553 946Q695 946 796 887T946 715L987 924H1214L1198 831H1059L920 92H1069L1053 0ZM956 1319Q923 1222 878 1180T766 1137Q753 1137 740 1139T698 1149L603 1178Q586 1183 577 1184T559 1186Q528 1186 506 1167T469 1110H389Q427 1213 470 1254T577 1296Q590 1296 603 1294T633 1286L726 1260Q732 1258 742 1255Q769 1247 782 1247Q816 1247 839 1264T876 1319H956Z"  />
<glyph unicode="&#xE4;" horiz-adv-x="1247" d="M121 418Q121 265 217 169T467 72Q646 72 771 203T897 520Q897 672 804 765T559 858Q372 858 247 731T121 418ZM1053 0H819L848 158Q768 69 671 25T461 -20Q263 -20 140 100T16 412Q16 511 53 608T156 774Q235 859 335 902T553 946Q695 946 796 887T946 715L987 924H1214L1198 831H1059L920 92H1069L1053 0ZM745 1137L780 1298H921L889 1137H745ZM424 1137L458 1298H600L565 1137H424Z"  />
<glyph unicode="&#xE5;" horiz-adv-x="1247" d="M487 1245Q487 1180 532 1135T643 1090Q707 1090 752 1135T797 1245Q797 1311 753 1356T643 1401Q577 1401 532 1356T487 1245ZM401 1245Q401 1347 471 1417T643 1487Q744 1487 813 1417T883 1245Q883 1144 814 1075T643 1006Q541 1006 471 1075T401 1245ZM121 418Q121 265 217 169T467 72Q646 72 771 203T897 520Q897 672 804 765T559 858Q372 858 247 731T121 418ZM1053 0H819L848 158Q768 69 671 25T461 -20Q263 -20 140 100T16 412Q16 511 53 608T156 774Q235 859 335 902T553 946Q695 946 796 887T946 715L987 924H1214L1198 831H1059L920 92H1069L1053 0Z"  />
<glyph unicode="&#xE6;" horiz-adv-x="1763" d="M1501 250L1581 203Q1496 90 1395 34T1176 -23Q1052 -23 956 24T786 170Q708 73 610 25T389 -23Q205 -23 91 68T-23 305Q-23 449 93 541T393 633Q492 633 572 604T723 514Q731 563 734 593T737 647Q737 759 666 811T442 864Q365 864 295 852T156 815L129 893Q201 921 278 934T438 948Q611 948 708 887T813 711Q874 818 987 882T1229 946Q1429 946 1544 818T1659 465Q1659 458 1658 444T1657 422H818Q822 259 920 163T1178 66Q1265 66 1343 110T1501 250ZM711 330Q711 431 626 491T397 551Q256 551 166 483T76 307Q76 200 163 132T389 63Q534 63 622 136T711 330ZM827 512H1554Q1550 671 1461 765T1227 860Q1082 860 971 764T827 512Z"  />
<glyph unicode="&#xE7;" horiz-adv-x="1024" d="M791 215L860 158Q769 65 676 23T471 -20Q267 -20 143 104T18 432Q18 532 53 623T154 786Q227 866 316 906T510 946Q625 946 711 903T838 780L864 924H956L901 614H821Q791 734 711 797T508 860Q341 860 230 736T119 426Q119 264 216 165T471 66Q561 66 637 101T791 215ZM192 -416L221 -338Q288 -357 341 -367T432 -377Q500 -377 536 -348T573 -266Q573 -219 534 -199T403 -178H372L432 0H497L460 -111H481Q581 -111 633 -150T686 -266Q686 -358 623 -409T448 -461Q393 -461 331 -450T192 -416Z"  />
<glyph unicode="&#xE8;" horiz-adv-x="1124" d="M862 250L942 203Q864 94 745 36T481 -23Q274 -23 146 102T18 428Q18 648 172 798T551 948Q760 948 889 817T1018 471Q1018 451 1018 441T1015 422H119Q125 255 225 159T496 63Q601 63 693 110T862 250ZM129 512H915Q908 665 807 763T555 862Q391 862 278 769T129 512ZM680 1059H590L309 1407H457L680 1059Z"  />
<glyph unicode="&#xE9;" horiz-adv-x="1124" d="M862 250L942 203Q864 94 745 36T481 -23Q274 -23 146 102T18 428Q18 648 172 798T551 948Q760 948 889 817T1018 471Q1018 451 1018 441T1015 422H119Q125 255 225 159T496 63Q601 63 693 110T862 250ZM129 512H915Q908 665 807 763T555 862Q391 862 278 769T129 512ZM524 1059H432L678 1407H825L524 1059Z"  />
<glyph unicode="&#xEA;" horiz-adv-x="1124" d="M862 250L942 203Q864 94 745 36T481 -23Q274 -23 146 102T18 428Q18 648 172 798T551 948Q760 948 889 817T1018 471Q1018 451 1018 441T1015 422H119Q125 255 225 159T496 63Q601 63 693 110T862 250ZM129 512H915Q908 665 807 763T555 862Q391 862 278 769T129 512ZM833 1059H753L608 1307L373 1059H280L549 1407H680L833 1059Z"  />
<glyph unicode="&#xEB;" horiz-adv-x="1124" d="M862 250L942 203Q864 94 745 36T481 -23Q274 -23 146 102T18 428Q18 648 172 798T551 948Q760 948 889 817T1018 471Q1018 451 1018 441T1015 422H119Q125 255 225 159T496 63Q601 63 693 110T862 250ZM129 512H915Q908 665 807 763T555 862Q391 862 278 769T129 512ZM657 1137L692 1298H833L801 1137H657ZM336 1137L370 1298H512L477 1137H336Z"  />
<glyph unicode="&#xEC;" horiz-adv-x="537" d="M-66 0L-51 92H100L231 831H49L66 924H348L205 92H367L350 0H-66ZM386 1059H296L15 1407H163L386 1059Z"  />
<glyph unicode="&#xED;" horiz-adv-x="537" d="M-66 0L-51 92H100L231 831H49L66 924H348L205 92H367L350 0H-66ZM230 1059H138L384 1407H531L230 1059Z"  />
<glyph unicode="&#xEE;" horiz-adv-x="537" d="M-66 0L-51 92H100L231 831H49L66 924H348L205 92H367L350 0H-66ZM539 1059H459L314 1307L79 1059H-14L255 1407H386L539 1059Z"  />
<glyph unicode="&#xEF;" horiz-adv-x="537" d="M-66 0L-51 92H100L231 831H49L66 924H348L205 92H367L350 0H-66ZM363 1137L398 1298H539L507 1137H363ZM42 1137L76 1298H218L183 1137H42Z"  />
<glyph unicode="&#xF0;" d="M786 895L631 1180L334 1120L315 1198L592 1253L473 1475H575L688 1276L891 1315L909 1235L731 1200L918 864Q973 765 999 677T1026 504Q1026 276 874 127T489 -23Q280 -23 149 99T18 418Q18 647 169 796T553 946Q621 946 678 934T786 895ZM924 494Q924 657 821 759T553 862Q367 862 244 738T121 426Q121 260 223 162T496 63Q677 63 800 187T924 494Z"  />
<glyph unicode="&#xF1;" horiz-adv-x="1176" d="M307 694L201 92H354L338 0H-68L-51 92H100L229 831H78L94 924H346L324 801Q416 874 513 910T713 946Q836 946 906 887T977 723Q977 700 964 619L963 611L872 92H1024L1006 0H604L621 92H772L862 608Q868 645 871 671T874 713Q874 784 829 821T696 858Q604 858 508 818T307 694ZM936 1319Q903 1222 858 1180T746 1137Q733 1137 720 1139T678 1149L583 1178Q566 1183 557 1184T539 1186Q508 1186 486 1167T449 1110H369Q407 1213 450 1254T557 1296Q570 1296 583 1294T613 1286L706 1260Q712 1258 722 1255Q749 1247 762 1247Q796 1247 819 1264T856 1319H936Z"  />
<glyph unicode="&#xF2;" d="M924 496Q924 657 820 759T553 862Q367 862 244 738T121 426Q121 260 222 162T494 63Q676 63 800 188T924 496ZM492 -25Q278 -25 148 99T18 428Q18 649 171 798T551 948Q761 948 893 825T1026 508Q1026 277 875 126T492 -25ZM699 1059H609L328 1407H476L699 1059Z"  />
<glyph unicode="&#xF3;" d="M924 496Q924 657 820 759T553 862Q367 862 244 738T121 426Q121 260 222 162T494 63Q676 63 800 188T924 496ZM492 -25Q278 -25 148 99T18 428Q18 649 171 798T551 948Q761 948 893 825T1026 508Q1026 277 875 126T492 -25ZM543 1059H451L697 1407H844L543 1059Z"  />
<glyph unicode="&#xF4;" d="M924 496Q924 657 820 759T553 862Q367 862 244 738T121 426Q121 260 222 162T494 63Q676 63 800 188T924 496ZM492 -25Q278 -25 148 99T18 428Q18 649 171 798T551 948Q761 948 893 825T1026 508Q1026 277 875 126T492 -25ZM852 1059H772L627 1307L392 1059H299L568 1407H699L852 1059Z"  />
<glyph unicode="&#xF5;" d="M924 496Q924 657 820 759T553 862Q367 862 244 738T121 426Q121 260 222 162T494 63Q676 63 800 188T924 496ZM492 -25Q278 -25 148 99T18 428Q18 649 171 798T551 948Q761 948 893 825T1026 508Q1026 277 875 126T492 -25ZM887 1319Q854 1222 809 1180T697 1137Q684 1137 671 1139T629 1149L534 1178Q517 1183 508 1184T490 1186Q459 1186 437 1167T400 1110H320Q358 1213 401 1254T508 1296Q521 1296 534 1294T564 1286L657 1260Q663 1258 673 1255Q700 1247 713 1247Q747 1247 770 1264T807 1319H887Z"  />
<glyph unicode="&#xF6;" d="M924 496Q924 657 820 759T553 862Q367 862 244 738T121 426Q121 260 222 162T494 63Q676 63 800 188T924 496ZM492 -25Q278 -25 148 99T18 428Q18 649 171 798T551 948Q761 948 893 825T1026 508Q1026 277 875 126T492 -25ZM676 1137L711 1298H852L820 1137H676ZM355 1137L389 1298H531L496 1137H355Z"  />
<glyph unicode="&#xF7;" horiz-adv-x="1706" d="M854 365Q895 365 923 336T952 264Q952 224 924 195T854 166Q813 166 785 194T756 264Q756 305 785 335T854 365ZM1452 651V569H254V651H1452ZM854 1055Q895 1055 923 1027T952 956Q952 916 924 886T854 856Q813 856 785 885T756 956Q756 997 784 1026T854 1055Z"  />
<glyph unicode="&#xF8;" d="M895 1008H999L872 842Q944 785 985 697T1026 510Q1026 278 875 128T489 -23Q414 -23 349 -8T229 39L125 -94H20L162 88Q92 152 55 236T18 418Q18 646 170 797T551 948Q621 948 683 933T801 889L895 1008ZM219 162L741 817Q702 840 655 851T551 862Q367 862 244 737T121 426Q121 345 145 279T219 162ZM813 766L287 113Q334 88 386 76T496 63Q677 63 800 187T924 494Q924 576 896 644T813 766Z"  />
<glyph unicode="&#xF9;" horiz-adv-x="1176" d="M778 229L887 829H731L748 922H1004L856 90H1008L991 0H741L764 127Q675 51 577 13T373 -25Q249 -25 179 35T109 199Q109 213 111 235T123 314L213 829H63L80 924H334L223 315Q218 286 216 260T213 211Q213 139 258 103T389 66Q483 66 580 107T778 229ZM727 1059H637L356 1407H504L727 1059Z"  />
<glyph unicode="&#xFA;" horiz-adv-x="1176" d="M778 229L887 829H731L748 922H1004L856 90H1008L991 0H741L764 127Q675 51 577 13T373 -25Q249 -25 179 35T109 199Q109 213 111 235T123 314L213 829H63L80 924H334L223 315Q218 286 216 260T213 211Q213 139 258 103T389 66Q483 66 580 107T778 229ZM571 1059H479L725 1407H872L571 1059Z"  />
<glyph unicode="&#xFB;" horiz-adv-x="1176" d="M778 229L887 829H731L748 922H1004L856 90H1008L991 0H741L764 127Q675 51 577 13T373 -25Q249 -25 179 35T109 199Q109 213 111 235T123 314L213 829H63L80 924H334L223 315Q218 286 216 260T213 211Q213 139 258 103T389 66Q483 66 580 107T778 229ZM880 1059H800L655 1307L420 1059H327L596 1407H727L880 1059Z"  />
<glyph unicode="&#xFC;" horiz-adv-x="1176" d="M778 229L887 829H731L748 922H1004L856 90H1008L991 0H741L764 127Q675 51 577 13T373 -25Q249 -25 179 35T109 199Q109 213 111 235T123 314L213 829H63L80 924H334L223 315Q218 286 216 260T213 211Q213 139 258 103T389 66Q483 66 580 107T778 229ZM704 1137L739 1298H880L848 1137H704ZM383 1137L417 1298H559L524 1137H383Z"  />
<glyph unicode="&#xFD;" horiz-adv-x="1133" d="M-53 -428L-37 -334H137L383 47L137 831H-31L-14 924H434L418 831H242L453 147L874 831H686L702 924H1126L1110 831H987L254 -334H416L397 -428H-53ZM528 1059H436L682 1407H829L528 1059Z"  />
<glyph unicode="&#xFE;" horiz-adv-x="1237" d="M129 -336H293L276 -428H-141L-123 -336H27L332 1382H180L199 1475H449L319 772Q390 856 486 900T694 944Q885 944 1007 822T1130 512Q1130 289 984 135T625 -20Q484 -20 374 50T227 233L129 -336ZM260 410Q260 264 361 168T616 72Q785 72 905 203T1026 520Q1026 667 927 761T674 856Q501 856 381 727T260 410Z"  />
<glyph unicode="&#xFF;" horiz-adv-x="1133" d="M-53 -428L-37 -334H137L383 47L137 831H-31L-14 924H434L418 831H242L453 147L874 831H686L702 924H1126L1110 831H987L254 -334H416L397 -428H-53ZM661 1137L696 1298H837L805 1137H661ZM340 1137L374 1298H516L481 1137H340Z"  />
<glyph unicode="&#x131;" horiz-adv-x="537" d="M-66 0L-51 92H100L231 831H49L66 924H348L205 92H367L350 0H-66Z"  />
<glyph unicode="&#x152;" horiz-adv-x="2009" d="M737 0Q418 0 247 167T76 645Q76 844 144 1011T338 1288Q451 1387 584 1431T915 1475H2030L1964 1106H1847L1896 1376H1268L1169 817H1671L1655 719H1151L1040 96H1692L1737 352H1851L1790 0H737ZM1100 1083Q1111 1152 1115 1189T1120 1249Q1120 1319 1073 1349T915 1380Q579 1380 386 1182T193 641Q193 372 334 232T748 92Q849 92 895 142T971 354L1100 1083Z"  />
<glyph unicode="&#x153;" horiz-adv-x="2009" d="M1006 422Q1012 255 1112 159T1382 63Q1488 63 1580 110T1749 250L1829 203Q1751 94 1632 36T1370 -23Q1218 -23 1109 42T948 229Q874 105 758 41T487 -23Q276 -23 147 101T18 428Q18 648 172 798T553 948Q705 948 813 884T979 694Q1054 816 1173 882T1438 948Q1647 948 1776 817T1905 471Q1905 451 1905 441T1902 422H1006ZM1016 512H1800Q1792 667 1692 764T1442 862Q1278 862 1165 769T1016 512ZM924 496Q924 657 820 759T553 862Q367 862 244 738T121 426Q121 260 222 162T494 63Q676 63 800 188T924 496Z"  />
<glyph unicode="&#x160;" horiz-adv-x="1251" d="M41 0L133 518H244Q243 512 242 502Q240 468 240 453Q240 289 354 178T635 66Q789 66 890 158T991 391Q991 500 923 565T602 715Q363 794 279 880T195 1108Q195 1284 316 1393T635 1503Q782 1503 886 1440T1036 1262L1073 1475H1171L1104 1094H997Q984 1238 885 1323T633 1409Q488 1409 398 1329T307 1120Q307 1015 372 952T645 819Q801 767 863 740T958 686Q1034 628 1068 558T1102 393Q1102 205 974 87T641 -31Q479 -31 355 51T184 272L139 0H41ZM537 1962H616L764 1714L997 1962H1090L823 1614H690L537 1962Z"  />
<glyph unicode="&#x161;" horiz-adv-x="909" d="M-8 0L49 326H121Q132 209 218 138T434 66Q533 66 597 113T662 233Q662 287 615 328T444 416Q434 420 413 428Q119 539 119 688Q119 801 201 872T416 944Q518 944 597 907T723 801L739 924H829L778 631H707Q688 735 613 793T420 852Q326 852 273 812T219 700Q219 601 445 521Q473 511 487 506Q636 453 700 391T764 238Q764 124 674 51T440 -23Q329 -23 241 17T102 131L82 0H-8ZM225 1407H304L452 1159L685 1407H778L511 1059H378L225 1407Z"  />
<glyph unicode="&#x178;" horiz-adv-x="1309" d="M598 96H768L752 0H295L311 96H481L584 657L233 1376H68L84 1475H555L539 1376H354L653 737L1118 1376H926L942 1475H1384L1366 1376H1243L690 627L598 96ZM891 1692L926 1853H1067L1035 1692H891ZM570 1692L604 1853H746L711 1692H570Z"  />
<glyph unicode="&#x17D;" horiz-adv-x="1147" d="M10 0L33 104L1004 1376H311L262 1096H150L215 1475H1157L1141 1376L164 96H858L918 399H1030L958 0H10ZM486 1962H565L713 1714L946 1962H1039L772 1614H639L486 1962Z"  />
<glyph unicode="&#x17E;" horiz-adv-x="905" d="M-37 0L-27 78L702 831H186L152 666H57L102 924H848L842 844L117 92H651L682 266H782L735 0H-37ZM223 1407H302L450 1159L683 1407H776L509 1059H376L223 1407Z"  />
<glyph unicode="&#x192;" horiz-adv-x="1042" d="M35 -273Q63 -281 83 -285T119 -289Q207 -289 256 -241T332 -80Q355 14 408 388L412 416L463 786H223V881H477L508 1061Q544 1265 627 1364T846 1464Q870 1464 898 1460T965 1448L946 1350Q917 1358 894 1362T850 1366Q753 1366 698 1292T616 1051L590 881H819V786H578L539 494Q499 193 476 70T428 -131Q385 -261 309 -327T125 -393Q92 -393 65 -389T12 -377L35 -273Z"  />
<glyph unicode="&#x2C6;" horiz-adv-x="1024" d="M782 1059H702L557 1307L322 1059H229L498 1407H629L782 1059Z"  />
<glyph unicode="&#x2C7;" horiz-adv-x="1024" d="M281 1407H360L508 1159L741 1407H834L567 1059H434L281 1407Z"  />
<glyph unicode="&#x2DC;" horiz-adv-x="1024" d="M817 1319Q784 1222 739 1180T627 1137Q614 1137 601 1139T559 1149L464 1178Q447 1183 438 1184T420 1186Q389 1186 367 1167T330 1110H250Q288 1213 331 1254T438 1296Q451 1296 464 1294T494 1286L587 1260Q593 1258 603 1255Q630 1247 643 1247Q677 1247 700 1264T737 1319H817Z"  />
<glyph unicode="&#x2013;" horiz-adv-x="1024" d="M-53 436L-43 508H981L971 436H-53Z"  />
<glyph unicode="&#x2014;" horiz-adv-x="2048" d="M2042 436H-6L6 508H2054L2042 436Z"  />
<glyph unicode="&#x2018;" horiz-adv-x="455" d="M238 1075H125L299 1503H414L238 1075Z"  />
<glyph unicode="&#x2019;" horiz-adv-x="455" d="M238 1075H125L299 1503H414L238 1075Z"  />
<glyph unicode="&#x201A;" horiz-adv-x="455" d="M96 -217H-18L158 209H270L96 -217Z"  />
<glyph unicode="&#x201C;" horiz-adv-x="784" d="M569 1075H457L631 1503H745L569 1075ZM238 1075H125L299 1503H414L238 1075Z"  />
<glyph unicode="&#x201D;" horiz-adv-x="784" d="M569 1075H457L631 1503H745L569 1075ZM238 1075H125L299 1503H414L238 1075Z"  />
<glyph unicode="&#x201E;" horiz-adv-x="784" d="M66 -217H-49L127 209H242L66 -217ZM397 -217H283L459 209H573L397 -217Z"  />
<glyph unicode="&#x2020;" horiz-adv-x="1024" d="M281 -256L473 831H180L162 729H70L121 1026H215L197 924H489L569 1382H459L475 1475H799L782 1382H676L596 924H889L907 1026H999L946 729H854L872 831H578L387 -256H281Z"  />
<glyph unicode="&#x2021;" horiz-adv-x="1024" d="M479 311H786L805 414H895L842 121H752L770 223H465L395 -168H508L494 -256H170L184 -168H297L365 223H66L47 121H-43L8 414H100L82 311H381L485 907H186L168 805H76L129 1098H219L201 995H502L571 1386H459L475 1475H799L782 1386H674L602 995H907L926 1098H1014L963 805H872L891 907H588L479 311Z"  />
<glyph unicode="&#x2022;" horiz-adv-x="1208" d="M307 762Q307 885 394 971T604 1057Q726 1057 812 971T899 762Q899 640 812 553T602 465Q479 465 393 552T307 762Z"  />
<glyph unicode="&#x2026;" horiz-adv-x="2048" d="M264 -25Q218 -25 187 5T156 82Q156 128 187 159T264 190Q311 190 342 160T373 82Q373 36 342 6T264 -25ZM946 -25Q900 -25 869 5T838 82Q838 128 869 159T946 190Q993 190 1024 160T1055 82Q1055 36 1024 6T946 -25ZM1630 -25Q1584 -25 1553 5T1522 82Q1522 128 1553 159T1630 190Q1677 190 1708 160T1739 82Q1739 36 1708 6T1630 -25Z"  />
<glyph unicode="&#x2030;" horiz-adv-x="2499" d="M2095 98Q2193 98 2260 165T2327 332Q2327 432 2261 498T2095 565Q1997 565 1931 498T1864 332Q1864 233 1930 166T2095 98ZM2427 332Q2427 192 2331 96T2095 0Q1955 0 1859 95T1763 332Q1763 472 1859 568T2095 664Q2235 664 2331 568T2427 332ZM1266 1464H1366L408 -29H309L1266 1464ZM403 870Q501 870 568 937T635 1104Q635 1204 569 1270T403 1337Q306 1337 239 1270T172 1104Q172 1005 239 938T403 870ZM735 1104Q735 964 639 868T403 772Q263 772 168 867T72 1104Q72 1245 167 1340T403 1436Q543 1436 639 1340T735 1104ZM1268 98Q1365 98 1432 165T1499 332Q1499 432 1433 498T1268 565Q1170 565 1103 498T1036 332Q1036 233 1103 166T1268 98ZM1599 332Q1599 192 1503 96T1268 0Q1127 0 1032 95T936 332Q936 472 1031 568T1268 664Q1407 664 1503 568T1599 332Z"  />
<glyph unicode="&#x2039;" horiz-adv-x="627" d="M504 774L211 461L406 150H289L84 461L362 774H504Z"  />
<glyph unicode="&#x203A;" horiz-adv-x="627" d="M31 147L322 461L129 774H246L449 461L172 147H31Z"  />
<glyph unicode="&#x2122;" horiz-adv-x="1706" d="M926 1454L1100 1014L1262 1454H1364V924H1305V1403L1124 924H1075L885 1403V924H825V1454H926ZM694 1454V1403H520V924H453V1403H274V1454H694Z"  />

</font>
</defs>
</svg>
