<?xml  version="1.0" encoding="UTF-8"?>
<!DOCTYPE svg PUBLIC "-//W3C//DTD SVG 1.0//EN" "http://www.w3.org/TR/2001/REC-SVG-20010904/DTD/svg10.dtd" >
<svg xmlns="http://www.w3.org/2000/svg" >
<metadata>
<version>1.0</version>
<id><![CDATA[Geom Slab 703 W01 Bold]]></id>
<vendor>Monotype Imaging Inc.</vendor>
<credits>
<name>Fonts.com WebFonts</name>
<URL>http://webfonts.fonts.com</URL>
<role>Home of the Web fonts</role>
</credits>
<license>
<URL>http://webfonts.fonts.com/Legal</URL>
</license>
<copyright><![CDATA[Copyright 1990-2003 Bitstream Inc. All rights reserved.]]></copyright>
<trademark></trademark>
<licensee>
<name></name>
</licensee>
</metadata>
<defs >
<font horiz-adv-x="1186" id="f2abb55f-b97b-43a0-afd5-245339fb2ea5">
<font-face font-family="" panose-1="2 6 7 3 2 2 5 2 4 3" ascent="1972" descent="-483" units-per-em="2048" alphabetic="0">
</font-face>
<missing-glyph horiz-adv-x="547" />

<glyph unicode="&#xA;" horiz-adv-x="0" />
<glyph unicode="&#xD;" horiz-adv-x="1094" />
<glyph unicode=" " horiz-adv-x="547" />
<glyph unicode="!" horiz-adv-x="707" d="M352 -25Q273 -25 222 27T170 158Q170 236 222 287T352 338Q429 338 483 286T537 158Q537 82 483 29T352 -25ZM455 444H252L197 1475H510L455 444Z"  />
<glyph unicode="&quot;" horiz-adv-x="643" d="M395 1436H559V879H395V1436ZM86 1436H250V879H86V1436Z"  />
<glyph unicode="#" horiz-adv-x="1575" d="M709 852L618 598H874L965 852H709ZM735 1460H926L772 1024H1022L1178 1460H1368L1214 1024H1505L1446 852H1153L1063 600H1372L1311 428H1004L848 -6H657L813 428H561L403 -6H213L369 428H70L131 600H428L518 852H203L264 1024H580L735 1460Z"  />
<glyph unicode="$" horiz-adv-x="1096" d="M483 858V1196Q418 1181 381 1138T344 1032Q344 971 381 925T483 858ZM109 451H264Q286 354 342 287T483 188V614Q304 663 213 759T121 997Q121 1160 219 1262T483 1372V1489H610V1368Q674 1362 725 1330T807 1243L801 1362H950V971H807Q782 1060 730 1119T610 1192V821Q830 762 935 660T1040 401Q1040 227 919 108T610 -18V-186H483V-10Q408 2 349 44T254 152L262 2H109V451ZM610 178Q703 190 757 244T811 377Q811 449 765 497T610 582V178Z"  />
<glyph unicode="%" horiz-adv-x="1817" d="M1384 197Q1454 197 1501 244T1548 362Q1548 433 1501 480T1384 528Q1316 528 1269 480T1221 362Q1221 293 1268 245T1384 197ZM1747 362Q1747 211 1641 106T1384 0Q1235 0 1129 106T1022 362Q1022 514 1127 618T1384 723Q1537 723 1642 619T1747 362ZM1262 1464H1405L553 -29H410L1262 1464ZM432 909Q502 909 549 957T596 1075Q596 1146 549 1193T432 1241Q363 1241 315 1193T266 1075Q266 1006 314 958T432 909ZM793 1075Q793 924 687 819T430 713Q281 713 176 818T70 1075Q70 1227 174 1331T430 1436Q582 1436 687 1332T793 1075Z"  />
<glyph unicode="&amp;" horiz-adv-x="1518" d="M1407 205V0H1096L956 160Q853 63 745 17T512 -29Q343 -29 233 83T123 367Q123 480 182 575T393 793Q298 899 255 985T211 1153Q211 1295 316 1397T569 1499Q710 1499 806 1404T903 1165Q903 1064 854 975T694 793L977 479Q1029 555 1056 630T1092 790L979 791V971H1407V791L1278 790Q1273 668 1233 556T1110 330L1229 205H1407ZM821 309L524 635Q437 564 396 500T354 373Q354 291 406 242T547 193Q620 193 691 223T821 309ZM559 922Q636 989 671 1048T707 1167Q707 1237 666 1282T563 1327Q500 1327 459 1284T418 1174Q418 1120 452 1059T559 922Z"  />
<glyph unicode="&apos;" horiz-adv-x="334" d="M86 1436H250V879H86V1436Z"  />
<glyph unicode="(" horiz-adv-x="649" d="M629 1378Q490 1201 415 993T340 571Q340 356 416 147T633 -231L457 -358Q286 -147 198 90T109 571Q109 815 197 1052T457 1503L629 1378Z"  />
<glyph unicode=")" horiz-adv-x="649" d="M20 1378L193 1503Q364 1289 452 1052T541 571Q541 328 452 91T193 -358L16 -231Q157 -62 233 147T309 571Q309 784 235 992T20 1378Z"  />
<glyph unicode="*" horiz-adv-x="1139" d="M471 1503H678L643 1192L924 1341L997 1149L676 1057L913 848L760 713L567 969L379 713L225 848L463 1057L141 1149L215 1341L500 1192L471 1503Z"  />
<glyph unicode="+" horiz-adv-x="1706" d="M768 1221H938V694H1452V528H938V0H768V528H254V694H768V1221Z"  />
<glyph unicode="&#x2c;" horiz-adv-x="547" d="M170 240H430L281 -217H35L170 240Z"  />
<glyph unicode="-" horiz-adv-x="631" d="M61 371V582H569V371H61Z"  />
<glyph unicode="." horiz-adv-x="547" d="M274 -25Q195 -25 143 27T90 158Q90 235 142 286T274 338Q351 338 404 286T457 158Q457 82 404 29T274 -25Z"  />
<glyph unicode="/" horiz-adv-x="682" d="M645 1503L141 -190H4L508 1503H645Z"  />
<glyph unicode="0" horiz-adv-x="1096" d="M342 879V557Q342 351 389 273T547 195Q658 195 706 275T754 557V881Q754 1085 706 1164T547 1243Q437 1243 390 1163T342 879ZM94 537V901Q94 1055 109 1127T160 1257Q220 1357 319 1410T547 1464Q676 1464 775 1412T936 1257Q970 1202 984 1134T999 942V901V489Q999 387 989 330T956 223Q903 104 795 38T547 -29Q420 -29 320 25T160 180Q125 239 110 310T94 537Z"  />
<glyph unicode="1" horiz-adv-x="1096" d="M264 0V199H432V1237H276V1436H680V199H846V0H264Z"  />
<glyph unicode="2" horiz-adv-x="1096" d="M786 420H1022V0H86V199L553 715Q663 837 710 921T758 1075Q758 1158 706 1203T557 1249Q437 1249 386 1172T334 909V868L98 869Q97 882 97 896T96 938Q96 1204 211 1334T561 1464Q766 1464 887 1358T1008 1071Q1008 961 951 857T723 580L362 215H786V420Z"  />
<glyph unicode="3" horiz-adv-x="1096" d="M325 506Q329 345 383 270T551 195Q643 195 704 259T766 420Q766 528 696 589T504 651H481V829Q488 829 498 828T514 827Q626 827 684 885T743 1053Q743 1143 693 1195T555 1247Q438 1247 389 1172T340 911V897H98Q98 906 97 929T96 969Q96 1205 214 1335T547 1466Q751 1466 870 1356T989 1057Q989 938 937 858T786 748Q891 723 951 636T1012 422Q1012 214 889 94T551 -27Q319 -27 200 95T80 453Q80 462 81 479T82 506H325Z"  />
<glyph unicode="4" horiz-adv-x="1096" d="M301 522H645V879Q645 933 651 1006T670 1163L301 522ZM442 0V182H645V342H86V528L639 1436H877V522H1049V342H877V182H1049V0H442Z"  />
<glyph unicode="5" horiz-adv-x="1096" d="M86 455H324V426Q324 313 375 254T524 195Q634 195 697 268T760 471Q760 606 683 668T438 731Q395 731 331 727T187 713L186 1438H891V1221H430V951Q446 951 463 951T510 952Q743 952 876 822T1010 463Q1010 241 881 106T537 -29Q328 -29 206 90T84 414Q84 420 85 433T86 455Z"  />
<glyph unicode="6" horiz-adv-x="1096" d="M561 195Q651 195 711 262T772 432Q772 535 712 602T561 670Q473 670 414 603T354 432Q354 328 413 262T561 195ZM748 1030Q741 1141 695 1194T559 1247Q445 1247 398 1174T350 895V788Q420 841 487 867T621 893Q796 893 909 767T1022 438Q1022 229 898 100T567 -29Q334 -29 219 107T104 520V952Q104 1203 221 1333T563 1464Q765 1464 877 1356T989 1051V1030H748Z"  />
<glyph unicode="7" horiz-adv-x="1096" d="M227 0L766 1221H344V967H109V1436H1020V1227L492 0H227Z"  />
<glyph unicode="8" horiz-adv-x="1096" d="M547 844Q631 844 690 903T750 1049Q750 1135 691 1195T547 1255Q462 1255 405 1196T348 1049Q348 962 405 903T547 844ZM549 186Q640 186 703 250T766 408Q766 503 704 567T549 631Q456 631 393 567T330 408Q330 314 393 250T549 186ZM307 743Q210 793 158 876T106 1065Q106 1241 230 1353T547 1466Q740 1466 864 1353T989 1065Q989 960 937 877T786 743Q895 682 951 590T1008 381Q1008 205 878 88T547 -29Q346 -29 217 87T88 381Q88 499 143 591T307 743Z"  />
<glyph unicode="9" horiz-adv-x="1096" d="M532 1241Q443 1241 383 1174T322 1004Q322 901 382 834T532 766Q622 766 682 833T743 1004Q743 1107 683 1174T532 1241ZM348 403Q354 293 400 241T537 188Q651 188 698 261T745 541V645Q677 593 610 568T475 543Q299 543 187 668T74 995Q74 1206 199 1335T528 1464Q762 1464 876 1328T991 915V481Q991 232 874 102T532 -29Q330 -29 218 79T106 383V403H348Z"  />
<glyph unicode=":" horiz-adv-x="674" d="M336 614Q256 614 205 665T154 795Q154 873 206 925T336 977Q412 977 465 924T518 795Q518 719 465 667T336 614ZM336 -25Q257 -25 206 27T154 158Q154 236 205 287T336 338Q412 338 465 286T518 158Q518 82 465 29T336 -25Z"  />
<glyph unicode=";" horiz-adv-x="674" d="M207 240H465L315 -217H70L207 240ZM346 614Q266 614 214 665T162 795Q162 873 214 925T346 977Q422 977 475 924T528 795Q528 719 476 667T346 614Z"  />
<glyph unicode="&lt;" horiz-adv-x="1706" d="M1442 1176V991L508 610L1442 229V47L264 530V690L1442 1176Z"  />
<glyph unicode="=" horiz-adv-x="1706" d="M254 487H1452V322H254V487ZM254 901H1452V733H254V901Z"  />
<glyph unicode="&gt;" horiz-adv-x="1706" d="M264 1176L1442 690V530L264 47V229L1198 610L264 991V1176Z"  />
<glyph unicode="?" horiz-adv-x="1219" d="M172 1073Q190 1282 304 1392T614 1503Q812 1503 930 1393T1049 1100Q1049 945 961 841T713 702V444H475V883Q490 883 504 882T520 881Q659 881 734 940T809 1110Q809 1194 755 1244T608 1294Q516 1294 461 1235T401 1073H172ZM586 -25Q507 -25 455 27T403 158Q403 236 455 287T586 338Q662 338 715 286T768 158Q768 82 715 29T586 -25Z"  />
<glyph unicode="@" horiz-adv-x="2048" d="M1174 283Q1119 196 1046 156T870 115Q718 115 638 201T557 451Q557 684 695 846T1028 1008Q1117 1008 1177 974T1276 866L1331 973H1485L1337 387Q1336 382 1335 375Q1329 347 1329 338Q1329 300 1355 277T1425 254Q1476 254 1532 284T1638 369Q1710 445 1748 546T1786 762Q1786 1015 1599 1173T1110 1331Q972 1331 854 1300T639 1206Q458 1093 360 915T262 520Q262 208 471 21T1030 -166Q1196 -166 1353 -117T1645 25L1712 -74Q1563 -187 1394 -244T1038 -301Q846 -301 687 -253T406 -111Q251 7 175 164T98 522Q98 687 150 835T303 1108Q450 1287 656 1380T1116 1473Q1282 1473 1431 1428T1686 1300Q1818 1198 1884 1065T1950 764Q1950 602 1885 462T1700 225Q1631 170 1550 142T1382 113Q1276 113 1225 153T1174 279V283ZM1233 707Q1219 791 1172 837T1049 883Q922 883 832 755T741 444Q741 346 786 293T915 240Q1005 240 1078 306T1178 479L1233 707Z"  />
<glyph unicode="A" horiz-adv-x="1403" d="M518 678H852L686 1178L518 678ZM365 205H522V0H-6V205H111L483 1270H324V1475H1079V1270H909L1274 205H1409V0H850V205H1008L918 473H455L365 205Z"  />
<glyph unicode="B" horiz-adv-x="1255" d="M473 692V205H584Q742 205 810 262T879 449Q879 576 809 634T584 692H473ZM473 1270V883H584Q690 883 750 934T811 1075Q811 1169 753 1219T584 1270H473ZM51 0V205H209V1270H51V1475H584Q823 1475 950 1379T1077 1100Q1077 982 1015 908T827 799Q982 762 1062 668T1143 430Q1143 214 1004 107T584 0H51Z"  />
<glyph unicode="C" horiz-adv-x="1554" d="M1212 983Q1168 1115 1070 1186T834 1257Q612 1257 476 1114T340 737Q340 504 476 362T834 219Q972 219 1066 281T1229 479H1485Q1425 246 1249 109T834 -29Q501 -29 284 189T66 737Q66 1074 278 1288T817 1503Q948 1503 1051 1464T1217 1352L1212 1475H1432V983H1212Z"  />
<glyph unicode="D" horiz-adv-x="1534" d="M473 1270V205H651Q920 205 1059 340T1198 737Q1198 999 1059 1134T651 1270H473ZM643 1475Q1048 1475 1259 1286T1470 737Q1470 378 1259 189T643 0H51V205H209V1270H51V1475H643Z"  />
<glyph unicode="E" horiz-adv-x="1280" d="M51 0V205H209V1270H51V1475H1174V1073H944V1268H473V899H868V678H473V205H936V436H1174V0H51Z"  />
<glyph unicode="F" horiz-adv-x="1223" d="M51 0V205H209V1270H51V1475H1174V1073H944V1268H473V899H893V678H473V205H666V0H51Z"  />
<glyph unicode="G" horiz-adv-x="1706" d="M1290 168Q1201 70 1084 21T821 -29Q498 -29 280 190T61 737Q61 1072 277 1287T834 1503Q967 1503 1075 1467T1251 1362V1475H1468V983H1251Q1192 1118 1088 1185T838 1253Q612 1253 477 1112T342 737Q342 513 482 367T834 221Q983 221 1090 283T1278 479H940V692H1645V479H1491V0H1298L1290 168Z"  />
<glyph unicode="H" horiz-adv-x="1534" d="M473 662V205H631V0H51V205H209V1270H51V1475H631V1270H473V899H1061V1270H903V1475H1481V1270H1325V205H1481V0H903V205H1061V662H473Z"  />
<glyph unicode="I" horiz-adv-x="682" d="M473 205H631V0H51V205H209V1270H51V1475H631V1270H473V205Z"  />
<glyph unicode="J" horiz-adv-x="682" d="M483 137Q483 -61 394 -150T104 -240Q77 -240 63 -240T35 -237V20Q52 19 67 19T96 18Q158 18 187 51T217 152V1270H39V1475H639V1270H483V137Z"  />
<glyph unicode="K" horiz-adv-x="1327" d="M473 205H631V0H51V205H209V1270H51V1475H631V1270H473V788L879 1270H725V1475H1282V1270H1178L754 780L1176 205H1313V0H725V205H872L473 750V205Z"  />
<glyph unicode="L" horiz-adv-x="1118" d="M51 0V205H209V1270H51V1475H653V1268H473V205H842V436H1081V0H51Z"  />
<glyph unicode="M" horiz-adv-x="1812" d="M469 205H645V0H51V205H209V1270H51V1475H625L915 629L1208 1475H1761V1270H1604V205H1761V0H1167V205H1343V1202L979 197H838L469 1202V205Z"  />
<glyph unicode="N" horiz-adv-x="1489" d="M461 205H616V0H51V205H209V1270H51V1475H502L1028 512V1270H870V1475H1436V1270H1278V-29H1055L461 1087V205Z"  />
<glyph unicode="O" horiz-adv-x="1669" d="M61 737Q61 1063 281 1283T834 1503Q987 1503 1116 1457T1350 1317Q1476 1204 1542 1057T1608 737Q1608 588 1556 454T1405 213Q1294 93 1150 32T834 -29Q504 -29 283 192T61 737ZM342 737Q342 514 482 368T834 221Q1045 221 1186 367T1327 737Q1327 961 1186 1107T834 1253Q625 1253 484 1107T342 737Z"  />
<glyph unicode="P" horiz-adv-x="1200" d="M473 1272V737H555Q737 737 825 803T913 1006Q913 1141 826 1206T555 1272H473ZM473 205H664V0H51V205H209V1270H51V1475H555Q864 1475 1022 1356T1180 1004Q1180 772 1022 654T555 535H473V205Z"  />
<glyph unicode="Q" horiz-adv-x="1669" d="M1083 281Q1199 341 1263 461T1327 737Q1327 964 1187 1108T834 1253Q621 1253 482 1108T342 737Q342 511 481 366T834 221H866L797 365L987 469L1083 281ZM1198 57L1239 -18H1442V-256H1104L987 -16Q941 -23 903 -26T834 -29Q683 -29 554 18T319 158Q195 267 128 417T61 737Q61 1063 281 1283T834 1503Q986 1503 1115 1457T1350 1317Q1476 1206 1542 1058T1608 737Q1608 515 1497 332T1198 57Z"  />
<glyph unicode="R" horiz-adv-x="1327" d="M473 1270V881H666Q804 881 866 927T928 1075Q928 1177 866 1223T666 1270H473ZM473 205H651V0H51V205H209V1270H51V1475H659Q937 1475 1064 1384T1192 1096Q1192 974 1130 894T940 770Q1051 755 1100 695T1149 514V205H1290V0H883V371Q883 562 825 619T610 676H473V205Z"  />
<glyph unicode="S" horiz-adv-x="1282" d="M354 125V0H141V500H354Q396 341 484 259T705 176Q806 176 875 240T944 397Q944 481 885 534T684 627L516 674Q314 730 223 827T131 1081Q131 1261 258 1382T575 1503Q677 1503 764 1471T913 1378V1475H1118V1036H913Q878 1167 804 1231T616 1296Q520 1296 460 1244T399 1110Q399 1041 437 1001T573 932L752 881Q999 809 1099 706T1200 428Q1200 221 1075 96T741 -29Q623 -29 525 10T354 125Z"  />
<glyph unicode="T" horiz-adv-x="1223" d="M743 205H934V0H289V205H479V1270H287V1057H51V1475H1171V1057H936V1270H743V205Z"  />
<glyph unicode="U" horiz-adv-x="1522" d="M500 537Q500 362 560 292T762 221Q902 221 962 292T1022 537V1270H866V1475H1444V1270H1288V567Q1288 407 1270 325T1210 176Q1146 74 1034 23T762 -29Q616 -29 509 14T332 143Q279 209 256 302T233 567V1270H78V1475H655V1270H500V537Z"  />
<glyph unicode="V" horiz-adv-x="1352" d="M586 -29L127 1270H23V1475H539V1270H406L680 459L952 1270H813V1475H1313V1270H1212L764 -29H586Z"  />
<glyph unicode="W" horiz-adv-x="1937" d="M967 891L690 -29H516L94 1270H-8V1475H502V1270H362L608 473L842 1270H709V1475H1229V1270H1094L1343 467L1597 1270H1434V1475H1946V1270H1841L1419 -29H1247L967 891Z"  />
<glyph unicode="X" horiz-adv-x="1352" d="M674 551L453 205H575V0H39V205H168L539 729L178 1270H51V1475H592V1270H479L688 936L901 1270H780V1475H1292V1270H1188L819 756L1192 205H1321V0H770V205H889L674 551Z"  />
<glyph unicode="Y" horiz-adv-x="1343" d="M797 205H977V0H350V205H530V680L143 1270H27V1475H565V1270H449L674 903L895 1270H762V1475H1298V1270H1180L797 680V205Z"  />
<glyph unicode="Z" horiz-adv-x="1329" d="M956 201V446H1198V0H121V188L877 1268H391V1067H150V1470H1198V1290L438 201H956Z"  />
<glyph unicode="[" horiz-adv-x="743" d="M197 -174V1475H676V1294H434V6H676V-174H197Z"  />
<glyph unicode="\" horiz-adv-x="682" d="M524 -190L20 1503H160L662 -190H524Z"  />
<glyph unicode="]" horiz-adv-x="743" d="M549 -174H70V6H311V1294H70V1475H549V-174Z"  />
<glyph unicode="^" horiz-adv-x="2048" d="M915 1460H1133L1628 899H1421L1024 1296L625 899H418L915 1460Z"  />
<glyph unicode="_" horiz-adv-x="1024" d="M0 -311H1024V-483H0V-311Z"  />
<glyph unicode="`" horiz-adv-x="1024" d="M659 1087H528L233 1436H455L659 1087Z"  />
<glyph unicode="a" horiz-adv-x="1270" d="M1073 199H1206V0H836V102Q776 41 700 9T537 -23Q325 -23 189 118T53 477Q53 689 191 833T537 977Q622 977 696 946T836 850V952H1206V754H1073V199ZM295 475Q295 349 371 270T569 190Q687 190 765 270T844 475Q844 599 765 680T569 762Q448 762 372 682T295 475Z"  />
<glyph unicode="b" horiz-adv-x="1262" d="M418 475Q418 352 496 271T692 190Q810 190 888 270T967 475Q967 599 888 680T692 762Q575 762 497 681T418 475ZM55 0V199H188V1276H55V1475H424V850Q489 914 564 945T725 977Q932 977 1070 833T1208 477Q1208 259 1073 118T725 -23Q638 -23 561 9T424 102V0H55Z"  />
<glyph unicode="c" horiz-adv-x="1057" d="M1004 215Q913 97 800 36T557 -25Q339 -25 195 118T51 477Q51 694 186 836T524 979Q600 979 664 956T778 887V952H965V633H813Q750 712 689 744T541 776Q426 776 358 695T289 477Q289 351 365 267T555 182Q644 182 712 217T856 340L1004 215Z"  />
<glyph unicode="d" horiz-adv-x="1255" d="M705 1475H1073V199H1206V0H836V102Q776 41 700 9T537 -23Q325 -23 189 118T53 477Q53 689 191 833T537 977Q622 977 696 946T836 850V1276H705V1475ZM295 475Q295 352 373 271T569 190Q688 190 766 270T844 475Q844 599 765 680T569 762Q453 762 374 681T295 475Z"  />
<glyph unicode="e" horiz-adv-x="1141" d="M297 573H850Q821 672 752 723T578 774Q470 774 396 721T297 573ZM1059 281Q1017 135 892 55T580 -25Q343 -25 198 113T53 475Q53 694 200 834T578 975Q807 975 946 827T1085 430V406H297Q309 296 384 237T586 178Q665 178 728 205T825 281H1059Z"  />
<glyph unicode="f" horiz-adv-x="668" d="M604 0H45V199H203V754H45V952H203V1081Q203 1332 272 1403T551 1475Q573 1475 587 1475T616 1472V1284H563Q490 1284 464 1259T438 1135V1069V952H616V754H438V199H604V0Z"  />
<glyph unicode="g" horiz-adv-x="1262" d="M295 475Q295 352 373 271T569 190Q688 190 766 270T844 475Q844 599 765 680T569 762Q453 762 374 681T295 475ZM1073 166V88Q1073 -50 1060 -117T1016 -231Q955 -326 847 -376T592 -426Q461 -426 353 -400T154 -322V-92Q261 -157 353 -189T522 -221Q683 -221 759 -165T836 12V102Q776 41 700 9T537 -23Q325 -23 189 118T53 477Q53 689 191 833T537 977Q622 977 696 946T836 850V952H1206V754H1073V166Z"  />
<glyph unicode="h" horiz-adv-x="1217" d="M180 1276H47V1475H418V823Q502 903 583 940T756 977Q906 977 978 896T1051 645V199H1184V0H680V199H813V592Q813 669 774 711T664 754Q601 754 540 719T418 610V199H551V0H47V199H180V1276Z"  />
<glyph unicode="i" horiz-adv-x="598" d="M113 1108V1360H428V1108H113ZM428 199H565V0H45V199H190V754H47V952H428V199Z"  />
<glyph unicode="j" horiz-adv-x="569" d="M428 66Q428 -263 345 -341T35 -424V-213Q127 -200 158 -163T190 14V51V754H47V952H428V66ZM113 1108V1360H428V1108H113Z"  />
<glyph unicode="k" horiz-adv-x="1139" d="M186 1276H43V1475H422V516L725 754H612V952H1100V754H987L672 496L997 199H1100V0H625V199H709L422 465V199H537V0H41V199H186V1276Z"  />
<glyph unicode="l" horiz-adv-x="592" d="M186 1276H43V1475H422V199H561V0H41V199H186V1276Z"  />
<glyph unicode="m" horiz-adv-x="1792" d="M428 823Q494 897 573 937T731 977Q829 977 896 934T999 807Q1067 894 1146 935T1325 977Q1481 977 1554 897T1628 645V199H1761V0H1260V199H1397V537Q1397 661 1361 705T1235 750Q1175 750 1123 724T1024 645V199H1159V0H659V199H795V537Q795 664 759 707T631 750Q569 750 517 715T422 610V199H559V0H57V199H190V754H57V952H428V823Z"  />
<glyph unicode="n" horiz-adv-x="1225" d="M428 823Q513 904 593 940T764 977Q915 977 988 896T1061 645V199H1194V0H690V199H823V592Q823 668 785 709T674 750Q609 750 549 716T428 610V199H561V0H57V199H190V754H57V952H428V823Z"  />
<glyph unicode="o" horiz-adv-x="1157" d="M297 477Q297 352 378 268T578 184Q697 184 777 267T858 477Q858 606 778 689T578 772Q458 772 378 689T297 477ZM51 477Q51 689 202 833T578 977Q803 977 953 833T1104 477Q1104 266 954 123T578 -20Q353 -20 202 123T51 477Z"  />
<glyph unicode="p" horiz-adv-x="1264" d="M420 475Q420 352 498 271T694 190Q812 190 890 270T969 475Q969 599 890 680T694 762Q577 762 499 681T420 475ZM57 -426V-227H190V754H57V952H428V850Q494 914 567 945T727 977Q934 977 1072 833T1210 477Q1210 258 1075 118T727 -23Q646 -23 570 6T428 90V-227H569V-426H57Z"  />
<glyph unicode="q" horiz-adv-x="1264" d="M1206 -426H694V-227H836V90Q769 35 694 6T537 -23Q324 -23 189 117T53 477Q53 689 191 833T537 977Q622 977 696 946T836 850V952H1206V754H1073V-227H1206V-426ZM844 475Q844 599 765 680T569 762Q453 762 374 681T295 475Q295 351 373 271T569 190Q687 190 765 271T844 475Z"  />
<glyph unicode="r" horiz-adv-x="825" d="M428 815L440 819Q460 891 505 930T614 969Q687 969 734 921T782 799Q782 725 735 678T612 631Q555 631 512 664T442 762L428 756V199H561V0H57V199H190V754H57V952H428V815Z"  />
<glyph unicode="s" horiz-adv-x="1053" d="M289 0H111V332H297Q333 244 407 198T588 152Q652 152 691 183T731 264Q731 306 701 328T565 371L408 397Q251 425 176 495T100 684Q100 817 194 897T446 977Q532 977 599 954T713 887L715 952H893V651H700Q675 727 617 767T475 807Q407 807 367 779T326 707Q326 624 510 590Q519 589 524 588L633 569Q803 538 884 466T965 274Q965 144 865 60T602 -25Q520 -25 444 -2T291 70L289 0Z"  />
<glyph unicode="t" horiz-adv-x="692" d="M426 365Q426 239 446 212T567 184Q573 184 590 187Q597 188 600 188V0Q563 -4 524 -6T440 -8Q288 -8 239 37T190 246V754H25V952H190V1288H426V952H600V754H426V365Z"  />
<glyph unicode="u" horiz-adv-x="1219" d="M799 129Q714 49 633 12T461 -25Q310 -25 238 56T166 307V754H33V952H403V360Q403 284 442 244T553 203Q617 203 678 237T799 342V754H666V952H1036V199H1167V0H799V129Z"  />
<glyph unicode="v" horiz-adv-x="1104" d="M455 0L121 754H10V952H469V754H377L557 299L750 754H653V952H1094V754H981L647 0H455Z"  />
<glyph unicode="w" horiz-adv-x="1626" d="M590 0H432L121 754H8V952H453V754H348L522 307L711 754H598V952H1044V754H930L1112 307L1296 754H1171V952H1620V754H1513L1194 0H1030L813 522L590 0Z"  />
<glyph unicode="x" horiz-adv-x="1139" d="M442 188V0H47V199H186L440 471L160 754H47V952H426V788L573 612L709 788V952H1085V754H948L707 483L993 199H1085V0H711V188L569 342L442 188Z"  />
<glyph unicode="y" horiz-adv-x="1161" d="M711 -426H176V-227H326L451 25L133 754H14V952H500V754H373L578 264L791 754H668V952H1145V754H1028L561 -227H711V-426Z"  />
<glyph unicode="z" horiz-adv-x="1008" d="M934 0H74V199L618 754H307V627H102V952H911V754L369 199H731V340H934V0Z"  />
<glyph unicode="{" horiz-adv-x="1024" d="M874 1477V1298Q866 1298 850 1299T827 1300Q718 1300 680 1259T641 1085V844Q641 689 597 624T438 530Q552 503 596 438T641 217V-23Q641 -155 680 -197T829 -240Q836 -240 851 -239T874 -238V-414H811Q709 -414 646 -402T539 -365Q482 -331 459 -269T436 -66V182Q436 326 384 385T205 444Q198 444 184 443T162 442V621Q169 621 183 620T205 618Q331 618 383 677T436 879V1126Q436 1271 459 1332T539 1427Q583 1454 648 1465T829 1477H874Z"  />
<glyph unicode="|" horiz-adv-x="1024" d="M424 1565H602V-483H424V1565Z"  />
<glyph unicode="}" horiz-adv-x="1024" d="M152 1477H197Q312 1477 376 1466T485 1427Q542 1394 565 1332T588 1126V879Q588 735 640 677T819 618Q825 618 840 619T862 621V442Q855 442 841 443T819 444Q693 444 641 385T588 182V-66Q588 -209 565 -270T485 -365Q442 -391 377 -402T197 -414H152V-238Q160 -238 175 -239T197 -240Q306 -240 344 -198T383 -23V217Q383 370 428 436T588 530Q473 558 428 623T383 844V1085Q383 1217 345 1258T199 1300Q192 1300 176 1299T152 1298V1477Z"  />
<glyph unicode="~" horiz-adv-x="1706" d="M1530 784V600Q1427 529 1333 494T1149 459Q1105 459 1057 467T958 494Q933 502 882 520Q670 594 563 594Q481 594 389 556T178 434V621Q284 693 380 728T565 764Q627 764 690 752T859 704Q872 700 901 689Q1065 631 1151 631Q1236 631 1328 668T1530 784Z"  />
<glyph unicode="&#xA0;" horiz-adv-x="1096" />
<glyph unicode="&#xA1;" horiz-adv-x="707" d="M170 1317Q170 1396 221 1446T352 1497Q429 1497 483 1445T537 1317Q537 1242 483 1190T352 1137Q274 1137 222 1188T170 1317ZM455 1030L510 0H197L252 1030H455Z"  />
<glyph unicode="&#xA2;" horiz-adv-x="1096" d="M432 252L616 774Q609 775 602 775T588 776Q483 776 415 696T346 489Q346 418 367 360T432 252ZM877 334L1018 207Q926 95 817 35T598 -25Q574 -25 540 -20T463 -6L375 -268H254L362 35Q238 109 174 222T109 479Q109 693 242 835T575 977Q602 977 628 974T680 965L756 1188H870L780 918Q807 901 829 880T870 832L862 952H999V625H838Q818 666 790 694T721 741L526 188Q543 184 560 182T596 180Q672 180 738 216T877 334Z"  />
<glyph unicode="&#xA3;" horiz-adv-x="1096" d="M49 -26V227Q174 235 235 300T297 492Q297 524 291 559T272 629H68V819H233Q212 897 201 961T190 1075Q190 1257 302 1361T608 1466Q804 1466 907 1362T1010 1057Q1010 1037 1010 1027T1008 1006H778V1036Q778 1150 738 1200T606 1251Q530 1251 485 1204T440 1075Q440 1044 452 987T496 819H743V629H525Q530 596 532 571T535 522Q535 459 519 397T467 264Q511 235 556 220T645 205Q734 205 775 250T817 391V397H1055L1059 350Q1059 345 1060 336T1061 322Q1061 179 958 75T711 -29Q625 -29 539 5T369 106Q309 37 240 4T84 -29Q83 -29 81 -28Q71 -25 63 -25Q58 -25 55 -25T49 -26Z"  />
<glyph unicode="&#xA4;" horiz-adv-x="1096" d="M1036 387Q1009 184 898 78T600 -29Q382 -29 271 101T131 522H0L23 666H123Q122 683 122 696T121 743Q121 756 122 769T123 793H0L23 936H129Q157 1207 266 1335T578 1464Q655 1464 714 1429T807 1327V1436H1018V1032H797Q776 1135 725 1189T596 1243Q499 1243 448 1171T379 936H840L786 793H371Q371 782 370 769T369 743Q369 710 369 697T371 666H760L705 522H379Q398 349 449 272T600 195Q679 195 731 247T791 387H1036Z"  />
<glyph unicode="&#xA5;" horiz-adv-x="1096" d="M854 969H1081V815H774L678 653H1081V500H672V190H840V0H256V190H424V500H14V653H420L328 815H14V969H238L80 1247H-16V1438H461V1247H346L551 862L750 1247H635V1438H1116V1247H1012L854 969Z"  />
<glyph unicode="&#xA6;" horiz-adv-x="1024" d="M424 408H602V-350H424V408ZM424 1432H602V674H424V1432Z"  />
<glyph unicode="&#xA7;" horiz-adv-x="1024" d="M352 664L530 473Q583 419 617 399T688 379Q731 379 755 401T780 463Q780 487 760 520T698 598L520 788Q468 843 434 863T362 883Q320 883 296 861T272 799Q272 773 291 741T352 664ZM162 92H371V-35H485Q535 -35 562 -15T590 43Q590 70 571 102T510 178L190 508Q119 582 82 654T45 793Q45 894 117 963T295 1032Q319 1032 332 1031T356 1028Q295 1082 263 1141T231 1262Q231 1367 312 1421T553 1475H846V1157H637V1288H535Q491 1288 468 1272T444 1225Q444 1201 464 1168T524 1094L836 774Q923 683 958 614T993 469Q993 357 928 288T756 219Q744 219 733 219T711 221Q771 159 797 109T823 4Q823 -112 743 -171T508 -231H162V92Z"  />
<glyph unicode="&#xA8;" horiz-adv-x="1024" d="M580 1135V1364H784V1135H580ZM240 1135V1364H444V1135H240Z"  />
<glyph unicode="&#xA9;" horiz-adv-x="1706" d="M1206 903H1040Q1030 977 980 1017T850 1057Q751 1057 695 971T639 731Q639 579 696 497T860 414Q940 414 989 457T1049 582H1214Q1207 447 1108 365T854 283Q671 283 564 402T457 725Q457 933 566 1056T858 1180Q1005 1180 1101 1103T1206 903ZM854 1362Q724 1362 611 1316T410 1180Q320 1088 272 972T223 731Q223 605 271 491T410 287Q500 196 614 148T854 100Q979 100 1094 148T1303 289Q1392 377 1438 489T1485 731Q1485 860 1438 974T1303 1178Q1212 1268 1098 1315T854 1362ZM852 1470Q1004 1470 1138 1415T1378 1253Q1483 1148 1538 1015T1593 731Q1593 578 1539 445T1380 211Q1272 104 1136 47T852 -10Q706 -10 572 46T332 209Q225 315 169 449T113 731Q113 876 170 1011T334 1255Q439 1362 569 1416T852 1470Z"  />
<glyph unicode="&#xAA;" horiz-adv-x="952" d="M805 946H905V807H627V879Q582 836 525 814T403 791Q245 791 143 889T41 1141Q41 1290 144 1390T403 1491Q466 1491 522 1469T627 1403V1475H905V1335H805V946ZM221 1139Q221 1051 278 996T428 940Q515 940 574 996T633 1139Q633 1226 574 1282T428 1339Q335 1339 278 1284T221 1139Z"  />
<glyph unicode="&#xAB;" horiz-adv-x="1108" d="M1026 788L764 475L1026 164H795L537 475L795 788H1026ZM592 788L330 475L592 164H362L104 475L362 788H592Z"  />
<glyph unicode="&#xAC;" horiz-adv-x="1706" d="M254 862H1452V360H1286V696H254V862Z"  />
<glyph unicode="&#xAD;" horiz-adv-x="631" d="M61 371V582H569V371H61Z"  />
<glyph unicode="&#xAE;" horiz-adv-x="1706" d="M729 1047V786H846Q946 786 992 816T1038 913Q1038 982 990 1014T838 1047H729ZM551 1159H870Q1043 1159 1132 1102T1221 934Q1221 843 1173 784T1036 705L1221 330H1022L858 676H729V330H551V1159ZM854 1362Q725 1362 614 1317T414 1182Q322 1088 273 972T223 731Q223 606 270 493T406 289Q496 198 610 149T844 100Q974 100 1090 147T1300 285Q1389 371 1437 483T1485 721Q1485 854 1440 968T1305 1174Q1212 1266 1098 1314T854 1362ZM852 1470Q1005 1470 1140 1414T1382 1249Q1485 1145 1539 1013T1593 731Q1593 578 1538 444T1376 207Q1268 102 1133 46T852 -10Q705 -10 570 47T328 213Q223 319 168 452T113 731Q113 878 170 1015T336 1260Q440 1364 570 1417T852 1470Z"  />
<glyph unicode="&#xAF;" horiz-adv-x="1024" d="M236 1176V1323H788V1176H236Z"  />
<glyph unicode="&#xB0;" horiz-adv-x="674" d="M338 1350Q261 1350 207 1296T152 1165Q152 1089 206 1034T338 979Q415 979 468 1033T522 1165Q522 1242 469 1296T338 1350ZM338 1460Q459 1460 546 1373T633 1163Q633 1042 546 955T336 868Q213 868 128 953T43 1163Q43 1288 129 1374T338 1460Z"  />
<glyph unicode="&#xB1;" horiz-adv-x="1706" d="M254 182H1452V14H254V182ZM768 1206H938V872H1452V707H938V373H768V707H254V872H768V1206Z"  />
<glyph unicode="&#xB2;" horiz-adv-x="723" d="M518 827H674V575H57V694L365 1004Q438 1079 469 1129T500 1221Q500 1270 466 1297T369 1325Q289 1325 255 1279T221 1120V1096H66Q64 1105 64 1113T63 1139Q63 1298 139 1376T371 1454Q507 1454 586 1390T666 1219Q666 1152 628 1089T477 924L240 705H518V827Z"  />
<glyph unicode="&#xB3;" horiz-adv-x="723" d="M215 878Q217 783 253 738T365 692Q425 692 465 731T506 827Q506 892 460 929T332 967H317V1073Q322 1073 329 1072T340 1071Q414 1071 453 1105T492 1206Q492 1261 458 1292T367 1323Q290 1323 258 1278T225 1122V1114H66Q66 1119 65 1133T63 1157Q63 1299 141 1377T360 1456Q496 1456 574 1390T653 1210Q653 1138 618 1090T518 1024Q588 1009 628 957T668 829Q668 704 587 632T365 559Q212 559 133 632T53 848V879L215 878Z"  />
<glyph unicode="&#xB4;" horiz-adv-x="1024" d="M365 1087L569 1436H791L496 1087H365Z"  />
<glyph unicode="&#xB5;" horiz-adv-x="1208" d="M205 1081H434L309 446Q303 417 300 391T297 342Q297 246 343 196T479 145Q601 145 672 233T784 526L893 1081H1118L973 342Q963 293 959 261T954 209Q954 173 969 158T1022 143Q1035 143 1042 143T1056 145L1024 -14Q992 -23 956 -27T874 -31Q800 -31 763 0T725 94V109Q684 42 617 5T471 -33Q390 -33 334 -7T236 76L137 -430H-92L205 1081Z"  />
<glyph unicode="&#xB6;" horiz-adv-x="1024" d="M969 1479V1380H852V0H723V1380H555V0H424V784Q256 790 156 885T55 1130Q55 1288 162 1383T446 1479H969Z"  />
<glyph unicode="&#xB7;" horiz-adv-x="547" d="M274 551Q195 551 143 603T90 733Q90 811 142 862T274 913Q351 913 404 861T457 733Q457 657 404 604T274 551Z"  />
<glyph unicode="&#xB8;" horiz-adv-x="1024" d="M287 -434V-315Q369 -337 433 -347T543 -358Q596 -358 623 -339T651 -283Q651 -241 617 -222T508 -203Q502 -203 488 -204T467 -205V0H557V-94H573Q693 -94 751 -141T809 -287Q809 -378 744 -427T559 -477Q505 -477 435 -466T287 -434Z"  />
<glyph unicode="&#xB9;" horiz-adv-x="723" d="M174 575V694H285V1317H182V1438H449V694H559V575H174Z"  />
<glyph unicode="&#xBA;" horiz-adv-x="868" d="M223 1141Q223 1052 283 994T434 936Q523 936 583 994T643 1141Q643 1231 584 1289T434 1348Q344 1348 284 1289T223 1141ZM39 1141Q39 1289 152 1390T434 1491Q603 1491 715 1391T827 1141Q827 993 715 893T434 793Q265 793 152 893T39 1141Z"  />
<glyph unicode="&#xBB;" horiz-adv-x="1108" d="M514 788H745L1004 475L745 164H514L776 475L514 788ZM80 788H311L569 475L311 164H80L344 475L80 788Z"  />
<glyph unicode="&#xBC;" horiz-adv-x="1722" d="M1223 293H1438V492Q1438 522 1442 563T1454 651L1223 293ZM1311 0V102H1438V193H1085V295L1436 805H1585V293H1694V193H1585V102H1694V0H1311ZM348 -29L1227 1464H1372L492 -29H348ZM166 633V743H272V1325H174V1438H428V743H532V633H166Z"  />
<glyph unicode="&#xBD;" horiz-adv-x="1722" d="M1528 236H1675V0H1085V111L1380 399Q1450 469 1479 516T1509 602Q1509 649 1476 674T1382 700Q1308 700 1276 657T1243 510V485H1094V524Q1094 674 1166 746T1386 819Q1515 819 1591 760T1667 600Q1667 538 1632 481T1487 324L1262 121H1528V236ZM348 -29L1227 1464H1372L492 -29H348ZM166 633V743H272V1325H174V1438H428V743H532V633H166Z"  />
<glyph unicode="&#xBE;" horiz-adv-x="1722" d="M1223 293H1438V492Q1438 522 1442 563T1454 651L1223 293ZM1311 0V102H1438V193H1085V295L1436 805H1585V293H1694V193H1585V102H1694V0H1311ZM348 -29L1227 1464H1372L492 -29H348ZM205 915Q206 827 240 784T346 741Q405 741 444 778T483 868Q483 928 439 962T317 997H303V1098Q307 1098 314 1097T324 1096Q394 1096 431 1128T469 1223Q469 1273 437 1302T350 1331Q276 1331 246 1289T215 1143V1135H61V1176Q61 1308 135 1381T344 1454Q473 1454 548 1392T623 1225Q623 1157 590 1113T496 1051Q562 1037 599 989T637 868Q637 752 560 685T346 618Q200 618 126 686T51 887V915H205Z"  />
<glyph unicode="&#xBF;" horiz-adv-x="1219" d="M1047 408Q1028 198 914 87T604 -25Q406 -25 288 85T170 379Q170 534 258 638T506 776V1034H743V598H698Q559 598 485 539T410 371Q410 286 464 236T610 186Q702 186 757 245T817 407L1047 408ZM633 1503Q712 1503 763 1452T815 1321Q815 1243 764 1192T633 1141Q556 1141 503 1193T449 1321Q449 1397 502 1450T633 1503Z"  />
<glyph unicode="&#xC0;" horiz-adv-x="1403" d="M518 678H852L686 1178L518 678ZM365 205H522V0H-6V205H111L483 1270H324V1475H1079V1270H909L1274 205H1409V0H850V205H1008L918 473H455L365 205ZM849 1613H718L423 1962H645L849 1613Z"  />
<glyph unicode="&#xC1;" horiz-adv-x="1403" d="M518 678H852L686 1178L518 678ZM365 205H522V0H-6V205H111L483 1270H324V1475H1079V1270H909L1274 205H1409V0H850V205H1008L918 473H455L365 205ZM555 1613L759 1962H981L686 1613H555Z"  />
<glyph unicode="&#xC2;" horiz-adv-x="1403" d="M518 678H852L686 1178L518 678ZM365 205H522V0H-6V205H111L483 1270H324V1475H1079V1270H909L1274 205H1409V0H850V205H1008L918 473H455L365 205ZM405 1611L593 1962H811L999 1611H868L702 1822L534 1611H405Z"  />
<glyph unicode="&#xC3;" horiz-adv-x="1403" d="M518 678H852L686 1178L518 678ZM365 205H522V0H-6V205H111L483 1270H324V1475H1079V1270H909L1274 205H1409V0H850V205H1008L918 473H455L365 205ZM1003 1898Q979 1780 932 1726T804 1671Q788 1671 771 1673T735 1681L650 1706Q631 1711 616 1713T587 1716Q554 1716 533 1700T501 1648H401Q421 1759 468 1813T593 1867Q616 1867 637 1864T677 1855L765 1831Q785 1826 796 1824T817 1822Q848 1822 871 1842T903 1898H1003Z"  />
<glyph unicode="&#xC4;" horiz-adv-x="1403" d="M518 678H852L686 1178L518 678ZM365 205H522V0H-6V205H111L483 1270H324V1475H1079V1270H909L1274 205H1409V0H850V205H1008L918 473H455L365 205ZM770 1661V1890H974V1661H770ZM430 1661V1890H634V1661H430Z"  />
<glyph unicode="&#xC5;" horiz-adv-x="1403" d="M610 1751Q610 1713 637 1686T702 1659Q741 1659 769 1686T797 1751Q797 1789 769 1817T702 1845Q664 1845 637 1818T610 1751ZM481 1751Q481 1843 545 1907T702 1972Q793 1972 857 1908T922 1751Q922 1660 858 1596T702 1532Q610 1532 546 1595T481 1751ZM518 678H854L686 1178L518 678ZM365 205H522V0H-6V205H111L483 1270H324V1475H1079V1270H920L1274 205H1409V0H850V205H1008L915 473H455L365 205Z"  />
<glyph unicode="&#xC6;" horiz-adv-x="2052" d="M1946 1475V1073H1716V1268H1247V899H1640V678H1247V205H1710V436H1946V0H825V205H981V473H506L373 205H522V0H-6V205H111L653 1270H479V1475H1946ZM606 674H981V1286H909L606 674Z"  />
<glyph unicode="&#xC7;" horiz-adv-x="1554" d="M1212 983Q1168 1115 1070 1186T834 1257Q612 1257 476 1114T340 737Q340 504 476 362T834 219Q972 219 1066 281T1229 479H1485Q1425 246 1249 109T834 -29Q501 -29 284 189T66 737Q66 1074 278 1288T817 1503Q948 1503 1051 1464T1217 1352L1212 1475H1432V983H1212ZM592 -434V-315Q674 -337 738 -347T848 -358Q901 -358 928 -339T956 -283Q956 -241 922 -222T813 -203Q807 -203 793 -204T772 -205V0H862V-94H878Q998 -94 1056 -141T1114 -287Q1114 -378 1049 -427T864 -477Q810 -477 740 -466T592 -434Z"  />
<glyph unicode="&#xC8;" horiz-adv-x="1280" d="M51 0V205H209V1270H51V1475H1174V1073H944V1268H473V899H868V678H473V205H936V436H1174V0H51ZM788 1613H657L362 1962H584L788 1613Z"  />
<glyph unicode="&#xC9;" horiz-adv-x="1280" d="M51 0V205H209V1270H51V1475H1174V1073H944V1268H473V899H868V678H473V205H936V436H1174V0H51ZM494 1613L698 1962H920L625 1613H494Z"  />
<glyph unicode="&#xCA;" horiz-adv-x="1280" d="M51 0V205H209V1270H51V1475H1174V1073H944V1268H473V899H868V678H473V205H936V436H1174V0H51ZM344 1611L532 1962H750L938 1611H807L641 1822L473 1611H344Z"  />
<glyph unicode="&#xCB;" horiz-adv-x="1280" d="M51 0V205H209V1270H51V1475H1174V1073H944V1268H473V899H868V678H473V205H936V436H1174V0H51ZM709 1661V1890H913V1661H709ZM369 1661V1890H573V1661H369Z"  />
<glyph unicode="&#xCC;" horiz-adv-x="682" d="M473 205H631V0H51V205H209V1270H51V1475H631V1270H473V205ZM490 1613H359L64 1962H286L490 1613Z"  />
<glyph unicode="&#xCD;" horiz-adv-x="682" d="M473 205H631V0H51V205H209V1270H51V1475H631V1270H473V205ZM196 1613L400 1962H622L327 1613H196Z"  />
<glyph unicode="&#xCE;" horiz-adv-x="682" d="M473 205H631V0H51V205H209V1270H51V1475H631V1270H473V205ZM46 1611L234 1962H452L640 1611H509L343 1822L175 1611H46Z"  />
<glyph unicode="&#xCF;" horiz-adv-x="682" d="M473 205H631V0H51V205H209V1270H51V1475H631V1270H473V205ZM411 1661V1890H615V1661H411ZM71 1661V1890H275V1661H71Z"  />
<glyph unicode="&#xD0;" horiz-adv-x="1542" d="M653 1475Q1058 1475 1269 1286T1481 737Q1481 378 1270 189T653 0H61V205H217V668H2V872H217V1270H61V1475H653ZM483 668V205H659Q928 205 1067 340T1206 737Q1206 999 1067 1134T659 1270H483V872H842V668H483Z"  />
<glyph unicode="&#xD1;" horiz-adv-x="1489" d="M461 205H616V0H51V205H209V1270H51V1475H502L1028 512V1270H870V1475H1436V1270H1278V-29H1055L461 1087V205ZM1046 1898Q1022 1780 975 1726T847 1671Q831 1671 814 1673T778 1681L693 1706Q674 1711 659 1713T630 1716Q597 1716 576 1700T544 1648H444Q464 1759 511 1813T636 1867Q659 1867 680 1864T720 1855L808 1831Q828 1826 839 1824T860 1822Q891 1822 914 1842T946 1898H1046Z"  />
<glyph unicode="&#xD2;" horiz-adv-x="1669" d="M61 737Q61 1063 281 1283T834 1503Q987 1503 1116 1457T1350 1317Q1476 1204 1542 1057T1608 737Q1608 588 1556 454T1405 213Q1294 93 1150 32T834 -29Q504 -29 283 192T61 737ZM342 737Q342 514 482 368T834 221Q1045 221 1186 367T1327 737Q1327 961 1186 1107T834 1253Q625 1253 484 1107T342 737ZM983 1613H852L557 1962H779L983 1613Z"  />
<glyph unicode="&#xD3;" horiz-adv-x="1669" d="M61 737Q61 1063 281 1283T834 1503Q987 1503 1116 1457T1350 1317Q1476 1204 1542 1057T1608 737Q1608 588 1556 454T1405 213Q1294 93 1150 32T834 -29Q504 -29 283 192T61 737ZM342 737Q342 514 482 368T834 221Q1045 221 1186 367T1327 737Q1327 961 1186 1107T834 1253Q625 1253 484 1107T342 737ZM689 1613L893 1962H1115L820 1613H689Z"  />
<glyph unicode="&#xD4;" horiz-adv-x="1669" d="M61 737Q61 1063 281 1283T834 1503Q987 1503 1116 1457T1350 1317Q1476 1204 1542 1057T1608 737Q1608 588 1556 454T1405 213Q1294 93 1150 32T834 -29Q504 -29 283 192T61 737ZM342 737Q342 514 482 368T834 221Q1045 221 1186 367T1327 737Q1327 961 1186 1107T834 1253Q625 1253 484 1107T342 737ZM539 1611L727 1962H945L1133 1611H1002L836 1822L668 1611H539Z"  />
<glyph unicode="&#xD5;" horiz-adv-x="1669" d="M61 737Q61 1063 281 1283T834 1503Q987 1503 1116 1457T1350 1317Q1476 1204 1542 1057T1608 737Q1608 588 1556 454T1405 213Q1294 93 1150 32T834 -29Q504 -29 283 192T61 737ZM342 737Q342 514 482 368T834 221Q1045 221 1186 367T1327 737Q1327 961 1186 1107T834 1253Q625 1253 484 1107T342 737ZM1137 1898Q1113 1780 1066 1726T938 1671Q922 1671 905 1673T869 1681L784 1706Q765 1711 750 1713T721 1716Q688 1716 667 1700T635 1648H535Q555 1759 602 1813T727 1867Q750 1867 771 1864T811 1855L899 1831Q919 1826 930 1824T951 1822Q982 1822 1005 1842T1037 1898H1137Z"  />
<glyph unicode="&#xD6;" horiz-adv-x="1669" d="M61 737Q61 1063 281 1283T834 1503Q987 1503 1116 1457T1350 1317Q1476 1204 1542 1057T1608 737Q1608 588 1556 454T1405 213Q1294 93 1150 32T834 -29Q504 -29 283 192T61 737ZM342 737Q342 514 482 368T834 221Q1045 221 1186 367T1327 737Q1327 961 1186 1107T834 1253Q625 1253 484 1107T342 737ZM904 1661V1890H1108V1661H904ZM564 1661V1890H768V1661H564Z"  />
<glyph unicode="&#xD7;" horiz-adv-x="1706" d="M403 1188L862 729L1323 1188L1440 1071L981 610L1440 152L1323 33L862 494L403 33L287 152L745 610L287 1071L403 1188Z"  />
<glyph unicode="&#xD8;" horiz-adv-x="1669" d="M1090 1186Q1033 1220 973 1236T846 1253Q623 1253 478 1108T332 737Q332 638 362 550T455 383L1090 1186ZM1251 1389L1389 1565H1587L1372 1294Q1489 1179 1548 1039T1608 737Q1608 589 1556 455T1405 213Q1294 93 1150 32T834 -29Q717 -29 611 0T416 86L274 -94H78L293 180Q178 300 120 439T61 737Q61 1063 281 1283T834 1503Q955 1503 1061 1474T1251 1389ZM578 289Q641 254 704 238T834 221Q1049 221 1193 367T1337 737Q1337 840 1305 929T1210 1090L578 289Z"  />
<glyph unicode="&#xD9;" horiz-adv-x="1522" d="M500 537Q500 362 560 292T762 221Q902 221 962 292T1022 537V1270H866V1475H1444V1270H1288V567Q1288 407 1270 325T1210 176Q1146 74 1034 23T762 -29Q616 -29 509 14T332 143Q279 209 256 302T233 567V1270H78V1475H655V1270H500V537ZM909 1613H778L483 1962H705L909 1613Z"  />
<glyph unicode="&#xDA;" horiz-adv-x="1522" d="M500 537Q500 362 560 292T762 221Q902 221 962 292T1022 537V1270H866V1475H1444V1270H1288V567Q1288 407 1270 325T1210 176Q1146 74 1034 23T762 -29Q616 -29 509 14T332 143Q279 209 256 302T233 567V1270H78V1475H655V1270H500V537ZM615 1613L819 1962H1041L746 1613H615Z"  />
<glyph unicode="&#xDB;" horiz-adv-x="1522" d="M500 537Q500 362 560 292T762 221Q902 221 962 292T1022 537V1270H866V1475H1444V1270H1288V567Q1288 407 1270 325T1210 176Q1146 74 1034 23T762 -29Q616 -29 509 14T332 143Q279 209 256 302T233 567V1270H78V1475H655V1270H500V537ZM465 1611L653 1962H871L1059 1611H928L762 1822L594 1611H465Z"  />
<glyph unicode="&#xDC;" horiz-adv-x="1522" d="M500 537Q500 362 560 292T762 221Q902 221 962 292T1022 537V1270H866V1475H1444V1270H1288V567Q1288 407 1270 325T1210 176Q1146 74 1034 23T762 -29Q616 -29 509 14T332 143Q279 209 256 302T233 567V1270H78V1475H655V1270H500V537ZM830 1661V1890H1034V1661H830ZM490 1661V1890H694V1661H490Z"  />
<glyph unicode="&#xDD;" horiz-adv-x="1343" d="M797 205H977V0H350V205H530V680L143 1270H27V1475H565V1270H449L674 903L895 1270H762V1475H1298V1270H1180L797 680V205ZM525 1613L729 1962H951L656 1613H525Z"  />
<glyph unicode="&#xDE;" horiz-adv-x="1208" d="M555 983H473V494H555Q738 494 825 553T913 737Q913 862 825 922T555 983ZM664 205V0H51V205H209V1270H51V1475H631V1270H473V1169H555Q863 1169 1021 1060T1180 737Q1180 526 1021 416T555 305H473V205H664Z"  />
<glyph unicode="&#xDF;" horiz-adv-x="1208" d="M49 0V199H180V973Q180 1257 280 1375T612 1493Q809 1493 916 1399T1024 1130Q1024 1034 978 966T834 850Q992 801 1069 693T1147 414Q1147 216 1050 97T795 -23Q752 -23 712 -15T633 8L666 192Q687 189 702 188T729 186Q814 186 858 248T903 430Q903 584 837 660T637 737Q621 737 612 737T596 736V913Q693 924 745 979T797 1126Q797 1207 747 1257T612 1307Q505 1307 462 1242T418 981V199H530V0H49Z"  />
<glyph unicode="&#xE0;" horiz-adv-x="1270" d="M1073 199H1206V0H836V102Q776 41 700 9T537 -23Q325 -23 189 118T53 477Q53 689 191 833T537 977Q622 977 696 946T836 850V952H1206V754H1073V199ZM295 475Q295 349 371 270T569 190Q687 190 765 270T844 475Q844 599 765 680T569 762Q448 762 372 682T295 475ZM821 1087H690L395 1436H617L821 1087Z"  />
<glyph unicode="&#xE1;" horiz-adv-x="1270" d="M1073 199H1206V0H836V102Q776 41 700 9T537 -23Q325 -23 189 118T53 477Q53 689 191 833T537 977Q622 977 696 946T836 850V952H1206V754H1073V199ZM295 475Q295 349 371 270T569 190Q687 190 765 270T844 475Q844 599 765 680T569 762Q448 762 372 682T295 475ZM527 1087L731 1436H953L658 1087H527Z"  />
<glyph unicode="&#xE2;" horiz-adv-x="1270" d="M1073 199H1206V0H836V102Q776 41 700 9T537 -23Q325 -23 189 118T53 477Q53 689 191 833T537 977Q622 977 696 946T836 850V952H1206V754H1073V199ZM295 475Q295 349 371 270T569 190Q687 190 765 270T844 475Q844 599 765 680T569 762Q448 762 372 682T295 475ZM377 1085L565 1436H783L971 1085H840L674 1296L506 1085H377Z"  />
<glyph unicode="&#xE3;" horiz-adv-x="1270" d="M1073 199H1206V0H836V102Q776 41 700 9T537 -23Q325 -23 189 118T53 477Q53 689 191 833T537 977Q622 977 696 946T836 850V952H1206V754H1073V199ZM295 475Q295 349 371 270T569 190Q687 190 765 270T844 475Q844 599 765 680T569 762Q448 762 372 682T295 475ZM975 1372Q951 1254 904 1200T776 1145Q760 1145 743 1147T707 1155L622 1180Q603 1185 588 1187T559 1190Q526 1190 505 1174T473 1122H373Q393 1233 440 1287T565 1341Q588 1341 609 1338T649 1329L737 1305Q757 1300 768 1298T789 1296Q820 1296 843 1316T875 1372H975Z"  />
<glyph unicode="&#xE4;" horiz-adv-x="1270" d="M1073 199H1206V0H836V102Q776 41 700 9T537 -23Q325 -23 189 118T53 477Q53 689 191 833T537 977Q622 977 696 946T836 850V952H1206V754H1073V199ZM295 475Q295 349 371 270T569 190Q687 190 765 270T844 475Q844 599 765 680T569 762Q448 762 372 682T295 475ZM742 1135V1364H946V1135H742ZM402 1135V1364H606V1135H402Z"  />
<glyph unicode="&#xE5;" horiz-adv-x="1270" d="M522 1253Q522 1215 549 1188T614 1161Q653 1161 681 1188T709 1253Q709 1292 681 1320T614 1348Q576 1348 549 1320T522 1253ZM395 1253Q395 1346 459 1410T614 1475Q706 1475 771 1410T836 1253Q836 1163 771 1099T614 1034Q522 1034 459 1097T395 1253ZM295 475Q295 349 371 270T569 190Q687 190 765 270T844 475Q844 599 765 680T569 762Q448 762 372 682T295 475ZM1073 199H1206V0H836V102Q776 41 700 9T537 -23Q325 -23 189 118T53 477Q53 689 191 833T537 977Q622 977 696 946T836 850V952H1206V754H1073V199Z"  />
<glyph unicode="&#xE6;" horiz-adv-x="1810" d="M825 129Q738 50 642 13T426 -25Q247 -25 138 62T29 291Q29 434 146 524T446 614Q525 614 588 595T698 539Q698 545 699 558T700 575Q700 685 646 735T473 786Q394 786 325 773T195 733L115 899Q193 938 282 957T473 977Q600 977 696 941T862 829Q937 906 1021 940T1212 975Q1443 975 1582 826T1722 430V406H932Q944 296 1019 237T1221 178Q1300 178 1363 205T1460 281H1696Q1654 135 1528 55T1214 -25Q1086 -25 989 14T825 129ZM932 573H1485Q1456 672 1387 723T1212 774Q1104 774 1030 721T932 573ZM248 303Q248 239 307 200T467 160Q562 160 621 199T680 301Q680 362 621 403T469 444Q366 444 307 406T248 303Z"  />
<glyph unicode="&#xE7;" horiz-adv-x="1057" d="M1004 215Q913 97 800 36T557 -25Q339 -25 195 118T51 477Q51 694 186 836T524 979Q600 979 664 956T778 887V952H965V633H813Q750 712 689 744T541 776Q426 776 358 695T289 477Q289 351 365 267T555 182Q644 182 712 217T856 340L1004 215ZM320 -434V-315Q402 -337 466 -347T576 -358Q629 -358 656 -339T684 -283Q684 -241 650 -222T541 -203Q535 -203 521 -204T500 -205V0H590V-94H606Q726 -94 784 -141T842 -287Q842 -378 777 -427T592 -477Q538 -477 468 -466T320 -434Z"  />
<glyph unicode="&#xE8;" horiz-adv-x="1141" d="M297 573H850Q821 672 752 723T578 774Q470 774 396 721T297 573ZM1059 281Q1017 135 892 55T580 -25Q343 -25 198 113T53 475Q53 694 200 834T578 975Q807 975 946 827T1085 430V406H297Q309 296 384 237T586 178Q665 178 728 205T825 281H1059ZM731 1087H600L305 1436H527L731 1087Z"  />
<glyph unicode="&#xE9;" horiz-adv-x="1141" d="M297 573H850Q821 672 752 723T578 774Q470 774 396 721T297 573ZM1059 281Q1017 135 892 55T580 -25Q343 -25 198 113T53 475Q53 694 200 834T578 975Q807 975 946 827T1085 430V406H297Q309 296 384 237T586 178Q665 178 728 205T825 281H1059ZM437 1087L641 1436H863L568 1087H437Z"  />
<glyph unicode="&#xEA;" horiz-adv-x="1141" d="M297 573H850Q821 672 752 723T578 774Q470 774 396 721T297 573ZM1059 281Q1017 135 892 55T580 -25Q343 -25 198 113T53 475Q53 694 200 834T578 975Q807 975 946 827T1085 430V406H297Q309 296 384 237T586 178Q665 178 728 205T825 281H1059ZM287 1085L475 1436H693L881 1085H750L584 1296L416 1085H287Z"  />
<glyph unicode="&#xEB;" horiz-adv-x="1141" d="M297 573H850Q821 672 752 723T578 774Q470 774 396 721T297 573ZM1059 281Q1017 135 892 55T580 -25Q343 -25 198 113T53 475Q53 694 200 834T578 975Q807 975 946 827T1085 430V406H297Q309 296 384 237T586 178Q665 178 728 205T825 281H1059ZM652 1135V1364H856V1135H652ZM312 1135V1364H516V1135H312Z"  />
<glyph unicode="&#xEC;" horiz-adv-x="598" d="M428 199H565V0H45V199H190V754H47V952H428V199ZM416 1087H285L-10 1436H212L416 1087Z"  />
<glyph unicode="&#xED;" horiz-adv-x="598" d="M428 199H565V0H45V199H190V754H47V952H428V199ZM122 1087L326 1436H548L253 1087H122Z"  />
<glyph unicode="&#xEE;" horiz-adv-x="598" d="M428 199H565V0H45V199H190V754H47V952H428V199ZM-28 1085L160 1436H378L566 1085H435L269 1296L101 1085H-28Z"  />
<glyph unicode="&#xEF;" horiz-adv-x="598" d="M428 199H565V0H45V199H190V754H47V952H428V199ZM337 1135V1364H541V1135H337ZM-3 1135V1364H201V1135H-3Z"  />
<glyph unicode="&#xF0;" horiz-adv-x="1157" d="M653 955L520 1128L172 1061L135 1210L416 1266L266 1475H500L629 1311L926 1370L963 1221L735 1171L911 942Q1028 791 1068 692T1108 481Q1108 262 958 120T578 -23Q350 -23 200 118T49 469Q49 674 195 819T545 965Q565 965 591 963T653 955ZM578 772Q459 772 378 688T297 477Q297 351 377 268T578 184Q697 184 777 267T858 477Q858 605 778 688T578 772Z"  />
<glyph unicode="&#xF1;" horiz-adv-x="1225" d="M428 823Q513 904 593 940T764 977Q915 977 988 896T1061 645V199H1194V0H690V199H823V592Q823 668 785 709T674 750Q609 750 549 716T428 610V199H561V0H57V199H190V754H57V952H428V823ZM934 1372Q910 1254 863 1200T735 1145Q719 1145 702 1147T666 1155L581 1180Q562 1185 547 1187T518 1190Q485 1190 464 1174T432 1122H332Q352 1233 399 1287T524 1341Q547 1341 568 1338T608 1329L696 1305Q716 1300 727 1298T748 1296Q779 1296 802 1316T834 1372H934Z"  />
<glyph unicode="&#xF2;" horiz-adv-x="1157" d="M297 477Q297 352 378 268T578 184Q697 184 777 267T858 477Q858 606 778 689T578 772Q458 772 378 689T297 477ZM51 477Q51 689 202 833T578 977Q803 977 953 833T1104 477Q1104 266 954 123T578 -20Q353 -20 202 123T51 477ZM727 1087H596L301 1436H523L727 1087Z"  />
<glyph unicode="&#xF3;" horiz-adv-x="1157" d="M297 477Q297 352 378 268T578 184Q697 184 777 267T858 477Q858 606 778 689T578 772Q458 772 378 689T297 477ZM51 477Q51 689 202 833T578 977Q803 977 953 833T1104 477Q1104 266 954 123T578 -20Q353 -20 202 123T51 477ZM433 1087L637 1436H859L564 1087H433Z"  />
<glyph unicode="&#xF4;" horiz-adv-x="1157" d="M297 477Q297 352 378 268T578 184Q697 184 777 267T858 477Q858 606 778 689T578 772Q458 772 378 689T297 477ZM51 477Q51 689 202 833T578 977Q803 977 953 833T1104 477Q1104 266 954 123T578 -20Q353 -20 202 123T51 477ZM283 1085L471 1436H689L877 1085H746L580 1296L412 1085H283Z"  />
<glyph unicode="&#xF5;" horiz-adv-x="1157" d="M297 477Q297 352 378 268T578 184Q697 184 777 267T858 477Q858 606 778 689T578 772Q458 772 378 689T297 477ZM51 477Q51 689 202 833T578 977Q803 977 953 833T1104 477Q1104 266 954 123T578 -20Q353 -20 202 123T51 477ZM881 1372Q857 1254 810 1200T682 1145Q666 1145 649 1147T613 1155L528 1180Q509 1185 494 1187T465 1190Q432 1190 411 1174T379 1122H279Q299 1233 346 1287T471 1341Q494 1341 515 1338T555 1329L643 1305Q663 1300 674 1298T695 1296Q726 1296 749 1316T781 1372H881Z"  />
<glyph unicode="&#xF6;" horiz-adv-x="1157" d="M297 477Q297 352 378 268T578 184Q697 184 777 267T858 477Q858 606 778 689T578 772Q458 772 378 689T297 477ZM51 477Q51 689 202 833T578 977Q803 977 953 833T1104 477Q1104 266 954 123T578 -20Q353 -20 202 123T51 477ZM648 1135V1364H852V1135H648ZM308 1135V1364H512V1135H308Z"  />
<glyph unicode="&#xF7;" horiz-adv-x="1706" d="M854 367Q911 367 951 327T991 229Q991 173 952 134T854 94Q796 94 757 133T717 229Q717 286 757 326T854 367ZM254 694H1452V528H254V694ZM854 1128Q911 1128 951 1087T991 989Q991 933 952 894T854 854Q796 854 757 893T717 989Q717 1046 757 1087T854 1128Z"  />
<glyph unicode="&#xF8;" horiz-adv-x="1139" d="M6 -147L211 115Q137 187 98 280T59 477Q59 689 205 833T569 977Q645 977 711 960T831 909L985 1102H1139L928 836Q1004 758 1041 669T1079 477Q1079 265 934 123T569 -20Q491 -20 422 -4T307 43L160 -147H6ZM356 293L702 731Q682 750 648 760T569 770Q455 770 379 688T303 477Q303 429 316 385T356 293ZM780 659L434 219Q471 202 504 193T569 184Q683 184 758 267T834 477Q834 529 821 572T780 659Z"  />
<glyph unicode="&#xF9;" horiz-adv-x="1219" d="M799 129Q714 49 633 12T461 -25Q310 -25 238 56T166 307V754H33V952H403V360Q403 284 442 244T553 203Q617 203 678 237T799 342V754H666V952H1036V199H1167V0H799V129ZM733 1087H602L307 1436H529L733 1087Z"  />
<glyph unicode="&#xFA;" horiz-adv-x="1219" d="M799 129Q714 49 633 12T461 -25Q310 -25 238 56T166 307V754H33V952H403V360Q403 284 442 244T553 203Q617 203 678 237T799 342V754H666V952H1036V199H1167V0H799V129ZM439 1087L643 1436H865L570 1087H439Z"  />
<glyph unicode="&#xFB;" horiz-adv-x="1219" d="M799 129Q714 49 633 12T461 -25Q310 -25 238 56T166 307V754H33V952H403V360Q403 284 442 244T553 203Q617 203 678 237T799 342V754H666V952H1036V199H1167V0H799V129ZM289 1085L477 1436H695L883 1085H752L586 1296L418 1085H289Z"  />
<glyph unicode="&#xFC;" horiz-adv-x="1219" d="M799 129Q714 49 633 12T461 -25Q310 -25 238 56T166 307V754H33V952H403V360Q403 284 442 244T553 203Q617 203 678 237T799 342V754H666V952H1036V199H1167V0H799V129ZM654 1135V1364H858V1135H654ZM314 1135V1364H518V1135H314Z"  />
<glyph unicode="&#xFD;" horiz-adv-x="1161" d="M711 -426H176V-227H326L451 25L133 754H14V952H500V754H373L578 264L791 754H668V952H1145V754H1028L561 -227H711V-426ZM435 1087L639 1436H861L566 1087H435Z"  />
<glyph unicode="&#xFE;" horiz-adv-x="1266" d="M694 762Q577 762 499 681T420 475Q420 352 498 271T694 190Q812 190 890 270T969 475Q969 599 890 680T694 762ZM57 -227H190V1276H57V1475H428V850Q494 914 567 945T727 977Q934 977 1072 833T1210 477Q1210 258 1075 118T727 -23Q645 -23 569 6T428 90V-227H569V-426H57V-227Z"  />
<glyph unicode="&#xFF;" horiz-adv-x="1161" d="M711 -426H176V-227H326L451 25L133 754H14V952H500V754H373L578 264L791 754H668V952H1145V754H1028L561 -227H711V-426ZM650 1135V1364H854V1135H650ZM310 1135V1364H514V1135H310Z"  />
<glyph unicode="&#x131;" horiz-adv-x="598" d="M428 199H565V0H45V199H190V754H47V952H428V199Z"  />
<glyph unicode="&#x152;" horiz-adv-x="2095" d="M1024 403V1159Q1024 1225 986 1248T836 1272Q597 1272 466 1132T334 739Q334 495 472 350T842 205Q950 205 987 241T1024 403ZM948 0Q728 0 615 22T410 94Q246 184 154 354T61 737Q61 953 151 1118T412 1378Q504 1430 623 1452T946 1475H1989V1073H1759V1268H1290V899H1683V678H1290V205H1753V436H1989V0H948Z"  />
<glyph unicode="&#x153;" horiz-adv-x="1970" d="M1090 573H1642Q1613 672 1544 723T1370 774Q1262 774 1188 721T1090 573ZM1851 281Q1809 134 1685 55T1372 -25Q1248 -25 1152 23T973 176Q896 75 800 28T578 -20Q356 -20 208 123T59 477Q59 688 207 831T578 975Q715 975 812 924T973 766Q1042 870 1141 922T1370 975Q1600 975 1739 827T1878 430V406H1090Q1102 296 1176 237T1378 178Q1458 178 1520 205T1618 281H1851ZM307 477Q307 350 384 267T578 184Q693 184 769 267T846 477Q846 605 770 687T578 770Q461 770 384 688T307 477Z"  />
<glyph unicode="&#x160;" horiz-adv-x="1282" d="M354 125V0H141V500H354Q396 341 484 259T705 176Q806 176 875 240T944 397Q944 481 885 534T684 627L516 674Q314 730 223 827T131 1081Q131 1261 258 1382T575 1503Q677 1503 764 1471T913 1378V1475H1118V1036H913Q878 1167 804 1231T616 1296Q520 1296 460 1244T399 1110Q399 1041 437 1001T573 932L752 881Q999 809 1099 706T1200 428Q1200 221 1075 96T741 -29Q623 -29 525 10T354 125ZM344 1962H473L641 1751L807 1962H938L750 1611H532L344 1962Z"  />
<glyph unicode="&#x161;" horiz-adv-x="1053" d="M289 0H111V332H297Q333 244 407 198T588 152Q652 152 691 183T731 264Q731 306 701 328T565 371L408 397Q251 425 176 495T100 684Q100 817 194 897T446 977Q532 977 599 954T713 887L715 952H893V651H700Q675 727 617 767T475 807Q407 807 367 779T326 707Q326 624 510 590Q519 589 524 588L633 569Q803 538 884 466T965 274Q965 144 865 60T602 -25Q520 -25 444 -2T291 70L289 0ZM229 1436H358L526 1225L692 1436H823L635 1085H417L229 1436Z"  />
<glyph unicode="&#x178;" horiz-adv-x="1343" d="M797 205H977V0H350V205H530V680L143 1270H27V1475H565V1270H449L674 903L895 1270H762V1475H1298V1270H1180L797 680V205ZM740 1661V1890H944V1661H740ZM400 1661V1890H604V1661H400Z"  />
<glyph unicode="&#x17D;" horiz-adv-x="1329" d="M956 201V446H1198V0H121V188L877 1268H391V1067H150V1470H1198V1290L438 201H956ZM369 1962H498L666 1751L832 1962H963L775 1611H557L369 1962Z"  />
<glyph unicode="&#x17E;" horiz-adv-x="1008" d="M934 0H74V199L618 754H307V627H102V952H911V754L369 199H731V340H934V0ZM208 1436H337L505 1225L671 1436H802L614 1085H396L208 1436Z"  />
<glyph unicode="&#x192;" horiz-adv-x="1096" d="M2 -184Q42 -197 76 -203T139 -209Q295 -209 368 368L375 422L410 690H199V881H438L467 1061Q499 1264 590 1364T834 1464Q887 1464 939 1455T1028 1427L975 1258Q942 1267 916 1271T868 1276Q788 1276 747 1221T680 1008L659 881H860V690H631L606 494Q580 285 556 140T508 -88Q461 -250 372 -322T131 -395Q84 -395 40 -388T-47 -365L2 -184Z"  />
<glyph unicode="&#x2C6;" horiz-adv-x="1024" d="M215 1085L403 1436H621L809 1085H678L512 1296L344 1085H215Z"  />
<glyph unicode="&#x2C7;" horiz-adv-x="1024" d="M215 1436H344L512 1225L678 1436H809L621 1085H403L215 1436Z"  />
<glyph unicode="&#x2DC;" horiz-adv-x="1024" d="M813 1372Q789 1254 742 1200T614 1145Q598 1145 581 1147T545 1155L460 1180Q441 1185 426 1187T397 1190Q364 1190 343 1174T311 1122H211Q231 1233 278 1287T403 1341Q426 1341 447 1338T487 1329L575 1305Q595 1300 606 1298T627 1296Q658 1296 681 1316T713 1372H813Z"  />
<glyph unicode="&#x2013;" horiz-adv-x="1024" d="M0 397V555H1024V397H0Z"  />
<glyph unicode="&#x2014;" horiz-adv-x="2048" d="M0 555H2048V397H0V555Z"  />
<glyph unicode="&#x2018;" horiz-adv-x="461" d="M166 1475H424L281 1049H35L166 1475Z"  />
<glyph unicode="&#x2019;" horiz-adv-x="461" d="M166 1475H424L281 1049H35L166 1475Z"  />
<glyph unicode="&#x201A;" horiz-adv-x="461" d="M166 240H424L281 -186H35L166 240Z"  />
<glyph unicode="&#x201C;" horiz-adv-x="907" d="M164 1475H422L279 1049H33L164 1475ZM612 1475H870L727 1049H481L612 1475Z"  />
<glyph unicode="&#x201D;" horiz-adv-x="907" d="M612 1475H872L727 1049H481L612 1475ZM166 1475H424L281 1049H35L166 1475Z"  />
<glyph unicode="&#x201E;" horiz-adv-x="907" d="M166 240H424L281 -186H35L166 240ZM612 240H872L727 -186H481L612 240Z"  />
<glyph unicode="&#x2020;" horiz-adv-x="1139" d="M463 -240V774H287V672H102V1069H287V967H463V1284H360V1475H778V1284H676V967H848V1069H1036V672H848V774H676V-240H463Z"  />
<glyph unicode="&#x2021;" horiz-adv-x="1024" d="M616 358H803V461H991V74H803V176H616V-49H719V-240H305V-49H408V176H221V74H33V461H221V358H408V877H221V774H33V1161H221V1059H408V1284H305V1475H719V1284H616V1059H803V1161H991V774H803V877H616V358Z"  />
<glyph unicode="&#x2022;" horiz-adv-x="1208" d="M307 762Q307 885 394 971T604 1057Q726 1057 812 971T899 762Q899 640 812 553T602 465Q479 465 393 552T307 762Z"  />
<glyph unicode="&#x2026;" horiz-adv-x="2048" d="M342 -25Q263 -25 211 27T158 158Q158 235 210 286T342 338Q419 338 472 286T525 158Q525 82 472 29T342 -25ZM1024 -25Q945 -25 893 27T840 158Q840 235 892 286T1024 338Q1101 338 1154 286T1207 158Q1207 82 1154 29T1024 -25ZM1708 -25Q1629 -25 1577 27T1524 158Q1524 235 1576 286T1708 338Q1785 338 1838 286T1891 158Q1891 82 1838 29T1708 -25Z"  />
<glyph unicode="&#x2030;" horiz-adv-x="2664" d="M2232 197Q2302 197 2349 244T2396 362Q2396 433 2349 480T2232 528Q2164 528 2116 480T2068 362Q2068 293 2116 245T2232 197ZM2595 362Q2595 211 2489 106T2232 0Q2083 0 1977 106T1870 362Q1870 514 1975 618T2232 723Q2384 723 2489 619T2595 362ZM1384 197Q1454 197 1501 244T1548 362Q1548 433 1501 480T1384 528Q1316 528 1269 480T1221 362Q1221 293 1268 245T1384 197ZM1747 362Q1747 211 1641 106T1384 0Q1235 0 1129 106T1022 362Q1022 514 1127 618T1384 723Q1537 723 1642 619T1747 362ZM1262 1464H1405L553 -29H410L1262 1464ZM432 909Q502 909 549 957T596 1075Q596 1146 549 1193T432 1241Q363 1241 315 1193T266 1075Q266 1006 314 958T432 909ZM793 1075Q793 924 687 819T430 713Q281 713 176 818T70 1075Q70 1227 174 1331T430 1436Q582 1436 687 1332T793 1075Z"  />
<glyph unicode="&#x2039;" horiz-adv-x="674" d="M592 788L330 475L592 164H362L104 475L362 788H592Z"  />
<glyph unicode="&#x203A;" horiz-adv-x="674" d="M80 788H311L569 475L311 164H80L344 475L80 788Z"  />
<glyph unicode="&#x2122;" horiz-adv-x="1706" d="M809 1460H979L1120 1100L1253 1460H1423V918H1309V1346L1149 918H1090L924 1346V918H809V1460ZM225 1460H692V1366H524V918H395V1366H225V1460Z"  />

</font>
</defs>
</svg>
