<?xml  version="1.0" encoding="UTF-8"?>
<!DOCTYPE svg PUBLIC "-//W3C//DTD SVG 1.0//EN" "http://www.w3.org/TR/2001/REC-SVG-20010904/DTD/svg10.dtd" >
<svg xmlns="http://www.w3.org/2000/svg" >
<metadata>
<version>1.0</version>
<id><![CDATA[Geom Slab 703 W01 Light]]></id>
<vendor>Monotype Imaging Inc.</vendor>
<credits>
<name>Fonts.com WebFonts</name>
<URL>http://webfonts.fonts.com</URL>
<role>Home of the Web fonts</role>
</credits>
<license>
<URL>http://webfonts.fonts.com/Legal</URL>
</license>
<copyright><![CDATA[Copyright 1990-2003 Bitstream Inc. All rights reserved.]]></copyright>
<trademark></trademark>
<licensee>
<name></name>
</licensee>
</metadata>
<defs >
<font horiz-adv-x="1141" id="fa7ffc34-3a05-43fc-b5ea-fcb61b437e83">
<font-face font-family="" panose-1="2 6 4 3 2 2 5 2 4 3" ascent="1972" descent="-483" units-per-em="2048" alphabetic="0">
</font-face>
<missing-glyph horiz-adv-x="524" />

<glyph unicode="&#xA;" horiz-adv-x="0" />
<glyph unicode="&#xD;" horiz-adv-x="1048" />
<glyph unicode=" " horiz-adv-x="524" />
<glyph unicode="!" horiz-adv-x="524" d="M217 322L197 1475H326L307 322H217ZM262 -25Q216 -25 185 5T154 82Q154 128 185 159T262 190Q309 190 340 160T371 82Q371 36 340 6T262 -25Z"  />
<glyph unicode="&quot;" horiz-adv-x="551" d="M451 1434V881H365V1434H451ZM186 1434V881H100V1434H186Z"  />
<glyph unicode="#" horiz-adv-x="1575" d="M979 866H709L610 584H879L979 866ZM915 1454L741 956H1012L1188 1454H1298L1124 956H1446L1415 866H1092L991 584H1339L1309 494H958L784 0H672L848 494H578L399 0H289L463 494H129L160 584H496L596 866H236L264 956H629L805 1454H915Z"  />
<glyph unicode="$" horiz-adv-x="1049" d="M564 86Q701 88 794 170T887 369Q887 485 806 562T563 676L564 86ZM481 -8Q379 9 298 70T156 240L158 0H70V489H156Q198 311 282 209T481 92V696Q290 736 196 826T102 1061Q102 1211 206 1305T481 1403V1503H563V1401Q651 1381 719 1336T831 1223L829 1399H918V1018H838Q806 1132 738 1203T563 1305V784Q779 738 885 635T991 369Q991 210 871 103T564 -8L563 -178H481V-8ZM481 803V1313Q356 1309 282 1242T207 1065Q207 963 277 896T481 803Z"  />
<glyph unicode="%" horiz-adv-x="1671" d="M1266 1464H1366L408 -29H309L1266 1464ZM403 870Q501 870 568 937T635 1104Q635 1204 569 1270T403 1337Q306 1337 239 1270T172 1104Q172 1005 239 938T403 870ZM735 1104Q735 964 639 868T403 772Q263 772 168 867T72 1104Q72 1245 167 1340T403 1436Q543 1436 639 1340T735 1104ZM1268 98Q1365 98 1432 165T1499 332Q1499 432 1433 498T1268 565Q1170 565 1103 498T1036 332Q1036 233 1103 166T1268 98ZM1599 332Q1599 192 1503 96T1268 0Q1127 0 1032 95T936 332Q936 472 1031 568T1268 664Q1407 664 1503 568T1599 332Z"  />
<glyph unicode="&amp;" horiz-adv-x="1335" d="M823 315L477 711Q317 564 261 481T205 322Q205 219 272 150T438 80Q534 80 632 140T823 315ZM492 848Q600 956 647 1041T694 1210Q694 1300 649 1351T524 1403Q432 1403 383 1351T334 1198Q334 1111 373 1024T492 848ZM406 782Q310 890 264 993T217 1200Q217 1341 297 1422T514 1503Q651 1503 730 1423T809 1204Q809 1100 751 1000T561 780L895 412Q961 495 1008 590T1081 791H958V891H1329V791H1194Q1162 663 1106 548T967 324L1174 100H1329V0H1116L897 238Q781 105 665 38T434 -29Q283 -29 184 68T84 311Q84 421 157 529T406 782Z"  />
<glyph unicode="&apos;" horiz-adv-x="285" d="M186 1434V881H100V1434H186Z"  />
<glyph unicode="(" horiz-adv-x="631" d="M539 1438Q395 1240 325 1043T254 641Q254 437 324 240T539 -156L455 -219Q300 -22 221 196T141 641Q141 868 221 1087T455 1503L539 1438Z"  />
<glyph unicode=")" horiz-adv-x="631" d="M92 1438L176 1503Q330 1306 409 1087T489 641Q489 414 410 196T176 -219L92 -156Q236 44 306 242T377 641Q377 842 307 1040T92 1438Z"  />
<glyph unicode="*" horiz-adv-x="1024" d="M469 1503H563L557 1270L772 1364L805 1276L575 1194L735 1024L662 961L512 1141L362 961L291 1024L451 1194L217 1276L252 1364L473 1270L469 1503Z"  />
<glyph unicode="+" horiz-adv-x="1706" d="M893 1221V651H1452V569H893V0H813V569H254V651H813V1221H893Z"  />
<glyph unicode="&#x2c;" horiz-adv-x="524" d="M78 -217L211 217H326L193 -217H78Z"  />
<glyph unicode="-" horiz-adv-x="635" d="M68 420V522H569V420H68Z"  />
<glyph unicode="." horiz-adv-x="524" d="M262 -25Q216 -25 185 5T154 82Q154 128 185 159T262 190Q309 190 340 160T371 82Q371 36 340 6T262 -25Z"  />
<glyph unicode="/" horiz-adv-x="578" d="M649 1503L123 -190H31L557 1503H649Z"  />
<glyph unicode="0" horiz-adv-x="1049" d="M219 518Q219 395 229 333T262 227Q304 152 371 112T524 72Q610 72 677 112T786 227Q810 271 819 333T829 518V918Q829 1042 820 1104T786 1208Q744 1285 677 1325T524 1366Q439 1366 372 1326T262 1208Q239 1166 229 1104T219 918V518ZM104 537V901Q104 1049 118 1124T166 1257Q224 1360 314 1412T524 1464Q643 1464 734 1412T883 1257Q915 1201 928 1129T942 901V537Q942 382 929 310T883 180Q824 77 734 24T524 -29Q406 -29 315 24T166 180Q133 239 119 314T104 537Z"  />
<glyph unicode="1" horiz-adv-x="1049" d="M309 0V94H489V1341H322V1436H604V94H778V0H309Z"  />
<glyph unicode="2" horiz-adv-x="1049" d="M92 0V96Q177 198 327 375Q803 934 803 1108Q803 1226 726 1297T520 1368Q369 1368 288 1264T207 965V944H103Q101 954 101 964T100 997Q100 1214 214 1339T524 1464Q698 1464 808 1367T918 1118Q918 900 310 199L219 94H838V360H948V0H92Z"  />
<glyph unicode="3" horiz-adv-x="1049" d="M131 1036V1040Q131 1235 241 1349T539 1464Q711 1464 822 1357T934 1085Q934 960 859 869T655 750Q786 725 865 626T944 387Q944 214 823 93T528 -29Q333 -29 217 86T100 397V412L205 411Q209 257 294 165T518 72Q650 72 739 160T829 381Q829 523 735 610T485 698Q481 698 466 697T442 696V790Q618 792 718 870T819 1085Q819 1212 740 1288T528 1364Q390 1364 314 1280T231 1036H131Z"  />
<glyph unicode="4" horiz-adv-x="1049" d="M647 485V1008Q647 1053 653 1117T674 1276L180 485H647ZM469 0V94H647V393H63V487L670 1436H760V485H938V393H760V94H938V0H469Z"  />
<glyph unicode="5" horiz-adv-x="1049" d="M106 397H211Q216 244 295 156T506 68Q651 68 738 171T825 449Q825 635 732 731T457 827Q389 827 324 816T195 780V1436H797V1341H301V901Q347 912 392 918T479 924Q696 924 818 798T940 449Q940 234 820 103T502 -29Q325 -29 216 86T106 387V397Z"  />
<glyph unicode="6" horiz-adv-x="1049" d="M231 434Q231 265 313 169T539 72Q682 72 765 168T848 432Q848 599 764 697T539 795Q395 795 313 699T231 434ZM893 1129L793 1128Q774 1247 712 1304T541 1362Q372 1362 296 1218T219 756V700Q272 798 358 848T559 899Q735 899 849 768T963 432Q963 227 845 99T539 -29Q407 -29 310 32T164 207Q135 273 123 366T111 625V846Q111 1150 223 1306T553 1462Q699 1462 790 1372T893 1129Z"  />
<glyph unicode="7" horiz-adv-x="1049" d="M260 0L854 1341H276V1104H164V1436H977V1341L387 0H260Z"  />
<glyph unicode="8" horiz-adv-x="1049" d="M373 750Q255 792 191 883T127 1098Q127 1257 240 1361T524 1466Q696 1466 809 1362T922 1098Q922 975 858 884T676 750Q801 713 873 614T946 381Q946 202 828 87T524 -29Q339 -29 221 86T102 381Q102 514 175 613T373 750ZM524 797Q647 797 730 879T813 1083Q813 1206 730 1288T524 1370Q401 1370 319 1288T236 1083Q236 961 318 879T524 797ZM524 68Q657 68 746 157T836 381Q836 516 747 606T524 696Q392 696 303 606T213 381Q213 247 302 158T524 68Z"  />
<glyph unicode="9" horiz-adv-x="1049" d="M145 305H246Q264 188 326 130T494 72Q673 72 752 206T831 649Q831 662 830 690T829 733Q777 636 690 586T487 535Q312 535 198 666T84 1001Q84 1206 202 1334T508 1462Q640 1462 737 1401T883 1227Q911 1161 923 1068T936 809V588Q936 281 825 126T494 -29Q341 -29 251 57T145 305ZM815 999Q815 1168 733 1265T508 1362Q365 1362 283 1266T201 1001Q201 834 284 737T508 639Q652 639 733 734T815 999Z"  />
<glyph unicode=":" horiz-adv-x="524" d="M262 711Q216 711 185 741T154 817Q154 863 185 893T262 924Q310 924 340 894T371 817Q371 771 340 741T262 711ZM262 -25Q216 -25 185 5T154 82Q154 128 185 159T262 190Q309 190 340 160T371 82Q371 36 340 6T262 -25Z"  />
<glyph unicode=";" horiz-adv-x="524" d="M78 -217L211 217H326L193 -217H78ZM262 711Q216 711 185 741T154 817Q154 863 185 893T262 924Q310 924 340 894T371 817Q371 771 340 741T262 711Z"  />
<glyph unicode="&lt;" horiz-adv-x="1706" d="M1442 1034L397 610L1442 186V98L264 580V641L1442 1124V1034Z"  />
<glyph unicode="=" horiz-adv-x="1706" d="M1452 469V387H254V469H1452ZM1452 831V752H254V831H1452Z"  />
<glyph unicode="&gt;" horiz-adv-x="1706" d="M1442 641V580L264 98V186L1309 610L264 1034V1124L1442 641Z"  />
<glyph unicode="?" horiz-adv-x="1042" d="M467 -25Q420 -25 389 5T358 82Q358 128 389 159T467 190Q514 190 544 160T575 82Q575 36 544 6T467 -25ZM410 322V793Q416 793 428 792T444 791Q603 791 692 878T782 1120Q782 1243 702 1324T500 1405Q381 1405 308 1327T229 1118L121 1119Q125 1289 232 1396T504 1503Q681 1503 786 1393T891 1098Q891 931 790 821T520 696V322H410Z"  />
<glyph unicode="@" horiz-adv-x="2048" d="M1303 827L1364 956H1444L1307 403Q1297 367 1292 339T1286 295Q1286 251 1316 227T1403 203Q1451 203 1503 222T1606 279Q1707 353 1768 486T1829 768Q1829 1041 1630 1207T1104 1374Q936 1374 794 1326T535 1182Q381 1054 303 885T225 510Q225 183 446 -12T1038 -207Q1199 -207 1362 -157T1661 -14L1690 -59Q1544 -169 1382 -224T1042 -279Q855 -279 699 -233T422 -94Q270 21 196 173T121 522Q121 684 171 829T319 1094Q463 1269 664 1359T1114 1450Q1274 1450 1418 1406T1667 1282Q1795 1184 1861 1056T1927 778Q1927 609 1864 470T1683 238Q1616 184 1538 156T1378 127Q1283 127 1235 163T1186 272Q1186 284 1189 306Q1190 309 1190 311Q1141 223 1065 175T899 127Q745 127 666 210T586 453Q586 681 720 839T1047 997Q1142 997 1207 954T1303 827ZM1219 467L1282 721Q1260 820 1201 872T1049 924Q897 924 794 786T690 446Q690 331 747 266T907 201Q1018 201 1103 273T1219 467Z"  />
<glyph unicode="A" horiz-adv-x="1356" d="M-37 0V100H106L573 1374H424V1475H932V1374H782L1249 100H1393V0H961V100H1128L997 461H358L227 100H395V0H-37ZM397 559H958L678 1341L397 559Z"  />
<glyph unicode="B" horiz-adv-x="1231" d="M350 731V100H633Q843 100 940 176T1038 416Q1038 577 939 654T633 731H350ZM350 1374V829H543Q771 829 863 891T956 1102Q956 1245 859 1309T543 1374H350ZM61 0V100H231V1374H61V1475H553Q814 1475 945 1384T1077 1112Q1077 996 1014 916T823 793Q986 755 1072 657T1159 414Q1159 226 1035 113T702 0H61Z"  />
<glyph unicode="C" horiz-adv-x="1522" d="M1470 465Q1409 227 1243 99T827 -29Q683 -29 557 19T328 160Q203 273 140 419T76 737Q76 909 139 1056T328 1317Q429 1409 555 1456T827 1503Q1000 1503 1135 1435T1352 1239V1475H1454V1016H1362Q1311 1198 1170 1300T827 1403Q707 1403 593 1358T395 1233Q295 1136 246 1013T197 737Q197 442 379 257T850 72Q1047 72 1184 176T1366 465H1470Z"  />
<glyph unicode="D" horiz-adv-x="1458" d="M518 100Q858 100 1059 275T1260 743Q1260 926 1180 1065T938 1298Q872 1337 768 1355T518 1374H348V100H518ZM518 0H59V100H229V1374H59V1475H518Q703 1475 815 1456T999 1397Q1188 1289 1285 1122T1382 737Q1382 528 1281 357T995 84Q919 41 802 21T518 0Z"  />
<glyph unicode="E" horiz-adv-x="1208" d="M59 0V100H229V1374H59V1475H1139V1112H1020V1374H348V831H864V731H348V100H1020V356H1139V0H59Z"  />
<glyph unicode="F" horiz-adv-x="1143" d="M59 0V100H229V1374H59V1475H1153V1112H1036V1374H348V831H864V731H348V100H539V0H59Z"  />
<glyph unicode="G" horiz-adv-x="1686" d="M1368 0V238Q1289 108 1155 40T844 -29Q728 -29 630 -4T446 72Q271 177 174 351T76 737Q76 909 139 1056T328 1317Q429 1409 555 1456T827 1503Q1002 1503 1136 1435T1352 1239V1475H1454V1016H1362Q1313 1196 1171 1299T827 1403Q706 1403 593 1359T395 1233Q295 1136 246 1013T197 737Q197 441 380 257T858 72Q1088 72 1229 200T1380 551H926V649H1630V551H1479V0H1368Z"  />
<glyph unicode="H" horiz-adv-x="1479" d="M59 0V100H229V1374H59V1475H518V1374H348V819H1130V1374H961V1475H1419V1374H1249V100H1419V0H961V100H1130V721H348V100H518V0H59Z"  />
<glyph unicode="I" horiz-adv-x="578" d="M41 0V100H229V1374H41V1475H539V1374H348V100H539V0H41Z"  />
<glyph unicode="J" horiz-adv-x="563" d="M229 100V1374H41V1475H524V1374H348V100Q348 -83 283 -163T70 -244H0V-137H33Q148 -137 188 -94T229 100Z"  />
<glyph unicode="K" horiz-adv-x="1305" d="M59 0V100H229V1374H59V1475H518V1374H348V758L1006 1374H848V1475H1298V1374H1151L473 745L1159 100H1298V0H825V100H983L348 705V100H518V0H59Z"  />
<glyph unicode="L" horiz-adv-x="1083" d="M59 0V100H229V1374H59V1475H518V1374H348V100H950V313H1069V0H59Z"  />
<glyph unicode="M" horiz-adv-x="1792" d="M51 0V100H240V1374H51V1475H365L895 223L1427 1475H1741V1374H1552V100H1741V0H1243V100H1434V1249L928 57H864L358 1249V100H549V0H51Z"  />
<glyph unicode="N" horiz-adv-x="1470" d="M59 0V100H229V1374H59V1475H410L1120 195V1374H965V1475H1409V1374H1239V-29H1120L348 1346V100H506V0H59Z"  />
<glyph unicode="O" horiz-adv-x="1655" d="M197 737Q197 586 246 463T395 244Q477 164 591 119T827 74Q950 74 1064 118T1260 244Q1358 339 1408 463T1458 737Q1458 888 1408 1013T1260 1233Q1176 1314 1063 1358T827 1403Q706 1403 593 1359T395 1233Q295 1136 246 1013T197 737ZM76 737Q76 909 139 1056T328 1317Q429 1409 555 1456T827 1503Q974 1503 1099 1457T1327 1317Q1451 1202 1515 1055T1579 737Q1579 567 1515 420T1327 160Q1224 66 1099 19T827 -29Q683 -29 557 19T328 160Q204 273 140 419T76 737Z"  />
<glyph unicode="P" horiz-adv-x="1188" d="M41 0V100H229V1374H41V1475H604Q882 1475 1026 1361T1171 1026Q1171 803 1029 691T604 578H348V100H539V0H41ZM348 1374V672H596Q828 672 939 758T1051 1024Q1051 1203 940 1288T596 1374H348Z"  />
<glyph unicode="Q" horiz-adv-x="1655" d="M1010 100Q1219 160 1338 330T1458 737Q1458 888 1408 1013T1260 1233Q1176 1314 1063 1358T827 1403Q706 1403 593 1359T395 1233Q295 1136 246 1013T197 737Q197 552 270 407T483 174Q562 124 649 99T829 74Q862 74 879 75T911 78L831 244L920 287L1010 100ZM1057 6L1110 -100H1329V-201H1049L958 -16Q914 -23 877 -26T809 -29Q676 -29 552 19T328 160Q203 273 140 419T76 737Q76 909 139 1056T328 1317Q429 1409 555 1456T827 1503Q974 1503 1099 1457T1327 1317Q1451 1202 1515 1055T1579 737Q1579 477 1440 282T1057 6Z"  />
<glyph unicode="R" horiz-adv-x="1341" d="M41 0V100H229V1374H41V1475H670Q931 1475 1069 1378T1208 1096Q1208 957 1118 867T864 754Q1019 714 1081 634T1143 385V100H1313V0H1024V352Q1024 556 915 636T528 717H348V100H539V0H41ZM348 1374V817H639Q874 817 980 883T1087 1096Q1087 1241 981 1307T639 1374H348Z"  />
<glyph unicode="S" horiz-adv-x="1356" d="M193 -4V487H291Q318 293 447 181T770 68Q926 68 1023 149T1120 362Q1120 470 1051 537T825 645L633 696Q416 755 306 860T195 1114Q195 1280 321 1389T641 1499Q773 1499 882 1442T1053 1282L1047 1470H1145V1077H1053Q1013 1230 902 1314T631 1399Q491 1399 398 1323T305 1133Q305 1015 391 937T653 813L881 754Q1055 709 1143 614T1231 373Q1231 192 1099 80T752 -33Q609 -33 488 34T285 227L291 -4H193Z"  />
<glyph unicode="T" horiz-adv-x="1157" d="M330 0V100H518V1374H139V1071H35V1475H1120V1071H1018V1374H637V100H827V0H330Z"  />
<glyph unicode="U" horiz-adv-x="1442" d="M500 1475V1374H328V537Q328 382 348 309T416 184Q468 129 542 103T719 76Q822 76 898 103T1026 184Q1074 235 1094 308T1114 537V1374H942V1475H1403V1374H1231V483Q1231 228 1103 100T721 -29Q466 -29 338 99T209 483V1374H39V1475H500Z"  />
<glyph unicode="V" horiz-adv-x="1247" d="M569 -25L147 1374H-10V1475H422V1374H262L623 139L987 1374H825V1475H1257V1374H1098L678 -25H569Z"  />
<glyph unicode="W" horiz-adv-x="1892" d="M946 1229L653 -25H535L117 1374H-8V1475H410V1374H238L594 133L883 1374H711V1475H1182V1374H1010L1298 133L1655 1374H1483V1475H1901V1374H1776L1356 -25H1239L946 1229Z"  />
<glyph unicode="X" horiz-adv-x="1319" d="M285 100H457V0H-8V100H164L598 733L172 1374H12V1475H485V1374H305L666 825L1030 1374H831V1475H1307V1374H1147L721 745L1155 100H1325V0H860V100H1022L655 651L285 100Z"  />
<glyph unicode="Y" horiz-adv-x="1251" d="M565 100V651L139 1374H-8V1475H453V1374H258L623 741L985 1374H799V1475H1260V1374H1114L684 639V100H874V0H377V100H565Z"  />
<glyph unicode="Z" horiz-adv-x="1327" d="M166 0V100L1020 1374H276V1087H166V1475H1151V1374L297 100H1040V389H1151V0H166Z"  />
<glyph unicode="[" horiz-adv-x="741" d="M256 -176V1475H651V1376H369V-80H651V-176H256Z"  />
<glyph unicode="\" horiz-adv-x="578" d="M508 -190L-20 1503H72L598 -190H508Z"  />
<glyph unicode="]" horiz-adv-x="741" d="M485 -176H90V-80H373V1376H90V1475H485V-176Z"  />
<glyph unicode="^" horiz-adv-x="2048" d="M1081 1458L1622 901H1497L1024 1370L549 901H424L963 1458H1081Z"  />
<glyph unicode="_" horiz-adv-x="1024" d="M1024 -403V-483H0V-403H1024Z"  />
<glyph unicode="`" horiz-adv-x="1024" d="M545 1059L276 1407H428L637 1059H545Z"  />
<glyph unicode="a" horiz-adv-x="1225" d="M164 465Q164 302 273 189T537 76Q690 76 800 190T911 465Q911 631 801 743T528 856Q368 856 266 747T164 465ZM1018 94H1169V0H913V197Q840 85 744 31T522 -23Q427 -23 342 13T193 117Q127 186 91 276T55 463Q55 677 184 812T516 948Q639 948 736 900T913 750V924H1169V829H1018V94Z"  />
<glyph unicode="b" horiz-adv-x="1225" d="M303 465Q303 304 415 189T684 74Q838 74 944 187T1051 465Q1051 641 949 748T678 856Q523 856 413 743T303 465ZM45 0V94H197V1380H45V1475H301V750Q381 851 478 899T698 948Q901 948 1030 813T1159 463Q1159 366 1124 276T1022 117Q957 49 873 13T692 -23Q566 -23 471 31T301 197V0H45Z"  />
<glyph unicode="c" horiz-adv-x="1090" d="M958 182Q873 80 770 28T551 -25Q334 -25 201 109T68 463Q68 567 103 656T205 811Q271 876 360 912T543 948Q643 948 723 915T862 815L860 924H954V614H860Q828 729 744 792T543 856Q381 856 278 746T174 463Q174 292 281 181T551 70Q645 70 731 114T893 246L958 182Z"  />
<glyph unicode="d" horiz-adv-x="1223" d="M1180 0H926V197Q852 85 757 31T535 -23Q439 -23 354 13T205 117Q139 186 104 276T68 463Q68 677 197 812T528 948Q651 948 748 900T926 750V1380H774V1475H1030V94H1180V0ZM174 465Q174 302 284 189T549 76Q702 76 812 190T922 465Q922 631 812 743T539 856Q378 856 276 747T174 465Z"  />
<glyph unicode="e" horiz-adv-x="1143" d="M967 518Q942 678 838 767T571 856Q417 856 309 764T176 518H967ZM177 432Q186 271 297 170T571 68Q687 68 778 120T922 268H1038Q964 123 847 49T571 -25Q354 -25 210 114T66 461Q66 669 210 808T571 948Q802 948 938 809T1075 432H177Z"  />
<glyph unicode="f" horiz-adv-x="563" d="M494 0H43V94H209V829H43V924H209V1202Q209 1350 267 1412T461 1475Q480 1475 501 1474T549 1468V1379Q526 1381 506 1382T467 1384Q380 1384 347 1344T313 1196V924H494V829H313V94H494V0Z"  />
<glyph unicode="g" horiz-adv-x="1225" d="M1030 211Q1030 12 1015 -73T963 -221Q907 -316 801 -371T567 -426Q400 -426 291 -367T121 -184H238Q280 -258 359 -296T549 -334Q747 -334 837 -226T928 121Q928 151 928 166T926 196Q852 85 757 31T535 -23Q439 -23 354 13T205 117Q139 186 104 276T68 463Q68 677 197 812T528 948Q651 948 748 900T926 750V924H1180V829H1030V211ZM174 465Q174 302 284 189T549 76Q702 76 812 190T922 465Q922 631 812 743T539 856Q378 856 276 747T174 465Z"  />
<glyph unicode="h" horiz-adv-x="1165" d="M55 0V94H207V1380H55V1475H311V750Q399 849 494 898T696 948Q845 948 910 872T975 616V94H1126V0H721V94H870V616Q870 742 825 798T678 854Q584 854 491 796T311 623V94H465V0H55Z"  />
<glyph unicode="i" horiz-adv-x="512" d="M201 1112V1352H311V1112H201ZM33 0V94H207V829H43V924H311V94H467V0H33Z"  />
<glyph unicode="j" horiz-adv-x="469" d="M201 1112V1352H311V1112H201ZM311 27Q311 -191 243 -289T6 -426V-334Q120 -298 163 -226T207 31V829H43V924H311V27Z"  />
<glyph unicode="k" horiz-adv-x="1057" d="M33 0V94H207V1380H43V1475H311V537L674 829H520V924H967V829H817L418 512L872 94H1024V0H600V94H731L311 477V94H461V0H33Z"  />
<glyph unicode="l" horiz-adv-x="512" d="M33 0V94H207V1380H43V1475H311V94H467V0H33Z"  />
<glyph unicode="m" horiz-adv-x="1761" d="M55 94H207V829H55V924H311V750Q406 857 488 902T668 948Q766 948 832 907T928 784Q1009 867 1097 907T1286 948Q1435 948 1500 872T1565 616V94H1716V0H1311V94H1460V616Q1460 742 1414 799T1268 856Q1182 856 1098 811T944 680V94H1096V0H690V94H840V616Q840 741 797 798T659 856Q573 856 488 799T311 623V94H465V0H55V94Z"  />
<glyph unicode="n" horiz-adv-x="1171" d="M55 0V94H207V829H55V924H311V750Q399 849 494 898T696 948Q845 948 910 872T975 616V94H1126V0H721V94H870V616Q870 742 825 798T678 854Q584 854 491 796T311 623V94H465V0H55Z"  />
<glyph unicode="o" horiz-adv-x="1143" d="M571 68Q742 68 856 180T971 463Q971 633 858 744T571 856Q399 856 287 745T174 463Q174 292 287 180T571 68ZM571 -25Q354 -25 210 114T66 461Q66 669 210 808T571 948Q788 948 931 809T1075 461Q1075 253 932 114T571 -25Z"  />
<glyph unicode="p" horiz-adv-x="1235" d="M313 465Q313 302 425 188T696 74Q850 74 955 187T1061 465Q1061 641 958 748T686 856Q531 856 422 743T313 465ZM309 197V-332H469V-426H55V-332H205V829H55V924H309V750Q389 851 487 899T709 948Q911 948 1040 813T1169 463Q1169 366 1134 276T1032 117Q968 50 882 14T700 -23Q574 -23 479 31T309 197Z"  />
<glyph unicode="q" horiz-adv-x="1235" d="M922 465Q922 629 813 742T549 856Q381 856 278 749T174 465Q174 302 284 189T549 76Q702 76 812 190T922 465ZM926 197Q852 85 757 31T535 -23Q439 -23 353 13T203 117Q137 186 102 276T66 463Q66 677 195 812T526 948Q650 948 748 900T926 750V924H1180V829H1030V-332H1180V-426H766V-332H926V197Z"  />
<glyph unicode="r" horiz-adv-x="772" d="M55 0V94H207V829H55V924H311V799Q360 874 418 912T543 950Q635 950 683 901T737 752H651Q647 803 618 830T539 858Q423 858 367 749T311 414V94H465V0H55Z"  />
<glyph unicode="s" horiz-adv-x="985" d="M225 0H129V328H225Q253 210 339 144T553 78Q652 78 717 127T782 252Q782 323 732 364T561 430L440 455Q261 492 194 546T127 698Q127 811 217 880T455 950Q555 950 628 918T741 821L739 924H834V655H739Q719 754 643 809T451 864Q351 864 291 822T231 709Q231 644 276 610T455 551L584 526Q735 497 811 430T887 258Q887 137 795 63T553 -12Q454 -12 372 22T223 123L225 0Z"  />
<glyph unicode="t" horiz-adv-x="569" d="M289 260V246Q289 131 311 107T401 82Q429 82 451 83T491 88V-2Q460 -5 434 -6T389 -8Q264 -8 225 27T186 225V260V829H29V924H186V1288H289V924H467V829H289V260Z"  />
<glyph unicode="u" horiz-adv-x="1161" d="M958 924V94H1110V0H854V176Q766 75 670 25T469 -25Q321 -25 256 52T190 307V829H39V924H295V307Q295 182 340 126T487 70Q582 70 674 128T854 301V829H700V924H958Z"  />
<glyph unicode="v" horiz-adv-x="944" d="M743 829H582V924H989V829H850L518 -25H438L90 829H-49V924H358V829H197L475 113L743 829Z"  />
<glyph unicode="w" horiz-adv-x="1507" d="M506 -25H428L129 829H-6V924H391V829H227L467 137L674 829H532V924H983V829H829L1032 137L1276 829H1122V924H1522V829H1372L1069 -25H991L750 772L506 -25Z"  />
<glyph unicode="x" horiz-adv-x="1012" d="M410 0H14V94H158L455 473L176 829H41V924H428V829H297L514 549L733 829H598V924H1001V829H850L571 475L850 94H1001V0H598V94H729L512 397L272 94H410V0Z"  />
<glyph unicode="y" horiz-adv-x="981" d="M770 829H625V924H995V829H877L354 -332H510V-426H96V-332H248L432 82L92 829H-23V924H338V829H203L483 186L770 829Z"  />
<glyph unicode="z" horiz-adv-x="973" d="M90 0V94L713 829H203V672H106V924H852V852L211 94H766V266H860V0H90Z"  />
<glyph unicode="{" horiz-adv-x="1024" d="M848 1389H811Q676 1389 629 1338T582 1124V883Q582 708 539 635T387 530Q496 498 539 426T582 178V-63Q582 -225 628 -275T809 -326H848V-414H805Q616 -414 548 -340T479 -39V201Q479 359 421 423T221 487Q214 487 200 486T176 485V575Q186 574 196 574T225 573Q364 573 421 637T479 860V1100Q479 1327 547 1402T805 1477H848V1389Z"  />
<glyph unicode="|" horiz-adv-x="1024" d="M557 1565V-483H467V1565H557Z"  />
<glyph unicode="}" horiz-adv-x="1024" d="M545 1100V860Q545 702 603 638T803 573Q810 573 824 574T848 575V485Q839 485 825 486T803 487Q661 487 603 423T545 201V-39Q545 -265 477 -339T219 -414H176V-326H215Q349 -326 395 -276T442 -63V178Q442 352 485 425T639 530Q529 562 486 635T442 883V1124Q442 1286 395 1337T213 1389H176V1477H219Q408 1477 476 1402T545 1100Z"  />
<glyph unicode="~" horiz-adv-x="1706" d="M1530 647Q1424 573 1328 537T1143 500Q1044 500 877 561Q861 567 855 569Q843 573 822 581Q655 641 565 641Q482 641 390 604T178 481V573Q283 647 379 683T565 719Q665 719 836 658Q848 653 855 651Q863 648 882 641Q1050 580 1143 580Q1226 580 1318 617T1530 739V647Z"  />
<glyph unicode="&#xA0;" horiz-adv-x="1049" />
<glyph unicode="&#xA1;" horiz-adv-x="524" d="M307 1147L328 0H197L215 1147H307ZM262 1493Q309 1493 340 1463T371 1386Q371 1340 340 1309T262 1278Q215 1278 185 1309T154 1386Q154 1432 185 1462T262 1493Z"  />
<glyph unicode="&#xA2;" horiz-adv-x="1049" d="M412 127L657 858Q655 858 651 859Q601 866 580 866Q424 866 315 756T205 487Q205 363 258 270T412 127ZM1006 201Q910 94 804 42T575 -10Q546 -10 516 -7T457 4L367 -262H283L379 31Q243 93 169 210T94 477Q94 680 236 818T586 956Q610 956 635 955T686 950L768 1194H854L764 926Q811 905 846 879T907 817L901 934H989V627H905Q872 713 831 763T735 836L490 100Q514 93 538 90T586 86Q679 86 765 131T928 264L1006 201Z"  />
<glyph unicode="&#xA3;" horiz-adv-x="1049" d="M158 -22L115 84Q233 124 283 203T334 428Q334 486 326 540T301 647H88V733H276Q239 844 220 933T201 1092Q201 1261 302 1362T573 1464Q733 1464 829 1377T926 1149Q926 1125 923 1100T913 1049H807L808 1055Q815 1109 815 1135Q815 1243 751 1303T571 1364Q454 1364 385 1289T315 1087Q315 1038 329 967T389 733H616V647H408Q421 587 427 531T434 424Q434 355 419 291T371 164Q451 120 532 97T686 74Q787 74 838 125T889 279Q889 300 886 322T875 368L977 369Q986 341 990 312T995 254Q995 118 918 44T698 -31Q624 -31 531 -4T322 78Q276 34 236 10T158 -22Z"  />
<glyph unicode="&#xA4;" horiz-adv-x="1049" d="M969 346Q932 163 832 67T575 -29Q367 -29 263 106T135 543H0L25 625H129Q128 644 128 668T127 743Q127 791 127 813T129 854H0L25 936H135Q161 1212 261 1338T555 1464Q647 1464 730 1416T850 1290V1436H952V1038H860Q840 1180 752 1273T555 1366Q411 1366 341 1269T250 936H797L772 854H244Q243 836 243 814T242 743Q242 693 242 669T244 625H674L649 543H250Q271 296 347 184T575 72Q693 72 766 141T864 346H969Z"  />
<glyph unicode="&#xA5;" horiz-adv-x="1049" d="M274 94H463V645H8V727H420L301 956H8V1038H256L94 1341H-6V1436H352V1341H207L524 731L831 1341H696V1436H1053V1341H942L784 1038H1038V954H741L623 727H1038V643H578V94H768V0H274V94Z"  />
<glyph unicode="&#xA6;" horiz-adv-x="1024" d="M557 408V-350H467V408H557ZM557 1432V674H467V1432H557Z"  />
<glyph unicode="&#xA7;" horiz-adv-x="1024" d="M752 637L565 838Q505 903 454 932T348 961Q276 961 229 917T182 807Q182 769 205 724T274 629L461 428Q520 364 571 336T678 307Q750 307 797 351T844 461Q844 498 821 542T752 637ZM260 92H358V-141H481Q578 -141 626 -112T674 -25Q674 13 645 61T553 178L233 522Q139 625 109 683T78 801Q78 902 151 974T328 1047Q341 1046 356 1045T385 1040Q305 1124 273 1181T240 1292Q240 1386 308 1430T520 1475H737V1196H641V1384H524Q421 1384 387 1364T352 1290Q352 1254 375 1212T449 1114L784 752Q884 643 915 585T946 467Q946 361 870 290T678 219H653Q721 161 754 98T788 -33Q788 -131 717 -181T504 -231H260V92Z"  />
<glyph unicode="&#xA8;" horiz-adv-x="1024" d="M602 1137V1298H743V1137H602ZM281 1137V1298H422V1137H281Z"  />
<glyph unicode="&#xA9;" horiz-adv-x="1706" d="M1081 918Q1061 999 1002 1044T854 1090Q728 1090 658 993T588 719Q588 550 659 452T854 354Q945 354 1010 406T1094 547H1196Q1185 424 1088 346T848 268Q675 268 573 391T471 725Q471 930 578 1053T860 1176Q992 1176 1082 1104T1186 918H1081ZM1511 721Q1511 854 1462 973T1321 1186Q1226 1281 1106 1330T852 1380Q719 1380 601 1331T391 1190Q296 1093 246 972T195 721Q195 591 245 472T389 258Q483 164 602 114T852 63Q982 63 1103 114T1321 260Q1414 352 1462 469T1511 721ZM852 1452Q1001 1452 1134 1397T1372 1237Q1475 1135 1529 1002T1583 721Q1583 571 1530 441T1372 209Q1265 103 1131 47T852 -10Q707 -10 575 45T338 207Q233 311 178 443T123 721Q123 866 179 1000T340 1241Q441 1344 572 1398T852 1452Z"  />
<glyph unicode="&#xAA;" horiz-adv-x="920" d="M123 1153Q123 1038 204 960T403 881Q518 881 601 961T684 1153Q684 1269 601 1348T397 1427Q276 1427 200 1351T123 1153ZM764 893H877V827H686V965Q631 886 559 849T391 811Q320 811 257 836T145 909Q95 956 68 1019T41 1151Q41 1300 138 1395T387 1491Q479 1491 552 1457T686 1352V1475H877V1409H764V893Z"  />
<glyph unicode="&#xAB;" horiz-adv-x="944" d="M696 150L438 461L696 774H831L573 461L831 150H696ZM389 150L131 461L389 774H524L266 461L524 150H389Z"  />
<glyph unicode="&#xAC;" horiz-adv-x="1706" d="M1452 856V354H1374V774H254V856H1452Z"  />
<glyph unicode="&#xAD;" horiz-adv-x="635" d="M68 420V522H569V420H68Z"  />
<glyph unicode="&#xAE;" horiz-adv-x="1706" d="M852 1077H684V764H852Q997 764 1051 800T1106 926Q1106 1004 1045 1040T852 1077ZM874 1155Q1054 1155 1138 1099T1223 922Q1223 833 1168 773T1020 702L1210 309H1079L897 686H684V309H569V1155H874ZM1511 721Q1511 854 1462 973T1321 1186Q1226 1281 1106 1330T852 1380Q719 1380 601 1331T391 1190Q296 1093 246 972T195 721Q195 591 245 472T389 258Q483 164 602 114T852 63Q982 63 1103 114T1321 260Q1414 352 1462 469T1511 721ZM852 1452Q1001 1452 1134 1397T1372 1237Q1475 1135 1529 1002T1583 721Q1583 571 1530 441T1372 209Q1265 103 1131 47T852 -10Q707 -10 575 45T338 207Q233 311 178 443T123 721Q123 866 179 1000T340 1241Q441 1344 572 1398T852 1452Z"  />
<glyph unicode="&#xAF;" horiz-adv-x="1024" d="M256 1159V1276H768V1159H256Z"  />
<glyph unicode="&#xB0;" horiz-adv-x="674" d="M551 1176Q551 1263 488 1326T338 1389Q249 1389 187 1327T125 1176Q125 1087 187 1025T338 963Q426 963 488 1025T551 1176ZM338 1450Q450 1450 530 1370T610 1176Q610 1062 530 983T336 903Q221 903 142 982T63 1176Q63 1290 143 1370T338 1450Z"  />
<glyph unicode="&#xB1;" horiz-adv-x="1706" d="M1452 141V59H254V141H1452ZM893 1161V807H1452V727H893V375H813V727H254V807H813V1161H893Z"  />
<glyph unicode="&#xB2;" horiz-adv-x="692" d="M61 575V633Q119 696 222 806Q530 1137 530 1241Q530 1312 480 1354T344 1397Q244 1397 191 1335T137 1155V1143H68Q66 1149 66 1155T66 1174Q66 1303 141 1378T346 1454Q460 1454 533 1396T606 1247Q606 1116 203 693L145 633H553V793H627V575H61Z"  />
<glyph unicode="&#xB3;" horiz-adv-x="692" d="M86 1198V1200Q86 1317 159 1385T356 1454Q470 1454 543 1390T616 1227Q616 1152 567 1098T432 1026Q519 1011 571 951T623 807Q623 704 543 632T348 559Q219 559 143 628T66 813V823H135Q139 729 195 674T342 618Q429 618 488 671T547 805Q547 890 484 942T319 995Q317 995 308 994T293 993V1051Q409 1051 475 1098T541 1227Q541 1303 489 1349T348 1395Q257 1395 207 1344T153 1198H86Z"  />
<glyph unicode="&#xB4;" horiz-adv-x="1024" d="M479 1059H387L596 1407H748L479 1059Z"  />
<glyph unicode="&#xB5;" horiz-adv-x="1094" d="M326 1063L203 473Q194 430 190 396T186 332Q186 206 246 140T420 74Q547 74 639 183T776 496L901 1063H1022L856 277Q854 268 851 253Q831 161 831 141Q831 110 848 94T899 78Q908 78 917 78T938 80L920 -16Q917 -17 912 -18Q863 -29 844 -29Q776 -29 744 2T711 98Q711 105 711 114T715 143Q672 60 592 16T403 -29Q306 -29 234 16T129 143L10 -424H-111L205 1063H326Z"  />
<glyph unicode="&#xB6;" horiz-adv-x="1024" d="M932 1415H803V0H733V1415H541V0H471V782Q296 790 193 884T90 1130Q90 1287 198 1383T485 1479H932V1415Z"  />
<glyph unicode="&#xB7;" horiz-adv-x="524" d="M262 635Q216 635 185 665T154 741Q154 787 185 818T262 850Q309 850 340 819T371 741Q371 696 340 666T262 635Z"  />
<glyph unicode="&#xB8;" horiz-adv-x="1024" d="M303 -418V-342Q380 -360 439 -368T541 -377Q605 -377 638 -354T672 -287Q672 -233 637 -208T526 -182Q508 -182 498 -182T480 -184L479 0H545V-111H559Q667 -111 724 -155T782 -283Q782 -368 724 -413T557 -459Q502 -459 441 -449T303 -418Z"  />
<glyph unicode="&#xB9;" horiz-adv-x="692" d="M203 575V633H322V1380H211V1438H397V633H514V575H203Z"  />
<glyph unicode="&#xBA;" horiz-adv-x="858" d="M428 874Q557 874 643 953T729 1151Q729 1271 644 1349T428 1427Q299 1427 215 1349T131 1151Q131 1032 216 953T428 874ZM428 811Q265 811 157 908T49 1151Q49 1296 157 1393T428 1491Q591 1491 699 1394T807 1151Q807 1005 700 908T428 811Z"  />
<glyph unicode="&#xBB;" horiz-adv-x="944" d="M246 150H113L369 461L113 774H246L504 461L246 150ZM555 150H420L678 461L420 774H555L813 461L555 150Z"  />
<glyph unicode="&#xBC;" horiz-adv-x="1663" d="M1409 272V565Q1409 591 1413 628T1425 715L1114 272H1409ZM1296 0V53H1409V221H1042V272L1423 805H1481V272H1593V221H1481V53H1593V0H1296ZM317 -29L1247 1464H1341L412 -29H317ZM195 633V686H307V1384H203V1438H381V686H489V633H195Z"  />
<glyph unicode="&#xBD;" horiz-adv-x="1663" d="M1059 0V53Q1110 108 1202 204Q1507 523 1507 621Q1507 687 1459 726T1329 766Q1234 766 1184 708T1133 541V528H1068Q1066 534 1066 540T1065 559Q1065 680 1136 749T1331 819Q1441 819 1510 766T1579 627Q1579 502 1192 107L1139 53H1530V203H1599V0H1059ZM317 -29L1247 1464H1341L412 -29H317ZM195 633V686H307V1384H203V1438H381V686H489V633H195Z"  />
<glyph unicode="&#xBE;" horiz-adv-x="1663" d="M1411 272V565Q1411 591 1415 628T1427 715L1116 272H1411ZM1298 0V53H1411V221H1044V272L1425 805H1483V272H1595V221H1483V53H1595V0H1298ZM319 -29L1249 1464H1343L414 -29H319ZM82 1212V1214Q82 1324 152 1388T340 1452Q449 1452 518 1393T588 1241Q588 1171 541 1120T414 1053Q495 1039 544 984T594 850Q594 753 518 685T334 616Q211 616 137 681T63 856V864H129Q132 778 185 726T326 674Q410 674 466 723T522 846Q522 926 463 975T305 1024Q303 1024 294 1023T279 1022V1075Q391 1077 453 1121T516 1241Q516 1312 467 1354T334 1397Q246 1397 198 1350T145 1212H82Z"  />
<glyph unicode="&#xBF;" horiz-adv-x="1042" d="M573 1503Q619 1503 649 1472T680 1395Q680 1349 650 1319T573 1288Q526 1288 496 1318T465 1395Q465 1441 496 1472T573 1503ZM629 1157V686Q622 686 611 687T594 688Q436 688 347 601T258 358Q258 235 338 154T541 72Q659 72 731 150T809 360H917Q913 189 807 82T537 -25Q360 -25 254 85T147 381Q147 547 248 657T518 782V1157H629Z"  />
<glyph unicode="&#xC0;" horiz-adv-x="1356" d="M-37 0V100H106L573 1374H424V1475H932V1374H782L1249 100H1393V0H961V100H1128L997 461H358L227 100H395V0H-37ZM397 559H958L678 1341L397 559ZM711 1614L442 1962H594L803 1614H711Z"  />
<glyph unicode="&#xC1;" horiz-adv-x="1356" d="M-37 0V100H106L573 1374H424V1475H932V1374H782L1249 100H1393V0H961V100H1128L997 461H358L227 100H395V0H-37ZM397 559H958L678 1341L397 559ZM645 1614H553L762 1962H914L645 1614Z"  />
<glyph unicode="&#xC2;" horiz-adv-x="1356" d="M-37 0V100H106L573 1374H424V1475H932V1374H782L1249 100H1393V0H961V100H1128L997 461H358L227 100H395V0H-37ZM397 559H958L678 1341L397 559ZM402 1614L602 1962H754L954 1614H862L678 1876L494 1614H402Z"  />
<glyph unicode="&#xC3;" horiz-adv-x="1356" d="M-37 0V100H106L573 1374H424V1475H932V1374H782L1249 100H1393V0H961V100H1128L997 461H358L227 100H395V0H-37ZM397 559H958L678 1341L397 559ZM967 1878Q941 1788 893 1742T776 1696Q762 1696 746 1698T711 1706L615 1737Q602 1741 589 1743T561 1745Q532 1745 509 1726T469 1671H389Q411 1759 461 1806T584 1853Q607 1853 618 1852T638 1847L734 1814Q746 1810 761 1807T789 1804Q821 1804 844 1821T885 1878H967Z"  />
<glyph unicode="&#xC4;" horiz-adv-x="1356" d="M-37 0V100H106L573 1374H424V1475H932V1374H782L1249 100H1393V0H961V100H1128L997 461H358L227 100H395V0H-37ZM397 559H958L678 1341L397 559ZM768 1692V1853H909V1692H768ZM447 1692V1853H588V1692H447Z"  />
<glyph unicode="&#xC5;" horiz-adv-x="1356" d="M-37 0V100H106L573 1374H424V1475H932V1374H782L1249 100H1393V0H961V100H1128L997 461H358L227 100H395V0H-37ZM397 559H958L678 1341L397 559ZM545 1751Q545 1696 584 1657T680 1618Q735 1618 774 1657T813 1751Q813 1807 774 1846T680 1886Q625 1886 585 1846T545 1751ZM459 1751Q459 1844 522 1908T678 1972Q770 1972 835 1908T901 1751Q901 1660 836 1596T678 1532Q586 1532 523 1595T459 1751Z"  />
<glyph unicode="&#xC6;" horiz-adv-x="1962" d="M1124 1374V831H1618V731H1124V100H1774V356H1892V0H838V100H1006V461H408L199 100H379V0H-53V100H76L823 1374H614V1475H1892V1112H1774V1374H1124ZM467 559H1006V1374H944L467 559Z"  />
<glyph unicode="&#xC7;" horiz-adv-x="1522" d="M1470 465Q1409 227 1243 99T827 -29Q683 -29 557 19T328 160Q203 273 140 419T76 737Q76 909 139 1056T328 1317Q429 1409 555 1456T827 1503Q1000 1503 1135 1435T1352 1239V1475H1454V1016H1362Q1311 1198 1170 1300T827 1403Q707 1403 593 1358T395 1233Q295 1136 246 1013T197 737Q197 442 379 257T850 72Q1047 72 1184 176T1366 465H1470ZM643 -418V-342Q720 -360 779 -368T881 -377Q945 -377 978 -354T1012 -287Q1012 -233 977 -208T866 -182Q848 -182 838 -182T820 -184L819 0H885V-111H899Q1007 -111 1064 -155T1122 -283Q1122 -368 1064 -413T897 -459Q842 -459 781 -449T643 -418Z"  />
<glyph unicode="&#xC8;" horiz-adv-x="1208" d="M59 0V100H229V1374H59V1475H1139V1112H1020V1374H348V831H864V731H348V100H1020V356H1139V0H59ZM686 1614L417 1962H569L778 1614H686Z"  />
<glyph unicode="&#xC9;" horiz-adv-x="1208" d="M59 0V100H229V1374H59V1475H1139V1112H1020V1374H348V831H864V731H348V100H1020V356H1139V0H59ZM620 1614H528L737 1962H889L620 1614Z"  />
<glyph unicode="&#xCA;" horiz-adv-x="1208" d="M59 0V100H229V1374H59V1475H1139V1112H1020V1374H348V831H864V731H348V100H1020V356H1139V0H59ZM377 1614L577 1962H729L929 1614H837L653 1876L469 1614H377Z"  />
<glyph unicode="&#xCB;" horiz-adv-x="1208" d="M59 0V100H229V1374H59V1475H1139V1112H1020V1374H348V831H864V731H348V100H1020V356H1139V0H59ZM743 1692V1853H884V1692H743ZM422 1692V1853H563V1692H422Z"  />
<glyph unicode="&#xCC;" horiz-adv-x="578" d="M41 0V100H229V1374H41V1475H539V1374H348V100H539V0H41ZM323 1614L54 1962H206L415 1614H323Z"  />
<glyph unicode="&#xCD;" horiz-adv-x="578" d="M41 0V100H229V1374H41V1475H539V1374H348V100H539V0H41ZM257 1614H165L374 1962H526L257 1614Z"  />
<glyph unicode="&#xCE;" horiz-adv-x="578" d="M41 0V100H229V1374H41V1475H539V1374H348V100H539V0H41ZM14 1614L214 1962H366L566 1614H474L290 1876L106 1614H14Z"  />
<glyph unicode="&#xCF;" horiz-adv-x="578" d="M41 0V100H229V1374H41V1475H539V1374H348V100H539V0H41ZM380 1692V1853H521V1692H380ZM59 1692V1853H200V1692H59Z"  />
<glyph unicode="&#xD0;" horiz-adv-x="1466" d="M528 0H70V100H240V731H31V825H240V1374H70V1475H528Q713 1475 825 1456T1010 1397Q1198 1290 1294 1123T1391 737Q1391 527 1290 357T1006 84Q929 41 812 21T528 0ZM528 100Q868 100 1069 275T1270 743Q1270 926 1190 1065T948 1298Q883 1336 778 1355T526 1374H358V823H780V731H358V100H528Z"  />
<glyph unicode="&#xD1;" horiz-adv-x="1470" d="M59 0V100H229V1374H59V1475H410L1120 195V1374H965V1475H1409V1374H1239V-29H1120L348 1346V100H506V0H59ZM1024 1878Q998 1788 950 1742T833 1696Q819 1696 803 1698T768 1706L672 1737Q659 1741 646 1743T618 1745Q589 1745 566 1726T526 1671H446Q468 1759 518 1806T641 1853Q664 1853 675 1852T695 1847L791 1814Q803 1810 818 1807T846 1804Q878 1804 901 1821T942 1878H1024Z"  />
<glyph unicode="&#xD2;" horiz-adv-x="1655" d="M197 737Q197 586 246 463T395 244Q477 164 591 119T827 74Q950 74 1064 118T1260 244Q1358 339 1408 463T1458 737Q1458 888 1408 1013T1260 1233Q1176 1314 1063 1358T827 1403Q706 1403 593 1359T395 1233Q295 1136 246 1013T197 737ZM76 737Q76 909 139 1056T328 1317Q429 1409 555 1456T827 1503Q974 1503 1099 1457T1327 1317Q1451 1202 1515 1055T1579 737Q1579 567 1515 420T1327 160Q1224 66 1099 19T827 -29Q683 -29 557 19T328 160Q204 273 140 419T76 737ZM860 1614L591 1962H743L952 1614H860Z"  />
<glyph unicode="&#xD3;" horiz-adv-x="1655" d="M197 737Q197 586 246 463T395 244Q477 164 591 119T827 74Q950 74 1064 118T1260 244Q1358 339 1408 463T1458 737Q1458 888 1408 1013T1260 1233Q1176 1314 1063 1358T827 1403Q706 1403 593 1359T395 1233Q295 1136 246 1013T197 737ZM76 737Q76 909 139 1056T328 1317Q429 1409 555 1456T827 1503Q974 1503 1099 1457T1327 1317Q1451 1202 1515 1055T1579 737Q1579 567 1515 420T1327 160Q1224 66 1099 19T827 -29Q683 -29 557 19T328 160Q204 273 140 419T76 737ZM794 1614H702L911 1962H1063L794 1614Z"  />
<glyph unicode="&#xD4;" horiz-adv-x="1655" d="M197 737Q197 586 246 463T395 244Q477 164 591 119T827 74Q950 74 1064 118T1260 244Q1358 339 1408 463T1458 737Q1458 888 1408 1013T1260 1233Q1176 1314 1063 1358T827 1403Q706 1403 593 1359T395 1233Q295 1136 246 1013T197 737ZM76 737Q76 909 139 1056T328 1317Q429 1409 555 1456T827 1503Q974 1503 1099 1457T1327 1317Q1451 1202 1515 1055T1579 737Q1579 567 1515 420T1327 160Q1224 66 1099 19T827 -29Q683 -29 557 19T328 160Q204 273 140 419T76 737ZM551 1614L751 1962H903L1103 1614H1011L827 1876L643 1614H551Z"  />
<glyph unicode="&#xD5;" horiz-adv-x="1655" d="M197 737Q197 586 246 463T395 244Q477 164 591 119T827 74Q950 74 1064 118T1260 244Q1358 339 1408 463T1458 737Q1458 888 1408 1013T1260 1233Q1176 1314 1063 1358T827 1403Q706 1403 593 1359T395 1233Q295 1136 246 1013T197 737ZM76 737Q76 909 139 1056T328 1317Q429 1409 555 1456T827 1503Q974 1503 1099 1457T1327 1317Q1451 1202 1515 1055T1579 737Q1579 567 1515 420T1327 160Q1224 66 1099 19T827 -29Q683 -29 557 19T328 160Q204 273 140 419T76 737ZM1116 1878Q1090 1788 1042 1742T925 1696Q911 1696 895 1698T860 1706L764 1737Q751 1741 738 1743T710 1745Q681 1745 658 1726T618 1671H538Q560 1759 610 1806T733 1853Q756 1853 767 1852T787 1847L883 1814Q895 1810 910 1807T938 1804Q970 1804 993 1821T1034 1878H1116Z"  />
<glyph unicode="&#xD6;" horiz-adv-x="1655" d="M197 737Q197 586 246 463T395 244Q477 164 591 119T827 74Q950 74 1064 118T1260 244Q1358 339 1408 463T1458 737Q1458 888 1408 1013T1260 1233Q1176 1314 1063 1358T827 1403Q706 1403 593 1359T395 1233Q295 1136 246 1013T197 737ZM76 737Q76 909 139 1056T328 1317Q429 1409 555 1456T827 1503Q974 1503 1099 1457T1327 1317Q1451 1202 1515 1055T1579 737Q1579 567 1515 420T1327 160Q1224 66 1099 19T827 -29Q683 -29 557 19T328 160Q204 273 140 419T76 737ZM917 1692V1853H1058V1692H917ZM596 1692V1853H737V1692H596Z"  />
<glyph unicode="&#xD7;" horiz-adv-x="1706" d="M854 668L1341 1155L1399 1098L911 610L1399 123L1341 66L854 553L367 66L309 123L797 610L309 1098L367 1155L854 668Z"  />
<glyph unicode="&#xD8;" horiz-adv-x="1655" d="M1192 1290Q1110 1348 1021 1375T827 1403Q707 1403 593 1358T395 1233Q295 1136 246 1013T197 737Q197 593 242 471T371 268L1192 1290ZM1260 1374L1407 1563H1526L1329 1315Q1454 1196 1516 1052T1579 737Q1579 567 1515 420T1327 160Q1224 66 1099 19T827 -29Q699 -29 588 7T371 121L201 -92H82L301 182Q195 281 136 427T76 737Q76 909 139 1056T328 1317Q429 1409 555 1456T827 1503Q947 1503 1055 1471T1260 1374ZM440 207Q526 141 624 108T827 74Q950 74 1064 118T1260 244Q1358 339 1408 463T1458 737Q1458 885 1410 1008T1266 1229L440 207Z"  />
<glyph unicode="&#xD9;" horiz-adv-x="1442" d="M500 1475V1374H328V537Q328 382 348 309T416 184Q468 129 542 103T719 76Q822 76 898 103T1026 184Q1074 235 1094 308T1114 537V1374H942V1475H1403V1374H1231V483Q1231 228 1103 100T721 -29Q466 -29 338 99T209 483V1374H39V1475H500ZM754 1614L485 1962H637L846 1614H754Z"  />
<glyph unicode="&#xDA;" horiz-adv-x="1442" d="M500 1475V1374H328V537Q328 382 348 309T416 184Q468 129 542 103T719 76Q822 76 898 103T1026 184Q1074 235 1094 308T1114 537V1374H942V1475H1403V1374H1231V483Q1231 228 1103 100T721 -29Q466 -29 338 99T209 483V1374H39V1475H500ZM688 1614H596L805 1962H957L688 1614Z"  />
<glyph unicode="&#xDB;" horiz-adv-x="1442" d="M500 1475V1374H328V537Q328 382 348 309T416 184Q468 129 542 103T719 76Q822 76 898 103T1026 184Q1074 235 1094 308T1114 537V1374H942V1475H1403V1374H1231V483Q1231 228 1103 100T721 -29Q466 -29 338 99T209 483V1374H39V1475H500ZM445 1614L645 1962H797L997 1614H905L721 1876L537 1614H445Z"  />
<glyph unicode="&#xDC;" horiz-adv-x="1442" d="M500 1475V1374H328V537Q328 382 348 309T416 184Q468 129 542 103T719 76Q822 76 898 103T1026 184Q1074 235 1094 308T1114 537V1374H942V1475H1403V1374H1231V483Q1231 228 1103 100T721 -29Q466 -29 338 99T209 483V1374H39V1475H500ZM811 1692V1853H952V1692H811ZM490 1692V1853H631V1692H490Z"  />
<glyph unicode="&#xDD;" horiz-adv-x="1251" d="M565 100V651L139 1374H-8V1475H453V1374H258L623 741L985 1374H799V1475H1260V1374H1114L684 639V100H874V0H377V100H565ZM594 1614H502L711 1962H863L594 1614Z"  />
<glyph unicode="&#xDE;" horiz-adv-x="1188" d="M596 1085H348V383H596Q828 383 939 469T1051 735Q1051 914 940 999T596 1085ZM41 0V100H229V1374H41V1475H539V1374H348V1186H604Q882 1186 1026 1072T1171 737Q1171 514 1029 402T604 289H348V100H539V0H41Z"  />
<glyph unicode="&#xDF;" horiz-adv-x="1110" d="M55 0V94H199V1032Q199 1261 297 1376T592 1491Q754 1491 856 1392T958 1139Q958 1017 901 934T739 821Q883 790 961 677T1040 387Q1040 209 947 95T713 -20Q667 -20 623 -5T535 41L586 123Q616 100 648 89T715 78Q816 78 875 163T934 395Q934 570 838 668T569 766Q563 766 550 765T528 764L529 852Q684 857 768 931T852 1137Q852 1257 779 1332T590 1407Q442 1407 372 1316T301 1034V94H442V0H55Z"  />
<glyph unicode="&#xE0;" horiz-adv-x="1225" d="M164 465Q164 302 273 189T537 76Q690 76 800 190T911 465Q911 631 801 743T528 856Q368 856 266 747T164 465ZM1018 94H1169V0H913V197Q840 85 744 31T522 -23Q427 -23 342 13T193 117Q127 186 91 276T55 463Q55 677 184 812T516 948Q639 948 736 900T913 750V924H1169V829H1018V94ZM586 1059L317 1407H469L678 1059H586Z"  />
<glyph unicode="&#xE1;" horiz-adv-x="1225" d="M164 465Q164 302 273 189T537 76Q690 76 800 190T911 465Q911 631 801 743T528 856Q368 856 266 747T164 465ZM1018 94H1169V0H913V197Q840 85 744 31T522 -23Q427 -23 342 13T193 117Q127 186 91 276T55 463Q55 677 184 812T516 948Q639 948 736 900T913 750V924H1169V829H1018V94ZM520 1059H428L637 1407H789L520 1059Z"  />
<glyph unicode="&#xE2;" horiz-adv-x="1225" d="M164 465Q164 302 273 189T537 76Q690 76 800 190T911 465Q911 631 801 743T528 856Q368 856 266 747T164 465ZM1018 94H1169V0H913V197Q840 85 744 31T522 -23Q427 -23 342 13T193 117Q127 186 91 276T55 463Q55 677 184 812T516 948Q639 948 736 900T913 750V924H1169V829H1018V94ZM277 1059L477 1407H629L829 1059H737L553 1321L369 1059H277Z"  />
<glyph unicode="&#xE3;" horiz-adv-x="1225" d="M164 465Q164 302 273 189T537 76Q690 76 800 190T911 465Q911 631 801 743T528 856Q368 856 266 747T164 465ZM1018 94H1169V0H913V197Q840 85 744 31T522 -23Q427 -23 342 13T193 117Q127 186 91 276T55 463Q55 677 184 812T516 948Q639 948 736 900T913 750V924H1169V829H1018V94ZM842 1323Q816 1233 768 1187T651 1141Q637 1141 621 1143T586 1151L490 1182Q477 1186 464 1188T436 1190Q407 1190 384 1171T344 1116H264Q286 1204 336 1251T459 1298Q482 1298 493 1297T513 1292L609 1259Q621 1255 636 1252T664 1249Q696 1249 719 1266T760 1323H842Z"  />
<glyph unicode="&#xE4;" horiz-adv-x="1225" d="M164 465Q164 302 273 189T537 76Q690 76 800 190T911 465Q911 631 801 743T528 856Q368 856 266 747T164 465ZM1018 94H1169V0H913V197Q840 85 744 31T522 -23Q427 -23 342 13T193 117Q127 186 91 276T55 463Q55 677 184 812T516 948Q639 948 736 900T913 750V924H1169V829H1018V94ZM643 1137V1298H784V1137H643ZM322 1137V1298H463V1137H322Z"  />
<glyph unicode="&#xE5;" horiz-adv-x="1225" d="M164 465Q164 302 273 189T537 76Q690 76 800 190T911 465Q911 631 801 743T528 856Q368 856 266 747T164 465ZM1018 94H1169V0H913V197Q840 85 744 31T522 -23Q427 -23 342 13T193 117Q127 186 91 276T55 463Q55 677 184 812T516 948Q639 948 736 900T913 750V924H1169V829H1018V94ZM432 1225Q432 1169 471 1131T565 1092Q621 1092 659 1130T698 1225Q698 1280 659 1320T565 1360Q510 1360 471 1320T432 1225ZM344 1225Q344 1317 408 1381T565 1446Q657 1446 721 1382T786 1225Q786 1133 722 1070T565 1006Q473 1006 409 1069T344 1225Z"  />
<glyph unicode="&#xE6;" horiz-adv-x="1804" d="M889 518H1630Q1605 673 1511 764T1282 856Q1125 856 1019 765T889 518ZM788 313Q788 426 704 493T477 561Q319 561 232 496T145 313Q145 198 230 132T463 66Q614 66 701 132T788 313ZM860 729Q941 840 1045 894T1282 948Q1481 948 1609 805T1738 432H887Q896 272 1007 170T1282 68Q1372 68 1451 120T1585 268H1702Q1628 126 1517 51T1268 -25Q1147 -25 1043 29T858 186Q795 77 698 26T455 -25Q272 -25 159 66T45 303Q45 456 157 552T449 649Q554 649 638 619T788 529Q789 535 790 544T791 569Q791 709 705 782T455 856Q380 856 318 847T195 819L178 905Q237 927 300 937T444 948Q609 948 714 893T860 729Z"  />
<glyph unicode="&#xE7;" horiz-adv-x="1090" d="M958 182Q873 80 770 28T551 -25Q334 -25 201 109T68 463Q68 567 103 656T205 811Q271 876 360 912T543 948Q643 948 723 915T862 815L860 924H954V614H860Q828 729 744 792T543 856Q381 856 278 746T174 463Q174 292 281 181T551 70Q645 70 731 114T893 246L958 182ZM336 -418V-342Q413 -360 472 -368T574 -377Q638 -377 671 -354T705 -287Q705 -233 670 -208T559 -182Q541 -182 531 -182T513 -184L512 0H578V-111H592Q700 -111 757 -155T815 -283Q815 -368 757 -413T590 -459Q535 -459 474 -449T336 -418Z"  />
<glyph unicode="&#xE8;" horiz-adv-x="1143" d="M967 518Q942 678 838 767T571 856Q417 856 309 764T176 518H967ZM177 432Q186 271 297 170T571 68Q687 68 778 120T922 268H1038Q964 123 847 49T571 -25Q354 -25 210 114T66 461Q66 669 210 808T571 948Q802 948 938 809T1075 432H177ZM604 1059L335 1407H487L696 1059H604Z"  />
<glyph unicode="&#xE9;" horiz-adv-x="1143" d="M967 518Q942 678 838 767T571 856Q417 856 309 764T176 518H967ZM177 432Q186 271 297 170T571 68Q687 68 778 120T922 268H1038Q964 123 847 49T571 -25Q354 -25 210 114T66 461Q66 669 210 808T571 948Q802 948 938 809T1075 432H177ZM538 1059H446L655 1407H807L538 1059Z"  />
<glyph unicode="&#xEA;" horiz-adv-x="1143" d="M967 518Q942 678 838 767T571 856Q417 856 309 764T176 518H967ZM177 432Q186 271 297 170T571 68Q687 68 778 120T922 268H1038Q964 123 847 49T571 -25Q354 -25 210 114T66 461Q66 669 210 808T571 948Q802 948 938 809T1075 432H177ZM295 1059L495 1407H647L847 1059H755L571 1321L387 1059H295Z"  />
<glyph unicode="&#xEB;" horiz-adv-x="1143" d="M967 518Q942 678 838 767T571 856Q417 856 309 764T176 518H967ZM177 432Q186 271 297 170T571 68Q687 68 778 120T922 268H1038Q964 123 847 49T571 -25Q354 -25 210 114T66 461Q66 669 210 808T571 948Q802 948 938 809T1075 432H177ZM661 1137V1298H802V1137H661ZM340 1137V1298H481V1137H340Z"  />
<glyph unicode="&#xEC;" horiz-adv-x="512" d="M33 0V94H207V829H43V924H311V94H467V0H33ZM237 1059L-32 1407H120L329 1059H237Z"  />
<glyph unicode="&#xED;" horiz-adv-x="512" d="M33 0V94H207V829H43V924H311V94H467V0H33ZM171 1059H79L288 1407H440L171 1059Z"  />
<glyph unicode="&#xEE;" horiz-adv-x="512" d="M33 0V94H207V829H43V924H311V94H467V0H33ZM-72 1059L128 1407H280L480 1059H388L204 1321L20 1059H-72Z"  />
<glyph unicode="&#xEF;" horiz-adv-x="512" d="M33 0V94H207V829H43V924H311V94H467V0H33ZM294 1137V1298H435V1137H294ZM-27 1137V1298H114V1137H-27Z"  />
<glyph unicode="&#xF0;" horiz-adv-x="1143" d="M582 1165L274 1067L246 1145L528 1235L367 1475H471L625 1264L831 1327L862 1253L674 1196L913 864Q1001 743 1038 649T1075 457Q1075 252 931 114T571 -25Q354 -25 210 114T66 461Q66 669 210 808T571 948Q618 948 663 941T756 918L582 1165ZM174 463Q174 292 287 180T571 68Q743 68 857 180T971 463Q971 633 857 744T571 856Q401 856 288 745T174 463Z"  />
<glyph unicode="&#xF1;" horiz-adv-x="1171" d="M55 0V94H207V829H55V924H311V750Q399 849 494 898T696 948Q845 948 910 872T975 616V94H1126V0H721V94H870V616Q870 742 825 798T678 854Q584 854 491 796T311 623V94H465V0H55ZM875 1323Q849 1233 801 1187T684 1141Q670 1141 654 1143T619 1151L523 1182Q510 1186 497 1188T469 1190Q440 1190 417 1171T377 1116H297Q319 1204 369 1251T492 1298Q515 1298 526 1297T546 1292L642 1259Q654 1255 669 1252T697 1249Q729 1249 752 1266T793 1323H875Z"  />
<glyph unicode="&#xF2;" horiz-adv-x="1143" d="M571 68Q742 68 856 180T971 463Q971 633 858 744T571 856Q399 856 287 745T174 463Q174 292 287 180T571 68ZM571 -25Q354 -25 210 114T66 461Q66 669 210 808T571 948Q788 948 931 809T1075 461Q1075 253 932 114T571 -25ZM604 1059L335 1407H487L696 1059H604Z"  />
<glyph unicode="&#xF3;" horiz-adv-x="1143" d="M571 68Q742 68 856 180T971 463Q971 633 858 744T571 856Q399 856 287 745T174 463Q174 292 287 180T571 68ZM571 -25Q354 -25 210 114T66 461Q66 669 210 808T571 948Q788 948 931 809T1075 461Q1075 253 932 114T571 -25ZM538 1059H446L655 1407H807L538 1059Z"  />
<glyph unicode="&#xF4;" horiz-adv-x="1143" d="M571 68Q742 68 856 180T971 463Q971 633 858 744T571 856Q399 856 287 745T174 463Q174 292 287 180T571 68ZM571 -25Q354 -25 210 114T66 461Q66 669 210 808T571 948Q788 948 931 809T1075 461Q1075 253 932 114T571 -25ZM295 1059L495 1407H647L847 1059H755L571 1321L387 1059H295Z"  />
<glyph unicode="&#xF5;" horiz-adv-x="1143" d="M571 68Q742 68 856 180T971 463Q971 633 858 744T571 856Q399 856 287 745T174 463Q174 292 287 180T571 68ZM571 -25Q354 -25 210 114T66 461Q66 669 210 808T571 948Q788 948 931 809T1075 461Q1075 253 932 114T571 -25ZM860 1323Q834 1233 786 1187T669 1141Q655 1141 639 1143T604 1151L508 1182Q495 1186 482 1188T454 1190Q425 1190 402 1171T362 1116H282Q304 1204 354 1251T477 1298Q500 1298 511 1297T531 1292L627 1259Q639 1255 654 1252T682 1249Q714 1249 737 1266T778 1323H860Z"  />
<glyph unicode="&#xF6;" horiz-adv-x="1143" d="M571 68Q742 68 856 180T971 463Q971 633 858 744T571 856Q399 856 287 745T174 463Q174 292 287 180T571 68ZM571 -25Q354 -25 210 114T66 461Q66 669 210 808T571 948Q788 948 931 809T1075 461Q1075 253 932 114T571 -25ZM661 1137V1298H802V1137H661ZM340 1137V1298H481V1137H340Z"  />
<glyph unicode="&#xF7;" horiz-adv-x="1706" d="M854 365Q895 365 923 336T952 264Q952 224 924 195T854 166Q813 166 785 194T756 264Q756 305 785 335T854 365ZM1452 651V569H254V651H1452ZM854 1055Q895 1055 923 1027T952 956Q952 916 924 886T854 856Q813 856 785 885T756 956Q756 997 784 1026T854 1055Z"  />
<glyph unicode="&#xF8;" horiz-adv-x="1143" d="M780 801Q739 829 691 842T584 856Q403 856 289 747T174 463Q174 380 201 310T283 182L780 801ZM354 127Q409 97 463 83T571 68Q742 68 856 180T971 463Q971 548 941 620T852 752L354 127ZM838 881L940 1008H1051L909 827Q991 757 1033 664T1075 461Q1075 253 932 114T571 -25Q493 -25 421 -6T289 51L172 -94H61L219 104Q143 183 105 272T66 461Q66 669 210 808T571 948Q645 948 711 932T838 881Z"  />
<glyph unicode="&#xF9;" horiz-adv-x="1161" d="M958 924V94H1110V0H854V176Q766 75 670 25T469 -25Q321 -25 256 52T190 307V829H39V924H295V307Q295 182 340 126T487 70Q582 70 674 128T854 301V829H700V924H958ZM574 1059L305 1407H457L666 1059H574Z"  />
<glyph unicode="&#xFA;" horiz-adv-x="1161" d="M958 924V94H1110V0H854V176Q766 75 670 25T469 -25Q321 -25 256 52T190 307V829H39V924H295V307Q295 182 340 126T487 70Q582 70 674 128T854 301V829H700V924H958ZM508 1059H416L625 1407H777L508 1059Z"  />
<glyph unicode="&#xFB;" horiz-adv-x="1161" d="M958 924V94H1110V0H854V176Q766 75 670 25T469 -25Q321 -25 256 52T190 307V829H39V924H295V307Q295 182 340 126T487 70Q582 70 674 128T854 301V829H700V924H958ZM265 1059L465 1407H617L817 1059H725L541 1321L357 1059H265Z"  />
<glyph unicode="&#xFC;" horiz-adv-x="1161" d="M958 924V94H1110V0H854V176Q766 75 670 25T469 -25Q321 -25 256 52T190 307V829H39V924H295V307Q295 182 340 126T487 70Q582 70 674 128T854 301V829H700V924H958ZM631 1137V1298H772V1137H631ZM310 1137V1298H451V1137H310Z"  />
<glyph unicode="&#xFD;" horiz-adv-x="981" d="M770 829H625V924H995V829H877L354 -332H510V-426H96V-332H248L432 82L92 829H-23V924H338V829H203L483 186L770 829ZM460 1059H368L577 1407H729L460 1059Z"  />
<glyph unicode="&#xFE;" horiz-adv-x="1241" d="M686 856Q531 856 422 743T313 465Q313 301 424 188T694 74Q849 74 955 187T1061 465Q1061 641 958 748T686 856ZM309 -332H469V-426H55V-332H205V1380H55V1475H309V750Q389 851 487 899T709 948Q910 948 1039 812T1169 463Q1169 366 1134 276T1032 117Q968 50 882 14T700 -23Q574 -23 479 31T309 197V-332Z"  />
<glyph unicode="&#xFF;" horiz-adv-x="981" d="M770 829H625V924H995V829H877L354 -332H510V-426H96V-332H248L432 82L92 829H-23V924H338V829H203L483 186L770 829ZM583 1137V1298H724V1137H583ZM262 1137V1298H403V1137H262Z"  />
<glyph unicode="&#x131;" horiz-adv-x="512" d="M33 0V94H207V829H43V924H311V94H467V0H33Z"  />
<glyph unicode="&#x152;" horiz-adv-x="2150" d="M1083 238V1243Q1083 1321 1047 1348T893 1376Q554 1376 376 1212T197 735Q197 431 377 267T893 102Q1008 102 1045 130T1083 238ZM1968 0H891Q504 0 290 194T76 735Q76 1085 290 1280T891 1475H1968V1112H1849V1374H1202V831H1696V731H1202V100H1849V356H1968V0Z"  />
<glyph unicode="&#x153;" horiz-adv-x="1991" d="M1024 690Q1101 820 1211 884T1466 948Q1665 948 1793 804T1923 433L1071 432Q1081 271 1192 170T1466 68Q1557 68 1637 120T1772 268H1886Q1811 124 1699 50T1446 -25Q1315 -25 1205 37T1014 221Q937 99 826 37T571 -25Q354 -25 210 114T66 461Q66 669 210 808T571 948Q718 948 831 884T1024 690ZM1075 518H1815Q1789 673 1695 764T1466 856Q1310 856 1205 766T1075 518ZM571 68Q742 68 856 180T971 463Q971 633 858 744T571 856Q399 856 287 745T174 463Q174 292 287 180T571 68Z"  />
<glyph unicode="&#x160;" horiz-adv-x="1356" d="M193 -4V487H291Q318 293 447 181T770 68Q926 68 1023 149T1120 362Q1120 470 1051 537T825 645L633 696Q416 755 306 860T195 1114Q195 1280 321 1389T641 1499Q773 1499 882 1442T1053 1282L1047 1470H1145V1077H1053Q1013 1230 902 1314T631 1399Q491 1399 398 1323T305 1133Q305 1015 391 937T653 813L881 754Q1055 709 1143 614T1231 373Q1231 192 1099 80T752 -33Q609 -33 488 34T285 227L291 -4H193ZM402 1962H494L678 1700L862 1962H954L754 1614H602L402 1962Z"  />
<glyph unicode="&#x161;" horiz-adv-x="985" d="M225 0H129V328H225Q253 210 339 144T553 78Q652 78 717 127T782 252Q782 323 732 364T561 430L440 455Q261 492 194 546T127 698Q127 811 217 880T455 950Q555 950 628 918T741 821L739 924H834V655H739Q719 754 643 809T451 864Q351 864 291 822T231 709Q231 644 276 610T455 551L584 526Q735 497 811 430T887 258Q887 137 795 63T553 -12Q454 -12 372 22T223 123L225 0ZM219 1407H311L495 1145L679 1407H771L571 1059H419L219 1407Z"  />
<glyph unicode="&#x178;" horiz-adv-x="1251" d="M565 100V651L139 1374H-8V1475H453V1374H258L623 741L985 1374H799V1475H1260V1374H1114L684 639V100H874V0H377V100H565ZM717 1692V1853H858V1692H717ZM396 1692V1853H537V1692H396Z"  />
<glyph unicode="&#x17D;" horiz-adv-x="1327" d="M166 0V100L1020 1374H276V1087H166V1475H1151V1374L297 100H1040V389H1151V0H166ZM388 1962H480L664 1700L848 1962H940L740 1614H588L388 1962Z"  />
<glyph unicode="&#x17E;" horiz-adv-x="973" d="M90 0V94L713 829H203V672H106V924H852V852L211 94H766V266H860V0H90ZM212 1407H304L488 1145L672 1407H764L564 1059H412L212 1407Z"  />
<glyph unicode="&#x192;" horiz-adv-x="1049" d="M46 -273Q73 -281 93 -285T129 -289Q217 -289 266 -241T342 -80Q366 14 418 388L422 416L475 786H233V881H489L520 1061Q556 1265 639 1364T858 1464Q881 1464 908 1461T975 1448L958 1350Q930 1358 906 1362T860 1366Q764 1366 709 1292T629 1051L602 881H829V786H588L549 494Q509 193 487 70T438 -131Q395 -261 320 -327T137 -393Q105 -393 78 -389T25 -377L46 -273Z"  />
<glyph unicode="&#x2C6;" horiz-adv-x="1024" d="M236 1059L436 1407H588L788 1059H696L512 1321L328 1059H236Z"  />
<glyph unicode="&#x2C7;" horiz-adv-x="1024" d="M236 1407H328L512 1145L696 1407H788L588 1059H436L236 1407Z"  />
<glyph unicode="&#x2DC;" horiz-adv-x="1024" d="M801 1323Q775 1233 727 1187T610 1141Q596 1141 580 1143T545 1151L449 1182Q436 1186 423 1188T395 1190Q366 1190 343 1171T303 1116H223Q245 1204 295 1251T418 1298Q441 1298 452 1297T472 1292L568 1259Q580 1255 595 1252T623 1249Q655 1249 678 1266T719 1323H801Z"  />
<glyph unicode="&#x2013;" horiz-adv-x="1024" d="M0 436V508H1024V436H0Z"  />
<glyph unicode="&#x2014;" horiz-adv-x="2048" d="M0 508H2048V436H0V508Z"  />
<glyph unicode="&#x2018;" horiz-adv-x="514" d="M254 1069H139L262 1475H377L254 1069Z"  />
<glyph unicode="&#x2019;" horiz-adv-x="514" d="M254 1069H139L262 1475H377L254 1069Z"  />
<glyph unicode="&#x201A;" horiz-adv-x="514" d="M254 -188H139L262 217H377L254 -188Z"  />
<glyph unicode="&#x201C;" horiz-adv-x="907" d="M254 1069H139L262 1475H377L254 1069ZM647 1069H532L655 1475H772L647 1069Z"  />
<glyph unicode="&#x201D;" horiz-adv-x="907" d="M254 1069H139L262 1475H377L254 1069ZM647 1069H532L655 1475H772L647 1069Z"  />
<glyph unicode="&#x201E;" horiz-adv-x="907" d="M647 -188H532L655 217H772L647 -188ZM254 -188H139L262 217H377L254 -188Z"  />
<glyph unicode="&#x2020;" horiz-adv-x="1024" d="M459 -240V829H168V743H76V1014H168V928H459V1382H373V1475H651V1382H565V928H854V1014H948V743H854V829H565V-240H459Z"  />
<glyph unicode="&#x2021;" horiz-adv-x="1024" d="M565 301H854V387H948V117H854V203H565V-147H651V-240H373V-147H459V203H168V117H76V387H168V301H459V932H168V846H76V1116H168V1032H459V1382H373V1475H651V1382H565V1032H854V1116H948V846H854V932H565V301Z"  />
<glyph unicode="&#x2022;" horiz-adv-x="1208" d="M307 762Q307 885 394 971T604 1057Q726 1057 812 971T899 762Q899 640 812 553T602 465Q479 465 393 552T307 762Z"  />
<glyph unicode="&#x2026;" horiz-adv-x="2048" d="M342 -25Q296 -25 265 5T234 82Q234 128 265 159T342 190Q389 190 420 160T451 82Q451 36 420 6T342 -25ZM1024 -25Q978 -25 947 5T916 82Q916 128 947 159T1024 190Q1071 190 1102 160T1133 82Q1133 36 1102 6T1024 -25ZM1708 -25Q1662 -25 1631 5T1600 82Q1600 128 1631 159T1708 190Q1755 190 1786 160T1817 82Q1817 36 1786 6T1708 -25Z"  />
<glyph unicode="&#x2030;" horiz-adv-x="2499" d="M2095 98Q2193 98 2260 165T2327 332Q2327 432 2261 498T2095 565Q1997 565 1931 498T1864 332Q1864 233 1930 166T2095 98ZM2427 332Q2427 192 2331 96T2095 0Q1955 0 1859 95T1763 332Q1763 472 1859 568T2095 664Q2235 664 2331 568T2427 332ZM1266 1464H1366L408 -29H309L1266 1464ZM403 870Q501 870 568 937T635 1104Q635 1204 569 1270T403 1337Q306 1337 239 1270T172 1104Q172 1005 239 938T403 870ZM735 1104Q735 964 639 868T403 772Q263 772 168 867T72 1104Q72 1245 167 1340T403 1436Q543 1436 639 1340T735 1104ZM1268 98Q1365 98 1432 165T1499 332Q1499 432 1433 498T1268 565Q1170 565 1103 498T1036 332Q1036 233 1103 166T1268 98ZM1599 332Q1599 192 1503 96T1268 0Q1127 0 1032 95T936 332Q936 472 1031 568T1268 664Q1407 664 1503 568T1599 332Z"  />
<glyph unicode="&#x2039;" horiz-adv-x="635" d="M389 150L131 461L389 774H524L266 461L524 150H389Z"  />
<glyph unicode="&#x203A;" horiz-adv-x="635" d="M246 150H113L369 461L113 774H246L504 461L246 150Z"  />
<glyph unicode="&#x2122;" horiz-adv-x="1706" d="M926 1454L1100 1014L1262 1454H1364V924H1305V1403L1124 924H1075L885 1403V924H825V1454H926ZM694 1454V1403H520V924H453V1403H274V1454H694Z"  />

</font>
</defs>
</svg>
